<svg width="928" height="210" viewBox="0 0 928 210" fill="none" xmlns="http://www.w3.org/2000/svg">
<path d="M161.12 137.04C160.744 141.176 160.18 143.683 159.428 144.56C158.676 145.437 157.611 145.751 156.232 145.5C153.224 144.999 151.344 143.307 150.592 140.424C150.216 139.672 150.091 138.669 150.216 137.416C150.341 136.288 150.529 135.16 150.78 134.032C151.281 130.397 152.221 125.697 153.6 119.932C155.104 114.041 156.671 108.025 158.3 101.884C159.929 95.6173 161.496 89.7267 163 84.212C164.629 78.572 165.945 74.248 166.948 71.24C169.58 63.72 172.024 56.5133 174.28 49.62C176.661 42.7267 178.792 35.52 180.672 28C178.541 29.3787 176.473 30.82 174.468 32.324C172.463 33.828 170.395 35.3947 168.264 37.024C158.488 45.1707 149.088 53.6307 140.064 62.404C131.165 71.1773 122.392 80.3893 113.744 90.04C111.363 92.672 108.856 95.4293 106.224 98.312C103.717 101.069 101.273 104.015 98.892 107.148C98.0147 108.276 97.1373 109.467 96.26 110.72C95.508 111.848 94.568 112.6 93.44 112.976C92.8133 113.227 91.9987 113.352 90.996 113.352C89.9933 113.227 88.9907 113.101 87.988 112.976C86.9853 112.725 86.108 112.412 85.356 112.036C84.604 111.66 84.1653 111.221 84.04 110.72C83.7893 110.469 83.7267 109.968 83.852 109.216C83.9773 108.339 84.04 107.587 84.04 106.96C84.04 105.205 84.1653 103.388 84.416 101.508C84.792 99.628 85.168 97.8107 85.544 96.056C85.92 94.3013 86.296 92.6093 86.672 90.98C87.048 89.2253 87.4867 87.596 87.988 86.092C88.9907 82.708 89.9307 79.3867 90.808 76.128C91.8107 72.8693 92.7507 69.6733 93.628 66.54C95.6333 59.772 97.576 53.2547 99.456 46.988C101.336 40.596 102.965 33.9533 104.344 27.06C98.2027 33.5773 92.124 40.2827 86.108 47.176C80.2173 53.944 74.452 61.088 68.812 68.608C65.1773 73.3707 61.5427 78.2587 57.908 83.272C54.2733 88.16 50.8267 93.236 47.568 98.5C44.3093 103.889 41.0507 109.216 37.792 114.48C34.5333 119.619 31.4 125.008 28.392 130.648C26.7627 133.781 25.5093 136.789 24.632 139.672C24.1307 141.176 23.7547 142.805 23.504 144.56C23.2533 146.44 22.752 148.195 22 149.824C20.3707 152.456 17.9893 154.023 14.856 154.524C13.4773 154.775 11.9733 154.712 10.344 154.336C8.71467 153.96 7.21067 153.396 5.832 152.644C4.45333 151.892 3.32533 150.952 2.448 149.824C1.57067 148.696 1.132 147.443 1.132 146.064C1.00667 144.56 1.63333 142.931 3.012 141.176C4.26533 139.547 5.39333 138.043 6.396 136.664C11.1587 128.893 15.8587 121.248 20.496 113.728C25.008 106.083 29.8333 98.688 34.972 91.544C44.9987 77.7573 55.088 64.4093 65.24 51.5C75.392 38.4653 86.6093 26.2453 98.892 14.84C99.5187 14.2133 100.145 13.6493 100.772 13.148C101.399 12.5213 102.025 11.8947 102.652 11.268C103.153 10.6413 103.592 10.0147 103.968 9.38799C104.344 8.636 104.845 8.13466 105.472 7.88399C106.099 7.50799 106.851 7.132 107.728 6.75599C108.605 6.37999 109.545 6.31732 110.548 6.568C111.425 6.69333 112.24 6.94399 112.992 7.32C113.869 7.69599 114.747 8.00933 115.624 8.26C117.629 9.13733 119.572 10.328 121.452 11.832C123.332 13.336 124.272 15.5293 124.272 18.412C124.147 19.7907 123.771 21.3573 123.144 23.112C122.643 24.7413 122.204 26.2453 121.828 27.624C120.449 32.3867 118.945 36.836 117.316 40.972C115.687 44.9827 114.057 49.1813 112.428 53.568C110.297 59.7093 108.355 65.7253 106.6 71.616C104.971 77.5067 103.153 83.3973 101.148 89.288C103.028 87.9093 104.72 86.4053 106.224 84.776C107.853 83.0213 109.483 81.392 111.112 79.888C119.133 71.4907 127.343 63.2813 135.74 55.26C144.263 47.1133 153.036 39.28 162.06 31.76C163.815 30.256 165.569 28.8147 167.324 27.436C169.204 25.932 171.147 24.4907 173.152 23.112C174.907 21.7333 176.787 20.4173 178.792 19.164C180.797 17.9107 182.677 16.4693 184.432 14.84C185.435 14.7147 186.437 14.5893 187.44 14.464C188.568 14.2133 189.633 14.276 190.636 14.652C191.263 14.7773 192.203 15.4667 193.456 16.72C194.709 17.9733 195.461 18.9133 195.712 19.54C195.837 20.5427 195.649 21.608 195.148 22.736C194.772 23.864 194.459 24.9293 194.208 25.932C193.331 28.8147 192.328 31.6973 191.2 34.58C190.197 37.3373 189.195 40.1573 188.192 43.04C186.939 47.0507 185.685 50.9987 184.432 54.884C183.304 58.644 182.051 62.3413 180.672 65.976C179.293 69.9867 177.664 75.188 175.784 81.58C173.904 87.8467 172.024 94.4267 170.144 101.32C168.264 108.088 166.447 114.731 164.692 121.248C163.063 127.64 161.872 132.904 161.12 137.04ZM247.98 99.628C251.615 98.2493 253.746 97.8733 254.372 98.5C255.124 99.0013 254.811 99.816 253.432 100.944C253.056 101.32 252.555 101.571 251.928 101.696C251.427 101.821 250.988 102.385 250.612 103.388C248.732 105.017 247.416 106.083 246.664 106.584C245.912 106.96 245.411 107.085 245.16 106.96C243.155 107.837 241.338 108.965 239.708 110.344C238.079 111.723 236.387 112.976 234.632 114.104C233.003 115.232 231.186 116.109 229.18 116.736C227.3 117.363 225.044 117.363 222.412 116.736C222.162 116.736 221.848 116.673 221.472 116.548C221.222 116.297 220.908 116.109 220.532 115.984C219.404 115.483 218.59 114.919 218.088 114.292C217.712 113.54 217.336 112.725 216.96 111.848C216.71 110.845 216.522 109.655 216.396 108.276C216.396 106.772 216.522 105.268 216.772 103.764C216.522 103.639 216.334 103.701 216.208 103.952C216.208 104.077 216.146 104.14 216.02 104.14C215.77 104.265 215.519 104.453 215.268 104.704C215.018 104.829 214.704 105.017 214.328 105.268C213.702 106.02 213.075 106.709 212.448 107.336C211.947 107.963 211.258 108.464 210.38 108.84C210.13 109.341 209.754 109.717 209.252 109.968C208.876 110.219 208.563 110.469 208.312 110.72C208.187 110.72 208.124 110.845 208.124 111.096C208.25 111.221 208.25 111.284 208.124 111.284C207.874 111.409 207.498 111.597 206.996 111.848C206.495 111.973 206.119 112.224 205.868 112.6C202.986 114.605 199.915 116.297 196.656 117.676C195.779 118.303 194.839 118.867 193.836 119.368C192.959 119.744 192.082 119.869 191.204 119.744C190.578 119.744 190.014 119.744 189.512 119.744C189.136 119.744 188.635 119.619 188.008 119.368C187.006 119.243 186.003 119.18 185 119.18C183.998 119.055 183.183 118.616 182.556 117.864C181.178 116.987 180.802 115.357 181.428 112.976C181.428 112.851 181.491 112.788 181.616 112.788C181.742 112.788 181.804 112.663 181.804 112.412C181.93 111.033 182.368 109.78 183.12 108.652C183.747 107.399 184.436 106.271 185.188 105.268C186.191 103.513 187.319 101.884 188.572 100.38C189.826 98.876 191.016 97.3093 192.144 95.68C193.147 94.8027 194.714 93.3613 196.844 91.356C198.975 89.3507 201.231 87.3453 203.612 85.34C205.994 83.2093 208.187 81.392 210.192 79.888C212.198 78.2587 213.576 77.3813 214.328 77.256C215.707 76.6293 216.772 75.8773 217.524 75C218.402 73.9973 219.718 73.2453 221.472 72.744C221.598 72.744 221.66 72.744 221.66 72.744C221.66 72.6187 221.723 72.556 221.848 72.556C222.099 72.556 222.35 72.6187 222.6 72.744C222.976 72.744 223.29 72.6187 223.54 72.368C224.292 72.744 225.17 72.932 226.172 72.932C226.674 73.5587 227.238 74.1853 227.864 74.812C228.491 75.3133 228.804 75.94 228.804 76.692C229.18 77.068 229.243 77.5693 228.992 78.196C228.742 78.8227 228.366 79.2613 227.864 79.512C227.488 79.888 227.05 80.076 226.548 80.076C226.047 79.9507 225.546 80.0133 225.044 80.264C223.791 80.7653 222.6 81.5173 221.472 82.52L219.216 84.024C219.216 84.024 219.091 84.1493 218.84 84.4C218.464 84.4 218.026 84.5253 217.524 84.776C217.148 84.9013 216.835 85.34 216.584 86.092C215.582 86.3427 214.579 86.844 213.576 87.596C212.574 88.2227 211.571 88.8493 210.568 89.476C209.942 90.1027 209.378 90.6667 208.876 91.168C208.375 91.544 207.811 91.9827 207.184 92.484C206.182 93.3613 205.116 94.3013 203.988 95.304C202.86 96.3067 201.795 97.3093 200.792 98.312C200.166 98.8133 199.539 99.44 198.912 100.192C198.411 100.819 197.722 101.32 196.844 101.696C196.844 102.197 196.594 102.636 196.092 103.012V103.2C196.092 103.325 196.092 103.388 196.092 103.388C195.34 103.764 194.714 104.328 194.212 105.08C193.836 105.707 193.398 106.333 192.896 106.96C192.646 108.088 192.144 109.091 191.392 109.968C190.64 110.845 190.202 111.785 190.076 112.788C191.33 112.412 192.332 111.848 193.084 111.096C197.346 108.589 201.419 105.957 205.304 103.2C209.19 100.317 213.2 97.3093 217.336 94.176C218.464 93.1733 219.53 92.3587 220.532 91.732C221.66 91.1053 222.726 90.1027 223.728 88.724H224.292V88.536C224.418 88.16 224.606 87.8467 224.856 87.596C225.107 87.3453 225.295 86.9693 225.42 86.468C225.546 86.2173 225.608 85.904 225.608 85.528C225.608 85.152 225.734 84.8387 225.984 84.588C226.36 84.4627 226.799 84.4 227.3 84.4C227.802 84.4 228.178 84.4 228.428 84.4H230.872C231.374 84.6507 232.063 84.964 232.94 85.34C233.818 85.716 234.256 86.5933 234.256 87.972C233.88 89.1 233.316 90.1653 232.564 91.168C231.938 92.1707 231.248 93.236 230.496 94.364C230.246 95.492 229.807 96.4947 229.18 97.372V98.312C228.679 98.5627 228.303 99.1267 228.052 100.004C227.927 100.631 227.802 101.132 227.676 101.508C227.676 101.884 227.488 102.448 227.112 103.2L225.984 107.336C225.984 108.965 226.298 109.905 226.924 110.156C227.551 110.407 228.303 110.344 229.18 109.968C230.183 109.592 231.248 109.091 232.376 108.464C233.504 107.712 234.507 107.148 235.384 106.772C237.515 106.02 239.708 104.892 241.964 103.388C244.22 101.884 246.226 100.631 247.98 99.628ZM294.126 127.264C294 127.264 293.812 127.327 293.562 127.452C293.311 127.703 293.311 128.079 293.562 128.58C293.311 128.58 292.998 128.58 292.622 128.58C292.371 128.58 292.12 128.517 291.87 128.392C291.744 128.517 291.619 128.58 291.494 128.58C291.494 128.58 291.431 128.643 291.306 128.768C291.18 128.893 290.992 129.019 290.742 129.144L286.042 124.632L282.846 121.248L281.154 118.992C280.778 118.992 280.527 118.929 280.402 118.804C280.276 118.804 280.214 118.741 280.214 118.616L278.898 117.112L278.334 116.172V116.36C278.083 115.984 277.832 115.733 277.582 115.608C277.456 115.483 277.268 115.295 277.018 115.044C276.767 114.417 276.454 113.791 276.078 113.164C275.702 112.412 275.2 111.848 274.574 111.472C274.198 111.096 273.759 110.657 273.258 110.156C272.882 109.529 272.38 108.715 271.754 107.712C271.754 107.461 271.378 106.96 270.626 106.208L248.066 125.384V125.196C247.94 125.447 247.752 125.635 247.502 125.76C247.376 126.011 247.188 126.261 246.938 126.512C246.812 126.637 246.75 126.825 246.75 127.076C246.75 127.201 246.687 127.389 246.562 127.64L245.434 128.58L244.682 129.144L242.802 131.776L240.546 134.22L239.606 134.596H239.794C239.418 134.972 238.979 135.16 238.478 135.16C237.6 135.285 236.911 135.035 236.41 134.408C235.783 133.907 235.72 133.092 236.222 131.964C236.222 131.588 236.284 131.149 236.41 130.648C236.41 130.272 236.535 129.959 236.786 129.708L237.914 128.58L240.17 125.384C240.546 125.259 240.734 124.945 240.734 124.444C245.496 118.679 249.632 114.104 253.142 110.72C256.776 107.211 260.474 103.764 264.234 100.38L265.738 99.064C265.111 97.6853 264.359 96.1187 263.482 94.364C262.604 92.484 261.852 90.8547 261.226 89.476L259.722 86.28L258.594 84.776C257.967 83.7733 257.34 82.5827 256.714 81.204C256.087 79.7 255.46 78.3213 254.834 77.068C254.834 76.8173 254.771 76.6293 254.646 76.504C254.52 76.128 254.458 75.752 254.458 75.376C254.332 75 254.27 74.3733 254.27 73.496C254.144 72.744 254.395 71.8667 255.022 70.864C255.648 69.8613 256.526 69.2973 257.654 69.172C258.656 69.172 259.408 69.548 259.91 70.3V70.112C261.414 72.6187 262.918 74.812 264.422 76.692L266.678 80.076C269.31 83.9613 271.942 88.16 274.574 92.672C276.328 91.0427 278.208 89.4133 280.214 87.784C282.344 86.0293 284.412 84.3373 286.418 82.708L293.75 76.692L295.254 75.376L300.706 72.368C300.956 72.368 301.27 72.3053 301.646 72.18C301.771 72.18 301.896 72.18 302.022 72.18C302.147 72.0547 302.335 71.992 302.586 71.992C303.839 72.1173 304.904 72.744 305.782 73.872C306.784 75 306.847 76.4413 305.97 78.196L304.09 79.512L302.022 81.016L298.826 83.648L295.066 86.656L291.494 88.912L289.238 90.604C287.483 91.9827 285.666 93.424 283.786 94.928C281.906 96.3067 280.339 97.748 279.086 99.252C279.086 99.3773 279.211 99.6907 279.462 100.192C280.088 101.069 280.778 102.072 281.53 103.2C282.282 104.203 282.908 105.205 283.41 106.208L285.854 110.72L288.674 115.984L290.178 118.804L292.81 122.188C292.81 122.439 292.935 122.689 293.186 122.94C293.436 123.065 293.624 123.316 293.75 123.692C293.875 124.068 293.938 124.319 293.938 124.444L294.126 127.264ZM473.135 9.2C472.885 9.32533 471.882 10.6413 470.127 13.148C468.373 15.5293 466.117 18.6 463.359 22.36C460.727 26.12 457.719 30.3187 454.335 34.956C450.951 39.468 447.505 43.98 443.995 48.492C440.611 53.004 437.29 57.2653 434.031 61.276C430.773 65.2867 427.89 68.5453 425.383 71.052L423.691 73.12L422.939 74.624L420.495 77.256C419.994 77.8827 419.555 78.4467 419.179 78.948C418.929 79.324 418.615 79.8253 418.239 80.452C416.109 83.2093 413.915 86.0293 411.659 88.912C409.403 91.6693 407.335 94.552 405.455 97.56C404.703 98.0613 404.202 98.688 403.951 99.44C403.701 100.192 403.262 100.819 402.635 101.32V102.448C402.009 103.325 401.382 104.203 400.755 105.08C400.254 105.832 399.69 106.584 399.063 107.336C398.562 108.715 397.81 109.592 396.807 109.968C395.93 110.344 395.115 111.096 394.363 112.224C392.233 115.107 390.227 117.676 388.347 119.932C386.467 122.188 384.399 124.757 382.143 127.64C382.143 127.891 382.081 128.079 381.955 128.204C381.955 128.329 381.955 128.517 381.955 128.768C379.699 132.027 377.255 135.411 374.623 138.92C372.117 142.429 369.673 145.688 367.291 148.696C366.79 149.323 366.226 150.012 365.599 150.764C364.973 151.516 364.283 152.205 363.531 152.832C362.779 153.459 361.965 153.897 361.087 154.148C360.21 154.524 359.207 154.587 358.079 154.336C354.821 154.587 352.251 153.835 350.371 152.08C348.617 150.325 347.739 148.069 347.739 145.312C348.366 137.667 349.055 129.959 349.807 122.188C350.685 114.417 351.687 106.772 352.815 99.252C353.442 95.9933 353.943 92.672 354.319 89.288C354.821 85.7787 355.322 82.3947 355.823 79.136C357.077 70.488 358.33 61.7773 359.583 53.004C360.837 44.2307 362.341 35.52 364.095 26.872C366.226 24.992 368.921 23.9267 372.179 23.676C373.683 24.3027 375.062 24.992 376.315 25.744C377.569 26.496 378.697 27.4987 379.699 28.752C380.326 30.256 380.389 31.572 379.887 32.7C379.386 33.828 378.822 35.0187 378.195 36.272C377.819 37.2747 377.443 38.34 377.067 39.468C376.817 40.596 376.566 41.724 376.315 42.852C375.814 44.9827 375.375 47.3013 374.999 49.808C374.749 52.3147 374.373 54.8213 373.871 57.328C373.621 57.9547 373.433 58.644 373.307 59.396C373.182 60.148 373.057 60.9627 372.931 61.84C372.681 62.7173 372.43 63.6573 372.179 64.66C371.929 65.5373 371.741 66.4773 371.615 67.48C371.49 67.7307 371.49 67.9187 371.615 68.044C371.741 68.1693 371.741 68.3573 371.615 68.608C371.114 69.736 370.801 70.9893 370.675 72.368C370.675 73.6213 370.362 74.7493 369.735 75.752C368.733 82.52 367.667 89.0373 366.539 95.304C365.411 101.571 364.534 107.587 363.907 113.352C363.281 117.739 362.466 122.501 361.463 127.64C360.461 132.779 359.771 137.729 359.395 142.492C360.022 142.241 360.523 141.803 360.899 141.176C361.401 140.549 361.777 140.048 362.027 139.672C362.529 139.045 362.967 138.481 363.343 137.98C363.845 137.604 364.283 137.103 364.659 136.476C366.915 134.095 368.921 131.525 370.675 128.768C372.555 126.011 374.561 123.379 376.691 120.872C376.942 120.245 377.318 119.744 377.819 119.368C378.321 118.867 378.634 118.24 378.759 117.488C379.762 116.485 380.639 115.42 381.391 114.292C382.143 113.164 383.021 112.099 384.023 111.096C386.029 108.213 388.097 105.393 390.227 102.636C392.358 99.7533 394.551 96.9333 396.807 94.176C398.061 92.1707 399.377 90.2907 400.755 88.536C402.259 86.7813 403.763 84.9013 405.267 82.896C405.518 82.52 405.769 82.144 406.019 81.768C406.395 81.2667 406.771 80.828 407.147 80.452C408.777 77.5693 411.033 74.3107 413.915 70.676C416.923 66.916 420.057 63.156 423.315 59.396C426.574 55.636 429.77 51.9387 432.903 48.304C436.037 44.6693 438.606 41.536 440.611 38.904C444.371 33.64 448.194 28.752 452.079 24.24C454.21 21.608 456.466 18.788 458.847 15.78C461.229 12.6467 463.547 9.70133 465.803 6.94399L468.435 3.936C469.062 3.30933 469.689 2.61999 470.315 1.86799C471.067 1.11599 472.007 0.865328 473.135 1.116C473.887 0.99066 474.326 1.36666 474.451 2.244C474.577 2.99599 474.514 3.87333 474.263 4.876C474.138 5.87866 473.887 6.81866 473.511 7.69599C473.261 8.57333 473.135 9.07466 473.135 9.2ZM459.618 116.172C458.616 116.799 457.488 117.3 456.234 117.676C455.106 117.927 453.978 118.24 452.85 118.616C451.346 118.992 449.654 119.368 447.774 119.744C445.894 120.12 444.014 120.308 442.134 120.308C440.254 120.183 438.437 119.807 436.682 119.18C435.053 118.428 433.674 117.237 432.546 115.608C431.669 114.48 431.168 113.101 431.042 111.472C430.917 109.843 431.042 108.213 431.418 106.584C431.794 104.829 432.296 103.137 432.922 101.508C433.674 99.7533 434.426 98.1867 435.178 96.808C435.805 96.3067 436.306 95.68 436.682 94.928C437.058 94.176 437.309 93.5493 437.434 93.048C440.066 89.9147 442.761 86.9067 445.518 84.024C448.401 81.1413 451.346 78.8853 454.354 77.256C455.733 76.3787 457.174 75.6267 458.678 75C460.182 74.3733 461.561 73.7467 462.814 73.12C463.316 72.8693 463.692 72.6187 463.942 72.368C464.318 72.1173 464.82 71.992 465.446 71.992C469.958 71.992 472.904 72.8067 474.282 74.436C475.661 75.94 476.35 77.444 476.35 78.948C476.225 79.4493 475.786 80.0133 475.034 80.64C474.282 81.2667 473.718 81.8933 473.342 82.52C472.716 83.1467 472.152 83.7733 471.65 84.4C471.149 84.9013 470.773 85.4027 470.522 85.904C465.509 90.2907 460.496 94.176 455.482 97.56C454.229 98.5627 452.537 99.252 450.406 99.628C448.401 100.004 446.333 100.067 444.202 99.816C443.45 100.568 442.698 101.571 441.946 102.824C441.194 103.952 440.568 105.205 440.066 106.584C439.69 107.837 439.502 109.153 439.502 110.532C439.628 111.785 440.192 112.851 441.194 113.728C443.701 113.979 445.894 113.728 447.774 112.976C449.654 112.224 451.472 111.597 453.226 111.096C454.605 110.72 456.046 110.281 457.55 109.78C459.054 109.279 460.37 108.777 461.498 108.276C464.13 107.023 466.261 106.02 467.89 105.268C469.645 104.516 471.274 103.827 472.778 103.2C474.282 102.573 475.849 101.884 477.478 101.132C479.108 100.38 481.176 99.3147 483.682 97.936C485.688 96.9333 487.693 95.9307 489.698 94.928C491.829 93.8 493.834 92.7347 495.714 91.732C496.09 91.4813 496.216 91.356 496.09 91.356C496.09 91.2307 496.028 91.2307 495.902 91.356C495.777 91.356 495.714 91.4187 495.714 91.544C495.714 91.544 495.965 91.4813 496.466 91.356C496.592 91.356 496.717 91.2933 496.842 91.168C497.093 91.0427 497.281 90.98 497.406 90.98C498.534 90.98 499.286 91.1053 499.662 91.356C500.038 91.4813 500.164 91.7947 500.038 92.296C500.038 92.672 499.788 93.1733 499.286 93.8C498.91 94.3013 498.472 94.928 497.97 95.68C498.096 95.68 497.908 95.868 497.406 96.244C497.03 96.4947 496.529 96.808 495.902 97.184C495.401 97.4347 494.9 97.748 494.398 98.124C494.022 98.3747 493.834 98.5 493.834 98.5C492.456 99.5027 490.764 100.568 488.758 101.696C486.753 102.824 484.748 103.952 482.742 105.08C480.737 106.083 478.857 107.023 477.102 107.9C475.348 108.777 474.032 109.404 473.154 109.78L459.618 116.172ZM446.082 96.808C447.21 96.808 448.276 96.4947 449.278 95.868C450.406 95.2413 451.472 94.6147 452.474 93.988C454.981 91.9827 457.55 89.7893 460.182 87.408C462.814 84.9013 465.196 82.3947 467.326 79.888C467.577 79.888 467.702 79.7 467.702 79.324C463.19 80.9533 459.18 83.3347 455.67 86.468C452.286 89.6013 449.09 93.048 446.082 96.808ZM456.12 208.48C454.741 207.477 453.676 206.287 452.924 204.908C452.047 203.655 451.796 202.965 452.172 202.84C451.921 196.323 453.488 189.492 456.872 182.348C460.256 175.204 464.643 168.123 470.032 161.104C475.421 154.211 481.312 147.568 487.704 141.176C494.096 134.909 500.175 129.207 505.94 124.068C506.817 123.441 507.945 122.501 509.324 121.248C510.703 119.869 511.768 118.929 512.52 118.428C513.773 117.801 514.588 117.363 514.964 117.112C515.465 116.736 515.779 116.485 515.904 116.36C516.029 116.36 516.28 115.796 516.656 114.668C517.157 113.54 517.283 112.976 517.032 112.976C517.533 112.099 517.909 111.472 518.16 111.096C518.411 110.595 518.599 110.156 518.724 109.78C518.975 109.404 519.163 109.028 519.288 108.652C519.413 108.151 519.664 107.399 520.04 106.396C520.291 105.769 520.479 105.143 520.604 104.516C520.855 103.889 520.855 103.2 520.604 102.448C520.353 102.448 520.103 102.824 519.852 103.576C519.476 103.576 519.288 103.639 519.288 103.764C519.037 104.015 518.787 104.265 518.536 104.516C518.285 104.767 518.035 105.017 517.784 105.268C517.157 105.519 516.719 105.832 516.468 106.208C515.34 107.336 514.149 108.339 512.896 109.216C511.768 109.968 510.703 110.845 509.7 111.848C509.324 112.224 508.635 112.725 507.632 113.352C506.629 113.853 505.564 114.417 504.436 115.044C503.308 115.545 502.18 116.047 501.052 116.548C500.049 116.924 499.235 117.175 498.608 117.3C498.357 117.425 497.605 117.488 496.352 117.488C495.224 117.488 493.971 117.425 492.592 117.3C491.339 117.175 490.085 117.049 488.832 116.924C487.704 116.799 487.015 116.611 486.764 116.36H487.14C486.889 116.235 486.701 116.047 486.576 115.796C486.451 115.545 486.137 115.42 485.636 115.42C485.135 114.668 484.821 113.791 484.696 112.788C484.571 111.785 484.571 110.72 484.696 109.592C484.821 108.464 485.009 107.399 485.26 106.396C485.511 105.393 485.761 104.516 486.012 103.764C486.388 103.137 486.701 102.511 486.952 101.884C487.328 101.132 487.641 100.443 487.892 99.816C488.143 99.816 488.268 99.7533 488.268 99.628C488.268 99.5027 488.393 99.44 488.644 99.44C489.02 98.4373 489.96 96.996 491.464 95.116C493.093 93.1107 494.911 91.1053 496.916 89.1C498.921 86.9693 500.801 85.0267 502.556 83.272C504.436 81.392 505.752 80.076 506.504 79.324C506.629 79.1987 506.943 78.948 507.444 78.572C507.945 78.196 508.509 77.82 509.136 77.444C509.763 77.068 510.327 76.692 510.828 76.316C511.329 75.94 511.705 75.752 511.956 75.752C513.335 75 514.713 74.1853 516.092 73.308C517.471 72.3053 518.849 71.5533 520.228 71.052C520.729 70.8013 521.231 70.676 521.732 70.676C522.233 70.5507 522.609 70.488 522.86 70.488C524.865 70.6133 525.743 71.052 525.492 71.804C525.367 72.556 524.74 73.4333 523.612 74.436C522.484 75.3133 521.168 76.316 519.664 77.444C518.16 78.4467 517.095 79.324 516.468 80.076C515.591 80.7027 514.776 81.3293 514.024 81.956C513.272 82.5827 512.645 83.3973 512.144 84.4C511.517 85.0267 510.828 85.5907 510.076 86.092C509.324 86.5933 508.823 87.3453 508.572 88.348C507.82 88.9747 507.068 89.664 506.316 90.416C505.689 91.168 505.125 91.92 504.624 92.672C503.371 93.2987 502.368 94.2387 501.616 95.492C500.989 96.7453 500.175 97.8107 499.172 98.688C498.169 100.192 497.167 101.759 496.164 103.388C495.287 105.017 494.535 106.835 493.908 108.84C493.908 109.216 493.783 109.592 493.532 109.968C493.407 110.344 493.344 110.657 493.344 110.908C493.845 111.159 494.221 111.221 494.472 111.096C494.848 110.971 495.161 110.845 495.412 110.72C496.415 110.093 497.292 109.529 498.044 109.028C498.921 108.401 499.924 107.775 501.052 107.148C501.679 106.647 502.18 106.271 502.556 106.02C502.932 105.769 503.433 105.519 504.06 105.268C506.567 103.513 509.136 101.571 511.768 99.44C514.4 97.3093 516.969 95.1787 519.476 93.048C520.103 92.672 520.729 92.108 521.356 91.356C522.108 90.604 522.797 89.9147 523.424 89.288C524.051 88.7867 524.74 88.348 525.492 87.972C526.244 87.4707 526.62 86.9067 526.62 86.28C526.871 85.6533 526.933 85.2773 526.808 85.152C526.808 85.0267 527.121 84.6507 527.748 84.024C528.124 83.648 528.5 83.2093 528.876 82.708C529.377 82.0813 530.129 81.768 531.132 81.768C531.508 81.768 531.821 81.8933 532.072 82.144C532.448 82.2693 532.887 82.2693 533.388 82.144C533.513 82.3947 533.764 82.52 534.14 82.52C534.516 82.3947 534.829 82.4573 535.08 82.708C536.083 83.7107 536.647 84.588 536.772 85.34C537.023 86.092 537.023 87.032 536.772 88.16C536.396 89.1627 536.083 90.2907 535.832 91.544C535.707 92.672 535.393 93.7373 534.892 94.74C534.641 96.62 534.14 98.4373 533.388 100.192C532.761 101.821 532.26 103.513 531.884 105.268C532.636 104.015 533.952 102.761 535.832 101.508C537.712 100.255 539.655 99.064 541.66 97.936C543.791 96.808 545.796 95.8053 547.676 94.928C549.556 94.0507 550.872 93.2987 551.624 92.672H552.188C552.439 92.4213 552.689 92.1707 552.94 91.92C553.316 91.6693 553.629 91.544 553.88 91.544C554.507 91.0427 555.196 90.604 555.948 90.228C556.7 89.7267 557.577 89.4133 558.58 89.288C558.58 89.1627 558.517 89.1 558.392 89.1C560.899 87.7213 563.405 86.4053 565.912 85.152C568.419 83.8987 571.113 82.896 573.996 82.144C573.996 82.2693 573.933 82.332 573.808 82.332C573.683 82.332 573.62 82.3947 573.62 82.52C573.495 82.6453 573.307 82.708 573.056 82.708C572.931 82.5827 572.743 82.5827 572.492 82.708C572.743 82.9587 572.868 83.0213 572.868 82.896C572.868 82.7707 572.993 82.708 573.244 82.708C573.244 82.8333 573.181 82.896 573.056 82.896C573.056 82.896 573.056 83.0213 573.056 83.272C573.557 83.3973 573.808 83.3973 573.808 83.272C573.933 83.0213 574.121 82.896 574.372 82.896C574.121 83.3973 573.745 83.7107 573.244 83.836C572.868 83.836 572.492 84.0867 572.116 84.588C572.116 84.8387 572.241 84.8387 572.492 84.588C572.241 85.0893 571.928 85.4027 571.552 85.528C571.176 85.528 570.863 85.6533 570.612 85.904C570.737 86.0293 571.176 85.9667 571.928 85.716C570.675 86.468 569.359 87.0947 567.98 87.596C566.727 87.972 565.599 88.6613 564.596 89.664C564.471 89.9147 564.596 90.04 564.972 90.04C564.345 90.6667 563.155 91.6693 561.4 93.048C559.645 94.3013 557.703 95.68 555.572 97.184C553.567 98.5627 551.561 99.9413 549.556 101.32C547.676 102.573 546.235 103.576 545.232 104.328C544.104 105.08 542.976 105.832 541.848 106.584C540.72 107.336 539.655 108.213 538.652 109.216C537.9 109.467 537.211 109.78 536.584 110.156C536.083 110.532 535.519 110.971 534.892 111.472L533.388 112.6C532.511 113.227 531.696 113.791 530.944 114.292C530.317 114.668 529.816 115.295 529.44 116.172C528.312 116.924 527.497 118.052 526.996 119.556C526.62 121.06 526.119 122.501 525.492 123.88C522.108 131.525 518.599 139.609 514.964 148.132C511.455 156.655 507.381 164.801 502.744 172.572C498.107 180.468 492.717 187.549 486.576 193.816C480.56 200.083 473.479 204.845 465.332 208.104C463.828 208.605 462.324 208.919 460.82 209.044C459.191 209.295 457.624 209.107 456.12 208.48ZM509.136 131.4C506.128 134.283 503.057 137.228 499.924 140.236C496.791 143.369 493.908 146.252 491.276 148.884C488.644 151.516 486.388 153.835 484.508 155.84C482.628 157.971 481.312 159.475 480.56 160.352C478.555 162.859 476.424 165.428 474.168 168.06C471.912 170.692 469.781 173.449 467.776 176.332C465.645 179.34 463.828 182.473 462.324 185.732C460.82 188.991 459.817 192.5 459.316 196.26C459.692 196.511 459.817 197.012 459.692 197.764C459.567 198.641 459.817 199.393 460.444 200.02C464.58 199.393 468.591 197.639 472.476 194.756C476.236 191.999 479.808 188.489 483.192 184.228C486.701 180.092 489.96 175.517 492.968 170.504C496.101 165.616 498.921 160.665 501.428 155.652C503.935 150.764 506.191 146.127 508.196 141.74C510.201 137.353 511.831 133.719 513.084 130.836C512.833 130.335 512.833 129.959 513.084 129.708C513.46 129.457 513.585 129.144 513.46 128.768C512.833 129.395 512.019 129.833 511.016 130.084C510.013 130.335 509.387 130.773 509.136 131.4ZM582.993 116.172C581.991 116.799 580.863 117.3 579.609 117.676C578.481 117.927 577.353 118.24 576.225 118.616C574.721 118.992 573.029 119.368 571.149 119.744C569.269 120.12 567.389 120.308 565.509 120.308C563.629 120.183 561.812 119.807 560.057 119.18C558.428 118.428 557.049 117.237 555.921 115.608C555.044 114.48 554.543 113.101 554.417 111.472C554.292 109.843 554.417 108.213 554.793 106.584C555.169 104.829 555.671 103.137 556.297 101.508C557.049 99.7533 557.801 98.1867 558.553 96.808C559.18 96.3067 559.681 95.68 560.057 94.928C560.433 94.176 560.684 93.5493 560.809 93.048C563.441 89.9147 566.136 86.9067 568.893 84.024C571.776 81.1413 574.721 78.8853 577.729 77.256C579.108 76.3787 580.549 75.6267 582.053 75C583.557 74.3733 584.936 73.7467 586.189 73.12C586.691 72.8693 587.067 72.6187 587.317 72.368C587.693 72.1173 588.195 71.992 588.821 71.992C593.333 71.992 596.279 72.8067 597.657 74.436C599.036 75.94 599.725 77.444 599.725 78.948C599.6 79.4493 599.161 80.0133 598.409 80.64C597.657 81.2667 597.093 81.8933 596.717 82.52C596.091 83.1467 595.527 83.7733 595.025 84.4C594.524 84.9013 594.148 85.4027 593.897 85.904C588.884 90.2907 583.871 94.176 578.857 97.56C577.604 98.5627 575.912 99.252 573.781 99.628C571.776 100.004 569.708 100.067 567.577 99.816C566.825 100.568 566.073 101.571 565.321 102.824C564.569 103.952 563.943 105.205 563.441 106.584C563.065 107.837 562.877 109.153 562.877 110.532C563.003 111.785 563.567 112.851 564.569 113.728C567.076 113.979 569.269 113.728 571.149 112.976C573.029 112.224 574.847 111.597 576.601 111.096C577.98 110.72 579.421 110.281 580.925 109.78C582.429 109.279 583.745 108.777 584.873 108.276C587.505 107.023 589.636 106.02 591.265 105.268C593.02 104.516 594.649 103.827 596.153 103.2C597.657 102.573 599.224 101.884 600.853 101.132C602.483 100.38 604.551 99.3147 607.057 97.936C609.063 96.9333 611.068 95.9307 613.073 94.928C615.204 93.8 617.209 92.7347 619.089 91.732C619.465 91.4813 619.591 91.356 619.465 91.356C619.465 91.2307 619.403 91.2307 619.277 91.356C619.152 91.356 619.089 91.4187 619.089 91.544C619.089 91.544 619.34 91.4813 619.841 91.356C619.967 91.356 620.092 91.2933 620.217 91.168C620.468 91.0427 620.656 90.98 620.781 90.98C621.909 90.98 622.661 91.1053 623.037 91.356C623.413 91.4813 623.539 91.7947 623.413 92.296C623.413 92.672 623.163 93.1733 622.661 93.8C622.285 94.3013 621.847 94.928 621.345 95.68C621.471 95.68 621.283 95.868 620.781 96.244C620.405 96.4947 619.904 96.808 619.277 97.184C618.776 97.4347 618.275 97.748 617.773 98.124C617.397 98.3747 617.209 98.5 617.209 98.5C615.831 99.5027 614.139 100.568 612.133 101.696C610.128 102.824 608.123 103.952 606.117 105.08C604.112 106.083 602.232 107.023 600.477 107.9C598.723 108.777 597.407 109.404 596.529 109.78L582.993 116.172ZM569.457 96.808C570.585 96.808 571.651 96.4947 572.653 95.868C573.781 95.2413 574.847 94.6147 575.849 93.988C578.356 91.9827 580.925 89.7893 583.557 87.408C586.189 84.9013 588.571 82.3947 590.701 79.888C590.952 79.888 591.077 79.7 591.077 79.324C586.565 80.9533 582.555 83.3347 579.045 86.468C575.661 89.6013 572.465 93.048 569.457 96.808ZM659.771 77.632C659.52 78.008 659.395 78.3213 659.395 78.572C659.52 78.8227 659.332 79.0733 658.831 79.324C658.831 79.5747 658.643 79.7 658.267 79.7C658.016 80.3267 657.515 80.7027 656.763 80.828C656.136 80.9533 655.572 81.3293 655.071 81.956C652.564 82.708 649.932 83.648 647.175 84.776C644.418 85.904 641.723 87.1573 639.091 88.536C636.584 89.7893 634.266 91.1053 632.135 92.484C630.004 93.8627 628.375 95.2413 627.247 96.62C626.244 97.6227 625.179 98.688 624.051 99.816C622.923 100.944 621.92 102.197 621.043 103.576C620.667 104.579 620.228 105.832 619.727 107.336C619.351 108.84 618.975 110.344 618.599 111.848C618.223 113.227 617.784 114.48 617.283 115.608C616.907 116.736 616.531 117.425 616.155 117.676C615.904 118.177 615.403 118.867 614.651 119.744C613.899 120.621 613.272 120.997 612.771 120.872C610.891 121.749 609.262 121.624 607.883 120.496C606.63 119.368 606.191 117.801 606.567 115.796C606.818 114.543 607.382 112.663 608.259 110.156C609.136 107.649 609.7 105.707 609.951 104.328C609.951 104.328 609.951 104.265 609.951 104.14C610.076 103.764 610.139 103.388 610.139 103.012C611.142 101.257 611.956 99.44 612.583 97.56C613.21 95.68 613.962 93.8627 614.839 92.108C614.839 91.9827 614.902 91.92 615.027 91.92C615.278 91.7947 615.403 91.6693 615.403 91.544C616.03 89.0373 616.782 86.5933 617.659 84.212C618.662 81.7053 619.539 79.324 620.291 77.068C620.416 76.5667 620.604 76.1907 620.855 75.94C621.106 75.6893 621.356 75.376 621.607 75C622.234 74.7493 622.735 74.4987 623.111 74.248C623.612 73.9973 624.114 73.872 624.615 73.872C624.866 73.6213 625.179 73.496 625.555 73.496C625.806 73.496 626.056 73.5587 626.307 73.684C626.683 73.684 626.996 73.684 627.247 73.684C628.375 73.8093 629.19 74.248 629.691 75C631.195 77.0053 631.07 78.8853 629.315 80.64C629.19 81.6427 628.939 82.6453 628.563 83.648C628.312 84.6507 628.124 85.528 627.999 86.28C632.386 83.0213 636.71 80.7653 640.971 79.512C645.232 78.2587 649.18 77.5067 652.815 77.256C653.818 77.1307 654.946 77.0053 656.199 76.88C657.578 76.7547 658.768 77.0053 659.771 77.632ZM685.226 108.088C687.858 107.085 689.8 106.333 691.054 105.832C692.432 105.331 693.435 104.955 694.062 104.704C694.814 104.453 695.315 104.265 695.566 104.14C695.942 103.889 696.38 103.701 696.882 103.576C697.383 103.325 698.135 103.075 699.138 102.824C700.266 102.448 701.958 101.884 704.214 101.132C705.216 100.505 706.282 99.9413 707.41 99.44C708.663 98.8133 709.916 98.312 711.17 97.936C711.295 97.8107 711.608 97.748 712.11 97.748C712.611 97.748 712.987 97.748 713.238 97.748C714.616 97.2467 715.431 97.1213 715.682 97.372C716.183 97.6227 716.308 97.8107 716.058 97.936C715.807 98.0613 715.682 98.2493 715.682 98.5C715.682 98.7507 715.682 98.9387 715.682 99.064C715.807 99.1893 715.494 99.44 714.742 99.816C714.616 100.192 714.366 100.443 713.99 100.568C713.739 100.693 713.3 100.881 712.674 101.132C711.796 101.132 711.232 101.571 710.982 102.448C710.48 102.699 709.854 103.075 709.102 103.576C708.35 104.077 707.535 104.641 706.658 105.268C705.906 105.895 705.154 106.459 704.402 106.96C703.65 107.461 703.023 107.775 702.522 107.9C697.258 110.407 692.119 112.663 687.106 114.668C682.218 116.673 677.142 118.553 671.878 120.308C671.126 120.559 670.436 120.809 669.81 121.06C669.183 121.185 668.368 121.499 667.366 122C666.99 122 666.488 122.125 665.862 122.376C665.36 122.627 664.984 122.689 664.734 122.564C664.483 122.689 664.295 122.689 664.17 122.564C664.17 122.564 664.044 122.564 663.794 122.564C662.164 123.191 660.848 123.379 659.846 123.128C658.968 122.877 657.59 122.877 655.71 123.128C654.582 123.128 653.579 122.94 652.702 122.564C651.824 122.188 651.072 121.749 650.446 121.248C648.691 119.869 647.5 118.24 646.874 116.36C646.247 114.48 646.811 111.723 648.566 108.088C649.443 106.333 650.446 104.704 651.574 103.2C652.827 101.571 654.268 100.067 655.898 98.688C657.276 97.0587 658.404 95.9307 659.282 95.304C660.159 94.552 661.412 93.424 663.042 91.92C664.42 90.792 665.862 89.5387 667.366 88.16C668.995 86.656 670.562 85.152 672.066 83.648C673.068 83.0213 673.82 82.4573 674.322 81.956C674.823 81.3293 675.7 80.64 676.954 79.888C677.58 79.6373 678.019 79.4493 678.27 79.324C678.646 79.1987 679.147 79.0107 679.774 78.76C680.4 78.5093 680.902 78.1333 681.278 77.632C681.654 77.1307 682.28 76.88 683.158 76.88C684.16 76.7547 685.852 77.1307 688.234 78.008C688.735 78.5093 689.111 79.2613 689.362 80.264C689.612 81.1413 689.675 82.0813 689.55 83.084C689.55 83.9613 689.424 84.8387 689.174 85.716C688.923 86.468 688.547 86.9693 688.046 87.22C686.792 87.8467 685.852 88.2853 685.226 88.536C684.724 88.7867 684.035 89.3507 683.158 90.228C682.907 90.228 682.531 90.3533 682.03 90.604C681.528 90.7293 681.152 90.98 680.902 91.356C680.526 91.356 680.024 91.356 679.398 91.356C678.896 91.2307 678.52 91.2933 678.27 91.544C678.019 91.92 677.58 92.1707 676.954 92.296C676.452 92.4213 675.888 92.7973 675.262 93.424L672.254 95.868L668.118 99.064C667.115 100.067 666.112 101.007 665.11 101.884C664.107 102.761 663.292 103.701 662.666 104.704C661.663 105.581 660.786 106.709 660.034 108.088C659.282 109.467 658.655 110.783 658.154 112.036C657.402 113.916 658.028 114.919 660.034 115.044C662.039 115.044 664.546 114.668 667.554 113.916C670.687 113.039 673.946 112.036 677.33 110.908C680.714 109.655 683.346 108.715 685.226 108.088ZM743.829 96.996C745.208 95.116 745.772 93.988 745.521 93.612C745.396 93.236 744.769 93.3613 743.641 93.988C742.513 94.6147 741.009 95.6173 739.129 96.996C737.249 98.2493 735.306 99.628 733.301 101.132C731.296 102.636 729.353 104.077 727.473 105.456C725.718 106.835 724.277 107.9 723.149 108.652C720.642 110.783 718.261 112.851 716.005 114.856C713.749 116.736 711.368 118.741 708.861 120.872C708.234 121.875 707.733 122.439 707.357 122.564C707.106 122.815 706.48 123.003 705.477 123.128C705.477 123.629 705.289 124.005 704.913 124.256C704.662 124.507 704.349 124.695 703.973 124.82C703.597 125.071 703.284 125.259 703.033 125.384C702.782 125.635 702.657 125.948 702.657 126.324C702.532 126.575 702.344 126.637 702.093 126.512C701.968 126.387 701.78 126.387 701.529 126.512C701.529 127.139 701.216 127.452 700.589 127.452C700.088 127.577 699.586 127.452 699.085 127.076C698.584 126.7 698.208 126.136 697.957 125.384C697.581 124.757 697.581 124.068 697.957 123.316C697.957 119.305 698.458 115.859 699.461 112.976C700.589 110.093 701.654 107.023 702.657 103.764C703.033 103.388 703.158 103.2 703.033 103.2C703.534 101.445 704.161 99.816 704.913 98.312C705.665 96.6827 706.354 94.928 706.981 93.048C707.232 92.4213 707.482 91.732 707.733 90.98C708.109 90.228 708.422 89.3507 708.673 88.348C709.676 86.2173 710.678 84.1493 711.681 82.144C712.809 80.1387 713.686 78.008 714.313 75.752C714.94 75 715.441 74.06 715.817 72.932C716.318 71.6787 716.882 70.676 717.509 69.924C717.634 68.9213 717.885 68.1067 718.261 67.48C718.637 66.728 719.076 66.0387 719.577 65.412C719.828 64.7853 720.016 64.1587 720.141 63.532C720.392 62.9053 720.642 62.216 720.893 61.464L723.149 57.516C724.778 52.5027 726.784 48.0533 729.165 44.168C731.546 40.1573 733.74 35.7707 735.745 31.008C736.246 30.8827 736.56 30.5693 736.685 30.068C736.81 29.5667 737.061 29.128 737.437 28.752C737.688 28.5013 738.252 27.9373 739.129 27.06C740.006 26.1827 740.633 25.6187 741.009 25.368C742.137 24.7413 743.641 24.616 745.521 24.992C746.398 25.2427 746.9 25.8693 747.025 26.872C747.276 27.8747 747.714 28.6893 748.341 29.316C748.216 29.5667 748.028 29.88 747.777 30.256C747.652 30.5067 747.464 30.7573 747.213 31.008C746.962 31.6347 746.774 32.2613 746.649 32.888C746.524 33.5147 746.336 34.1413 746.085 34.768C745.834 35.3947 745.521 36.0213 745.145 36.648C744.769 37.2747 744.456 37.9013 744.205 38.528C743.453 39.9067 742.701 41.348 741.949 42.852C741.197 44.356 740.445 45.7973 739.693 47.176C739.442 48.1787 739.004 49.3693 738.377 50.748C737.75 52.0013 737.312 53.2547 737.061 54.508C736.81 54.508 736.685 54.6333 736.685 54.884C736.81 55.1347 736.748 55.26 736.497 55.26C735.494 57.6413 734.554 60.0227 733.677 62.404C732.8 64.7853 731.672 67.104 730.293 69.36C729.29 72.2427 728.1 75 726.721 77.632C725.468 80.1387 724.34 82.8333 723.337 85.716C723.212 85.716 723.086 85.7787 722.961 85.904C722.961 86.0293 722.898 86.092 722.773 86.092C722.773 87.0947 722.585 87.784 722.209 88.16C721.833 88.4107 721.645 88.912 721.645 89.664C721.394 89.9147 721.144 90.3533 720.893 90.98C720.768 91.4813 720.642 91.9827 720.517 92.484C720.016 93.612 719.577 94.8653 719.201 96.244C718.95 97.4973 718.512 98.876 717.885 100.38C717.634 101.257 717.384 102.135 717.133 103.012C716.882 103.764 716.632 104.704 716.381 105.832C718.01 104.579 719.828 103.012 721.833 101.132C723.838 99.1267 725.969 97.184 728.225 95.304C730.481 93.2987 732.674 91.4187 734.805 89.664C737.061 87.784 739.192 86.28 741.197 85.152C742.576 84.4 744.017 83.7107 745.521 83.084C747.025 82.332 748.592 81.8307 750.221 81.58C751.224 81.58 752.289 81.58 753.417 81.58C754.67 81.58 755.61 81.8933 756.237 82.52C756.488 82.6453 756.676 82.8333 756.801 83.084C756.926 83.3347 757.114 83.5227 757.365 83.648C757.866 84.1493 758.242 84.588 758.493 84.964C758.869 85.2147 759.057 85.6533 759.057 86.28C759.057 87.032 758.869 87.8467 758.493 88.724C758.117 89.476 757.741 90.2907 757.365 91.168C755.861 93.9253 754.482 96.7453 753.229 99.628C752.978 100.004 752.602 100.819 752.101 102.072C751.725 103.2 751.286 104.453 750.785 105.832C750.409 107.085 750.033 108.339 749.657 109.592C749.406 110.72 749.281 111.597 749.281 112.224C752.164 111.472 754.858 110.469 757.365 109.216C759.997 107.963 762.441 106.709 764.697 105.456C767.078 104.077 769.272 102.824 771.277 101.696C773.408 100.443 775.413 99.628 777.293 99.252L788.949 97.56C790.453 97.184 791.518 97.2467 792.145 97.748C792.772 98.124 792.521 98.8133 791.393 99.816C791.393 99.9413 790.954 100.067 790.077 100.192C789.2 100.192 788.761 100.255 788.761 100.38C787.132 100.881 785.816 101.508 784.813 102.26C783.81 103.012 782.432 103.451 780.677 103.576C775.664 105.707 771.34 108.025 767.705 110.532C764.196 113.039 760.248 115.608 755.861 118.24C755.61 117.989 755.485 117.989 755.485 118.24C755.485 118.491 755.36 118.616 755.109 118.616C754.733 118.616 754.482 118.553 754.357 118.428C752.978 119.055 751.286 119.493 749.281 119.744C747.401 119.995 745.772 119.744 744.393 118.992C743.892 118.741 743.516 118.491 743.265 118.24C743.014 117.989 742.638 117.801 742.137 117.676C742.262 117.676 742.325 117.613 742.325 117.488C742.2 117.363 741.824 117.237 741.197 117.112C741.072 116.736 740.884 116.297 740.633 115.796C740.382 115.295 740.194 114.731 740.069 114.104C740.069 113.979 740.069 113.853 740.069 113.728C740.194 113.477 740.194 113.289 740.069 113.164C739.944 112.663 739.756 112.224 739.505 111.848C739.38 111.472 739.317 111.096 739.317 110.72C739.317 110.469 739.38 110.219 739.505 109.968C739.756 109.592 739.881 109.216 739.881 108.84C740.132 107.587 740.445 106.396 740.821 105.268C741.322 104.14 741.886 102.887 742.513 101.508C742.889 100.631 743.265 99.816 743.641 99.064C744.017 98.312 744.08 97.6227 743.829 96.996ZM780.912 97.184C781.288 96.3067 781.539 95.68 781.664 95.304C781.915 94.928 782.103 94.552 782.228 94.176C782.353 93.8 782.479 93.424 782.604 93.048C782.855 92.5467 783.168 91.7947 783.544 90.792C784.045 89.7893 784.547 88.7867 785.048 87.784C785.549 86.7813 786.113 85.9667 786.74 85.34C786.74 85.0893 786.74 84.9013 786.74 84.776C786.865 84.5253 786.928 84.3373 786.928 84.212C787.053 83.9613 787.241 83.648 787.492 83.272C787.743 82.7707 787.868 82.332 787.868 81.956C788.495 81.7053 788.933 81.204 789.184 80.452C789.56 79.5747 790.061 78.8853 790.688 78.384C790.563 78.1333 790.5 77.9453 790.5 77.82C790.625 77.6947 790.688 77.5067 790.688 77.256C791.816 76.504 792.944 75.8147 794.072 75.188C795.2 74.5613 796.391 74.3733 797.644 74.624C798.772 75.2507 799.649 76.128 800.276 77.256C800.652 78.5093 800.589 79.7 800.088 80.828C799.587 81.8307 799.023 82.6453 798.396 83.272C797.769 84.776 797.205 86.0293 796.704 87.032C796.328 87.9093 795.952 88.7867 795.576 89.664C795.2 90.5413 794.761 91.4813 794.26 92.484C793.884 93.4867 793.32 94.8027 792.568 96.432C791.941 97.936 791.315 99.0013 790.688 99.628C790.187 100.129 789.56 101.257 788.808 103.012C788.683 103.639 788.244 104.641 787.492 106.02C786.865 107.273 786.364 108.464 785.988 109.592C785.612 110.595 785.612 111.284 785.988 111.66C786.364 112.036 787.492 111.535 789.372 110.156C793.759 107.148 797.769 103.764 801.404 100.004C805.164 96.1187 809.049 92.1707 813.06 88.16C813.561 87.5333 814.188 86.7187 814.94 85.716C815.692 84.7133 816.444 83.7107 817.196 82.708C817.948 81.58 818.575 80.64 819.076 79.888C819.703 79.0107 820.204 78.4467 820.58 78.196C820.956 77.82 821.52 77.5067 822.272 77.256C823.024 76.88 823.713 76.88 824.34 77.256C825.092 77.5067 825.656 78.196 826.032 79.324C826.533 80.3267 826.659 81.956 826.408 84.212C825.781 85.716 825.217 87.032 824.716 88.16C824.34 89.1627 824.027 90.3533 823.776 91.732C823.525 92.6093 823.212 93.9253 822.836 95.68C822.585 97.3093 822.335 99.0013 822.084 100.756C821.959 102.511 821.959 104.14 822.084 105.644C822.209 107.023 822.585 107.837 823.212 108.088C824.716 108.715 826.095 108.903 827.348 108.652C828.727 108.276 830.105 107.649 831.484 106.772C835.369 104.892 838.064 103.576 839.568 102.824C841.197 101.947 842.513 101.257 843.516 100.756C844.644 100.129 845.96 99.5027 847.464 98.876C849.093 98.2493 851.913 97.2467 855.924 95.868C855.799 95.9933 855.736 96.3067 855.736 96.808C855.485 96.9333 855.548 96.996 855.924 96.996C856.3 96.8707 856.551 96.808 856.676 96.808C856.425 97.8107 855.736 98.7507 854.608 99.628C853.48 100.38 852.54 101.069 851.788 101.696C851.663 101.696 851.349 101.947 850.848 102.448C850.347 102.949 850.033 103.2 849.908 103.2L839.004 109.968C836.121 111.723 833.489 113.289 831.108 114.668C828.727 116.047 827.348 116.736 826.972 116.736C825.969 117.112 825.217 117.363 824.716 117.488C824.34 117.613 823.651 117.801 822.648 118.052C821.645 118.303 820.643 118.365 819.64 118.24C818.637 118.115 817.823 117.927 817.196 117.676C815.817 117.175 814.877 116.297 814.376 115.044C813.875 113.791 813.561 112.412 813.436 110.908C813.436 109.404 813.561 107.9 813.812 106.396C814.063 104.767 814.251 103.388 814.376 102.26C814.251 101.508 814.251 100.881 814.376 100.38C814.501 99.8787 814.689 99.3147 814.94 98.688C814.439 99.064 814 99.5027 813.624 100.004C813.248 100.505 812.747 100.881 812.12 101.132C811.744 101.633 811.368 101.947 810.992 102.072C810.741 102.197 810.491 102.323 810.24 102.448C809.989 102.573 809.676 102.761 809.3 103.012C809.049 103.263 808.799 103.639 808.548 104.14C808.172 104.14 807.921 104.203 807.796 104.328C807.796 104.453 807.733 104.579 807.608 104.704C807.483 104.704 807.42 104.955 807.42 105.456C806.041 106.709 804.788 107.649 803.66 108.276C802.532 108.777 801.341 109.717 800.088 111.096C798.96 111.723 798.083 112.537 797.456 113.54C796.829 114.417 796.015 115.169 795.012 115.796C794.385 116.548 793.571 117.112 792.568 117.488C792.443 117.739 792.255 117.989 792.004 118.24C791.753 118.491 791.503 118.616 791.252 118.616C791.001 119.493 790.5 120.12 789.748 120.496C788.996 120.747 788.307 121.248 787.68 122C782.917 122.752 779.659 122.376 777.904 120.872C776.149 119.368 775.272 117.363 775.272 114.856C775.272 112.224 775.836 109.341 776.964 106.208C778.217 102.949 779.533 99.9413 780.912 97.184ZM925.957 102.072C925.706 102.197 925.769 102.26 926.145 102.26C926.521 102.26 926.772 102.385 926.897 102.636C927.148 102.887 927.148 103.263 926.897 103.764C926.646 104.265 926.646 104.579 926.897 104.704C925.268 105.331 923.889 105.957 922.761 106.584C921.758 107.211 920.442 107.775 918.813 108.276C916.557 108.903 914.677 109.655 913.173 110.532C911.669 111.284 909.726 111.973 907.345 112.6C900.326 114.104 894.31 115.733 889.297 117.488C884.409 119.117 880.461 120.057 877.453 120.308C874.57 120.433 872.628 119.431 871.625 117.3C870.748 115.169 870.748 111.033 871.625 104.892C871.876 102.636 872.565 100.693 873.693 99.064C874.821 97.4347 875.698 95.5547 876.325 93.424C875.949 93.5493 875.573 93.6747 875.197 93.8C874.821 93.9253 874.445 94.2387 874.069 94.74C873.818 94.74 873.63 94.8027 873.505 94.928C873.505 94.928 873.38 94.928 873.129 94.928C869.244 98.8133 865.358 102.511 861.473 106.02C860.596 106.271 859.906 106.709 859.405 107.336C859.029 107.837 858.34 108.213 857.337 108.464C857.086 109.091 856.71 109.655 856.209 110.156C855.708 110.657 855.206 111.159 854.705 111.66C854.705 112.663 854.392 113.477 853.765 114.104C853.013 116.235 852.261 118.491 851.509 120.872C850.757 123.128 849.88 125.321 848.877 127.452C846.872 128.831 845.305 129.645 844.177 129.896C843.049 130.147 842.172 130.084 841.545 129.708C840.793 129.457 840.292 129.019 840.041 128.392C839.665 127.765 839.352 127.264 839.101 126.888C838.85 126.637 839.101 125.509 839.853 123.504C840.48 121.499 841.294 119.305 842.297 116.924C843.174 114.417 844.052 112.099 844.929 109.968C845.806 107.712 846.37 106.208 846.621 105.456L850.005 97.56C850.381 96.432 850.757 95.304 851.133 94.176C851.634 93.048 852.136 91.92 852.637 90.792C852.762 90.416 853.013 90.1653 853.389 90.04C853.64 89.288 853.828 88.536 853.953 87.784C854.078 87.032 854.392 86.4053 854.893 85.904C854.768 85.528 854.768 85.2773 854.893 85.152C855.144 85.0267 855.394 84.8387 855.645 84.588C856.522 81.8307 857.525 79.0733 858.653 76.316C859.906 73.4333 860.846 70.488 861.473 67.48C861.598 67.3547 861.661 67.2293 861.661 67.104C862.288 66.4773 862.726 65.6627 862.977 64.66C863.228 63.6573 863.541 62.78 863.917 62.028L866.173 56.2C867.176 54.8213 867.865 53.38 868.241 51.876C868.617 50.372 869.181 48.9307 869.933 47.552C870.184 46.5493 870.497 45.672 870.873 44.92C871.374 44.0427 871.75 43.1027 872.001 42.1C872.628 40.7213 873.192 39.5307 873.693 38.528C874.32 37.4 874.821 36.2093 875.197 34.956V34.768C875.197 34.6427 875.26 34.6427 875.385 34.768C875.51 34.1413 875.573 33.64 875.573 33.264C875.698 32.7627 875.886 32.2613 876.137 31.76C876.262 31.5093 876.45 31.1333 876.701 30.632C876.952 30.1307 877.202 29.504 877.453 28.752L878.393 26.872C878.518 26.3707 878.581 26.12 878.581 26.12C878.832 25.1173 878.957 24.616 878.957 24.616C878.957 24.3653 879.02 24.1773 879.145 24.052C879.396 23.9267 879.584 23.7387 879.709 23.488V22.548C879.834 22.0467 880.022 21.608 880.273 21.232C880.649 20.856 880.837 20.3547 880.837 19.728C881.088 19.1013 881.338 18.4747 881.589 17.848C881.84 17.096 882.09 16.344 882.341 15.592C882.968 14.464 883.344 13.2733 883.469 12.02C883.72 10.7667 884.221 9.57599 884.973 8.44799C885.976 8.19733 886.916 7.75867 887.793 7.132C888.796 6.50533 890.174 6.44266 891.929 6.94399C892.18 7.19466 892.43 7.44533 892.681 7.69599C892.932 7.82132 893.245 7.88399 893.621 7.88399C894.498 8.38532 895.376 9.13733 896.253 10.14C897.13 11.1427 897.757 12.2707 898.133 13.524C898.634 14.7773 898.885 16.0307 898.885 17.284C898.885 18.412 898.509 19.4147 897.757 20.292C897.13 22.0467 896.378 23.6133 895.501 24.992C894.624 26.2453 893.872 27.7493 893.245 29.504C892.618 30.0053 892.242 30.6947 892.117 31.572C891.992 32.324 891.678 33.0133 891.177 33.64C890.926 34.392 890.613 35.0187 890.237 35.52C889.861 36.0213 889.61 36.648 889.485 37.4C889.234 37.4 889.109 37.4627 889.109 37.588C889.109 37.7133 889.046 37.7133 888.921 37.588C888.921 37.964 888.858 38.2147 888.733 38.34C888.608 38.4653 888.608 38.5907 888.733 38.716C888.232 39.2173 887.793 39.844 887.417 40.596C887.166 41.348 886.916 41.8493 886.665 42.1C886.164 43.228 885.662 44.356 885.161 45.484C884.66 46.4867 884.096 47.552 883.469 48.68C882.717 49.6827 882.278 50.748 882.153 51.876C881.902 52.1267 881.652 52.3773 881.401 52.628C881.15 52.8787 881.025 53.1293 881.025 53.38C880.774 53.8813 880.586 54.3827 880.461 54.884C880.336 55.26 880.085 55.5733 879.709 55.824C879.584 56.576 879.333 57.2027 878.957 57.704C878.706 58.08 878.456 58.5813 878.205 59.208C877.954 59.584 877.766 59.96 877.641 60.336C877.516 60.712 877.328 61.088 877.077 61.464C876.826 61.9653 876.638 62.4667 876.513 62.968C876.388 63.4693 876.074 63.9707 875.573 64.472C875.448 65.7253 875.134 66.8533 874.633 67.856C874.132 68.8587 873.568 69.8613 872.941 70.864C872.941 71.1147 872.878 71.24 872.753 71.24C872.753 71.24 872.816 71.3653 872.941 71.616C872.816 71.8667 872.69 72.0547 872.565 72.18C872.565 72.3053 872.565 72.4933 872.565 72.744C871.813 73.496 871.437 74.5613 871.437 75.94C870.309 77.6947 869.369 79.5747 868.617 81.58C867.99 83.46 867.113 85.152 865.985 86.656C865.484 88.0347 865.045 89.288 864.669 90.416C864.293 91.544 863.792 92.672 863.165 93.8C864.293 93.1733 865.421 92.4213 866.549 91.544C867.677 90.5413 868.742 89.664 869.745 88.912C871.876 87.032 874.069 85.2147 876.325 83.46C878.581 81.7053 880.9 80.0133 883.281 78.384C884.409 77.7573 885.6 77.0053 886.853 76.128C888.232 75.2507 889.61 74.6867 890.989 74.436C891.616 74.1853 892.305 74.1227 893.057 74.248C893.934 74.248 894.686 74.3107 895.313 74.436C896.065 74.9373 896.817 75.564 897.569 76.316C898.446 76.9427 899.01 77.7573 899.261 78.76C899.637 79.3867 899.95 79.8253 900.201 80.076C900.577 80.2013 900.765 80.5773 900.765 81.204C900.765 81.8307 900.452 82.332 899.825 82.708C899.324 83.084 898.885 83.3973 898.509 83.648C898.258 84.2747 897.82 84.7133 897.193 84.964C896.692 85.0893 896.253 85.4027 895.877 85.904C894.122 86.9067 892.681 88.0973 891.553 89.476C890.55 90.8547 889.172 92.0453 887.417 93.048C886.414 93.8 885.349 94.74 884.221 95.868C883.093 96.996 882.028 98.2493 881.025 99.628C880.148 100.881 879.396 102.197 878.769 103.576C878.142 104.829 877.954 106.083 878.205 107.336C877.954 109.091 878.393 110.093 879.521 110.344C880.774 110.595 882.278 110.72 884.033 110.72C886.54 110.595 888.858 110.344 890.989 109.968C893.245 109.467 895.564 108.965 897.945 108.464C901.956 107.587 905.277 106.835 907.909 106.208C910.666 105.581 913.048 105.017 915.053 104.516C917.058 103.889 918.876 103.388 920.505 103.012C922.134 102.636 923.952 102.323 925.957 102.072Z" fill="black"/>
</svg>
