<svg width="96" height="83" viewBox="0 0 96 83" fill="none" xmlns="http://www.w3.org/2000/svg">
<path d="M6.984 42.624C11.592 38.784 15.264 35.592 18 33.048C20.736 30.456 23.016 27.768 24.84 24.984C26.664 22.2 27.576 19.464 27.576 16.776C27.576 14.328 27 12.408 25.848 11.016C24.696 9.624 22.92 8.928 20.52 8.928C18.12 8.928 16.272 9.744 14.976 11.376C13.68 12.96 13.008 15.144 12.96 17.928H3.168C3.36 12.168 5.064 7.8 8.28 4.824C11.544 1.848 15.672 0.359995 20.664 0.359995C26.136 0.359995 30.336 1.824 33.264 4.752C36.192 7.632 37.656 11.448 37.656 16.2C37.656 19.944 36.648 23.52 34.632 26.928C32.616 30.336 30.312 33.312 27.72 35.856C25.128 38.352 21.744 41.376 17.568 44.928H38.808V53.28H3.24V45.792L6.984 42.624ZM44.7278 43.776V35.856L68.2718 2.16H80.0078V34.992H86.3438V43.776H80.0078V54H69.9278V43.776H44.7278ZM70.5758 12.96L55.8158 34.992H70.5758V12.96Z" fill="#333333"/>
<path d="M8.688 68.112C8.688 69.04 8.368 69.8133 7.728 70.432C7.09867 71.04 6.13333 71.344 4.832 71.344H2.688V76H1.232V64.848H4.832C6.09067 64.848 7.04533 65.152 7.696 65.76C8.35733 66.368 8.688 67.152 8.688 68.112ZM4.832 70.144C5.64267 70.144 6.24 69.968 6.624 69.616C7.008 69.264 7.2 68.7627 7.2 68.112C7.2 66.736 6.41067 66.048 4.832 66.048H2.688V70.144H4.832ZM9.95363 71.584C9.95363 70.688 10.135 69.904 10.4976 69.232C10.8603 68.5493 11.3563 68.0213 11.9856 67.648C12.6256 67.2747 13.335 67.088 14.1136 67.088C14.8816 67.088 15.5483 67.2533 16.1136 67.584C16.679 67.9147 17.1003 68.3307 17.3776 68.832V67.232H18.8496V76H17.3776V74.368C17.0896 74.88 16.6576 75.3067 16.0816 75.648C15.5163 75.9787 14.855 76.144 14.0976 76.144C13.319 76.144 12.615 75.952 11.9856 75.568C11.3563 75.184 10.8603 74.6453 10.4976 73.952C10.135 73.2587 9.95363 72.4693 9.95363 71.584ZM17.3776 71.6C17.3776 70.9387 17.2443 70.3627 16.9776 69.872C16.711 69.3813 16.3483 69.008 15.8896 68.752C15.4416 68.4853 14.9456 68.352 14.4016 68.352C13.8576 68.352 13.3616 68.48 12.9136 68.736C12.4656 68.992 12.1083 69.3653 11.8416 69.856C11.575 70.3467 11.4416 70.9227 11.4416 71.584C11.4416 72.256 11.575 72.8427 11.8416 73.344C12.1083 73.8347 12.4656 74.2133 12.9136 74.48C13.3616 74.736 13.8576 74.864 14.4016 74.864C14.9456 74.864 15.4416 74.736 15.8896 74.48C16.3483 74.2133 16.711 73.8347 16.9776 73.344C17.2443 72.8427 17.3776 72.2613 17.3776 71.6ZM22.7661 68.656C23.0221 68.1547 23.3848 67.7653 23.8541 67.488C24.3341 67.2107 24.9155 67.072 25.5981 67.072V68.576H25.2141C23.5821 68.576 22.7661 69.4613 22.7661 71.232V76H21.3101V67.232H22.7661V68.656ZM29.0549 68.432V73.6C29.0549 74.0267 29.1455 74.3307 29.3269 74.512C29.5082 74.6827 29.8229 74.768 30.2709 74.768H31.3429V76H30.0309C29.2202 76 28.6122 75.8133 28.2069 75.44C27.8015 75.0667 27.5989 74.4533 27.5989 73.6V68.432H26.4629V67.232H27.5989V65.024H29.0549V67.232H31.3429V68.432H29.0549ZM33.859 65.808C33.5817 65.808 33.347 65.712 33.155 65.52C32.963 65.328 32.867 65.0933 32.867 64.816C32.867 64.5387 32.963 64.304 33.155 64.112C33.347 63.92 33.5817 63.824 33.859 63.824C34.1257 63.824 34.3497 63.92 34.531 64.112C34.723 64.304 34.819 64.5387 34.819 64.816C34.819 65.0933 34.723 65.328 34.531 65.52C34.3497 65.712 34.1257 65.808 33.859 65.808ZM34.563 67.232V76H33.107V67.232H34.563ZM36.5005 71.6C36.5005 70.6933 36.6818 69.904 37.0445 69.232C37.4072 68.5493 37.9085 68.0213 38.5485 67.648C39.1992 67.2747 39.9405 67.088 40.7725 67.088C41.8498 67.088 42.7352 67.3493 43.4285 67.872C44.1325 68.3947 44.5965 69.12 44.8205 70.048H43.2525C43.1032 69.5147 42.8098 69.0933 42.3725 68.784C41.9458 68.4747 41.4125 68.32 40.7725 68.32C39.9405 68.32 39.2685 68.608 38.7565 69.184C38.2445 69.7493 37.9885 70.5547 37.9885 71.6C37.9885 72.656 38.2445 73.472 38.7565 74.048C39.2685 74.624 39.9405 74.912 40.7725 74.912C41.4125 74.912 41.9458 74.7627 42.3725 74.464C42.7992 74.1653 43.0925 73.7387 43.2525 73.184H44.8205C44.5858 74.08 44.1165 74.8 43.4125 75.344C42.7085 75.8773 41.8285 76.144 40.7725 76.144C39.9405 76.144 39.1992 75.9573 38.5485 75.584C37.9085 75.2107 37.4072 74.6827 37.0445 74C36.6818 73.3173 36.5005 72.5173 36.5005 71.6ZM47.5153 65.808C47.2379 65.808 47.0033 65.712 46.8113 65.52C46.6193 65.328 46.5233 65.0933 46.5233 64.816C46.5233 64.5387 46.6193 64.304 46.8113 64.112C47.0033 63.92 47.2379 63.824 47.5153 63.824C47.7819 63.824 48.0059 63.92 48.1873 64.112C48.3793 64.304 48.4753 64.5387 48.4753 64.816C48.4753 65.0933 48.3793 65.328 48.1873 65.52C48.0059 65.712 47.7819 65.808 47.5153 65.808ZM48.2193 67.232V76H46.7633V67.232H48.2193ZM52.1568 68.848C52.4448 68.3467 52.8714 67.9307 53.4368 67.6C54.0128 67.2587 54.6794 67.088 55.4368 67.088C56.2154 67.088 56.9194 67.2747 57.5487 67.648C58.1887 68.0213 58.6901 68.5493 59.0528 69.232C59.4154 69.904 59.5968 70.688 59.5968 71.584C59.5968 72.4693 59.4154 73.2587 59.0528 73.952C58.6901 74.6453 58.1887 75.184 57.5487 75.568C56.9194 75.952 56.2154 76.144 55.4368 76.144C54.6901 76.144 54.0288 75.9787 53.4528 75.648C52.8874 75.3067 52.4554 74.8853 52.1568 74.384V80.16H50.7008V67.232H52.1568V68.848ZM58.1088 71.584C58.1088 70.9227 57.9754 70.3467 57.7088 69.856C57.4421 69.3653 57.0794 68.992 56.6208 68.736C56.1728 68.48 55.6768 68.352 55.1328 68.352C54.5994 68.352 54.1034 68.4853 53.6448 68.752C53.1968 69.008 52.8341 69.3867 52.5568 69.888C52.2901 70.3787 52.1568 70.9493 52.1568 71.6C52.1568 72.2613 52.2901 72.8427 52.5568 73.344C52.8341 73.8347 53.1968 74.2133 53.6448 74.48C54.1034 74.736 54.5994 74.864 55.1328 74.864C55.6768 74.864 56.1728 74.736 56.6208 74.48C57.0794 74.2133 57.4421 73.8347 57.7088 73.344C57.9754 72.8427 58.1088 72.256 58.1088 71.584ZM60.9693 71.584C60.9693 70.688 61.1506 69.904 61.5133 69.232C61.8759 68.5493 62.3719 68.0213 63.0013 67.648C63.6413 67.2747 64.3506 67.088 65.1293 67.088C65.8973 67.088 66.5639 67.2533 67.1293 67.584C67.6946 67.9147 68.1159 68.3307 68.3933 68.832V67.232H69.8653V76H68.3933V74.368C68.1053 74.88 67.6733 75.3067 67.0973 75.648C66.5319 75.9787 65.8706 76.144 65.1133 76.144C64.3346 76.144 63.6306 75.952 63.0013 75.568C62.3719 75.184 61.8759 74.6453 61.5133 73.952C61.1506 73.2587 60.9693 72.4693 60.9693 71.584ZM68.3933 71.6C68.3933 70.9387 68.2599 70.3627 67.9933 69.872C67.7266 69.3813 67.3639 69.008 66.9053 68.752C66.4573 68.4853 65.9613 68.352 65.4173 68.352C64.8733 68.352 64.3773 68.48 63.9293 68.736C63.4813 68.992 63.1239 69.3653 62.8573 69.856C62.5906 70.3467 62.4573 70.9227 62.4573 71.584C62.4573 72.256 62.5906 72.8427 62.8573 73.344C63.1239 73.8347 63.4813 74.2133 63.9293 74.48C64.3773 74.736 64.8733 74.864 65.4173 74.864C65.9613 74.864 66.4573 74.736 66.9053 74.48C67.3639 74.2133 67.7266 73.8347 67.9933 73.344C68.2599 72.8427 68.3933 72.2613 68.3933 71.6ZM76.5978 67.072C77.6644 67.072 78.5284 67.3973 79.1898 68.048C79.8511 68.688 80.1818 69.616 80.1818 70.832V76H78.7418V71.04C78.7418 70.1653 78.5231 69.4987 78.0858 69.04C77.6484 68.5707 77.0511 68.336 76.2938 68.336C75.5258 68.336 74.9124 68.576 74.4538 69.056C74.0058 69.536 73.7818 70.2347 73.7818 71.152V76H72.3258V67.232H73.7818V68.48C74.0698 68.032 74.4591 67.6853 74.9498 67.44C75.4511 67.1947 76.0004 67.072 76.5978 67.072ZM84.3361 68.432V73.6C84.3361 74.0267 84.4268 74.3307 84.6081 74.512C84.7895 74.6827 85.1041 74.768 85.5521 74.768H86.6241V76H85.3121C84.5015 76 83.8935 75.8133 83.4881 75.44C83.0828 75.0667 82.8801 74.4533 82.8801 73.6V68.432H81.7441V67.232H82.8801V65.024H84.3361V67.232H86.6241V68.432H84.3361ZM91.4923 76.144C90.8203 76.144 90.2176 76.032 89.6843 75.808C89.1509 75.5733 88.7296 75.2533 88.4203 74.848C88.1109 74.432 87.9403 73.9573 87.9083 73.424H89.4123C89.4549 73.8613 89.6576 74.2187 90.0203 74.496C90.3936 74.7733 90.8789 74.912 91.4763 74.912C92.0309 74.912 92.4683 74.7893 92.7883 74.544C93.1083 74.2987 93.2683 73.9893 93.2683 73.616C93.2683 73.232 93.0976 72.9493 92.7563 72.768C92.4149 72.576 91.8869 72.3893 91.1723 72.208C90.5216 72.0373 89.9883 71.8667 89.5723 71.696C89.1669 71.5147 88.8149 71.2533 88.5163 70.912C88.2283 70.56 88.0843 70.1013 88.0843 69.536C88.0843 69.088 88.2176 68.6773 88.4843 68.304C88.7509 67.9307 89.1296 67.6373 89.6203 67.424C90.1109 67.2 90.6709 67.088 91.3003 67.088C92.2709 67.088 93.0549 67.3333 93.6523 67.824C94.2496 68.3147 94.5696 68.9867 94.6123 69.84H93.1563C93.1243 69.3813 92.9376 69.0133 92.5963 68.736C92.2656 68.4587 91.8176 68.32 91.2523 68.32C90.7296 68.32 90.3136 68.432 90.0043 68.656C89.6949 68.88 89.5403 69.1733 89.5403 69.536C89.5403 69.824 89.6309 70.064 89.8123 70.256C90.0043 70.4373 90.2389 70.5867 90.5163 70.704C90.8043 70.8107 91.1989 70.9333 91.7003 71.072C92.3296 71.2427 92.8416 71.4133 93.2363 71.584C93.6309 71.744 93.9669 71.9893 94.2443 72.32C94.5323 72.6507 94.6816 73.0827 94.6923 73.616C94.6923 74.096 94.5589 74.528 94.2923 74.912C94.0256 75.296 93.6469 75.6 93.1563 75.824C92.6763 76.0373 92.1216 76.144 91.4923 76.144Z" fill="#333333"/>
</svg>
