<svg width="987" height="123" viewBox="0 0 987 123" fill="none" xmlns="http://www.w3.org/2000/svg">
<path d="M23.2955 39.2557C21.9886 39.2557 20.8665 38.9688 19.929 38.3949C18.9972 37.821 18.2784 37.0284 17.7727 36.017C17.2727 35 17.0227 33.8295 17.0227 32.5057C17.0227 31.1761 17.2784 30.0028 17.7898 28.9858C18.3011 27.9631 19.0227 27.1676 19.9545 26.5994C20.892 26.0256 22 25.7386 23.2784 25.7386C24.3409 25.7386 25.2813 25.9347 26.0994 26.3267C26.9233 26.7131 27.5795 27.2614 28.0682 27.9716C28.5568 28.6761 28.8352 29.5 28.9034 30.4432H25.9545C25.8352 29.8125 25.5511 29.2869 25.1023 28.8665C24.6591 28.4403 24.0653 28.2273 23.321 28.2273C22.6903 28.2273 22.1364 28.3977 21.6591 28.7386C21.1818 29.0739 20.8097 29.5568 20.5426 30.1875C20.2813 30.8182 20.1506 31.5739 20.1506 32.4545C20.1506 33.3466 20.2813 34.1136 20.5426 34.7557C20.804 35.392 21.1705 35.8835 21.642 36.2301C22.1193 36.571 22.679 36.7415 23.321 36.7415C23.7756 36.7415 24.1818 36.6562 24.5398 36.4858C24.9034 36.3097 25.2074 36.0568 25.4517 35.7273C25.696 35.3977 25.8636 34.9972 25.9545 34.5256H28.9034C28.8295 35.4517 28.5568 36.2727 28.0852 36.9886C27.6136 37.6989 26.9716 38.2557 26.1591 38.6591C25.3466 39.0568 24.392 39.2557 23.2955 39.2557ZM34.9638 39.2642C34.1343 39.2642 33.3871 39.1165 32.7224 38.821C32.0633 38.5199 31.5405 38.0767 31.1542 37.4915C30.7735 36.9062 30.5832 36.1847 30.5832 35.3267C30.5832 34.5881 30.7195 33.9773 30.9922 33.4943C31.265 33.0114 31.6371 32.625 32.1087 32.3352C32.5803 32.0455 33.1116 31.8267 33.7025 31.679C34.2991 31.5256 34.9155 31.4148 35.5519 31.3466C36.3189 31.267 36.9411 31.196 37.4184 31.1335C37.8957 31.0653 38.2422 30.9631 38.4582 30.8267C38.6797 30.6847 38.7905 30.4659 38.7905 30.1705V30.1193C38.7905 29.4773 38.6002 28.9801 38.2195 28.6278C37.8388 28.2756 37.2905 28.0994 36.5746 28.0994C35.8189 28.0994 35.2195 28.2642 34.7763 28.5938C34.3388 28.9233 34.0434 29.3125 33.89 29.7614L31.0093 29.3523C31.2366 28.5568 31.6116 27.892 32.1343 27.358C32.657 26.8182 33.2962 26.4148 34.0519 26.1477C34.8076 25.875 35.6428 25.7386 36.5576 25.7386C37.1883 25.7386 37.8161 25.8125 38.4411 25.9602C39.0661 26.108 39.6371 26.3523 40.1542 26.6932C40.6712 27.0284 41.086 27.4858 41.3985 28.0653C41.7167 28.6449 41.8758 29.3693 41.8758 30.2386V39H38.9099V37.2017H38.8076C38.6201 37.5653 38.3559 37.9062 38.015 38.2244C37.6797 38.5369 37.2564 38.7898 36.7451 38.983C36.2394 39.1705 35.6457 39.2642 34.9638 39.2642ZM35.765 36.9972C36.3843 36.9972 36.9212 36.875 37.3758 36.6307C37.8303 36.3807 38.1797 36.0511 38.4241 35.642C38.6741 35.233 38.7991 34.7869 38.7991 34.304V32.7614C38.7025 32.8409 38.5377 32.9148 38.3047 32.983C38.0775 33.0511 37.8218 33.1108 37.5377 33.1619C37.2536 33.2131 36.9724 33.2585 36.6939 33.2983C36.4155 33.3381 36.1741 33.3722 35.9695 33.4006C35.5093 33.4631 35.0974 33.5653 34.7337 33.7074C34.3701 33.8494 34.0832 34.0483 33.8729 34.304C33.6627 34.554 33.5576 34.8778 33.5576 35.2756C33.5576 35.8438 33.765 36.2727 34.1797 36.5625C34.5945 36.8523 35.1229 36.9972 35.765 36.9972ZM47.8233 31.3295V39H44.738V25.9091H47.6869V28.1335H47.8403C48.1414 27.4006 48.6216 26.8182 49.2807 26.3864C49.9454 25.9545 50.7664 25.7386 51.7437 25.7386C52.6471 25.7386 53.4341 25.9318 54.1045 26.3182C54.7807 26.7045 55.3034 27.2642 55.6727 27.9972C56.0477 28.7301 56.2324 29.6193 56.2267 30.6648V39H53.1414V31.142C53.1414 30.267 52.9142 29.5824 52.4596 29.0881C52.0108 28.5937 51.3886 28.3466 50.5932 28.3466C50.0534 28.3466 49.5733 28.4659 49.1528 28.7045C48.738 28.9375 48.4113 29.2756 48.1727 29.7188C47.9397 30.1619 47.8233 30.6989 47.8233 31.3295ZM63.981 39.2301C62.9526 39.2301 62.0321 38.9659 61.2196 38.4375C60.4071 37.9091 59.7651 37.142 59.2935 36.1364C58.8219 35.1307 58.5861 33.9091 58.5861 32.4716C58.5861 31.017 58.8247 29.7898 59.302 28.7898C59.785 27.7841 60.4355 27.0256 61.2537 26.5142C62.0719 25.9972 62.9838 25.7386 63.9895 25.7386C64.7566 25.7386 65.3872 25.8693 65.8816 26.1307C66.3759 26.3864 66.7679 26.696 67.0577 27.0597C67.3475 27.4176 67.5719 27.7557 67.731 28.0739H67.8588V21.5455H70.9526V39H67.9185V36.9375H67.731C67.5719 37.2557 67.3418 37.5937 67.0407 37.9517C66.7395 38.304 66.3418 38.6051 65.8475 38.8551C65.3532 39.1051 64.731 39.2301 63.981 39.2301ZM64.8418 36.6989C65.4952 36.6989 66.052 36.5227 66.5122 36.1705C66.9725 35.8125 67.3219 35.3153 67.5605 34.679C67.7992 34.0426 67.9185 33.3011 67.9185 32.4545C67.9185 31.608 67.7992 30.8722 67.5605 30.2472C67.3276 29.6222 66.981 29.1364 66.5208 28.7898C66.0662 28.4432 65.5066 28.2699 64.8418 28.2699C64.1543 28.2699 63.5804 28.4489 63.1202 28.8068C62.66 29.1648 62.3134 29.6591 62.0804 30.2898C61.8475 30.9205 61.731 31.642 61.731 32.4545C61.731 33.2727 61.8475 34.0028 62.0804 34.6449C62.3191 35.2812 62.6685 35.7841 63.1287 36.1534C63.5946 36.517 64.1657 36.6989 64.8418 36.6989ZM74.0002 39V25.9091H77.0855V39H74.0002ZM75.5514 24.0511C75.0627 24.0511 74.6423 23.8892 74.29 23.5653C73.9377 23.2358 73.7616 22.8409 73.7616 22.3807C73.7616 21.9148 73.9377 21.5199 74.29 21.196C74.6423 20.8665 75.0627 20.7017 75.5514 20.7017C76.0457 20.7017 76.4661 20.8665 76.8127 21.196C77.165 21.5199 77.3411 21.9148 77.3411 22.3807C77.3411 22.8409 77.165 23.2358 76.8127 23.5653C76.4661 23.8892 76.0457 24.0511 75.5514 24.0511ZM84.876 39.2301C83.8476 39.2301 82.9271 38.9659 82.1146 38.4375C81.3021 37.9091 80.6601 37.142 80.1885 36.1364C79.7169 35.1307 79.4811 33.9091 79.4811 32.4716C79.4811 31.017 79.7197 29.7898 80.197 28.7898C80.68 27.7841 81.3305 27.0256 82.1487 26.5142C82.9669 25.9972 83.8788 25.7386 84.8845 25.7386C85.6516 25.7386 86.2822 25.8693 86.7766 26.1307C87.2709 26.3864 87.6629 26.696 87.9527 27.0597C88.2425 27.4176 88.4669 27.7557 88.626 28.0739H88.7538V21.5455H91.8476V39H88.8135V36.9375H88.626C88.4669 37.2557 88.2368 37.5937 87.9357 37.9517C87.6345 38.304 87.2368 38.6051 86.7425 38.8551C86.2482 39.1051 85.626 39.2301 84.876 39.2301ZM85.7368 36.6989C86.3902 36.6989 86.947 36.5227 87.4072 36.1705C87.8675 35.8125 88.2169 35.3153 88.4555 34.679C88.6942 34.0426 88.8135 33.3011 88.8135 32.4545C88.8135 31.608 88.6942 30.8722 88.4555 30.2472C88.2226 29.6222 87.876 29.1364 87.4158 28.7898C86.9612 28.4432 86.4016 28.2699 85.7368 28.2699C85.0493 28.2699 84.4754 28.4489 84.0152 28.8068C83.555 29.1648 83.2084 29.6591 82.9754 30.2898C82.7425 30.9205 82.626 31.642 82.626 32.4545C82.626 33.2727 82.7425 34.0028 82.9754 34.6449C83.2141 35.2812 83.5635 35.7841 84.0237 36.1534C84.4896 36.517 85.0607 36.6989 85.7368 36.6989ZM98.6623 39.2642C97.8327 39.2642 97.0856 39.1165 96.4208 38.821C95.7617 38.5199 95.239 38.0767 94.8526 37.4915C94.4719 36.9062 94.2816 36.1847 94.2816 35.3267C94.2816 34.5881 94.418 33.9773 94.6907 33.4943C94.9634 33.0114 95.3356 32.625 95.8072 32.3352C96.2787 32.0455 96.81 31.8267 97.4009 31.679C97.9975 31.5256 98.614 31.4148 99.2503 31.3466C100.017 31.267 100.64 31.196 101.117 31.1335C101.594 31.0653 101.941 30.9631 102.157 30.8267C102.378 30.6847 102.489 30.4659 102.489 30.1705V30.1193C102.489 29.4773 102.299 28.9801 101.918 28.6278C101.537 28.2756 100.989 28.0994 100.273 28.0994C99.5174 28.0994 98.918 28.2642 98.4748 28.5938C98.0373 28.9233 97.7418 29.3125 97.5884 29.7614L94.7077 29.3523C94.935 28.5568 95.31 27.892 95.8327 27.358C96.3555 26.8182 96.9947 26.4148 97.7503 26.1477C98.506 25.875 99.3412 25.7386 100.256 25.7386C100.887 25.7386 101.515 25.8125 102.14 25.9602C102.765 26.108 103.336 26.3523 103.853 26.6932C104.37 27.0284 104.784 27.4858 105.097 28.0653C105.415 28.6449 105.574 29.3693 105.574 30.2386V39H102.608V37.2017H102.506C102.319 37.5653 102.054 37.9062 101.713 38.2244C101.378 38.5369 100.955 38.7898 100.444 38.983C99.9378 39.1705 99.3441 39.2642 98.6623 39.2642ZM99.4634 36.9972C100.083 36.9972 100.62 36.875 101.074 36.6307C101.529 36.3807 101.878 36.0511 102.122 35.642C102.372 35.233 102.497 34.7869 102.497 34.304V32.7614C102.401 32.8409 102.236 32.9148 102.003 32.983C101.776 33.0511 101.52 33.1108 101.236 33.1619C100.952 33.2131 100.671 33.2585 100.392 33.2983C100.114 33.3381 99.8725 33.3722 99.668 33.4006C99.2077 33.4631 98.7958 33.5653 98.4322 33.7074C98.0685 33.8494 97.7816 34.0483 97.5714 34.304C97.3611 34.554 97.256 34.8778 97.256 35.2756C97.256 35.8438 97.4634 36.2727 97.8782 36.5625C98.293 36.8523 98.8214 36.9972 99.4634 36.9972ZM114.973 25.9091V28.2955H107.448V25.9091H114.973ZM109.306 22.7727H112.391V35.0625C112.391 35.4773 112.454 35.7955 112.579 36.017C112.709 36.233 112.88 36.3807 113.09 36.4602C113.3 36.5398 113.533 36.5795 113.789 36.5795C113.982 36.5795 114.158 36.5653 114.317 36.5369C114.482 36.5085 114.607 36.483 114.692 36.4602L115.212 38.8722C115.047 38.929 114.811 38.9915 114.505 39.0597C114.204 39.1278 113.834 39.1676 113.397 39.179C112.624 39.2017 111.928 39.0852 111.309 38.8295C110.689 38.5682 110.198 38.1648 109.834 37.6193C109.476 37.0739 109.3 36.392 109.306 35.5739V22.7727ZM122.968 39.2557C121.656 39.2557 120.522 38.983 119.568 38.4375C118.619 37.8864 117.889 37.108 117.378 36.1023C116.866 35.0909 116.611 33.9006 116.611 32.5312C116.611 31.1847 116.866 30.0028 117.378 28.9858C117.895 27.9631 118.616 27.1676 119.542 26.5994C120.468 26.0256 121.557 25.7386 122.807 25.7386C123.613 25.7386 124.375 25.8693 125.091 26.1307C125.812 26.3864 126.449 26.7841 127 27.3239C127.557 27.8636 127.994 28.5511 128.312 29.3864C128.63 30.2159 128.79 31.2045 128.79 32.3523V33.2983H118.059V31.2188H125.832C125.826 30.6278 125.699 30.1023 125.449 29.642C125.199 29.1761 124.849 28.8097 124.4 28.5426C123.957 28.2756 123.44 28.142 122.849 28.142C122.218 28.142 121.665 28.2955 121.187 28.6023C120.71 28.9034 120.338 29.3011 120.071 29.7955C119.809 30.2841 119.676 30.821 119.67 31.4062V33.2216C119.67 33.983 119.809 34.6364 120.088 35.1818C120.366 35.7216 120.755 36.1364 121.255 36.4261C121.755 36.7102 122.341 36.8523 123.011 36.8523C123.46 36.8523 123.866 36.7898 124.23 36.6648C124.593 36.5341 124.909 36.3438 125.176 36.0938C125.443 35.8438 125.645 35.5341 125.781 35.1648L128.662 35.4886C128.48 36.25 128.133 36.9148 127.622 37.483C127.116 38.0455 126.468 38.483 125.679 38.7955C124.889 39.1023 123.986 39.2557 122.968 39.2557ZM141.506 29.3693L138.694 29.6761C138.614 29.392 138.475 29.125 138.276 28.875C138.083 28.625 137.822 28.4233 137.492 28.2699C137.162 28.1165 136.759 28.0398 136.282 28.0398C135.64 28.0398 135.1 28.179 134.662 28.4574C134.231 28.7358 134.018 29.0966 134.023 29.5398C134.018 29.9205 134.157 30.2301 134.441 30.4688C134.731 30.7074 135.208 30.9034 135.873 31.0568L138.106 31.5341C139.344 31.8011 140.265 32.2244 140.867 32.804C141.475 33.3835 141.782 34.142 141.787 35.0795C141.782 35.9034 141.54 36.6307 141.063 37.2614C140.591 37.8864 139.935 38.375 139.094 38.7273C138.253 39.0795 137.287 39.2557 136.197 39.2557C134.594 39.2557 133.304 38.9205 132.327 38.25C131.35 37.5739 130.768 36.6335 130.58 35.429L133.589 35.1392C133.725 35.7301 134.015 36.1761 134.458 36.4773C134.901 36.7784 135.478 36.929 136.188 36.929C136.921 36.929 137.509 36.7784 137.952 36.4773C138.401 36.1761 138.626 35.804 138.626 35.3608C138.626 34.9858 138.481 34.6761 138.191 34.4318C137.907 34.1875 137.464 34 136.861 33.8693L134.628 33.4006C133.373 33.1392 132.444 32.6989 131.841 32.0795C131.239 31.4545 130.941 30.6648 130.947 29.7102C130.941 28.9034 131.16 28.2045 131.603 27.6136C132.052 27.017 132.674 26.5568 133.469 26.233C134.27 25.9034 135.194 25.7386 136.239 25.7386C137.773 25.7386 138.981 26.0653 139.861 26.7188C140.748 27.3722 141.296 28.2557 141.506 29.3693ZM153.765 39V41.4631H142.489V39H153.765ZM156.18 43.9091V25.9091H159.214V28.0739H159.393C159.552 27.7557 159.776 27.4176 160.066 27.0597C160.356 26.696 160.748 26.3864 161.242 26.1307C161.736 25.8693 162.367 25.7386 163.134 25.7386C164.146 25.7386 165.057 25.9972 165.87 26.5142C166.688 27.0256 167.336 27.7841 167.813 28.7898C168.296 29.7898 168.538 31.017 168.538 32.4716C168.538 33.9091 168.302 35.1307 167.83 36.1364C167.359 37.142 166.717 37.9091 165.904 38.4375C165.092 38.9659 164.171 39.2301 163.143 39.2301C162.393 39.2301 161.771 39.1051 161.276 38.8551C160.782 38.6051 160.384 38.304 160.083 37.9517C159.788 37.5937 159.557 37.2557 159.393 36.9375H159.265V43.9091H156.18ZM159.205 32.4545C159.205 33.3011 159.324 34.0426 159.563 34.679C159.807 35.3153 160.157 35.8125 160.611 36.1705C161.072 36.5227 161.628 36.6989 162.282 36.6989C162.964 36.6989 163.535 36.517 163.995 36.1534C164.455 35.7841 164.802 35.2812 165.035 34.6449C165.273 34.0028 165.393 33.2727 165.393 32.4545C165.393 31.642 165.276 30.9205 165.043 30.2898C164.81 29.6591 164.464 29.1648 164.003 28.8068C163.543 28.4489 162.969 28.2699 162.282 28.2699C161.623 28.2699 161.063 28.4432 160.603 28.7898C160.143 29.1364 159.793 29.6222 159.555 30.2472C159.322 30.8722 159.205 31.608 159.205 32.4545ZM174.707 39.2642C173.877 39.2642 173.13 39.1165 172.465 38.821C171.806 38.5199 171.283 38.0767 170.897 37.4915C170.516 36.9062 170.326 36.1847 170.326 35.3267C170.326 34.5881 170.462 33.9773 170.735 33.4943C171.008 33.0114 171.38 32.625 171.852 32.3352C172.323 32.0455 172.854 31.8267 173.445 31.679C174.042 31.5256 174.658 31.4148 175.295 31.3466C176.062 31.267 176.684 31.196 177.161 31.1335C177.638 31.0653 177.985 30.9631 178.201 30.8267C178.423 30.6847 178.533 30.4659 178.533 30.1705V30.1193C178.533 29.4773 178.343 28.9801 177.962 28.6278C177.582 28.2756 177.033 28.0994 176.317 28.0994C175.562 28.0994 174.962 28.2642 174.519 28.5938C174.082 28.9233 173.786 29.3125 173.633 29.7614L170.752 29.3523C170.979 28.5568 171.354 27.892 171.877 27.358C172.4 26.8182 173.039 26.4148 173.795 26.1477C174.55 25.875 175.386 25.7386 176.3 25.7386C176.931 25.7386 177.559 25.8125 178.184 25.9602C178.809 26.108 179.38 26.3523 179.897 26.6932C180.414 27.0284 180.829 27.4858 181.141 28.0653C181.459 28.6449 181.619 29.3693 181.619 30.2386V39H178.653V37.2017H178.55C178.363 37.5653 178.099 37.9062 177.758 38.2244C177.423 38.5369 176.999 38.7898 176.488 38.983C175.982 39.1705 175.388 39.2642 174.707 39.2642ZM175.508 36.9972C176.127 36.9972 176.664 36.875 177.119 36.6307C177.573 36.3807 177.923 36.0511 178.167 35.642C178.417 35.233 178.542 34.7869 178.542 34.304V32.7614C178.445 32.8409 178.281 32.9148 178.048 32.983C177.82 33.0511 177.565 33.1108 177.281 33.1619C176.996 33.2131 176.715 33.2585 176.437 33.2983C176.158 33.3381 175.917 33.3722 175.712 33.4006C175.252 33.4631 174.84 33.5653 174.477 33.7074C174.113 33.8494 173.826 34.0483 173.616 34.304C173.406 34.554 173.3 34.8778 173.3 35.2756C173.3 35.8438 173.508 36.2727 173.923 36.5625C174.337 36.8523 174.866 36.9972 175.508 36.9972ZM190.174 44.1818C189.066 44.1818 188.114 44.0313 187.319 43.7301C186.523 43.4347 185.884 43.0369 185.401 42.5369C184.918 42.0369 184.583 41.483 184.396 40.875L187.174 40.2017C187.299 40.4574 187.481 40.7102 187.719 40.9602C187.958 41.2159 188.279 41.4261 188.683 41.5909C189.092 41.7614 189.606 41.8466 190.225 41.8466C191.1 41.8466 191.825 41.6335 192.398 41.2074C192.972 40.7869 193.259 40.0938 193.259 39.1278V36.6477H193.106C192.947 36.9659 192.714 37.2926 192.407 37.6278C192.106 37.9631 191.705 38.2443 191.205 38.4716C190.711 38.6989 190.089 38.8125 189.339 38.8125C188.333 38.8125 187.421 38.5767 186.603 38.1051C185.791 37.6278 185.143 36.9176 184.66 35.9744C184.183 35.0256 183.944 33.8381 183.944 32.4119C183.944 30.9744 184.183 29.7614 184.66 28.7727C185.143 27.7784 185.793 27.0256 186.612 26.5142C187.43 25.9972 188.342 25.7386 189.347 25.7386C190.114 25.7386 190.745 25.8693 191.239 26.1307C191.739 26.3864 192.137 26.696 192.433 27.0597C192.728 27.4176 192.952 27.7557 193.106 28.0739H193.276V25.9091H196.319V39.2131C196.319 40.3324 196.052 41.2585 195.518 41.9915C194.984 42.7244 194.254 43.2727 193.327 43.6364C192.401 44 191.35 44.1818 190.174 44.1818ZM190.2 36.392C190.853 36.392 191.41 36.233 191.87 35.9148C192.33 35.5966 192.68 35.1392 192.918 34.5426C193.157 33.946 193.276 33.2301 193.276 32.3949C193.276 31.571 193.157 30.8494 192.918 30.2301C192.685 29.6108 192.339 29.1307 191.879 28.7898C191.424 28.4432 190.864 28.2699 190.2 28.2699C189.512 28.2699 188.938 28.4489 188.478 28.8068C188.018 29.1648 187.671 29.6562 187.438 30.2812C187.205 30.9006 187.089 31.6051 187.089 32.3949C187.089 33.196 187.205 33.8977 187.438 34.5C187.677 35.0966 188.026 35.5625 188.487 35.8977C188.952 36.2273 189.523 36.392 190.2 36.392ZM205.036 39.2557C203.724 39.2557 202.59 38.983 201.636 38.4375C200.687 37.8864 199.957 37.108 199.445 36.1023C198.934 35.0909 198.678 33.9006 198.678 32.5312C198.678 31.1847 198.934 30.0028 199.445 28.9858C199.962 27.9631 200.684 27.1676 201.61 26.5994C202.536 26.0256 203.624 25.7386 204.874 25.7386C205.681 25.7386 206.443 25.8693 207.158 26.1307C207.88 26.3864 208.516 26.7841 209.068 27.3239C209.624 27.8636 210.062 28.5511 210.38 29.3864C210.698 30.2159 210.857 31.2045 210.857 32.3523V33.2983H200.127V31.2188H207.9C207.894 30.6278 207.766 30.1023 207.516 29.642C207.266 29.1761 206.917 28.8097 206.468 28.5426C206.025 28.2756 205.508 28.142 204.917 28.142C204.286 28.142 203.732 28.2955 203.255 28.6023C202.778 28.9034 202.406 29.3011 202.139 29.7955C201.877 30.2841 201.744 30.821 201.738 31.4062V33.2216C201.738 33.983 201.877 34.6364 202.156 35.1818C202.434 35.7216 202.823 36.1364 203.323 36.4261C203.823 36.7102 204.408 36.8523 205.079 36.8523C205.528 36.8523 205.934 36.7898 206.298 36.6648C206.661 36.5341 206.977 36.3438 207.244 36.0938C207.511 35.8438 207.712 35.5341 207.849 35.1648L210.729 35.4886C210.548 36.25 210.201 36.9148 209.69 37.483C209.184 38.0455 208.536 38.483 207.747 38.7955C206.957 39.1023 206.053 39.2557 205.036 39.2557Z" fill="#CACACA"/>
<rect x="16.5" y="74.5" width="213" height="32" rx="7.5" stroke="#CACACA"/>
<path d="M28.8267 97H26.4972L31.7315 82.4545H34.267L39.5014 97H37.1719L33.0597 85.0966H32.946L28.8267 97ZM29.2173 91.304H36.7741V93.1506H29.2173V91.304ZM45.1395 97.2131C44.2588 97.2131 43.4728 96.9882 42.7815 96.5384C42.095 96.0838 41.5552 95.4375 41.1622 94.5994C40.774 93.7566 40.5798 92.7457 40.5798 91.5668C40.5798 90.3878 40.7763 89.3793 41.1693 88.5412C41.567 87.7031 42.1116 87.0616 42.8028 86.6165C43.4941 86.1714 44.2777 85.9489 45.1537 85.9489C45.8308 85.9489 46.3753 86.0625 46.7872 86.2898C47.2039 86.5123 47.5259 86.7727 47.7531 87.071C47.9851 87.3693 48.1651 87.6321 48.2929 87.8594H48.4207V82.4545H50.5443V97H48.4705V95.3026H48.2929C48.1651 95.5346 47.9804 95.7997 47.7389 96.098C47.5022 96.3963 47.1755 96.6567 46.7588 96.8793C46.3421 97.1018 45.8024 97.2131 45.1395 97.2131ZM45.6082 95.402C46.219 95.402 46.7351 95.241 47.1565 94.919C47.5827 94.5923 47.9046 94.1402 48.1224 93.5625C48.345 92.9848 48.4563 92.3125 48.4563 91.5455C48.4563 90.7879 48.3473 90.125 48.1295 89.5568C47.9117 88.9886 47.5921 88.5459 47.1707 88.2287C46.7493 87.9115 46.2285 87.7528 45.6082 87.7528C44.969 87.7528 44.4364 87.9186 44.0102 88.25C43.5841 88.5814 43.2621 89.0336 43.0443 89.6065C42.8313 90.1795 42.7247 90.8258 42.7247 91.5455C42.7247 92.2746 42.8336 92.9304 43.0514 93.5128C43.2692 94.0952 43.5912 94.5568 44.0173 94.8977C44.4482 95.2339 44.9785 95.402 45.6082 95.402ZM57.459 97.2131C56.5783 97.2131 55.7924 96.9882 55.1011 96.5384C54.4145 96.0838 53.8747 95.4375 53.4817 94.5994C53.0935 93.7566 52.8994 92.7457 52.8994 91.5668C52.8994 90.3878 53.0959 89.3793 53.4888 88.5412C53.8866 87.7031 54.4311 87.0616 55.1224 86.6165C55.8137 86.1714 56.5973 85.9489 57.4732 85.9489C58.1503 85.9489 58.6948 86.0625 59.1067 86.2898C59.5234 86.5123 59.8454 86.7727 60.0727 87.071C60.3047 87.3693 60.4846 87.6321 60.6124 87.8594H60.7403V82.4545H62.8639V97H60.79V95.3026H60.6124C60.4846 95.5346 60.2999 95.7997 60.0585 96.098C59.8217 96.3963 59.495 96.6567 59.0783 96.8793C58.6617 97.1018 58.1219 97.2131 57.459 97.2131ZM57.9278 95.402C58.5386 95.402 59.0547 95.241 59.4761 94.919C59.9022 94.5923 60.2242 94.1402 60.442 93.5625C60.6645 92.9848 60.7758 92.3125 60.7758 91.5455C60.7758 90.7879 60.6669 90.125 60.4491 89.5568C60.2313 88.9886 59.9117 88.5459 59.4903 88.2287C59.0689 87.9115 58.548 87.7528 57.9278 87.7528C57.2886 87.7528 56.7559 87.9186 56.3298 88.25C55.9036 88.5814 55.5817 89.0336 55.3639 89.6065C55.1508 90.1795 55.0442 90.8258 55.0442 91.5455C55.0442 92.2746 55.1531 92.9304 55.371 93.5128C55.5888 94.0952 55.9107 94.5568 56.3369 94.8977C56.7677 95.2339 57.298 95.402 57.9278 95.402ZM87.7912 82.4545V97H85.7741L78.3807 86.3324H78.2457V97H76.0511V82.4545H78.0824L85.483 93.1364H85.6179V82.4545H87.7912ZM95.3238 97.2202C94.249 97.2202 93.3233 96.9905 92.5468 96.5312C91.775 96.0672 91.1784 95.4162 90.757 94.5781C90.3404 93.7353 90.132 92.7481 90.132 91.6165C90.132 90.4991 90.3404 89.5142 90.757 88.6619C91.1784 87.8097 91.7656 87.1444 92.5184 86.6662C93.276 86.188 94.1614 85.9489 95.1746 85.9489C95.7902 85.9489 96.3868 86.0507 96.9644 86.2543C97.5421 86.4579 98.0605 86.7775 98.5198 87.2131C98.9791 87.6487 99.3413 88.2145 99.6065 88.9105C99.8716 89.6018 100.004 90.4422 100.004 91.4318V92.1847H91.3323V90.5938H97.9232C97.9232 90.035 97.8096 89.5402 97.5823 89.1094C97.355 88.6738 97.0354 88.3305 96.6235 88.0795C96.2163 87.8286 95.7381 87.7031 95.1888 87.7031C94.5923 87.7031 94.0714 87.8499 93.6263 88.1435C93.186 88.4323 92.8451 88.8111 92.6036 89.2798C92.3669 89.7438 92.2485 90.2481 92.2485 90.7926V92.0355C92.2485 92.7647 92.3763 93.3849 92.632 93.8963C92.8924 94.4077 93.2547 94.7983 93.7187 95.0682C94.1827 95.3333 94.7248 95.4659 95.3451 95.4659C95.7476 95.4659 96.1145 95.4091 96.446 95.2955C96.7774 95.1771 97.0638 95.0019 97.3053 94.7699C97.5468 94.5379 97.7315 94.2514 97.8593 93.9105L99.8692 94.2727C99.7083 94.8646 99.4194 95.383 99.0028 95.8281C98.5908 96.2685 98.0724 96.6117 97.4474 96.858C96.8271 97.0994 96.1192 97.2202 95.3238 97.2202ZM104.506 97L101.296 86.0909H103.49L105.628 94.1023H105.735L107.879 86.0909H110.074L112.205 94.0668H112.311L114.435 86.0909H116.629L113.426 97H111.26L109.044 89.1236H108.881L106.665 97H104.506ZM135.789 87.1847H133.573C133.488 86.7112 133.329 86.2945 133.097 85.9347C132.865 85.5748 132.581 85.2694 132.245 85.0185C131.909 84.7675 131.533 84.5781 131.116 84.4503C130.704 84.3224 130.266 84.2585 129.802 84.2585C128.964 84.2585 128.213 84.4692 127.55 84.8906C126.892 85.312 126.372 85.9299 125.988 86.7443C125.609 87.5587 125.42 88.553 125.42 89.7273C125.42 90.911 125.609 91.91 125.988 92.7244C126.372 93.5388 126.895 94.1544 127.558 94.571C128.22 94.9877 128.966 95.196 129.795 95.196C130.254 95.196 130.69 95.1345 131.102 95.0114C131.518 94.8835 131.895 94.6965 132.231 94.4503C132.567 94.2041 132.851 93.9034 133.083 93.5483C133.32 93.1884 133.483 92.7765 133.573 92.3125L135.789 92.3196C135.671 93.0346 135.441 93.6927 135.1 94.294C134.764 94.8906 134.331 95.4067 133.8 95.8423C133.275 96.2732 132.674 96.607 131.997 96.8438C131.319 97.0805 130.581 97.1989 129.781 97.1989C128.521 97.1989 127.399 96.9006 126.414 96.304C125.429 95.7027 124.653 94.8433 124.085 93.7259C123.521 92.6084 123.239 91.2756 123.239 89.7273C123.239 88.1742 123.524 86.8414 124.092 85.7287C124.66 84.6113 125.436 83.7543 126.421 83.1577C127.406 82.5563 128.526 82.2557 129.781 82.2557C130.552 82.2557 131.272 82.367 131.94 82.5895C132.612 82.8073 133.216 83.1293 133.751 83.5554C134.286 83.9768 134.729 84.4929 135.079 85.1037C135.429 85.7098 135.666 86.4034 135.789 87.1847ZM141.219 97.2415C140.528 97.2415 139.903 97.1136 139.344 96.858C138.786 96.5975 138.343 96.2211 138.016 95.7287C137.694 95.2363 137.533 94.6326 137.533 93.9176C137.533 93.3021 137.652 92.7955 137.888 92.3977C138.125 92 138.445 91.6851 138.847 91.4531C139.25 91.2211 139.7 91.0459 140.197 90.9276C140.694 90.8092 141.201 90.7192 141.717 90.6577C142.37 90.5819 142.9 90.5204 143.308 90.473C143.715 90.4209 144.011 90.3381 144.195 90.2244C144.38 90.1108 144.472 89.9261 144.472 89.6705V89.6207C144.472 89.0005 144.297 88.5199 143.947 88.179C143.601 87.8381 143.085 87.6676 142.398 87.6676C141.683 87.6676 141.12 87.8262 140.708 88.1435C140.301 88.456 140.019 88.804 139.863 89.1875L137.867 88.733C138.104 88.0701 138.45 87.535 138.904 87.1278C139.363 86.7159 139.891 86.4176 140.488 86.233C141.085 86.0436 141.712 85.9489 142.37 85.9489C142.806 85.9489 143.267 86.0009 143.755 86.1051C144.247 86.2045 144.707 86.3892 145.133 86.6591C145.564 86.929 145.916 87.3149 146.191 87.8168C146.466 88.3139 146.603 88.9602 146.603 89.7557V97H144.529V95.5085H144.444C144.307 95.7831 144.101 96.053 143.826 96.3182C143.551 96.5833 143.199 96.8035 142.768 96.9787C142.337 97.1539 141.821 97.2415 141.219 97.2415ZM141.681 95.5369C142.268 95.5369 142.77 95.4209 143.187 95.1889C143.608 94.9569 143.928 94.6539 144.146 94.2798C144.368 93.901 144.479 93.4962 144.479 93.0653V91.6591C144.404 91.7348 144.257 91.8059 144.039 91.8722C143.826 91.9337 143.582 91.9882 143.308 92.0355C143.033 92.0781 142.765 92.1184 142.505 92.1562C142.245 92.1894 142.027 92.2178 141.852 92.2415C141.44 92.2936 141.063 92.3812 140.722 92.5043C140.386 92.6274 140.116 92.8049 139.913 93.0369C139.714 93.2642 139.614 93.5672 139.614 93.946C139.614 94.4716 139.808 94.8693 140.197 95.1392C140.585 95.4044 141.08 95.5369 141.681 95.5369ZM151.355 90.5227V97H149.231V86.0909H151.27V87.8665H151.405C151.656 87.2888 152.049 86.8248 152.584 86.4744C153.124 86.1241 153.803 85.9489 154.622 85.9489C155.365 85.9489 156.017 86.1051 156.575 86.4176C157.134 86.7254 157.567 87.1847 157.875 87.7955C158.183 88.4062 158.337 89.1615 158.337 90.0611V97H156.213V90.3168C156.213 89.526 156.007 88.9081 155.595 88.4631C155.183 88.0133 154.617 87.7884 153.898 87.7884C153.405 87.7884 152.967 87.8949 152.584 88.108C152.205 88.321 151.904 88.6335 151.682 89.0455C151.464 89.4527 151.355 89.9451 151.355 90.5227ZM165.068 97.2131C164.188 97.2131 163.402 96.9882 162.71 96.5384C162.024 96.0838 161.484 95.4375 161.091 94.5994C160.703 93.7566 160.509 92.7457 160.509 91.5668C160.509 90.3878 160.705 89.3793 161.098 88.5412C161.496 87.7031 162.04 87.0616 162.732 86.6165C163.423 86.1714 164.207 85.9489 165.083 85.9489C165.76 85.9489 166.304 86.0625 166.716 86.2898C167.133 86.5123 167.455 86.7727 167.682 87.071C167.914 87.3693 168.094 87.6321 168.222 87.8594H168.35V82.4545H170.473V97H168.399V95.3026H168.222C168.094 95.5346 167.909 95.7997 167.668 96.098C167.431 96.3963 167.104 96.6567 166.688 96.8793C166.271 97.1018 165.731 97.2131 165.068 97.2131ZM165.537 95.402C166.148 95.402 166.664 95.241 167.085 94.919C167.512 94.5923 167.834 94.1402 168.051 93.5625C168.274 92.9848 168.385 92.3125 168.385 91.5455C168.385 90.7879 168.276 90.125 168.058 89.5568C167.841 88.9886 167.521 88.5459 167.1 88.2287C166.678 87.9115 166.157 87.7528 165.537 87.7528C164.898 87.7528 164.365 87.9186 163.939 88.25C163.513 88.5814 163.191 89.0336 162.973 89.6065C162.76 90.1795 162.654 90.8258 162.654 91.5455C162.654 92.2746 162.763 92.9304 162.98 93.5128C163.198 94.0952 163.52 94.5568 163.946 94.8977C164.377 95.2339 164.907 95.402 165.537 95.402ZM173.304 97V86.0909H175.428V97H173.304ZM174.377 84.4077C174.007 84.4077 173.69 84.2846 173.425 84.0384C173.164 83.7874 173.034 83.4891 173.034 83.1435C173.034 82.7931 173.164 82.4948 173.425 82.2486C173.69 81.9976 174.007 81.8722 174.377 81.8722C174.746 81.8722 175.061 81.9976 175.321 82.2486C175.586 82.4948 175.719 82.7931 175.719 83.1435C175.719 83.4891 175.586 83.7874 175.321 84.0384C175.061 84.2846 174.746 84.4077 174.377 84.4077ZM182.168 97.2131C181.288 97.2131 180.502 96.9882 179.81 96.5384C179.124 96.0838 178.584 95.4375 178.191 94.5994C177.803 93.7566 177.609 92.7457 177.609 91.5668C177.609 90.3878 177.805 89.3793 178.198 88.5412C178.596 87.7031 179.14 87.0616 179.832 86.6165C180.523 86.1714 181.307 85.9489 182.183 85.9489C182.86 85.9489 183.404 86.0625 183.816 86.2898C184.233 86.5123 184.555 86.7727 184.782 87.071C185.014 87.3693 185.194 87.6321 185.322 87.8594H185.45V82.4545H187.573V97H185.499V95.3026H185.322C185.194 95.5346 185.009 95.7997 184.768 96.098C184.531 96.3963 184.204 96.6567 183.788 96.8793C183.371 97.1018 182.831 97.2131 182.168 97.2131ZM182.637 95.402C183.248 95.402 183.764 95.241 184.185 94.919C184.612 94.5923 184.934 94.1402 185.151 93.5625C185.374 92.9848 185.485 92.3125 185.485 91.5455C185.485 90.7879 185.376 90.125 185.158 89.5568C184.941 88.9886 184.621 88.5459 184.2 88.2287C183.778 87.9115 183.257 87.7528 182.637 87.7528C181.998 87.7528 181.465 87.9186 181.039 88.25C180.613 88.5814 180.291 89.0336 180.073 89.6065C179.86 90.1795 179.754 90.8258 179.754 91.5455C179.754 92.2746 179.863 92.9304 180.08 93.5128C180.298 94.0952 180.62 94.5568 181.046 94.8977C181.477 95.2339 182.007 95.402 182.637 95.402ZM193.579 97.2415C192.888 97.2415 192.263 97.1136 191.704 96.858C191.145 96.5975 190.702 96.2211 190.376 95.7287C190.054 95.2363 189.893 94.6326 189.893 93.9176C189.893 93.3021 190.011 92.7955 190.248 92.3977C190.485 92 190.804 91.6851 191.207 91.4531C191.609 91.2211 192.059 91.0459 192.556 90.9276C193.053 90.8092 193.56 90.7192 194.076 90.6577C194.729 90.5819 195.26 90.5204 195.667 90.473C196.074 90.4209 196.37 90.3381 196.555 90.2244C196.739 90.1108 196.832 89.9261 196.832 89.6705V89.6207C196.832 89.0005 196.656 88.5199 196.306 88.179C195.96 87.8381 195.444 87.6676 194.758 87.6676C194.043 87.6676 193.479 87.8262 193.067 88.1435C192.66 88.456 192.379 88.804 192.222 89.1875L190.227 88.733C190.463 88.0701 190.809 87.535 191.263 87.1278C191.723 86.7159 192.251 86.4176 192.847 86.233C193.444 86.0436 194.071 85.9489 194.729 85.9489C195.165 85.9489 195.627 86.0009 196.114 86.1051C196.607 86.2045 197.066 86.3892 197.492 86.6591C197.923 86.929 198.276 87.3149 198.55 87.8168C198.825 88.3139 198.962 88.9602 198.962 89.7557V97H196.888V95.5085H196.803C196.666 95.7831 196.46 96.053 196.185 96.3182C195.911 96.5833 195.558 96.8035 195.127 96.9787C194.696 97.1539 194.18 97.2415 193.579 97.2415ZM194.04 95.5369C194.628 95.5369 195.129 95.4209 195.546 95.1889C195.968 94.9569 196.287 94.6539 196.505 94.2798C196.728 93.901 196.839 93.4962 196.839 93.0653V91.6591C196.763 91.7348 196.616 91.8059 196.398 91.8722C196.185 91.9337 195.942 91.9882 195.667 92.0355C195.392 92.0781 195.125 92.1184 194.864 92.1562C194.604 92.1894 194.386 92.2178 194.211 92.2415C193.799 92.2936 193.423 92.3812 193.082 92.5043C192.746 92.6274 192.476 92.8049 192.272 93.0369C192.073 93.2642 191.974 93.5672 191.974 93.946C191.974 94.4716 192.168 94.8693 192.556 95.1392C192.944 95.4044 193.439 95.5369 194.04 95.5369ZM206.683 86.0909V87.7955H200.724V86.0909H206.683ZM202.322 83.4773H204.446V93.7969C204.446 94.2088 204.508 94.5189 204.631 94.7273C204.754 94.9309 204.912 95.0705 205.106 95.1463C205.305 95.2173 205.521 95.2528 205.753 95.2528C205.923 95.2528 206.072 95.241 206.2 95.2173C206.328 95.1937 206.427 95.1747 206.499 95.1605L206.882 96.9148C206.759 96.9621 206.584 97.0095 206.356 97.0568C206.129 97.1089 205.845 97.1373 205.504 97.142C204.945 97.1515 204.425 97.0521 203.942 96.8438C203.459 96.6354 203.068 96.3134 202.77 95.8778C202.472 95.4422 202.322 94.8954 202.322 94.2372V83.4773ZM213.417 97.2202C212.342 97.2202 211.416 96.9905 210.64 96.5312C209.868 96.0672 209.271 95.4162 208.85 94.5781C208.433 93.7353 208.225 92.7481 208.225 91.6165C208.225 90.4991 208.433 89.5142 208.85 88.6619C209.271 87.8097 209.859 87.1444 210.611 86.6662C211.369 86.188 212.254 85.9489 213.268 85.9489C213.883 85.9489 214.48 86.0507 215.057 86.2543C215.635 86.4579 216.154 86.7775 216.613 87.2131C217.072 87.6487 217.434 88.2145 217.699 88.9105C217.965 89.6018 218.097 90.4422 218.097 91.4318V92.1847H209.425V90.5938H216.016C216.016 90.035 215.903 89.5402 215.675 89.1094C215.448 88.6738 215.128 88.3305 214.716 88.0795C214.309 87.8286 213.831 87.7031 213.282 87.7031C212.685 87.7031 212.164 87.8499 211.719 88.1435C211.279 88.4323 210.938 88.8111 210.697 89.2798C210.46 89.7438 210.341 90.2481 210.341 90.7926V92.0355C210.341 92.7647 210.469 93.3849 210.725 93.8963C210.985 94.4077 211.348 94.7983 211.812 95.0682C212.276 95.3333 212.818 95.4659 213.438 95.4659C213.841 95.4659 214.207 95.4091 214.539 95.2955C214.87 95.1771 215.157 95.0019 215.398 94.7699C215.64 94.5379 215.824 94.2514 215.952 93.9105L217.962 94.2727C217.801 94.8646 217.512 95.383 217.096 95.8281C216.684 96.2685 216.165 96.6117 215.54 96.858C214.92 97.0994 214.212 97.2202 213.417 97.2202Z" fill="#CACACA"/>
<path d="M283.707 62.2071C284.098 61.8166 284.098 61.1834 283.707 60.7929L277.343 54.4289C276.953 54.0384 276.319 54.0384 275.929 54.4289C275.538 54.8195 275.538 55.4526 275.929 55.8431L281.586 61.5L275.929 67.1569C275.538 67.5474 275.538 68.1805 275.929 68.5711C276.319 68.9616 276.953 68.9616 277.343 68.5711L283.707 62.2071ZM248 61.5V62.5H283V61.5V60.5H248V61.5Z" fill="#CACACA"/>
<path d="M314.352 39.2642C313.523 39.2642 312.776 39.1165 312.111 38.821C311.452 38.5199 310.929 38.0767 310.543 37.4915C310.162 36.9062 309.972 36.1847 309.972 35.3267C309.972 34.5881 310.108 33.9773 310.381 33.4943C310.653 33.0114 311.026 32.625 311.497 32.3352C311.969 32.0455 312.5 31.8267 313.091 31.679C313.688 31.5256 314.304 31.4148 314.94 31.3466C315.707 31.267 316.33 31.196 316.807 31.1335C317.284 31.0653 317.631 30.9631 317.847 30.8267C318.068 30.6847 318.179 30.4659 318.179 30.1705V30.1193C318.179 29.4773 317.989 28.9801 317.608 28.6278C317.227 28.2756 316.679 28.0994 315.963 28.0994C315.207 28.0994 314.608 28.2642 314.165 28.5938C313.727 28.9233 313.432 29.3125 313.278 29.7614L310.398 29.3523C310.625 28.5568 311 27.892 311.523 27.358C312.045 26.8182 312.685 26.4148 313.44 26.1477C314.196 25.875 315.031 25.7386 315.946 25.7386C316.577 25.7386 317.205 25.8125 317.83 25.9602C318.455 26.108 319.026 26.3523 319.543 26.6932C320.06 27.0284 320.474 27.4858 320.787 28.0653C321.105 28.6449 321.264 29.3693 321.264 30.2386V39H318.298V37.2017H318.196C318.009 37.5653 317.744 37.9062 317.403 38.2244C317.068 38.5369 316.645 38.7898 316.134 38.983C315.628 39.1705 315.034 39.2642 314.352 39.2642ZM315.153 36.9972C315.773 36.9972 316.31 36.875 316.764 36.6307C317.219 36.3807 317.568 36.0511 317.812 35.642C318.062 35.233 318.188 34.7869 318.188 34.304V32.7614C318.091 32.8409 317.926 32.9148 317.693 32.983C317.466 33.0511 317.21 33.1108 316.926 33.1619C316.642 33.2131 316.361 33.2585 316.082 33.2983C315.804 33.3381 315.563 33.3722 315.358 33.4006C314.898 33.4631 314.486 33.5653 314.122 33.7074C313.759 33.8494 313.472 34.0483 313.261 34.304C313.051 34.554 312.946 34.8778 312.946 35.2756C312.946 35.8438 313.153 36.2727 313.568 36.5625C313.983 36.8523 314.511 36.9972 315.153 36.9972ZM328.984 39.2301C327.956 39.2301 327.036 38.9659 326.223 38.4375C325.411 37.9091 324.769 37.142 324.297 36.1364C323.825 35.1307 323.59 33.9091 323.59 32.4716C323.59 31.017 323.828 29.7898 324.305 28.7898C324.788 27.7841 325.439 27.0256 326.257 26.5142C327.075 25.9972 327.987 25.7386 328.993 25.7386C329.76 25.7386 330.391 25.8693 330.885 26.1307C331.379 26.3864 331.771 26.696 332.061 27.0597C332.351 27.4176 332.575 27.7557 332.734 28.0739H332.862V21.5455H335.956V39H332.922V36.9375H332.734C332.575 37.2557 332.345 37.5937 332.044 37.9517C331.743 38.304 331.345 38.6051 330.851 38.8551C330.357 39.1051 329.734 39.2301 328.984 39.2301ZM329.845 36.6989C330.499 36.6989 331.055 36.5227 331.516 36.1705C331.976 35.8125 332.325 35.3153 332.564 34.679C332.803 34.0426 332.922 33.3011 332.922 32.4545C332.922 31.608 332.803 30.8722 332.564 30.2472C332.331 29.6222 331.984 29.1364 331.524 28.7898C331.07 28.4432 330.51 28.2699 329.845 28.2699C329.158 28.2699 328.584 28.4489 328.124 28.8068C327.663 29.1648 327.317 29.6591 327.084 30.2898C326.851 30.9205 326.734 31.642 326.734 32.4545C326.734 33.2727 326.851 34.0028 327.084 34.6449C327.323 35.2812 327.672 35.7841 328.132 36.1534C328.598 36.517 329.169 36.6989 329.845 36.6989ZM343.862 39.2301C342.833 39.2301 341.913 38.9659 341.1 38.4375C340.288 37.9091 339.646 37.142 339.174 36.1364C338.703 35.1307 338.467 33.9091 338.467 32.4716C338.467 31.017 338.705 29.7898 339.183 28.7898C339.666 27.7841 340.316 27.0256 341.134 26.5142C341.953 25.9972 342.864 25.7386 343.87 25.7386C344.637 25.7386 345.268 25.8693 345.762 26.1307C346.257 26.3864 346.649 26.696 346.938 27.0597C347.228 27.4176 347.453 27.7557 347.612 28.0739H347.739V21.5455H350.833V39H347.799V36.9375H347.612C347.453 37.2557 347.222 37.5937 346.921 37.9517C346.62 38.304 346.222 38.6051 345.728 38.8551C345.234 39.1051 344.612 39.2301 343.862 39.2301ZM344.722 36.6989C345.376 36.6989 345.933 36.5227 346.393 36.1705C346.853 35.8125 347.203 35.3153 347.441 34.679C347.68 34.0426 347.799 33.3011 347.799 32.4545C347.799 31.608 347.68 30.8722 347.441 30.2472C347.208 29.6222 346.862 29.1364 346.401 28.7898C345.947 28.4432 345.387 28.2699 344.722 28.2699C344.035 28.2699 343.461 28.4489 343.001 28.8068C342.541 29.1648 342.194 29.6591 341.961 30.2898C341.728 30.9205 341.612 31.642 341.612 32.4545C341.612 33.2727 341.728 34.0028 341.961 34.6449C342.2 35.2812 342.549 35.7841 343.009 36.1534C343.475 36.517 344.046 36.6989 344.722 36.6989ZM364.374 39V41.4631H353.099V39H364.374ZM371.398 39.2557C370.091 39.2557 368.969 38.9688 368.031 38.3949C367.1 37.821 366.381 37.0284 365.875 36.017C365.375 35 365.125 33.8295 365.125 32.5057C365.125 31.1761 365.381 30.0028 365.892 28.9858C366.404 27.9631 367.125 27.1676 368.057 26.5994C368.995 26.0256 370.103 25.7386 371.381 25.7386C372.443 25.7386 373.384 25.9347 374.202 26.3267C375.026 26.7131 375.682 27.2614 376.171 27.9716C376.659 28.6761 376.938 29.5 377.006 30.4432H374.057C373.938 29.8125 373.654 29.2869 373.205 28.8665C372.762 28.4403 372.168 28.2273 371.424 28.2273C370.793 28.2273 370.239 28.3977 369.762 28.7386C369.284 29.0739 368.912 29.5568 368.645 30.1875C368.384 30.8182 368.253 31.5739 368.253 32.4545C368.253 33.3466 368.384 34.1136 368.645 34.7557C368.906 35.392 369.273 35.8835 369.745 36.2301C370.222 36.571 370.781 36.7415 371.424 36.7415C371.878 36.7415 372.284 36.6562 372.642 36.4858C373.006 36.3097 373.31 36.0568 373.554 35.7273C373.799 35.3977 373.966 34.9972 374.057 34.5256H377.006C376.932 35.4517 376.659 36.2727 376.188 36.9886C375.716 37.6989 375.074 38.2557 374.262 38.6591C373.449 39.0568 372.495 39.2557 371.398 39.2557ZM383.066 39.2642C382.237 39.2642 381.49 39.1165 380.825 38.821C380.166 38.5199 379.643 38.0767 379.257 37.4915C378.876 36.9062 378.686 36.1847 378.686 35.3267C378.686 34.5881 378.822 33.9773 379.095 33.4943C379.367 33.0114 379.74 32.625 380.211 32.3352C380.683 32.0455 381.214 31.8267 381.805 31.679C382.402 31.5256 383.018 31.4148 383.654 31.3466C384.421 31.267 385.044 31.196 385.521 31.1335C385.998 31.0653 386.345 30.9631 386.561 30.8267C386.782 30.6847 386.893 30.4659 386.893 30.1705V30.1193C386.893 29.4773 386.703 28.9801 386.322 28.6278C385.941 28.2756 385.393 28.0994 384.677 28.0994C383.921 28.0994 383.322 28.2642 382.879 28.5938C382.441 28.9233 382.146 29.3125 381.992 29.7614L379.112 29.3523C379.339 28.5568 379.714 27.892 380.237 27.358C380.76 26.8182 381.399 26.4148 382.154 26.1477C382.91 25.875 383.745 25.7386 384.66 25.7386C385.291 25.7386 385.919 25.8125 386.544 25.9602C387.169 26.108 387.74 26.3523 388.257 26.6932C388.774 27.0284 389.188 27.4858 389.501 28.0653C389.819 28.6449 389.978 29.3693 389.978 30.2386V39H387.012V37.2017H386.91C386.723 37.5653 386.458 37.9062 386.117 38.2244C385.782 38.5369 385.359 38.7898 384.848 38.983C384.342 39.1705 383.748 39.2642 383.066 39.2642ZM383.867 36.9972C384.487 36.9972 385.024 36.875 385.478 36.6307C385.933 36.3807 386.282 36.0511 386.527 35.642C386.777 35.233 386.902 34.7869 386.902 34.304V32.7614C386.805 32.8409 386.64 32.9148 386.407 32.983C386.18 33.0511 385.924 33.1108 385.64 33.1619C385.356 33.2131 385.075 33.2585 384.796 33.2983C384.518 33.3381 384.277 33.3722 384.072 33.4006C383.612 33.4631 383.2 33.5653 382.836 33.7074C382.473 33.8494 382.186 34.0483 381.975 34.304C381.765 34.554 381.66 34.8778 381.66 35.2756C381.66 35.8438 381.867 36.2727 382.282 36.5625C382.697 36.8523 383.225 36.9972 383.867 36.9972ZM395.926 31.3295V39H392.841V25.9091H395.789V28.1335H395.943C396.244 27.4006 396.724 26.8182 397.383 26.3864C398.048 25.9545 398.869 25.7386 399.846 25.7386C400.75 25.7386 401.537 25.9318 402.207 26.3182C402.883 26.7045 403.406 27.2642 403.775 27.9972C404.15 28.7301 404.335 29.6193 404.329 30.6648V39H401.244V31.142C401.244 30.267 401.017 29.5824 400.562 29.0881C400.113 28.5937 399.491 28.3466 398.696 28.3466C398.156 28.3466 397.676 28.4659 397.255 28.7045C396.841 28.9375 396.514 29.2756 396.275 29.7188C396.042 30.1619 395.926 30.6989 395.926 31.3295ZM412.083 39.2301C411.055 39.2301 410.135 38.9659 409.322 38.4375C408.51 37.9091 407.868 37.142 407.396 36.1364C406.924 35.1307 406.689 33.9091 406.689 32.4716C406.689 31.017 406.927 29.7898 407.405 28.7898C407.887 27.7841 408.538 27.0256 409.356 26.5142C410.174 25.9972 411.086 25.7386 412.092 25.7386C412.859 25.7386 413.49 25.8693 413.984 26.1307C414.478 26.3864 414.87 26.696 415.16 27.0597C415.45 27.4176 415.674 27.7557 415.833 28.0739H415.961V21.5455H419.055V39H416.021V36.9375H415.833C415.674 37.2557 415.444 37.5937 415.143 37.9517C414.842 38.304 414.444 38.6051 413.95 38.8551C413.456 39.1051 412.833 39.2301 412.083 39.2301ZM412.944 36.6989C413.598 36.6989 414.155 36.5227 414.615 36.1705C415.075 35.8125 415.424 35.3153 415.663 34.679C415.902 34.0426 416.021 33.3011 416.021 32.4545C416.021 31.608 415.902 30.8722 415.663 30.2472C415.43 29.6222 415.083 29.1364 414.623 28.7898C414.169 28.4432 413.609 28.2699 412.944 28.2699C412.257 28.2699 411.683 28.4489 411.223 28.8068C410.762 29.1648 410.416 29.6591 410.183 30.2898C409.95 30.9205 409.833 31.642 409.833 32.4545C409.833 33.2727 409.95 34.0028 410.183 34.6449C410.422 35.2812 410.771 35.7841 411.231 36.1534C411.697 36.517 412.268 36.6989 412.944 36.6989ZM422.103 39V25.9091H425.188V39H422.103ZM423.654 24.0511C423.165 24.0511 422.745 23.8892 422.393 23.5653C422.04 23.2358 421.864 22.8409 421.864 22.3807C421.864 21.9148 422.04 21.5199 422.393 21.196C422.745 20.8665 423.165 20.7017 423.654 20.7017C424.148 20.7017 424.569 20.8665 424.915 21.196C425.268 21.5199 425.444 21.9148 425.444 22.3807C425.444 22.8409 425.268 23.2358 424.915 23.5653C424.569 23.8892 424.148 24.0511 423.654 24.0511ZM432.978 39.2301C431.95 39.2301 431.03 38.9659 430.217 38.4375C429.405 37.9091 428.763 37.142 428.291 36.1364C427.819 35.1307 427.584 33.9091 427.584 32.4716C427.584 31.017 427.822 29.7898 428.3 28.7898C428.782 27.7841 429.433 27.0256 430.251 26.5142C431.069 25.9972 431.981 25.7386 432.987 25.7386C433.754 25.7386 434.385 25.8693 434.879 26.1307C435.373 26.3864 435.765 26.696 436.055 27.0597C436.345 27.4176 436.569 27.7557 436.728 28.0739H436.856V21.5455H439.95V39H436.916V36.9375H436.728C436.569 37.2557 436.339 37.5937 436.038 37.9517C435.737 38.304 435.339 38.6051 434.845 38.8551C434.351 39.1051 433.728 39.2301 432.978 39.2301ZM433.839 36.6989C434.493 36.6989 435.05 36.5227 435.51 36.1705C435.97 35.8125 436.319 35.3153 436.558 34.679C436.797 34.0426 436.916 33.3011 436.916 32.4545C436.916 31.608 436.797 30.8722 436.558 30.2472C436.325 29.6222 435.978 29.1364 435.518 28.7898C435.064 28.4432 434.504 28.2699 433.839 28.2699C433.152 28.2699 432.578 28.4489 432.118 28.8068C431.657 29.1648 431.311 29.6591 431.078 30.2898C430.845 30.9205 430.728 31.642 430.728 32.4545C430.728 33.2727 430.845 34.0028 431.078 34.6449C431.317 35.2812 431.666 35.7841 432.126 36.1534C432.592 36.517 433.163 36.6989 433.839 36.6989ZM446.765 39.2642C445.935 39.2642 445.188 39.1165 444.523 38.821C443.864 38.5199 443.341 38.0767 442.955 37.4915C442.574 36.9062 442.384 36.1847 442.384 35.3267C442.384 34.5881 442.52 33.9773 442.793 33.4943C443.066 33.0114 443.438 32.625 443.91 32.3352C444.381 32.0455 444.913 31.8267 445.503 31.679C446.1 31.5256 446.716 31.4148 447.353 31.3466C448.12 31.267 448.742 31.196 449.219 31.1335C449.697 31.0653 450.043 30.9631 450.259 30.8267C450.481 30.6847 450.591 30.4659 450.591 30.1705V30.1193C450.591 29.4773 450.401 28.9801 450.02 28.6278C449.64 28.2756 449.091 28.0994 448.376 28.0994C447.62 28.0994 447.02 28.2642 446.577 28.5938C446.14 28.9233 445.844 29.3125 445.691 29.7614L442.81 29.3523C443.038 28.5568 443.413 27.892 443.935 27.358C444.458 26.8182 445.097 26.4148 445.853 26.1477C446.609 25.875 447.444 25.7386 448.359 25.7386C448.989 25.7386 449.617 25.8125 450.242 25.9602C450.867 26.108 451.438 26.3523 451.955 26.6932C452.472 27.0284 452.887 27.4858 453.199 28.0653C453.518 28.6449 453.677 29.3693 453.677 30.2386V39H450.711V37.2017H450.609C450.421 37.5653 450.157 37.9062 449.816 38.2244C449.481 38.5369 449.057 38.7898 448.546 38.983C448.04 39.1705 447.447 39.2642 446.765 39.2642ZM447.566 36.9972C448.185 36.9972 448.722 36.875 449.177 36.6307C449.631 36.3807 449.981 36.0511 450.225 35.642C450.475 35.233 450.6 34.7869 450.6 34.304V32.7614C450.503 32.8409 450.339 32.9148 450.106 32.983C449.878 33.0511 449.623 33.1108 449.339 33.1619C449.055 33.2131 448.773 33.2585 448.495 33.2983C448.216 33.3381 447.975 33.3722 447.77 33.4006C447.31 33.4631 446.898 33.5653 446.535 33.7074C446.171 33.8494 445.884 34.0483 445.674 34.304C445.464 34.554 445.359 34.8778 445.359 35.2756C445.359 35.8438 445.566 36.2727 445.981 36.5625C446.395 36.8523 446.924 36.9972 447.566 36.9972ZM463.076 25.9091V28.2955H455.55V25.9091H463.076ZM457.408 22.7727H460.494V35.0625C460.494 35.4773 460.556 35.7955 460.681 36.017C460.812 36.233 460.982 36.3807 461.192 36.4602C461.403 36.5398 461.636 36.5795 461.891 36.5795C462.084 36.5795 462.261 36.5653 462.42 36.5369C462.584 36.5085 462.709 36.483 462.795 36.4602L463.315 38.8722C463.15 38.929 462.914 38.9915 462.607 39.0597C462.306 39.1278 461.937 39.1676 461.499 39.179C460.726 39.2017 460.03 39.0852 459.411 38.8295C458.792 38.5682 458.3 38.1648 457.937 37.6193C457.579 37.0739 457.403 36.392 457.408 35.5739V22.7727ZM471.071 39.2557C469.758 39.2557 468.625 38.983 467.67 38.4375C466.722 37.8864 465.991 37.108 465.48 36.1023C464.969 35.0909 464.713 33.9006 464.713 32.5312C464.713 31.1847 464.969 30.0028 465.48 28.9858C465.997 27.9631 466.719 27.1676 467.645 26.5994C468.571 26.0256 469.659 25.7386 470.909 25.7386C471.716 25.7386 472.477 25.8693 473.193 26.1307C473.915 26.3864 474.551 26.7841 475.102 27.3239C475.659 27.8636 476.097 28.5511 476.415 29.3864C476.733 30.2159 476.892 31.2045 476.892 32.3523V33.2983H466.162V31.2188H473.935C473.929 30.6278 473.801 30.1023 473.551 29.642C473.301 29.1761 472.952 28.8097 472.503 28.5426C472.06 28.2756 471.543 28.142 470.952 28.142C470.321 28.142 469.767 28.2955 469.29 28.6023C468.812 28.9034 468.44 29.3011 468.173 29.7955C467.912 30.2841 467.778 30.821 467.773 31.4062V33.2216C467.773 33.983 467.912 34.6364 468.19 35.1818C468.469 35.7216 468.858 36.1364 469.358 36.4261C469.858 36.7102 470.443 36.8523 471.114 36.8523C471.562 36.8523 471.969 36.7898 472.332 36.6648C472.696 36.5341 473.011 36.3438 473.278 36.0938C473.545 35.8438 473.747 35.5341 473.883 35.1648L476.764 35.4886C476.582 36.25 476.236 36.9148 475.724 37.483C475.219 38.0455 474.571 38.483 473.781 38.7955C472.991 39.1023 472.088 39.2557 471.071 39.2557ZM488.935 39V41.4631H477.66V39H488.935ZM491.35 39V25.9091H494.299V28.1335H494.452C494.725 27.3835 495.177 26.7983 495.808 26.3778C496.438 25.9517 497.191 25.7386 498.066 25.7386C498.952 25.7386 499.7 25.9545 500.308 26.3864C500.921 26.8125 501.353 27.3949 501.603 28.1335H501.739C502.029 27.4062 502.518 26.8267 503.205 26.3949C503.899 25.9574 504.72 25.7386 505.668 25.7386C506.873 25.7386 507.856 26.1193 508.617 26.8807C509.379 27.642 509.759 28.7528 509.759 30.2131V39H506.666V30.6903C506.666 29.8778 506.45 29.2841 506.018 28.9091C505.586 28.5284 505.058 28.3381 504.433 28.3381C503.688 28.3381 503.106 28.571 502.685 29.0369C502.271 29.4972 502.063 30.0966 502.063 30.8352V39H499.038V30.5625C499.038 29.8864 498.833 29.3466 498.424 28.9432C498.021 28.5398 497.492 28.3381 496.839 28.3381C496.396 28.3381 495.992 28.4517 495.629 28.679C495.265 28.9006 494.975 29.2159 494.759 29.625C494.543 30.0284 494.435 30.5 494.435 31.0398V39H491.35ZM518.36 39.2557C517.081 39.2557 515.973 38.9744 515.036 38.4119C514.098 37.8494 513.371 37.0625 512.854 36.0511C512.342 35.0398 512.087 33.858 512.087 32.5057C512.087 31.1534 512.342 29.9687 512.854 28.9517C513.371 27.9347 514.098 27.1449 515.036 26.5824C515.973 26.0199 517.081 25.7386 518.36 25.7386C519.638 25.7386 520.746 26.0199 521.683 26.5824C522.621 27.1449 523.345 27.9347 523.857 28.9517C524.374 29.9687 524.632 31.1534 524.632 32.5057C524.632 33.858 524.374 35.0398 523.857 36.0511C523.345 37.0625 522.621 37.8494 521.683 38.4119C520.746 38.9744 519.638 39.2557 518.36 39.2557ZM518.377 36.7841C519.07 36.7841 519.649 36.5937 520.115 36.2131C520.581 35.8267 520.928 35.3097 521.155 34.6619C521.388 34.0142 521.504 33.2926 521.504 32.4972C521.504 31.696 521.388 30.9716 521.155 30.3239C520.928 29.6705 520.581 29.1506 520.115 28.7642C519.649 28.3778 519.07 28.1847 518.377 28.1847C517.666 28.1847 517.075 28.3778 516.604 28.7642C516.138 29.1506 515.788 29.6705 515.556 30.3239C515.328 30.9716 515.215 31.696 515.215 32.4972C515.215 33.2926 515.328 34.0142 515.556 34.6619C515.788 35.3097 516.138 35.8267 516.604 36.2131C517.075 36.5937 517.666 36.7841 518.377 36.7841ZM531.869 39.2301C530.84 39.2301 529.92 38.9659 529.107 38.4375C528.295 37.9091 527.653 37.142 527.181 36.1364C526.71 35.1307 526.474 33.9091 526.474 32.4716C526.474 31.017 526.713 29.7898 527.19 28.7898C527.673 27.7841 528.323 27.0256 529.142 26.5142C529.96 25.9972 530.872 25.7386 531.877 25.7386C532.644 25.7386 533.275 25.8693 533.769 26.1307C534.264 26.3864 534.656 26.696 534.946 27.0597C535.235 27.4176 535.46 27.7557 535.619 28.0739H535.747V21.5455H538.84V39H535.806V36.9375H535.619C535.46 37.2557 535.23 37.5937 534.928 37.9517C534.627 38.304 534.23 38.6051 533.735 38.8551C533.241 39.1051 532.619 39.2301 531.869 39.2301ZM532.73 36.6989C533.383 36.6989 533.94 36.5227 534.4 36.1705C534.86 35.8125 535.21 35.3153 535.448 34.679C535.687 34.0426 535.806 33.3011 535.806 32.4545C535.806 31.608 535.687 30.8722 535.448 30.2472C535.215 29.6222 534.869 29.1364 534.409 28.7898C533.954 28.4432 533.394 28.2699 532.73 28.2699C532.042 28.2699 531.468 28.4489 531.008 28.8068C530.548 29.1648 530.201 29.6591 529.968 30.2898C529.735 30.9205 529.619 31.642 529.619 32.4545C529.619 33.2727 529.735 34.0028 529.968 34.6449C530.207 35.2812 530.556 35.7841 531.017 36.1534C531.482 36.517 532.053 36.6989 532.73 36.6989ZM545.655 39.2642C544.826 39.2642 544.078 39.1165 543.414 38.821C542.755 38.5199 542.232 38.0767 541.845 37.4915C541.465 36.9062 541.274 36.1847 541.274 35.3267C541.274 34.5881 541.411 33.9773 541.683 33.4943C541.956 33.0114 542.328 32.625 542.8 32.3352C543.272 32.0455 543.803 31.8267 544.394 31.679C544.99 31.5256 545.607 31.4148 546.243 31.3466C547.01 31.267 547.632 31.196 548.11 31.1335C548.587 31.0653 548.933 30.9631 549.149 30.8267C549.371 30.6847 549.482 30.4659 549.482 30.1705V30.1193C549.482 29.4773 549.291 28.9801 548.911 28.6278C548.53 28.2756 547.982 28.0994 547.266 28.0994C546.51 28.0994 545.911 28.2642 545.468 28.5938C545.03 28.9233 544.735 29.3125 544.581 29.7614L541.701 29.3523C541.928 28.5568 542.303 27.892 542.826 27.358C543.348 26.8182 543.987 26.4148 544.743 26.1477C545.499 25.875 546.334 25.7386 547.249 25.7386C547.88 25.7386 548.507 25.8125 549.132 25.9602C549.757 26.108 550.328 26.3523 550.845 26.6932C551.362 27.0284 551.777 27.4858 552.09 28.0653C552.408 28.6449 552.567 29.3693 552.567 30.2386V39H549.601V37.2017H549.499C549.311 37.5653 549.047 37.9062 548.706 38.2244C548.371 38.5369 547.948 38.7898 547.436 38.983C546.931 39.1705 546.337 39.2642 545.655 39.2642ZM546.456 36.9972C547.076 36.9972 547.612 36.875 548.067 36.6307C548.522 36.3807 548.871 36.0511 549.115 35.642C549.365 35.233 549.49 34.7869 549.49 34.304V32.7614C549.394 32.8409 549.229 32.9148 548.996 32.983C548.769 33.0511 548.513 33.1108 548.229 33.1619C547.945 33.2131 547.664 33.2585 547.385 33.2983C547.107 33.3381 546.865 33.3722 546.661 33.4006C546.201 33.4631 545.789 33.5653 545.425 33.7074C545.061 33.8494 544.774 34.0483 544.564 34.304C544.354 34.554 544.249 34.8778 544.249 35.2756C544.249 35.8438 544.456 36.2727 544.871 36.5625C545.286 36.8523 545.814 36.9972 546.456 36.9972ZM558.515 21.5455V39H555.429V21.5455H558.515Z" fill="#CACACA"/>
<rect x="309.5" y="74.5" width="309" height="32" rx="7.5" stroke="#CACACA"/>
<path d="M321.827 97H319.497L324.732 82.4545H327.267L332.501 97H330.172L326.06 85.0966H325.946L321.827 97ZM322.217 91.304H329.774V93.1506H322.217V91.304ZM338.139 97.2131C337.259 97.2131 336.473 96.9882 335.782 96.5384C335.095 96.0838 334.555 95.4375 334.162 94.5994C333.774 93.7566 333.58 92.7457 333.58 91.5668C333.58 90.3878 333.776 89.3793 334.169 88.5412C334.567 87.7031 335.112 87.0616 335.803 86.6165C336.494 86.1714 337.278 85.9489 338.154 85.9489C338.831 85.9489 339.375 86.0625 339.787 86.2898C340.204 86.5123 340.526 86.7727 340.753 87.071C340.985 87.3693 341.165 87.6321 341.293 87.8594H341.421V82.4545H343.544V97H341.47V95.3026H341.293C341.165 95.5346 340.98 95.7997 340.739 96.098C340.502 96.3963 340.175 96.6567 339.759 96.8793C339.342 97.1018 338.802 97.2131 338.139 97.2131ZM338.608 95.402C339.219 95.402 339.735 95.241 340.157 94.919C340.583 94.5923 340.905 94.1402 341.122 93.5625C341.345 92.9848 341.456 92.3125 341.456 91.5455C341.456 90.7879 341.347 90.125 341.13 89.5568C340.912 88.9886 340.592 88.5459 340.171 88.2287C339.749 87.9115 339.229 87.7528 338.608 87.7528C337.969 87.7528 337.436 87.9186 337.01 88.25C336.584 88.5814 336.262 89.0336 336.044 89.6065C335.831 90.1795 335.725 90.8258 335.725 91.5455C335.725 92.2746 335.834 92.9304 336.051 93.5128C336.269 94.0952 336.591 94.5568 337.017 94.8977C337.448 95.2339 337.979 95.402 338.608 95.402ZM350.459 97.2131C349.578 97.2131 348.792 96.9882 348.101 96.5384C347.415 96.0838 346.875 95.4375 346.482 94.5994C346.093 93.7566 345.899 92.7457 345.899 91.5668C345.899 90.3878 346.096 89.3793 346.489 88.5412C346.887 87.7031 347.431 87.0616 348.122 86.6165C348.814 86.1714 349.597 85.9489 350.473 85.9489C351.15 85.9489 351.695 86.0625 352.107 86.2898C352.523 86.5123 352.845 86.7727 353.073 87.071C353.305 87.3693 353.485 87.6321 353.612 87.8594H353.74V82.4545H355.864V97H353.79V95.3026H353.612C353.485 95.5346 353.3 95.7997 353.058 96.098C352.822 96.3963 352.495 96.6567 352.078 96.8793C351.662 97.1018 351.122 97.2131 350.459 97.2131ZM350.928 95.402C351.539 95.402 352.055 95.241 352.476 94.919C352.902 94.5923 353.224 94.1402 353.442 93.5625C353.665 92.9848 353.776 92.3125 353.776 91.5455C353.776 90.7879 353.667 90.125 353.449 89.5568C353.231 88.9886 352.912 88.5459 352.49 88.2287C352.069 87.9115 351.548 87.7528 350.928 87.7528C350.289 87.7528 349.756 87.9186 349.33 88.25C348.904 88.5814 348.582 89.0336 348.364 89.6065C348.151 90.1795 348.044 90.8258 348.044 91.5455C348.044 92.2746 348.153 92.9304 348.371 93.5128C348.589 94.0952 348.911 94.5568 349.337 94.8977C349.768 95.2339 350.298 95.402 350.928 95.402ZM376.039 87.1847H373.823C373.738 86.7112 373.579 86.2945 373.347 85.9347C373.115 85.5748 372.831 85.2694 372.495 85.0185C372.159 84.7675 371.783 84.5781 371.366 84.4503C370.954 84.3224 370.516 84.2585 370.052 84.2585C369.214 84.2585 368.463 84.4692 367.8 84.8906C367.142 85.312 366.622 85.9299 366.238 86.7443C365.859 87.5587 365.67 88.553 365.67 89.7273C365.67 90.911 365.859 91.91 366.238 92.7244C366.622 93.5388 367.145 94.1544 367.808 94.571C368.47 94.9877 369.216 95.196 370.045 95.196C370.504 95.196 370.94 95.1345 371.352 95.0114C371.768 94.8835 372.145 94.6965 372.481 94.4503C372.817 94.2041 373.101 93.9034 373.333 93.5483C373.57 93.1884 373.733 92.7765 373.823 92.3125L376.039 92.3196C375.921 93.0346 375.691 93.6927 375.35 94.294C375.014 94.8906 374.581 95.4067 374.05 95.8423C373.525 96.2732 372.924 96.607 372.247 96.8438C371.569 97.0805 370.831 97.1989 370.031 97.1989C368.771 97.1989 367.649 96.9006 366.664 96.304C365.679 95.7027 364.903 94.8433 364.335 93.7259C363.771 92.6084 363.489 91.2756 363.489 89.7273C363.489 88.1742 363.774 86.8414 364.342 85.7287C364.91 84.6113 365.686 83.7543 366.671 83.1577C367.656 82.5563 368.776 82.2557 370.031 82.2557C370.802 82.2557 371.522 82.367 372.19 82.5895C372.862 82.8073 373.466 83.1293 374.001 83.5554C374.536 83.9768 374.979 84.4929 375.329 85.1037C375.679 85.7098 375.916 86.4034 376.039 87.1847ZM381.469 97.2415C380.778 97.2415 380.153 97.1136 379.594 96.858C379.036 96.5975 378.593 96.2211 378.266 95.7287C377.944 95.2363 377.783 94.6326 377.783 93.9176C377.783 93.3021 377.902 92.7955 378.138 92.3977C378.375 92 378.695 91.6851 379.097 91.4531C379.5 91.2211 379.95 91.0459 380.447 90.9276C380.944 90.8092 381.451 90.7192 381.967 90.6577C382.62 90.5819 383.15 90.5204 383.558 90.473C383.965 90.4209 384.261 90.3381 384.445 90.2244C384.63 90.1108 384.722 89.9261 384.722 89.6705V89.6207C384.722 89.0005 384.547 88.5199 384.197 88.179C383.851 87.8381 383.335 87.6676 382.648 87.6676C381.933 87.6676 381.37 87.8262 380.958 88.1435C380.551 88.456 380.269 88.804 380.113 89.1875L378.117 88.733C378.354 88.0701 378.7 87.535 379.154 87.1278C379.613 86.7159 380.141 86.4176 380.738 86.233C381.335 86.0436 381.962 85.9489 382.62 85.9489C383.056 85.9489 383.517 86.0009 384.005 86.1051C384.497 86.2045 384.957 86.3892 385.383 86.6591C385.814 86.929 386.166 87.3149 386.441 87.8168C386.716 88.3139 386.853 88.9602 386.853 89.7557V97H384.779V95.5085H384.694C384.557 95.7831 384.351 96.053 384.076 96.3182C383.801 96.5833 383.449 96.8035 383.018 96.9787C382.587 97.1539 382.071 97.2415 381.469 97.2415ZM381.931 95.5369C382.518 95.5369 383.02 95.4209 383.437 95.1889C383.858 94.9569 384.178 94.6539 384.396 94.2798C384.618 93.901 384.729 93.4962 384.729 93.0653V91.6591C384.654 91.7348 384.507 91.8059 384.289 91.8722C384.076 91.9337 383.832 91.9882 383.558 92.0355C383.283 92.0781 383.015 92.1184 382.755 92.1562C382.495 92.1894 382.277 92.2178 382.102 92.2415C381.69 92.2936 381.313 92.3812 380.972 92.5043C380.636 92.6274 380.366 92.8049 380.163 93.0369C379.964 93.2642 379.864 93.5672 379.864 93.946C379.864 94.4716 380.058 94.8693 380.447 95.1392C380.835 95.4044 381.33 95.5369 381.931 95.5369ZM391.605 90.5227V97H389.481V86.0909H391.52V87.8665H391.655C391.906 87.2888 392.299 86.8248 392.834 86.4744C393.374 86.1241 394.053 85.9489 394.872 85.9489C395.615 85.9489 396.267 86.1051 396.825 86.4176C397.384 86.7254 397.817 87.1847 398.125 87.7955C398.433 88.4062 398.587 89.1615 398.587 90.0611V97H396.463V90.3168C396.463 89.526 396.257 88.9081 395.845 88.4631C395.433 88.0133 394.867 87.7884 394.148 87.7884C393.655 87.7884 393.217 87.8949 392.834 88.108C392.455 88.321 392.154 88.6335 391.932 89.0455C391.714 89.4527 391.605 89.9451 391.605 90.5227ZM405.318 97.2131C404.438 97.2131 403.652 96.9882 402.96 96.5384C402.274 96.0838 401.734 95.4375 401.341 94.5994C400.953 93.7566 400.759 92.7457 400.759 91.5668C400.759 90.3878 400.955 89.3793 401.348 88.5412C401.746 87.7031 402.29 87.0616 402.982 86.6165C403.673 86.1714 404.457 85.9489 405.333 85.9489C406.01 85.9489 406.554 86.0625 406.966 86.2898C407.383 86.5123 407.705 86.7727 407.932 87.071C408.164 87.3693 408.344 87.6321 408.472 87.8594H408.6V82.4545H410.723V97H408.649V95.3026H408.472C408.344 95.5346 408.159 95.7997 407.918 96.098C407.681 96.3963 407.354 96.6567 406.938 96.8793C406.521 97.1018 405.981 97.2131 405.318 97.2131ZM405.787 95.402C406.398 95.402 406.914 95.241 407.335 94.919C407.762 94.5923 408.084 94.1402 408.301 93.5625C408.524 92.9848 408.635 92.3125 408.635 91.5455C408.635 90.7879 408.526 90.125 408.308 89.5568C408.091 88.9886 407.771 88.5459 407.35 88.2287C406.928 87.9115 406.407 87.7528 405.787 87.7528C405.148 87.7528 404.615 87.9186 404.189 88.25C403.763 88.5814 403.441 89.0336 403.223 89.6065C403.01 90.1795 402.904 90.8258 402.904 91.5455C402.904 92.2746 403.013 92.9304 403.23 93.5128C403.448 94.0952 403.77 94.5568 404.196 94.8977C404.627 95.2339 405.157 95.402 405.787 95.402ZM413.554 97V86.0909H415.678V97H413.554ZM414.627 84.4077C414.257 84.4077 413.94 84.2846 413.675 84.0384C413.414 83.7874 413.284 83.4891 413.284 83.1435C413.284 82.7931 413.414 82.4948 413.675 82.2486C413.94 81.9976 414.257 81.8722 414.627 81.8722C414.996 81.8722 415.311 81.9976 415.571 82.2486C415.836 82.4948 415.969 82.7931 415.969 83.1435C415.969 83.4891 415.836 83.7874 415.571 84.0384C415.311 84.2846 414.996 84.4077 414.627 84.4077ZM422.418 97.2131C421.538 97.2131 420.752 96.9882 420.06 96.5384C419.374 96.0838 418.834 95.4375 418.441 94.5994C418.053 93.7566 417.859 92.7457 417.859 91.5668C417.859 90.3878 418.055 89.3793 418.448 88.5412C418.846 87.7031 419.39 87.0616 420.082 86.6165C420.773 86.1714 421.557 85.9489 422.433 85.9489C423.11 85.9489 423.654 86.0625 424.066 86.2898C424.483 86.5123 424.805 86.7727 425.032 87.071C425.264 87.3693 425.444 87.6321 425.572 87.8594H425.7V82.4545H427.823V97H425.749V95.3026H425.572C425.444 95.5346 425.259 95.7997 425.018 96.098C424.781 96.3963 424.454 96.6567 424.038 96.8793C423.621 97.1018 423.081 97.2131 422.418 97.2131ZM422.887 95.402C423.498 95.402 424.014 95.241 424.435 94.919C424.862 94.5923 425.184 94.1402 425.401 93.5625C425.624 92.9848 425.735 92.3125 425.735 91.5455C425.735 90.7879 425.626 90.125 425.408 89.5568C425.191 88.9886 424.871 88.5459 424.45 88.2287C424.028 87.9115 423.507 87.7528 422.887 87.7528C422.248 87.7528 421.715 87.9186 421.289 88.25C420.863 88.5814 420.541 89.0336 420.323 89.6065C420.11 90.1795 420.004 90.8258 420.004 91.5455C420.004 92.2746 420.113 92.9304 420.33 93.5128C420.548 94.0952 420.87 94.5568 421.296 94.8977C421.727 95.2339 422.257 95.402 422.887 95.402ZM433.829 97.2415C433.138 97.2415 432.513 97.1136 431.954 96.858C431.395 96.5975 430.952 96.2211 430.626 95.7287C430.304 95.2363 430.143 94.6326 430.143 93.9176C430.143 93.3021 430.261 92.7955 430.498 92.3977C430.735 92 431.054 91.6851 431.457 91.4531C431.859 91.2211 432.309 91.0459 432.806 90.9276C433.303 90.8092 433.81 90.7192 434.326 90.6577C434.979 90.5819 435.51 90.5204 435.917 90.473C436.324 90.4209 436.62 90.3381 436.805 90.2244C436.989 90.1108 437.082 89.9261 437.082 89.6705V89.6207C437.082 89.0005 436.906 88.5199 436.556 88.179C436.21 87.8381 435.694 87.6676 435.008 87.6676C434.293 87.6676 433.729 87.8262 433.317 88.1435C432.91 88.456 432.629 88.804 432.472 89.1875L430.477 88.733C430.713 88.0701 431.059 87.535 431.513 87.1278C431.973 86.7159 432.501 86.4176 433.097 86.233C433.694 86.0436 434.321 85.9489 434.979 85.9489C435.415 85.9489 435.877 86.0009 436.364 86.1051C436.857 86.2045 437.316 86.3892 437.742 86.6591C438.173 86.929 438.526 87.3149 438.8 87.8168C439.075 88.3139 439.212 88.9602 439.212 89.7557V97H437.138V95.5085H437.053C436.916 95.7831 436.71 96.053 436.435 96.3182C436.161 96.5833 435.808 96.8035 435.377 96.9787C434.946 97.1539 434.43 97.2415 433.829 97.2415ZM434.29 95.5369C434.878 95.5369 435.379 95.4209 435.796 95.1889C436.218 94.9569 436.537 94.6539 436.755 94.2798C436.978 93.901 437.089 93.4962 437.089 93.0653V91.6591C437.013 91.7348 436.866 91.8059 436.648 91.8722C436.435 91.9337 436.192 91.9882 435.917 92.0355C435.642 92.0781 435.375 92.1184 435.114 92.1562C434.854 92.1894 434.636 92.2178 434.461 92.2415C434.049 92.2936 433.673 92.3812 433.332 92.5043C432.996 92.6274 432.726 92.8049 432.522 93.0369C432.323 93.2642 432.224 93.5672 432.224 93.946C432.224 94.4716 432.418 94.8693 432.806 95.1392C433.194 95.4044 433.689 95.5369 434.29 95.5369ZM446.933 86.0909V87.7955H440.974V86.0909H446.933ZM442.572 83.4773H444.696V93.7969C444.696 94.2088 444.758 94.5189 444.881 94.7273C445.004 94.9309 445.162 95.0705 445.356 95.1463C445.555 95.2173 445.771 95.2528 446.003 95.2528C446.173 95.2528 446.322 95.241 446.45 95.2173C446.578 95.1937 446.677 95.1747 446.749 95.1605L447.132 96.9148C447.009 96.9621 446.834 97.0095 446.606 97.0568C446.379 97.1089 446.095 97.1373 445.754 97.142C445.195 97.1515 444.675 97.0521 444.192 96.8438C443.709 96.6354 443.318 96.3134 443.02 95.8778C442.722 95.4422 442.572 94.8954 442.572 94.2372V83.4773ZM453.667 97.2202C452.592 97.2202 451.666 96.9905 450.89 96.5312C450.118 96.0672 449.521 95.4162 449.1 94.5781C448.683 93.7353 448.475 92.7481 448.475 91.6165C448.475 90.4991 448.683 89.5142 449.1 88.6619C449.521 87.8097 450.109 87.1444 450.861 86.6662C451.619 86.188 452.504 85.9489 453.518 85.9489C454.133 85.9489 454.73 86.0507 455.307 86.2543C455.885 86.4579 456.404 86.7775 456.863 87.2131C457.322 87.6487 457.684 88.2145 457.949 88.9105C458.215 89.6018 458.347 90.4422 458.347 91.4318V92.1847H449.675V90.5938H456.266C456.266 90.035 456.153 89.5402 455.925 89.1094C455.698 88.6738 455.378 88.3305 454.966 88.0795C454.559 87.8286 454.081 87.7031 453.532 87.7031C452.935 87.7031 452.414 87.8499 451.969 88.1435C451.529 88.4323 451.188 88.8111 450.947 89.2798C450.71 89.7438 450.591 90.2481 450.591 90.7926V92.0355C450.591 92.7647 450.719 93.3849 450.975 93.8963C451.235 94.4077 451.598 94.7983 452.062 95.0682C452.526 95.3333 453.068 95.4659 453.688 95.4659C454.091 95.4659 454.457 95.4091 454.789 95.2955C455.12 95.1771 455.407 95.0019 455.648 94.7699C455.89 94.5379 456.074 94.2514 456.202 93.9105L458.212 94.2727C458.051 94.8646 457.762 95.383 457.346 95.8281C456.934 96.2685 456.415 96.6117 455.79 96.858C455.17 97.0994 454.462 97.2202 453.667 97.2202ZM466.043 81.7727L461.356 99.1875H459.459L464.147 81.7727H466.043ZM470.012 82.4545V97H467.818V82.4545H470.012ZM472.838 97V86.0909H474.876V87.8665H475.011C475.238 87.2652 475.61 86.7964 476.126 86.4602C476.642 86.1193 477.26 85.9489 477.98 85.9489C478.709 85.9489 479.32 86.1193 479.812 86.4602C480.309 86.8011 480.676 87.2699 480.913 87.8665H481.027C481.287 87.2841 481.701 86.8201 482.27 86.4744C482.838 86.1241 483.515 85.9489 484.301 85.9489C485.29 85.9489 486.098 86.259 486.723 86.8793C487.352 87.4995 487.667 88.4347 487.667 89.6847V97H485.544V89.8835C485.544 89.1449 485.342 88.6098 484.94 88.2784C484.538 87.947 484.057 87.7812 483.498 87.7812C482.807 87.7812 482.27 87.9943 481.886 88.4205C481.502 88.8419 481.311 89.384 481.311 90.0469V97H479.194V89.7486C479.194 89.1567 479.01 88.6809 478.64 88.321C478.271 87.9612 477.79 87.7812 477.199 87.7812C476.796 87.7812 476.424 87.8878 476.083 88.1009C475.747 88.3092 475.475 88.6004 475.267 88.9744C475.063 89.3485 474.961 89.7817 474.961 90.2741V97H472.838ZM490.313 101.091V86.0909H492.387V87.8594H492.565C492.688 87.6321 492.866 87.3693 493.098 87.071C493.33 86.7727 493.652 86.5123 494.063 86.2898C494.475 86.0625 495.02 85.9489 495.697 85.9489C496.578 85.9489 497.364 86.1714 498.055 86.6165C498.746 87.0616 499.288 87.7031 499.681 88.5412C500.079 89.3793 500.278 90.3878 500.278 91.5668C500.278 92.7457 500.081 93.7566 499.688 94.5994C499.296 95.4375 498.756 96.0838 498.069 96.5384C497.383 96.9882 496.599 97.2131 495.718 97.2131C495.055 97.2131 494.513 97.1018 494.092 96.8793C493.675 96.6567 493.349 96.3963 493.112 96.098C492.875 95.7997 492.693 95.5346 492.565 95.3026H492.437V101.091H490.313ZM492.394 91.5455C492.394 92.3125 492.506 92.9848 492.728 93.5625C492.951 94.1402 493.273 94.5923 493.694 94.919C494.116 95.241 494.632 95.402 495.242 95.402C495.877 95.402 496.407 95.2339 496.833 94.8977C497.26 94.5568 497.581 94.0952 497.799 93.5128C498.022 92.9304 498.133 92.2746 498.133 91.5455C498.133 90.8258 498.024 90.1795 497.806 89.6065C497.593 89.0336 497.271 88.5814 496.84 88.25C496.414 87.9186 495.882 87.7528 495.242 87.7528C494.627 87.7528 494.106 87.9115 493.68 88.2287C493.259 88.5459 492.939 88.9886 492.721 89.5568C492.503 90.125 492.394 90.7879 492.394 91.5455ZM507.052 97.2202C506.03 97.2202 505.137 96.9858 504.375 96.517C503.613 96.0483 503.021 95.3925 502.599 94.5497C502.178 93.7069 501.967 92.7221 501.967 91.5952C501.967 90.4635 502.178 89.474 502.599 88.6264C503.021 87.7789 503.613 87.1207 504.375 86.652C505.137 86.1832 506.03 85.9489 507.052 85.9489C508.075 85.9489 508.968 86.1832 509.73 86.652C510.492 87.1207 511.084 87.7789 511.506 88.6264C511.927 89.474 512.138 90.4635 512.138 91.5952C512.138 92.7221 511.927 93.7069 511.506 94.5497C511.084 95.3925 510.492 96.0483 509.73 96.517C508.968 96.9858 508.075 97.2202 507.052 97.2202ZM507.06 95.4375C507.722 95.4375 508.272 95.2623 508.707 94.9119C509.143 94.5616 509.465 94.0952 509.673 93.5128C509.886 92.9304 509.993 92.2888 509.993 91.5881C509.993 90.892 509.886 90.2528 509.673 89.6705C509.465 89.0833 509.143 88.6122 508.707 88.2571C508.272 87.902 507.722 87.7244 507.06 87.7244C506.392 87.7244 505.838 87.902 505.398 88.2571C504.962 88.6122 504.638 89.0833 504.425 89.6705C504.216 90.2528 504.112 90.892 504.112 91.5881C504.112 92.2888 504.216 92.9304 504.425 93.5128C504.638 94.0952 504.962 94.5616 505.398 94.9119C505.838 95.2623 506.392 95.4375 507.06 95.4375ZM514.308 97V86.0909H516.361V87.8239H516.474C516.673 87.2367 517.023 86.7751 517.525 86.4389C518.032 86.098 518.605 85.9276 519.244 85.9276C519.377 85.9276 519.533 85.9323 519.713 85.9418C519.898 85.9512 520.042 85.9631 520.146 85.9773V88.0085C520.061 87.9848 519.909 87.9588 519.692 87.9304C519.474 87.8973 519.256 87.8807 519.038 87.8807C518.536 87.8807 518.089 87.9872 517.696 88.2003C517.308 88.4086 517 88.6998 516.773 89.0739C516.545 89.4432 516.432 89.8646 516.432 90.3381V97H514.308ZM527.521 86.0909V87.7955H521.562V86.0909H527.521ZM523.16 83.4773H525.283V93.7969C525.283 94.2088 525.345 94.5189 525.468 94.7273C525.591 94.9309 525.75 95.0705 525.944 95.1463C526.143 95.2173 526.358 95.2528 526.59 95.2528C526.761 95.2528 526.91 95.241 527.038 95.2173C527.166 95.1937 527.265 95.1747 527.336 95.1605L527.72 96.9148C527.596 96.9621 527.421 97.0095 527.194 97.0568C526.967 97.1089 526.683 97.1373 526.342 97.142C525.783 97.1515 525.262 97.0521 524.779 96.8438C524.296 96.6354 523.906 96.3134 523.607 95.8778C523.309 95.4422 523.16 94.8954 523.16 94.2372V83.4773ZM534.933 97V82.4545H540.118C541.245 82.4545 542.18 82.6487 542.923 83.0369C543.671 83.4252 544.23 83.9626 544.599 84.6491C544.969 85.331 545.153 86.1193 545.153 87.0142C545.153 87.9044 544.966 88.688 544.592 89.3651C544.223 90.0374 543.664 90.5606 542.916 90.9347C542.173 91.3087 541.238 91.4957 540.111 91.4957H536.183V89.6065H539.912C540.622 89.6065 541.2 89.5047 541.645 89.3011C542.095 89.0975 542.424 88.8016 542.632 88.4134C542.84 88.0251 542.945 87.5587 542.945 87.0142C542.945 86.465 542.838 85.9891 542.625 85.5866C542.417 85.1842 542.088 84.8764 541.638 84.6634C541.193 84.4455 540.608 84.3366 539.883 84.3366H537.128V97H534.933ZM542.114 90.4375L545.707 97H543.207L539.685 90.4375H542.114ZM552.018 97.2202C550.944 97.2202 550.018 96.9905 549.241 96.5312C548.47 96.0672 547.873 95.4162 547.452 94.5781C547.035 93.7353 546.827 92.7481 546.827 91.6165C546.827 90.4991 547.035 89.5142 547.452 88.6619C547.873 87.8097 548.46 87.1444 549.213 86.6662C549.971 86.188 550.856 85.9489 551.869 85.9489C552.485 85.9489 553.081 86.0507 553.659 86.2543C554.237 86.4579 554.755 86.7775 555.214 87.2131C555.674 87.6487 556.036 88.2145 556.301 88.9105C556.566 89.6018 556.699 90.4422 556.699 91.4318V92.1847H548.027V90.5938H554.618C554.618 90.035 554.504 89.5402 554.277 89.1094C554.05 88.6738 553.73 88.3305 553.318 88.0795C552.911 87.8286 552.433 87.7031 551.883 87.7031C551.287 87.7031 550.766 87.8499 550.321 88.1435C549.881 88.4323 549.54 88.8111 549.298 89.2798C549.061 89.7438 548.943 90.2481 548.943 90.7926V92.0355C548.943 92.7647 549.071 93.3849 549.327 93.8963C549.587 94.4077 549.949 94.7983 550.413 95.0682C550.877 95.3333 551.419 95.4659 552.04 95.4659C552.442 95.4659 552.809 95.4091 553.14 95.2955C553.472 95.1771 553.758 95.0019 554 94.7699C554.241 94.5379 554.426 94.2514 554.554 93.9105L556.564 94.2727C556.403 94.8646 556.114 95.383 555.697 95.8281C555.285 96.2685 554.767 96.6117 554.142 96.858C553.522 97.0994 552.814 97.2202 552.018 97.2202ZM567.03 88.7543L565.105 89.0952C565.024 88.849 564.897 88.6146 564.721 88.392C564.551 88.1695 564.319 87.9872 564.025 87.8452C563.732 87.7031 563.365 87.6321 562.924 87.6321C562.323 87.6321 561.821 87.767 561.419 88.0369C561.016 88.3021 560.815 88.6454 560.815 89.0668C560.815 89.4313 560.95 89.7249 561.22 89.9474C561.49 90.17 561.925 90.3523 562.527 90.4943L564.26 90.892C565.264 91.1241 566.012 91.4815 566.504 91.9645C566.996 92.4474 567.243 93.0748 567.243 93.8466C567.243 94.5 567.053 95.0824 566.674 95.5938C566.3 96.1004 565.777 96.4981 565.105 96.7869C564.437 97.0758 563.663 97.2202 562.782 97.2202C561.561 97.2202 560.564 96.9598 559.792 96.4389C559.021 95.9134 558.547 95.1676 558.372 94.2017L560.424 93.8892C560.552 94.4242 560.815 94.8291 561.213 95.1037C561.611 95.3736 562.129 95.5085 562.768 95.5085C563.464 95.5085 564.021 95.3641 564.437 95.0753C564.854 94.7817 565.062 94.4242 565.062 94.0028C565.062 93.6619 564.934 93.3755 564.679 93.1435C564.428 92.9115 564.042 92.7363 563.521 92.6179L561.674 92.2131C560.657 91.9811 559.904 91.6117 559.416 91.1051C558.933 90.5985 558.692 89.9569 558.692 89.1804C558.692 88.5365 558.871 87.973 559.231 87.4901C559.591 87.0071 560.088 86.6307 560.723 86.3608C561.357 86.0862 562.084 85.9489 562.903 85.9489C564.082 85.9489 565.01 86.2045 565.687 86.7159C566.364 87.2225 566.812 87.902 567.03 88.7543ZM576.288 92.4759V86.0909H578.419V97H576.331V95.1108H576.217C575.966 95.6932 575.564 96.1785 575.01 96.5668C574.46 96.9503 573.776 97.142 572.957 97.142C572.256 97.142 571.636 96.9882 571.096 96.6804C570.561 96.3679 570.14 95.9062 569.832 95.2955C569.529 94.6847 569.378 93.9295 569.378 93.0298V86.0909H571.501V92.7741C571.501 93.5175 571.707 94.1094 572.119 94.5497C572.531 94.9901 573.066 95.2102 573.724 95.2102C574.122 95.2102 574.517 95.1108 574.91 94.9119C575.308 94.7131 575.637 94.4124 575.897 94.0099C576.163 93.6075 576.293 93.0961 576.288 92.4759ZM581.072 97V86.0909H583.11V87.8665H583.245C583.473 87.2652 583.844 86.7964 584.36 86.4602C584.877 86.1193 585.494 85.9489 586.214 85.9489C586.943 85.9489 587.554 86.1193 588.047 86.4602C588.544 86.8011 588.911 87.2699 589.147 87.8665H589.261C589.521 87.2841 589.936 86.8201 590.504 86.4744C591.072 86.1241 591.749 85.9489 592.535 85.9489C593.525 85.9489 594.332 86.259 594.957 86.8793C595.587 87.4995 595.902 88.4347 595.902 89.6847V97H593.778V89.8835C593.778 89.1449 593.577 88.6098 593.174 88.2784C592.772 87.947 592.291 87.7812 591.733 87.7812C591.041 87.7812 590.504 87.9943 590.12 88.4205C589.737 88.8419 589.545 89.384 589.545 90.0469V97H587.429V89.7486C587.429 89.1567 587.244 88.6809 586.875 88.321C586.505 87.9612 586.025 87.7812 585.433 87.7812C585.03 87.7812 584.659 87.8878 584.318 88.1009C583.982 88.3092 583.709 88.6004 583.501 88.9744C583.297 89.3485 583.196 89.7817 583.196 90.2741V97H581.072ZM603.25 97.2202C602.175 97.2202 601.249 96.9905 600.473 96.5312C599.701 96.0672 599.104 95.4162 598.683 94.5781C598.266 93.7353 598.058 92.7481 598.058 91.6165C598.058 90.4991 598.266 89.5142 598.683 88.6619C599.104 87.8097 599.691 87.1444 600.444 86.6662C601.202 86.188 602.087 85.9489 603.1 85.9489C603.716 85.9489 604.313 86.0507 604.89 86.2543C605.468 86.4579 605.986 86.7775 606.446 87.2131C606.905 87.6487 607.267 88.2145 607.532 88.9105C607.797 89.6018 607.93 90.4422 607.93 91.4318V92.1847H599.258V90.5938H605.849C605.849 90.035 605.735 89.5402 605.508 89.1094C605.281 88.6738 604.961 88.3305 604.549 88.0795C604.142 87.8286 603.664 87.7031 603.115 87.7031C602.518 87.7031 601.997 87.8499 601.552 88.1435C601.112 88.4323 600.771 88.8111 600.529 89.2798C600.293 89.7438 600.174 90.2481 600.174 90.7926V92.0355C600.174 92.7647 600.302 93.3849 600.558 93.8963C600.818 94.4077 601.18 94.7983 601.644 95.0682C602.108 95.3333 602.651 95.4659 603.271 95.4659C603.673 95.4659 604.04 95.4091 604.372 95.2955C604.703 95.1771 604.99 95.0019 605.231 94.7699C605.473 94.5379 605.657 94.2514 605.785 93.9105L607.795 94.2727C607.634 94.8646 607.345 95.383 606.929 95.8281C606.517 96.2685 605.998 96.6117 605.373 96.858C604.753 97.0994 604.045 97.2202 603.25 97.2202Z" fill="#CACACA"/>
</svg>
