<svg width="499" height="401" viewBox="0 0 499 401" fill="none" xmlns="http://www.w3.org/2000/svg">
<g opacity="0.5">
<rect x="59" y="77" width="359" height="223" rx="8" fill="#121328"/>
<circle cx="70" cy="89" r="4" fill="#ED695E"/>
<circle cx="81" cy="89" r="4" fill="#F4BD4F"/>
<circle cx="92" cy="89" r="4" fill="#61C353"/>
<circle cx="94" cy="129" r="10" fill="#1F2235"/>
<rect x="112" y="119" width="55" height="6" rx="2" fill="#1F2235"/>
<rect x="112" y="129" width="62" height="4" rx="2" fill="#1F2235"/>
<rect x="112" y="135" width="62" height="4" rx="2" fill="#1F2235"/>
<circle cx="94" cy="159" r="10" fill="#1F2235"/>
<rect x="112" y="149" width="55" height="6" rx="2" fill="#1F2235"/>
<rect x="112" y="159" width="62" height="4" rx="2" fill="#1F2235"/>
<rect x="112" y="165" width="62" height="4" rx="2" fill="#1F2235"/>
<circle cx="94" cy="189" r="10" fill="#1F2235"/>
<rect x="112" y="179" width="55" height="6" rx="2" fill="#1F2235"/>
<rect x="112" y="189" width="62" height="4" rx="2" fill="#1F2235"/>
<rect x="112" y="195" width="62" height="4" rx="2" fill="#1F2235"/>
<path d="M59 101H418" stroke="#1F2235"/>
<g filter="url(#filter0_d_315_490)">
<rect x="12" y="291" width="151" height="42" rx="8" fill="#0F1023"/>
<rect x="12.5" y="291.5" width="150" height="41" rx="7.5" stroke="url(#paint0_linear_315_490)"/>
</g>
<rect x="21" y="314" width="28" height="4" rx="2" fill="white" fill-opacity="0.2"/>
<g filter="url(#filter1_d_315_490)">
<rect x="207" y="122" width="94" height="65" rx="8" fill="#15192D"/>
</g>
<g filter="url(#filter2_d_315_490)">
<rect x="309" y="122" width="94" height="65" rx="8" fill="#15192D"/>
</g>
<path d="M24.036 297.376H24.912V298.672C26.256 298.864 27.204 299.752 27.204 301.168H25.452C25.452 300.604 25.092 300.232 24.384 300.232C23.772 300.232 23.316 300.568 23.316 301.06C23.316 301.276 23.388 301.672 24.204 301.9L25.188 302.212C27.192 302.788 27.492 303.928 27.456 304.708C27.42 306.196 26.22 306.976 24.912 307.108V308.488H24.036V307.108C22.464 306.952 21.48 305.956 21.48 304.576H23.244C23.28 305.104 23.676 305.572 24.48 305.572C25.2 305.572 25.68 305.236 25.692 304.696C25.704 304.324 25.524 304 24.696 303.76L23.7 303.484C21.876 302.908 21.564 301.864 21.564 301.108C21.564 299.752 22.632 298.816 24.036 298.66V297.376ZM33.6263 307H28.5143V306.088L31.7423 302.26C31.9823 301.984 32.1623 301.672 32.1623 301.372C32.1623 300.952 31.8023 300.592 31.1783 300.592C30.5663 300.592 30.1583 301.06 30.0623 301.684L28.5263 301.42C28.7663 299.92 29.7743 298.984 31.2743 298.984C32.6663 298.984 33.8423 299.968 33.8423 301.372C33.8423 302.14 33.4943 302.824 33.0143 303.364L31.2023 305.416H33.6263V307ZM39.3366 304.228C39.3366 303.352 38.7006 302.944 37.8846 302.944C37.4046 302.944 36.6006 303.1 36.1566 303.808L35.2326 303.328L35.8806 299.14H40.4886V300.676H37.2126L37.0086 301.948C37.3326 301.672 37.9326 301.54 38.4486 301.54C39.8526 301.54 41.0166 302.476 41.0166 304.228C41.0166 305.896 39.7566 307.12 37.7766 307.12C36.6726 307.12 35.6046 306.484 34.9926 305.536L36.4086 304.624C36.7326 305.104 37.2846 305.44 37.7766 305.44C38.6886 305.44 39.3366 304.852 39.3366 304.228Z" fill="white"/>
<path d="M220.036 130.376H220.912V131.672C222.256 131.864 223.204 132.752 223.204 134.168H221.452C221.452 133.604 221.092 133.232 220.384 133.232C219.772 133.232 219.316 133.568 219.316 134.06C219.316 134.276 219.388 134.672 220.204 134.9L221.188 135.212C223.192 135.788 223.492 136.928 223.456 137.708C223.42 139.196 222.22 139.976 220.912 140.108V141.488H220.036V140.108C218.464 139.952 217.48 138.956 217.48 137.576H219.244C219.28 138.104 219.676 138.572 220.48 138.572C221.2 138.572 221.68 138.236 221.692 137.696C221.704 137.324 221.524 137 220.696 136.76L219.7 136.484C217.876 135.908 217.564 134.864 217.564 134.108C217.564 132.752 218.632 131.816 220.036 131.66V130.376ZM226.998 136.592H226.17V135.152H226.998C227.814 135.152 227.766 134.348 227.766 134.3C227.766 134.06 227.562 133.544 226.974 133.544C226.554 133.544 226.29 133.736 226.146 133.976L224.79 133.148C225.258 132.392 226.182 131.924 227.238 131.984C228.618 132.044 229.602 133.076 229.566 134.192C229.566 134.852 229.134 135.404 228.558 135.728C229.422 136.052 229.962 137.024 229.902 137.864C229.77 139.22 228.378 140.192 226.806 140.096C225.714 140.036 224.706 139.364 224.298 138.452L225.774 137.72C225.93 138.104 226.494 138.44 226.938 138.476C227.562 138.512 228.006 138.056 228.066 137.636C228.066 137.48 228.186 136.556 226.998 136.592ZM234.015 132.032V140H232.335V134.372L230.991 134.948V133.472L234.015 132.032ZM239.907 137.228C239.907 136.352 239.271 135.944 238.455 135.944C237.975 135.944 237.171 136.1 236.727 136.808L235.803 136.328L236.451 132.14H241.059V133.676H237.783L237.579 134.948C237.903 134.672 238.503 134.54 239.019 134.54C240.423 134.54 241.587 135.476 241.587 137.228C241.587 138.896 240.327 140.12 238.347 140.12C237.243 140.12 236.175 139.484 235.563 138.536L236.979 137.624C237.303 138.104 237.855 138.44 238.347 138.44C239.259 138.44 239.907 137.852 239.907 137.228ZM244.572 137.78V140H242.916V131.348H244.572V135.932L245.904 134.396H248.028L245.7 136.868L248.496 140H246.444L244.572 137.78Z" fill="white"/>
<path d="M322.036 130.376H322.912V131.672C324.256 131.864 325.204 132.752 325.204 134.168H323.452C323.452 133.604 323.092 133.232 322.384 133.232C321.772 133.232 321.316 133.568 321.316 134.06C321.316 134.276 321.388 134.672 322.204 134.9L323.188 135.212C325.192 135.788 325.492 136.928 325.456 137.708C325.42 139.196 324.22 139.976 322.912 140.108V141.488H322.036V140.108C320.464 139.952 319.48 138.956 319.48 137.576H321.244C321.28 138.104 321.676 138.572 322.48 138.572C323.2 138.572 323.68 138.236 323.692 137.696C323.704 137.324 323.524 137 322.696 136.76L321.7 136.484C319.876 135.908 319.564 134.864 319.564 134.108C319.564 132.752 320.632 131.816 322.036 131.66V130.376ZM331.626 140H326.514V139.088L329.742 135.26C329.982 134.984 330.162 134.672 330.162 134.372C330.162 133.952 329.802 133.592 329.178 133.592C328.566 133.592 328.158 134.06 328.062 134.684L326.526 134.42C326.766 132.92 327.774 131.984 329.274 131.984C330.666 131.984 331.842 132.968 331.842 134.372C331.842 135.14 331.494 135.824 331.014 136.364L329.202 138.416H331.626V140ZM334.997 136.82H336.461V134.372L334.997 136.82ZM339.149 138.236H338.153V140H336.461V138.236H332.705L336.377 132.14H338.153V136.82H339.149V138.236ZM344.555 137.228C344.555 136.352 343.919 135.944 343.103 135.944C342.623 135.944 341.819 136.1 341.375 136.808L340.451 136.328L341.099 132.14H345.707V133.676H342.431L342.227 134.948C342.551 134.672 343.151 134.54 343.667 134.54C345.071 134.54 346.235 135.476 346.235 137.228C346.235 138.896 344.975 140.12 342.995 140.12C341.891 140.12 340.823 139.484 340.211 138.536L341.627 137.624C341.951 138.104 342.503 138.44 342.995 138.44C343.907 138.44 344.555 137.852 344.555 137.228ZM349.221 137.78V140H347.565V131.348H349.221V135.932L350.553 134.396H352.677L350.349 136.868L353.145 140H351.093L349.221 137.78Z" fill="white"/>
<path opacity="0.25" d="M220.036 163.376H220.912V164.672C222.256 164.864 223.204 165.752 223.204 167.168H221.452C221.452 166.604 221.092 166.232 220.384 166.232C219.772 166.232 219.316 166.568 219.316 167.06C219.316 167.276 219.388 167.672 220.204 167.9L221.188 168.212C223.192 168.788 223.492 169.928 223.456 170.708C223.42 172.196 222.22 172.976 220.912 173.108V174.488H220.036V173.108C218.464 172.952 217.48 171.956 217.48 170.576H219.244C219.28 171.104 219.676 171.572 220.48 171.572C221.2 171.572 221.68 171.236 221.692 170.696C221.704 170.324 221.524 170 220.696 169.76L219.7 169.484C217.876 168.908 217.564 167.864 217.564 167.108C217.564 165.752 218.632 164.816 220.036 164.66V163.376ZM227.394 165.032V173H225.714V167.372L224.37 167.948V166.472L227.394 165.032ZM228.942 165.14H234.87L231.402 173H229.494L232.266 166.688H228.942V165.14ZM239.883 170.228C239.883 169.352 239.247 168.944 238.431 168.944C237.951 168.944 237.147 169.1 236.703 169.808L235.779 169.328L236.427 165.14H241.035V166.676H237.759L237.555 167.948C237.879 167.672 238.479 167.54 238.995 167.54C240.399 167.54 241.563 168.476 241.563 170.228C241.563 171.896 240.303 173.12 238.323 173.12C237.219 173.12 236.151 172.484 235.539 171.536L236.955 170.624C237.279 171.104 237.831 171.44 238.323 171.44C239.235 171.44 239.883 170.852 239.883 170.228ZM244.549 170.78V173H242.893V164.348H244.549V168.932L245.881 167.396H248.005L245.677 169.868L248.473 173H246.421L244.549 170.78Z" fill="white"/>
<path opacity="0.25" d="M322.036 163.376H322.912V164.672C324.256 164.864 325.204 165.752 325.204 167.168H323.452C323.452 166.604 323.092 166.232 322.384 166.232C321.772 166.232 321.316 166.568 321.316 167.06C321.316 167.276 321.388 167.672 322.204 167.9L323.188 168.212C325.192 168.788 325.492 169.928 325.456 170.708C325.42 172.196 324.22 172.976 322.912 173.108V174.488H322.036V173.108C320.464 172.952 319.48 171.956 319.48 170.576H321.244C321.28 171.104 321.676 171.572 322.48 171.572C323.2 171.572 323.68 171.236 323.692 170.696C323.704 170.324 323.524 170 322.696 169.76L321.7 169.484C319.876 168.908 319.564 167.864 319.564 167.108C319.564 165.752 320.632 164.816 322.036 164.66V163.376ZM329.394 165.032V173H327.714V167.372L326.37 167.948V166.472L329.394 165.032ZM330.942 165.14H336.87L333.402 173H331.494L334.266 166.688H330.942V165.14ZM341.883 170.228C341.883 169.352 341.247 168.944 340.431 168.944C339.951 168.944 339.147 169.1 338.703 169.808L337.779 169.328L338.427 165.14H343.035V166.676H339.759L339.555 167.948C339.879 167.672 340.479 167.54 340.995 167.54C342.399 167.54 343.563 168.476 343.563 170.228C343.563 171.896 342.303 173.12 340.323 173.12C339.219 173.12 338.151 172.484 337.539 171.536L338.955 170.624C339.279 171.104 339.831 171.44 340.323 171.44C341.235 171.44 341.883 170.852 341.883 170.228ZM346.549 170.78V173H344.893V164.348H346.549V168.932L347.881 167.396H350.005L347.677 169.868L350.473 173H348.421L346.549 170.78Z" fill="white"/>
<g filter="url(#filter3_d_315_490)">
<rect x="249" y="214" width="186" height="129" rx="8" fill="#0F1023"/>
</g>
<g filter="url(#filter4_d_315_490)">
<path d="M249 287L275.19 301.709C281.69 305.36 289.518 305.783 296.374 302.853L328.282 289.217C337.69 285.197 348.612 287.582 355.487 295.159L360.808 301.023C376.136 317.915 403.71 313.804 413.445 293.176L435 247.5V335C435 339.418 431.418 343 427 343H257C252.582 343 249 339.418 249 335V287Z" fill="url(#paint1_linear_315_490)" shape-rendering="crispEdges"/>
</g>
<g filter="url(#filter5_d_315_490)">
<path fill-rule="evenodd" clip-rule="evenodd" d="M435.112 250.5L416.271 292.956C406.08 314.551 377.212 318.855 361.166 301.171L355.845 295.307C349.399 288.204 339.16 285.968 330.34 289.737L298.432 303.373C291.148 306.485 282.831 306.036 275.924 302.157L249 287V283.5L277.393 299.542C283.487 302.964 290.826 303.361 297.253 300.614L329.161 286.978C339.157 282.706 350.762 285.241 358.066 293.291L363.387 299.155C377.997 315.255 404.279 311.337 413.557 291.676L435.112 245V250.5Z" fill="#4A51D6"/>
</g>
<rect x="257" y="239" width="31" height="6" rx="2" fill="#1F2235"/>
<rect x="257" y="249" width="81" height="4" rx="2" fill="#1F2235"/>
<circle cx="259.533" cy="224.533" r="2.53333" fill="#ED695E"/>
<circle cx="266.5" cy="224.533" r="2.53333" fill="#F4BD4F"/>
<circle cx="273.466" cy="224.533" r="2.53333" fill="#61C353"/>
<circle cx="328.5" cy="289.5" r="4.5" fill="#4A51D6" stroke="white" stroke-width="2"/>
<rect x="101" y="309" width="5" height="12" fill="#4A51D6"/>
<rect x="110" y="315" width="5" height="6" fill="#4A51D6"/>
<rect x="119" y="303" width="5" height="18" fill="#4A51D6"/>
<rect x="128" y="305" width="5" height="16" fill="#4A51D6"/>
<rect x="137" y="311" width="5" height="10" fill="#4A51D6"/>
<rect x="146" y="299" width="5" height="22" fill="#4A51D6"/>
</g>
<g filter="url(#filter6_d_315_490)">
<rect x="23" y="8" width="192" height="42" rx="21" fill="#4A51D6"/>
</g>
<path d="M41 38.999C42.6568 38.999 44 37.6559 44 35.999C44 34.3422 42.6568 32.999 41 32.999C39.3431 32.999 38 34.3422 38 35.999C38 37.6559 39.3431 38.999 41 38.999Z" stroke="#12141D" stroke-width="2" stroke-linecap="round" stroke-linejoin="round"/>
<path d="M44 36.0009H52.5C53.4282 36.0009 54.3185 35.6322 54.9749 34.9758C55.6312 34.3194 56 33.4292 56 32.501C56 31.5727 55.6312 30.6825 54.9749 30.0261C54.3185 29.3697 53.4282 29.001 52.5 29.001H41.5C40.5717 29.001 39.6815 28.6322 39.0251 27.9759C38.3688 27.3195 38 26.4292 38 25.5009C38 24.5727 38.3688 23.6825 39.0251 23.0261C39.6815 22.3697 40.5717 22.001 41.5 22.001H50" stroke="#12141D" stroke-width="2" stroke-linecap="round" stroke-linejoin="round"/>
<path d="M53 25.001C54.6568 25.001 56 23.6578 56 22.001C56 20.3441 54.6568 19.001 53 19.001C51.3432 19.001 50 20.3441 50 22.001C50 23.6578 51.3432 25.001 53 25.001Z" stroke="#12141D" stroke-width="2" stroke-linecap="round" stroke-linejoin="round"/>
<path d="M71.104 30.464C71.836 30.464 72.532 29.9 72.532 29.048V23.732H74.296V29.048C74.296 30.92 72.796 32.12 71.104 32.12C69.412 32.12 67.888 30.92 67.888 29.048V23.732H69.676V29.048C69.676 29.9 70.372 30.464 71.104 30.464ZM82.7757 23.732L80.1717 27.596L83.0397 32H80.9637L79.1277 29L77.2917 32H75.2277L78.0837 27.596L75.4797 23.732H77.5917L79.1277 26.204L80.6757 23.732H82.7757ZM88.9598 29.888L88.2278 29.696C86.5358 29.252 86.5478 28.388 86.5478 27.872C86.5478 27.044 87.5558 26.276 88.7318 26.276C89.8358 26.276 91.0358 26.756 91.0358 28.136H89.4638C89.4518 27.716 89.1038 27.644 88.8278 27.644C88.4558 27.644 88.2278 27.812 88.2398 28.064C88.2518 28.244 88.3958 28.4 88.7318 28.484L89.6798 28.736C91.0358 29.12 91.2038 29.996 91.2038 30.368C91.2038 31.556 89.9558 32.12 88.7798 32.12C87.6518 32.12 86.4398 31.436 86.4398 30.188H87.9998C88.0118 30.512 88.3598 30.836 88.8278 30.836C89.1998 30.824 89.5118 30.656 89.5118 30.368C89.5118 30.128 89.3798 29.996 88.9598 29.888ZM94.5614 26.396H95.7374V27.716H94.5614V32H92.9054V27.716H91.8854V26.396H92.9054V24.248H94.5614V26.396ZM98.4282 30.044V32H96.7602V26.396H98.4282V27.752C98.7162 26.708 99.4362 26.276 100.012 26.276C100.408 26.276 100.696 26.348 100.972 26.48L100.672 27.98C100.372 27.836 100.096 27.812 99.8202 27.812C98.8602 27.812 98.4282 28.556 98.4282 30.044ZM105.893 32V31.364C105.545 31.892 104.681 32.108 104.261 32.108C102.833 32.108 101.405 30.98 101.405 29.192C101.405 27.404 102.833 26.276 104.261 26.276C104.633 26.276 105.437 26.408 105.893 27.02V26.396H107.549V32H105.893ZM103.133 29.192C103.133 29.996 103.829 30.524 104.537 30.524C105.221 30.524 105.893 30.032 105.893 29.192C105.893 28.364 105.221 27.86 104.537 27.86C103.829 27.86 103.133 28.388 103.133 29.192ZM111.272 26.396H112.448V27.716H111.272V32H109.616V27.716H108.596V26.396H109.616V24.248H111.272V26.396ZM117.325 30.152L118.537 30.98C117.961 31.82 116.941 32.12 115.981 32.12C114.385 32.12 113.053 30.944 113.053 29.18C113.053 27.404 114.385 26.276 115.981 26.276C117.577 26.276 118.849 27.464 118.849 29.228C118.849 29.372 118.837 29.6 118.825 29.744H114.721C114.817 30.392 115.501 30.68 116.101 30.68C116.569 30.68 117.049 30.524 117.325 30.152ZM114.745 28.7H117.169C117.073 28.016 116.473 27.74 115.993 27.74C115.537 27.74 114.877 27.98 114.745 28.7ZM124.091 29.18C124.091 28.352 123.431 27.86 122.735 27.86C122.015 27.86 121.391 28.388 121.391 29.18C121.391 30.008 122.015 30.548 122.735 30.548C123.419 30.548 124.091 30.008 124.091 29.18ZM119.819 33.056L121.163 32.396C121.355 32.924 122.015 33.296 122.579 33.296C123.863 33.296 124.187 32.408 124.127 31.304C123.851 31.82 123.155 32.12 122.447 32.12C121.007 32.12 119.651 30.992 119.651 29.216C119.651 27.416 121.007 26.276 122.447 26.276C123.143 26.276 123.839 26.588 124.127 27.092V26.396H125.747V31.22C125.747 33.632 124.559 34.796 122.579 34.796C121.343 34.796 120.299 34.1 119.819 33.056ZM132.592 26.396L129.136 34.748H127.372L128.716 31.424L126.556 26.396H128.332L129.568 29.576L130.816 26.396H132.592ZM138.705 32.12C137.109 32.12 135.885 31.112 135.885 29.708C135.885 28.652 136.341 27.92 137.253 27.596C136.665 27.404 136.209 26.804 136.209 25.952C136.209 24.776 137.217 23.696 138.621 23.636C139.641 23.588 140.469 24.032 140.985 24.704L139.569 25.568C139.389 25.388 139.221 25.256 138.897 25.256C138.285 25.256 138.045 25.724 138.045 26.072C138.045 26.108 138.033 27.008 139.005 27.008H140.373V26.072H141.921V27.008H142.881V28.352H141.921V29.576C141.921 30.524 142.113 30.668 143.037 30.668V32.12C141.765 32.12 140.985 31.988 140.709 31.088C140.385 31.76 139.413 32.12 138.705 32.12ZM140.373 28.352H138.957C137.805 28.352 137.649 29.24 137.709 29.576C137.841 30.188 138.249 30.488 138.957 30.488C139.413 30.488 140.373 30.176 140.373 29.012V28.352ZM150.807 25.28H149.271V27.608H150.759C151.443 27.608 151.803 26.972 151.803 26.444C151.803 25.928 151.479 25.28 150.807 25.28ZM151.575 29.072L153.627 32H151.515L149.667 29.144H149.271V32H147.507V23.732H150.891C152.763 23.732 153.639 25.088 153.639 26.444C153.639 27.608 152.991 28.784 151.575 29.072ZM158.622 30.152L159.834 30.98C159.258 31.82 158.238 32.12 157.278 32.12C155.682 32.12 154.35 30.944 154.35 29.18C154.35 27.404 155.682 26.276 157.278 26.276C158.874 26.276 160.146 27.464 160.146 29.228C160.146 29.372 160.134 29.6 160.122 29.744H156.018C156.114 30.392 156.798 30.68 157.398 30.68C157.866 30.68 158.346 30.524 158.622 30.152ZM156.042 28.7H158.466C158.37 28.016 157.77 27.74 157.29 27.74C156.834 27.74 156.174 27.98 156.042 28.7ZM163.468 29.888L162.736 29.696C161.044 29.252 161.056 28.388 161.056 27.872C161.056 27.044 162.064 26.276 163.24 26.276C164.344 26.276 165.544 26.756 165.544 28.136H163.972C163.96 27.716 163.612 27.644 163.336 27.644C162.964 27.644 162.736 27.812 162.748 28.064C162.76 28.244 162.904 28.4 163.24 28.484L164.188 28.736C165.544 29.12 165.712 29.996 165.712 30.368C165.712 31.556 164.464 32.12 163.288 32.12C162.16 32.12 160.948 31.436 160.948 30.188H162.508C162.52 30.512 162.868 30.836 163.336 30.836C163.708 30.824 164.02 30.656 164.02 30.368C164.02 30.128 163.888 29.996 163.468 29.888ZM170.821 30.152L172.033 30.98C171.457 31.82 170.437 32.12 169.477 32.12C167.881 32.12 166.549 30.944 166.549 29.18C166.549 27.404 167.881 26.276 169.477 26.276C171.073 26.276 172.345 27.464 172.345 29.228C172.345 29.372 172.333 29.6 172.321 29.744H168.217C168.313 30.392 168.997 30.68 169.597 30.68C170.065 30.68 170.545 30.524 170.821 30.152ZM168.241 28.7H170.665C170.569 28.016 169.969 27.74 169.489 27.74C169.033 27.74 168.373 27.98 168.241 28.7ZM177.635 32V31.364C177.287 31.892 176.423 32.108 176.003 32.108C174.575 32.108 173.147 30.98 173.147 29.192C173.147 27.404 174.575 26.276 176.003 26.276C176.375 26.276 177.179 26.408 177.635 27.02V26.396H179.291V32H177.635ZM174.875 29.192C174.875 29.996 175.571 30.524 176.279 30.524C176.963 30.524 177.635 30.032 177.635 29.192C177.635 28.364 176.963 27.86 176.279 27.86C175.571 27.86 174.875 28.388 174.875 29.192ZM182.499 30.044V32H180.831V26.396H182.499V27.752C182.787 26.708 183.507 26.276 184.083 26.276C184.479 26.276 184.767 26.348 185.043 26.48L184.743 27.98C184.443 27.836 184.167 27.812 183.891 27.812C182.931 27.812 182.499 28.556 182.499 30.044ZM185.475 29.18C185.475 27.404 186.927 26.276 188.523 26.276C189.531 26.276 190.419 26.696 190.959 27.464L189.603 28.436C189.375 28.064 188.955 27.872 188.523 27.872C187.815 27.872 187.131 28.376 187.131 29.18C187.131 29.984 187.815 30.524 188.523 30.524C188.955 30.524 189.375 30.332 189.603 29.96L190.959 30.92C190.431 31.688 189.531 32.12 188.523 32.12C186.927 32.12 185.475 30.944 185.475 29.18ZM193.784 29.036V32H192.116V23.348H193.784V27.272C194 26.576 194.828 26.276 195.356 26.276C196.844 26.276 197.6 27.26 197.6 28.952V32H195.932V29.012C195.932 28.28 195.416 27.896 194.9 27.896C194.372 27.896 193.784 28.184 193.784 29.036Z" fill="white"/>
<g filter="url(#filter7_d_315_490)">
<rect x="15" y="223" width="151" height="42" rx="21" fill="#4A51D6"/>
</g>
<path d="M42.7069 253.292C42.5194 253.479 42.265 253.585 41.9999 253.585C41.7347 253.585 41.4804 253.479 41.2929 253.292L39.7069 251.706C39.5194 251.518 39.4141 251.264 39.4141 250.999C39.4141 250.734 39.5194 250.479 39.7069 250.292L45.2929 244.706C45.4804 244.518 45.7347 244.413 45.9999 244.413C46.265 244.413 46.5193 244.518 46.7069 244.706L48.2929 246.292C48.4804 246.479 48.5857 246.734 48.5857 246.999C48.5857 247.264 48.4804 247.518 48.2929 247.706L42.7069 253.292Z" stroke="black" stroke-width="2" stroke-linecap="round" stroke-linejoin="round"/>
<path d="M45 245.001L43.625 238.127C43.5876 237.94 43.4975 237.768 43.3653 237.63C43.2331 237.493 43.0644 237.396 42.879 237.351L30.235 234.029C30.0684 233.989 29.8943 233.992 29.7293 234.038C29.5644 234.085 29.4141 234.173 29.2929 234.294C29.1717 234.415 29.0837 234.565 29.0373 234.73C28.9909 234.895 28.9877 235.069 29.028 235.236L32.35 247.88C32.3947 248.065 32.4916 248.234 32.6291 248.366C32.7666 248.499 32.939 248.589 33.126 248.626L40 250.001" stroke="black" stroke-width="2" stroke-linecap="round" stroke-linejoin="round"/>
<path d="M29.3003 234.3L36.5863 241.586" stroke="black" stroke-width="2" stroke-linecap="round" stroke-linejoin="round"/>
<path d="M38 245C39.1046 245 40 244.105 40 243C40 241.895 39.1046 241 38 241C36.8954 241 36 241.895 36 243C36 244.105 36.8954 245 38 245Z" stroke="black" stroke-width="2" stroke-linecap="round" stroke-linejoin="round"/>
<path d="M61.724 240.328V245.404H63.212C64.52 245.404 65.192 244.24 65.192 242.884C65.192 241.516 64.52 240.328 63.212 240.328H61.724ZM63.212 247H59.972V238.732H63.212C65.576 238.732 66.944 240.532 66.944 242.884C66.944 245.236 65.576 247 63.212 247ZM72.1298 245.152L73.3418 245.98C72.7658 246.82 71.7458 247.12 70.7858 247.12C69.1898 247.12 67.8578 245.944 67.8578 244.18C67.8578 242.404 69.1898 241.276 70.7858 241.276C72.3818 241.276 73.6538 242.464 73.6538 244.228C73.6538 244.372 73.6418 244.6 73.6298 244.744H69.5258C69.6218 245.392 70.3058 245.68 70.9058 245.68C71.3738 245.68 71.8538 245.524 72.1298 245.152ZM69.5498 243.7H71.9738C71.8778 243.016 71.2778 242.74 70.7978 242.74C70.3418 242.74 69.6818 242.98 69.5498 243.7ZM76.9754 244.888L76.2434 244.696C74.5514 244.252 74.5634 243.388 74.5634 242.872C74.5634 242.044 75.5714 241.276 76.7474 241.276C77.8514 241.276 79.0514 241.756 79.0514 243.136H77.4794C77.4674 242.716 77.1194 242.644 76.8434 242.644C76.4714 242.644 76.2434 242.812 76.2554 243.064C76.2674 243.244 76.4114 243.4 76.7474 243.484L77.6954 243.736C79.0514 244.12 79.2194 244.996 79.2194 245.368C79.2194 246.556 77.9714 247.12 76.7954 247.12C75.6674 247.12 74.4554 246.436 74.4554 245.188H76.0154C76.0274 245.512 76.3754 245.836 76.8434 245.836C77.2154 245.824 77.5274 245.656 77.5274 245.368C77.5274 245.128 77.3954 244.996 76.9754 244.888ZM82.049 241.396V247H80.393V241.396H82.049ZM80.177 239.32C80.177 238.768 80.657 238.348 81.221 238.348C81.785 238.348 82.241 238.756 82.241 239.32C82.241 239.86 81.797 240.304 81.221 240.304C80.657 240.304 80.177 239.86 80.177 239.32ZM87.6845 244.18C87.6845 243.352 87.0245 242.86 86.3285 242.86C85.6085 242.86 84.9845 243.388 84.9845 244.18C84.9845 245.008 85.6085 245.548 86.3285 245.548C87.0125 245.548 87.6845 245.008 87.6845 244.18ZM83.4125 248.056L84.7565 247.396C84.9485 247.924 85.6085 248.296 86.1725 248.296C87.4565 248.296 87.7805 247.408 87.7205 246.304C87.4445 246.82 86.7485 247.12 86.0405 247.12C84.6005 247.12 83.2445 245.992 83.2445 244.216C83.2445 242.416 84.6005 241.276 86.0405 241.276C86.7365 241.276 87.4325 241.588 87.7205 242.092V241.396H89.3405V246.22C89.3405 248.632 88.1525 249.796 86.1725 249.796C84.9365 249.796 83.8925 249.1 83.4125 248.056ZM92.5493 244.036V247H90.8813V241.396H92.5493V242.212C92.8493 241.648 93.4973 241.276 94.1693 241.276C95.4293 241.276 96.2213 242.056 96.2213 243.652V247H94.5533V244.012C94.5533 243.256 94.1453 242.896 93.5813 242.896C92.9933 242.896 92.5493 243.184 92.5493 244.036ZM100.391 244.576H102.155C102.191 245.104 102.587 245.572 103.391 245.572C104.111 245.572 104.591 245.236 104.603 244.696C104.615 244.324 104.435 244 103.607 243.76L102.611 243.484C100.787 242.908 100.475 241.864 100.475 241.108C100.475 239.632 101.735 238.636 103.319 238.636C104.915 238.636 106.115 239.584 106.115 241.168H104.363C104.363 240.604 104.003 240.232 103.295 240.232C102.683 240.232 102.227 240.568 102.227 241.06C102.227 241.276 102.299 241.672 103.115 241.9L104.099 242.212C106.103 242.788 106.403 243.928 106.367 244.708C106.331 246.34 104.867 247.132 103.391 247.132C101.603 247.132 100.391 246.064 100.391 244.576ZM112.861 241.396L109.405 249.748H107.641L108.985 246.424L106.825 241.396H108.601L109.837 244.576L111.085 241.396H112.861ZM115.8 244.888L115.068 244.696C113.376 244.252 113.388 243.388 113.388 242.872C113.388 242.044 114.396 241.276 115.572 241.276C116.676 241.276 117.876 241.756 117.876 243.136H116.304C116.292 242.716 115.944 242.644 115.668 242.644C115.296 242.644 115.068 242.812 115.08 243.064C115.092 243.244 115.236 243.4 115.572 243.484L116.52 243.736C117.876 244.12 118.044 244.996 118.044 245.368C118.044 246.556 116.796 247.12 115.62 247.12C114.492 247.12 113.28 246.436 113.28 245.188H114.84C114.852 245.512 115.2 245.836 115.668 245.836C116.04 245.824 116.352 245.656 116.352 245.368C116.352 245.128 116.22 244.996 115.8 244.888ZM121.401 241.396H122.577V242.716H121.401V247H119.745V242.716H118.725V241.396H119.745V239.248H121.401V241.396ZM127.454 245.152L128.666 245.98C128.09 246.82 127.07 247.12 126.11 247.12C124.514 247.12 123.182 245.944 123.182 244.18C123.182 242.404 124.514 241.276 126.11 241.276C127.706 241.276 128.978 242.464 128.978 244.228C128.978 244.372 128.966 244.6 128.954 244.744H124.85C124.946 245.392 125.63 245.68 126.23 245.68C126.698 245.68 127.178 245.524 127.454 245.152ZM124.874 243.7H127.298C127.202 243.016 126.602 242.74 126.122 242.74C125.666 242.74 125.006 242.98 124.874 243.7ZM136.308 242.896C135.78 242.896 135.348 243.22 135.348 244.036V247H133.68V243.976C133.668 243.256 133.236 242.896 132.756 242.896C132.24 242.896 131.784 243.184 131.784 244.036V247H130.116V241.396H131.784V242.212C132.06 241.624 132.636 241.288 133.248 241.288C134.136 241.288 134.736 241.612 135.048 242.272C135.6 241.396 136.32 241.276 136.728 241.276C138.072 241.276 138.888 242.128 138.888 243.82V247H137.232V244.012C137.232 243.28 136.8 242.896 136.308 242.896ZM142.542 244.888L141.81 244.696C140.118 244.252 140.13 243.388 140.13 242.872C140.13 242.044 141.138 241.276 142.314 241.276C143.418 241.276 144.618 241.756 144.618 243.136H143.046C143.034 242.716 142.686 242.644 142.41 242.644C142.038 242.644 141.81 242.812 141.822 243.064C141.834 243.244 141.978 243.4 142.314 243.484L143.262 243.736C144.618 244.12 144.786 244.996 144.786 245.368C144.786 246.556 143.538 247.12 142.362 247.12C141.234 247.12 140.022 246.436 140.022 245.188H141.582C141.594 245.512 141.942 245.836 142.41 245.836C142.782 245.824 143.094 245.656 143.094 245.368C143.094 245.128 142.962 244.996 142.542 244.888Z" fill="white"/>
<g filter="url(#filter8_d_315_490)">
<rect x="170" y="343" width="185" height="42" rx="21" fill="#4A51D6"/>
</g>
<path d="M184 372.999C184 371.46 184.444 369.953 185.279 368.659C186.115 367.366 187.305 366.341 188.709 365.707C190.112 365.074 191.668 364.859 193.191 365.088C194.713 365.317 196.137 365.981 197.292 366.999" stroke="black" stroke-width="2" stroke-linecap="round" stroke-linejoin="round"/>
<path d="M192 365C194.761 365 197 362.761 197 360C197 357.239 194.761 355 192 355C189.239 355 187 357.239 187 360C187 362.761 189.239 365 192 365Z" stroke="black" stroke-width="2" stroke-linecap="round" stroke-linejoin="round"/>
<path d="M198 371.001L200 373.001L204 369.001" stroke="black" stroke-width="2" stroke-linecap="round" stroke-linejoin="round"/>
<path d="M218.104 365.464C218.836 365.464 219.532 364.9 219.532 364.048V358.732H221.296V364.048C221.296 365.92 219.796 367.12 218.104 367.12C216.412 367.12 214.888 365.92 214.888 364.048V358.732H216.676V364.048C216.676 364.9 217.372 365.464 218.104 365.464ZM225.015 364.888L224.283 364.696C222.591 364.252 222.603 363.388 222.603 362.872C222.603 362.044 223.611 361.276 224.787 361.276C225.891 361.276 227.091 361.756 227.091 363.136H225.519C225.507 362.716 225.159 362.644 224.883 362.644C224.511 362.644 224.283 362.812 224.295 363.064C224.307 363.244 224.451 363.4 224.787 363.484L225.735 363.736C227.091 364.12 227.259 364.996 227.259 365.368C227.259 366.556 226.011 367.12 224.835 367.12C223.707 367.12 222.495 366.436 222.495 365.188H224.055C224.067 365.512 224.415 365.836 224.883 365.836C225.255 365.824 225.567 365.656 225.567 365.368C225.567 365.128 225.435 364.996 225.015 364.888ZM232.368 365.152L233.58 365.98C233.004 366.82 231.984 367.12 231.024 367.12C229.428 367.12 228.096 365.944 228.096 364.18C228.096 362.404 229.428 361.276 231.024 361.276C232.62 361.276 233.892 362.464 233.892 364.228C233.892 364.372 233.88 364.6 233.868 364.744H229.764C229.86 365.392 230.544 365.68 231.144 365.68C231.612 365.68 232.092 365.524 232.368 365.152ZM229.788 363.7H232.212C232.116 363.016 231.516 362.74 231.036 362.74C230.58 362.74 229.92 362.98 229.788 363.7ZM236.698 365.044V367H235.03V361.396H236.698V362.752C236.986 361.708 237.706 361.276 238.282 361.276C238.678 361.276 238.966 361.348 239.242 361.48L238.942 362.98C238.642 362.836 238.366 362.812 238.09 362.812C237.13 362.812 236.698 363.556 236.698 365.044ZM240.068 364.708V363.388H244.304V364.708H240.068ZM251.739 364.324L253.155 365.308C252.435 366.412 251.175 367.12 249.675 367.12C247.323 367.12 245.523 365.212 245.523 362.884C245.523 360.544 247.323 358.636 249.675 358.636C251.163 358.636 252.399 359.332 253.119 360.388L251.691 361.372C251.247 360.712 250.539 360.292 249.675 360.292C248.295 360.292 247.287 361.444 247.287 362.884C247.287 364.312 248.295 365.464 249.675 365.464C250.539 365.464 251.295 364.996 251.739 364.324ZM258.126 365.152L259.338 365.98C258.762 366.82 257.742 367.12 256.782 367.12C255.186 367.12 253.854 365.944 253.854 364.18C253.854 362.404 255.186 361.276 256.782 361.276C258.378 361.276 259.65 362.464 259.65 364.228C259.65 364.372 259.638 364.6 259.626 364.744H255.522C255.618 365.392 256.302 365.68 256.902 365.68C257.37 365.68 257.85 365.524 258.126 365.152ZM255.546 363.7H257.97C257.874 363.016 257.274 362.74 256.794 362.74C256.338 362.74 255.678 362.98 255.546 363.7ZM262.456 364.036V367H260.788V361.396H262.456V362.212C262.756 361.648 263.404 361.276 264.076 361.276C265.336 361.276 266.128 362.056 266.128 363.652V367H264.46V364.012C264.46 363.256 264.052 362.896 263.488 362.896C262.9 362.896 262.456 363.184 262.456 364.036ZM269.792 361.396H270.968V362.716H269.792V367H268.136V362.716H267.116V361.396H268.136V359.248H269.792V361.396ZM275.845 365.152L277.057 365.98C276.481 366.82 275.461 367.12 274.501 367.12C272.905 367.12 271.573 365.944 271.573 364.18C271.573 362.404 272.905 361.276 274.501 361.276C276.097 361.276 277.369 362.464 277.369 364.228C277.369 364.372 277.357 364.6 277.345 364.744H273.241C273.337 365.392 274.021 365.68 274.621 365.68C275.089 365.68 275.569 365.524 275.845 365.152ZM273.265 363.7H275.689C275.593 363.016 274.993 362.74 274.513 362.74C274.057 362.74 273.397 362.98 273.265 363.7ZM280.174 365.044V367H278.506V361.396H280.174V362.752C280.462 361.708 281.182 361.276 281.758 361.276C282.154 361.276 282.442 361.348 282.718 361.48L282.418 362.98C282.118 362.836 281.842 362.812 281.566 362.812C280.606 362.812 280.174 363.556 280.174 365.044ZM287.423 365.152L288.635 365.98C288.059 366.82 287.039 367.12 286.079 367.12C284.483 367.12 283.151 365.944 283.151 364.18C283.151 362.404 284.483 361.276 286.079 361.276C287.675 361.276 288.947 362.464 288.947 364.228C288.947 364.372 288.935 364.6 288.923 364.744H284.819C284.915 365.392 285.599 365.68 286.199 365.68C286.667 365.68 287.147 365.524 287.423 365.152ZM284.843 363.7H287.267C287.171 363.016 286.571 362.74 286.091 362.74C285.635 362.74 284.975 362.98 284.843 363.7ZM294.08 364.18C294.08 363.352 293.456 362.848 292.784 362.848C292.064 362.848 291.488 363.364 291.488 364.18C291.488 365.008 292.076 365.536 292.784 365.536C293.492 365.536 294.08 364.996 294.08 364.18ZM295.772 367H294.116V366.304C293.84 366.82 293.18 367.12 292.472 367.12C291.032 367.12 289.76 365.992 289.76 364.216C289.76 362.416 291.032 361.276 292.472 361.276C293.18 361.276 293.84 361.564 294.116 362.08V358.348H295.772V367ZM302.189 360.328V365.404H303.677C304.985 365.404 305.657 364.24 305.657 362.884C305.657 361.516 304.985 360.328 303.677 360.328H302.189ZM303.677 367H300.437V358.732H303.677C306.041 358.732 307.409 360.532 307.409 362.884C307.409 365.236 306.041 367 303.677 367ZM312.595 365.152L313.807 365.98C313.231 366.82 312.211 367.12 311.251 367.12C309.655 367.12 308.323 365.944 308.323 364.18C308.323 362.404 309.655 361.276 311.251 361.276C312.847 361.276 314.119 362.464 314.119 364.228C314.119 364.372 314.107 364.6 314.095 364.744H309.991C310.087 365.392 310.771 365.68 311.371 365.68C311.839 365.68 312.319 365.524 312.595 365.152ZM310.015 363.7H312.439C312.343 363.016 311.743 362.74 311.263 362.74C310.807 362.74 310.147 362.98 310.015 363.7ZM317.44 364.888L316.708 364.696C315.016 364.252 315.028 363.388 315.028 362.872C315.028 362.044 316.036 361.276 317.212 361.276C318.316 361.276 319.516 361.756 319.516 363.136H317.944C317.932 362.716 317.584 362.644 317.308 362.644C316.936 362.644 316.708 362.812 316.72 363.064C316.732 363.244 316.876 363.4 317.212 363.484L318.16 363.736C319.516 364.12 319.684 364.996 319.684 365.368C319.684 366.556 318.436 367.12 317.26 367.12C316.132 367.12 314.92 366.436 314.92 365.188H316.48C316.492 365.512 316.84 365.836 317.308 365.836C317.68 365.824 317.992 365.656 317.992 365.368C317.992 365.128 317.86 364.996 317.44 364.888ZM322.514 361.396V367H320.858V361.396H322.514ZM320.642 359.32C320.642 358.768 321.122 358.348 321.686 358.348C322.25 358.348 322.706 358.756 322.706 359.32C322.706 359.86 322.262 360.304 321.686 360.304C321.122 360.304 320.642 359.86 320.642 359.32ZM328.149 364.18C328.149 363.352 327.489 362.86 326.793 362.86C326.073 362.86 325.449 363.388 325.449 364.18C325.449 365.008 326.073 365.548 326.793 365.548C327.477 365.548 328.149 365.008 328.149 364.18ZM323.877 368.056L325.221 367.396C325.413 367.924 326.073 368.296 326.637 368.296C327.921 368.296 328.245 367.408 328.185 366.304C327.909 366.82 327.213 367.12 326.505 367.12C325.065 367.12 323.709 365.992 323.709 364.216C323.709 362.416 325.065 361.276 326.505 361.276C327.201 361.276 327.897 361.588 328.185 362.092V361.396H329.805V366.22C329.805 368.632 328.617 369.796 326.637 369.796C325.401 369.796 324.357 369.1 323.877 368.056ZM333.014 364.036V367H331.346V361.396H333.014V362.212C333.314 361.648 333.962 361.276 334.634 361.276C335.894 361.276 336.686 362.056 336.686 363.652V367H335.018V364.012C335.018 363.256 334.61 362.896 334.046 362.896C333.458 362.896 333.014 363.184 333.014 364.036Z" fill="white"/>
<g filter="url(#filter9_d_315_490)">
<rect x="270" y="56" width="217" height="42" rx="21" fill="#4A51D6"/>
</g>
<path d="M318.332 73.28H316.736V75.608H318.284C318.968 75.608 319.328 74.972 319.328 74.444C319.328 73.928 319.004 73.28 318.332 73.28ZM314.972 80V71.732H318.368C320.252 71.732 321.092 73.088 321.092 74.444C321.092 75.824 320.252 77.144 318.368 77.144H316.736V80H314.972ZM323.737 78.044V80H322.069V74.396H323.737V75.752C324.025 74.708 324.745 74.276 325.321 74.276C325.717 74.276 326.005 74.348 326.281 74.48L325.981 75.98C325.681 75.836 325.405 75.812 325.129 75.812C324.169 75.812 323.737 76.556 323.737 78.044ZM329.617 78.464C330.325 78.464 330.889 77.96 330.889 77.18C330.889 76.412 330.325 75.908 329.617 75.908C328.933 75.908 328.357 76.412 328.357 77.18C328.357 77.96 328.933 78.464 329.617 78.464ZM329.617 80.096C328.021 80.096 326.713 78.944 326.713 77.18C326.713 75.404 328.021 74.276 329.617 74.276C331.201 74.276 332.533 75.404 332.533 77.18C332.533 78.944 331.201 80.096 329.617 80.096ZM335.913 74.396H337.089V75.716H335.913V80H334.257V75.716H333.237V74.396H334.257V72.248H335.913V74.396ZM340.598 78.464C341.306 78.464 341.87 77.96 341.87 77.18C341.87 76.412 341.306 75.908 340.598 75.908C339.914 75.908 339.338 76.412 339.338 77.18C339.338 77.96 339.914 78.464 340.598 78.464ZM340.598 80.096C339.002 80.096 337.694 78.944 337.694 77.18C337.694 75.404 339.002 74.276 340.598 74.276C342.182 74.276 343.514 75.404 343.514 77.18C343.514 78.944 342.182 80.096 340.598 80.096ZM346.893 74.396H348.069V75.716H346.893V80H345.237V75.716H344.217V74.396H345.237V72.248H346.893V74.396ZM354.396 74.396L350.94 82.748H349.176L350.52 79.424L348.36 74.396H350.136L351.372 77.576L352.62 74.396H354.396ZM356.901 77.216C356.901 78.056 357.525 78.548 358.197 78.548C358.917 78.548 359.493 78.032 359.493 77.216C359.493 76.388 358.905 75.86 358.197 75.86C357.489 75.86 356.901 76.4 356.901 77.216ZM355.209 74.396H356.865V75.092C357.141 74.576 357.801 74.276 358.509 74.276C359.949 74.276 361.221 75.404 361.221 77.18C361.221 78.98 359.949 80.12 358.509 80.12C357.801 80.12 357.141 79.832 356.865 79.316V82.748H355.209V74.396ZM364.084 74.396V80H362.428V74.396H364.084ZM362.212 72.32C362.212 71.768 362.692 71.348 363.256 71.348C363.82 71.348 364.276 71.756 364.276 72.32C364.276 72.86 363.832 73.304 363.256 73.304C362.692 73.304 362.212 72.86 362.212 72.32ZM367.284 77.036V80H365.616V74.396H367.284V75.212C367.584 74.648 368.232 74.276 368.904 74.276C370.164 74.276 370.956 75.056 370.956 76.652V80H369.288V77.012C369.288 76.256 368.88 75.896 368.316 75.896C367.728 75.896 367.284 76.184 367.284 77.036ZM376.54 77.18C376.54 76.352 375.88 75.86 375.184 75.86C374.464 75.86 373.84 76.388 373.84 77.18C373.84 78.008 374.464 78.548 375.184 78.548C375.868 78.548 376.54 78.008 376.54 77.18ZM372.268 81.056L373.612 80.396C373.804 80.924 374.464 81.296 375.028 81.296C376.312 81.296 376.636 80.408 376.576 79.304C376.3 79.82 375.604 80.12 374.896 80.12C373.456 80.12 372.1 78.992 372.1 77.216C372.1 75.416 373.456 74.276 374.896 74.276C375.592 74.276 376.288 74.588 376.576 75.092V74.396H378.196V79.22C378.196 81.632 377.008 82.796 375.028 82.796C373.792 82.796 372.748 82.1 372.268 81.056ZM385.33 80.12C383.734 80.12 382.51 79.112 382.51 77.708C382.51 76.652 382.966 75.92 383.878 75.596C383.29 75.404 382.834 74.804 382.834 73.952C382.834 72.776 383.842 71.696 385.246 71.636C386.266 71.588 387.094 72.032 387.61 72.704L386.194 73.568C386.014 73.388 385.846 73.256 385.522 73.256C384.91 73.256 384.67 73.724 384.67 74.072C384.67 74.108 384.658 75.008 385.63 75.008H386.998V74.072H388.546V75.008H389.506V76.352H388.546V77.576C388.546 78.524 388.738 78.668 389.662 78.668V80.12C388.39 80.12 387.61 79.988 387.334 79.088C387.01 79.76 386.038 80.12 385.33 80.12ZM386.998 76.352H385.582C384.43 76.352 384.274 77.24 384.334 77.576C384.466 78.188 384.874 78.488 385.582 78.488C386.038 78.488 386.998 78.176 386.998 77.012V76.352ZM400.288 76.94L401.908 71.732H403.816L401.008 80H399.628L398.464 75.656L397.324 80H395.932L393.148 71.732H395.044L396.652 76.94C397.024 75.632 397.384 74.24 397.756 72.896H399.196L400.288 76.94ZM406.213 74.396V80H404.557V74.396H406.213ZM404.341 72.32C404.341 71.768 404.821 71.348 405.385 71.348C405.949 71.348 406.405 71.756 406.405 72.32C406.405 72.86 405.961 73.304 405.385 73.304C404.821 73.304 404.341 72.86 404.341 72.32ZM409.413 78.044V80H407.745V74.396H409.413V75.752C409.701 74.708 410.421 74.276 410.997 74.276C411.393 74.276 411.681 74.348 411.957 74.48L411.657 75.98C411.357 75.836 411.081 75.812 410.805 75.812C409.845 75.812 409.413 76.556 409.413 78.044ZM416.661 78.152L417.873 78.98C417.297 79.82 416.277 80.12 415.317 80.12C413.721 80.12 412.389 78.944 412.389 77.18C412.389 75.404 413.721 74.276 415.317 74.276C416.913 74.276 418.185 75.464 418.185 77.228C418.185 77.372 418.173 77.6 418.161 77.744H414.057C414.153 78.392 414.837 78.68 415.437 78.68C415.905 78.68 416.385 78.524 416.661 78.152ZM414.081 76.7H416.505C416.409 76.016 415.809 75.74 415.329 75.74C414.873 75.74 414.213 75.98 414.081 76.7ZM422.96 71.348V72.944H422.348C421.772 72.944 421.496 73.34 421.496 74.012V74.396H422.624V75.716H421.496V80H419.816V75.716H418.76V74.396H419.816V74.012C419.816 72.284 420.728 71.348 422.348 71.348H422.96ZM425.327 78.044V80H423.659V74.396H425.327V75.752C425.615 74.708 426.335 74.276 426.911 74.276C427.307 74.276 427.595 74.348 427.871 74.48L427.571 75.98C427.271 75.836 426.995 75.812 426.719 75.812C425.759 75.812 425.327 76.556 425.327 78.044ZM432.791 80V79.364C432.443 79.892 431.579 80.108 431.159 80.108C429.731 80.108 428.303 78.98 428.303 77.192C428.303 75.404 429.731 74.276 431.159 74.276C431.531 74.276 432.335 74.408 432.791 75.02V74.396H434.447V80H432.791ZM430.031 77.192C430.031 77.996 430.727 78.524 431.435 78.524C432.119 78.524 432.791 78.032 432.791 77.192C432.791 76.364 432.119 75.86 431.435 75.86C430.727 75.86 430.031 76.388 430.031 77.192ZM442.179 75.896C441.651 75.896 441.219 76.22 441.219 77.036V80H439.551V76.976C439.539 76.256 439.107 75.896 438.627 75.896C438.111 75.896 437.655 76.184 437.655 77.036V80H435.987V74.396H437.655V75.212C437.931 74.624 438.507 74.288 439.119 74.288C440.007 74.288 440.607 74.612 440.919 75.272C441.471 74.396 442.191 74.276 442.599 74.276C443.943 74.276 444.759 75.128 444.759 76.82V80H443.103V77.012C443.103 76.28 442.671 75.896 442.179 75.896ZM447.885 74.396V80H446.229V74.396H447.885ZM446.013 72.32C446.013 71.768 446.493 71.348 447.057 71.348C447.621 71.348 448.077 71.756 448.077 72.32C448.077 72.86 447.633 73.304 447.057 73.304C446.493 73.304 446.013 72.86 446.013 72.32ZM451.084 77.036V80H449.416V74.396H451.084V75.212C451.384 74.648 452.032 74.276 452.704 74.276C453.964 74.276 454.756 75.056 454.756 76.652V80H453.088V77.012C453.088 76.256 452.68 75.896 452.116 75.896C451.528 75.896 451.084 76.184 451.084 77.036ZM460.341 77.18C460.341 76.352 459.681 75.86 458.985 75.86C458.265 75.86 457.641 76.388 457.641 77.18C457.641 78.008 458.265 78.548 458.985 78.548C459.669 78.548 460.341 78.008 460.341 77.18ZM456.069 81.056L457.413 80.396C457.605 80.924 458.265 81.296 458.829 81.296C460.113 81.296 460.437 80.408 460.377 79.304C460.101 79.82 459.405 80.12 458.697 80.12C457.257 80.12 455.901 78.992 455.901 77.216C455.901 75.416 457.257 74.276 458.697 74.276C459.393 74.276 460.089 74.588 460.377 75.092V74.396H461.997V79.22C461.997 81.632 460.809 82.796 458.829 82.796C457.593 82.796 456.549 82.1 456.069 81.056Z" fill="white"/>
<path d="M289 86H299" stroke="#0E101B" stroke-width="2" stroke-linecap="round" stroke-linejoin="round"/>
<path d="M302 68H286C284.895 68 284 68.8954 284 70V80C284 81.1046 284.895 82 286 82H302C303.105 82 304 81.1046 304 80V70C304 68.8954 303.105 68 302 68Z" stroke="#0E101B" stroke-width="2" stroke-linecap="round" stroke-linejoin="round"/>
<g filter="url(#filter10_d_315_490)">
<rect x="303" y="193" width="156" height="42" rx="21" fill="#4A51D6"/>
</g>
<path d="M326 210H320C318.895 210 318 210.895 318 212V222C318 223.105 318.895 224 320 224H326C327.105 224 328 223.105 328 222V212C328 210.895 327.105 210 326 210Z" stroke="black" stroke-width="2" stroke-linecap="round" stroke-linejoin="round"/>
<path d="M320 206C320 205.47 320.211 204.961 320.586 204.586C320.961 204.211 321.47 204 322 204H334C334.53 204 335.039 204.211 335.414 204.586C335.789 204.961 336 205.47 336 206V222C336 222.53 335.789 223.039 335.414 223.414C335.039 223.789 334.53 224 334 224H331.6" stroke="black" stroke-width="2" stroke-linecap="round" stroke-linejoin="round"/>
<path d="M323 220H323.01" stroke="black" stroke-width="2" stroke-linecap="round" stroke-linejoin="round"/>
<path d="M351.104 215.464C351.836 215.464 352.532 214.9 352.532 214.048V208.732H354.296V214.048C354.296 215.92 352.796 217.12 351.104 217.12C349.412 217.12 347.888 215.92 347.888 214.048V208.732H349.676V214.048C349.676 214.9 350.372 215.464 351.104 215.464ZM358.015 214.888L357.283 214.696C355.591 214.252 355.603 213.388 355.603 212.872C355.603 212.044 356.611 211.276 357.787 211.276C358.891 211.276 360.091 211.756 360.091 213.136H358.519C358.507 212.716 358.159 212.644 357.883 212.644C357.511 212.644 357.283 212.812 357.295 213.064C357.307 213.244 357.451 213.4 357.787 213.484L358.735 213.736C360.091 214.12 360.259 214.996 360.259 215.368C360.259 216.556 359.011 217.12 357.835 217.12C356.707 217.12 355.495 216.436 355.495 215.188H357.055C357.067 215.512 357.415 215.836 357.883 215.836C358.255 215.824 358.567 215.656 358.567 215.368C358.567 215.128 358.435 214.996 358.015 214.888ZM365.584 217V216.364C365.236 216.892 364.372 217.108 363.952 217.108C362.524 217.108 361.096 215.98 361.096 214.192C361.096 212.404 362.524 211.276 363.952 211.276C364.324 211.276 365.128 211.408 365.584 212.02V211.396H367.24V217H365.584ZM362.824 214.192C362.824 214.996 363.52 215.524 364.228 215.524C364.912 215.524 365.584 215.032 365.584 214.192C365.584 213.364 364.912 212.86 364.228 212.86C363.52 212.86 362.824 213.388 362.824 214.192ZM370.472 214.18C370.472 214.996 371.06 215.536 371.768 215.536C372.476 215.536 373.064 215.008 373.064 214.18C373.064 213.364 372.488 212.848 371.768 212.848C371.096 212.848 370.472 213.352 370.472 214.18ZM370.436 217H368.78V208.348H370.436V212.08C370.712 211.564 371.372 211.276 372.08 211.276C373.52 211.276 374.792 212.416 374.792 214.216C374.792 215.992 373.52 217.12 372.08 217.12C371.372 217.12 370.712 216.82 370.436 216.304V217ZM377.654 211.396V217H375.998V211.396H377.654ZM375.782 209.32C375.782 208.768 376.262 208.348 376.826 208.348C377.39 208.348 377.846 208.756 377.846 209.32C377.846 209.86 377.402 210.304 376.826 210.304C376.262 210.304 375.782 209.86 375.782 209.32ZM379.186 208.348H380.854V217H379.186V208.348ZM384.041 211.396V217H382.385V211.396H384.041ZM382.169 209.32C382.169 208.768 382.649 208.348 383.213 208.348C383.777 208.348 384.233 208.756 384.233 209.32C384.233 209.86 383.789 210.304 383.213 210.304C382.649 210.304 382.169 209.86 382.169 209.32ZM387.757 211.396H388.933V212.716H387.757V217H386.101V212.716H385.081V211.396H386.101V209.248H387.757V211.396ZM395.26 211.396L391.804 219.748H390.04L391.384 216.424L389.224 211.396H391L392.236 214.576L393.484 211.396H395.26ZM398.277 210.316V208.732H404.517V210.316H402.285V217H400.509V210.316H398.277ZM408.657 215.152L409.869 215.98C409.293 216.82 408.273 217.12 407.313 217.12C405.717 217.12 404.385 215.944 404.385 214.18C404.385 212.404 405.717 211.276 407.313 211.276C408.909 211.276 410.181 212.464 410.181 214.228C410.181 214.372 410.169 214.6 410.157 214.744H406.053C406.149 215.392 406.833 215.68 407.433 215.68C407.901 215.68 408.381 215.524 408.657 215.152ZM406.077 213.7H408.501C408.405 213.016 407.805 212.74 407.325 212.74C406.869 212.74 406.209 212.98 406.077 213.7ZM413.503 214.888L412.771 214.696C411.079 214.252 411.091 213.388 411.091 212.872C411.091 212.044 412.099 211.276 413.275 211.276C414.379 211.276 415.579 211.756 415.579 213.136H414.007C413.995 212.716 413.647 212.644 413.371 212.644C412.999 212.644 412.771 212.812 412.783 213.064C412.795 213.244 412.939 213.4 413.275 213.484L414.223 213.736C415.579 214.12 415.747 214.996 415.747 215.368C415.747 216.556 414.499 217.12 413.323 217.12C412.195 217.12 410.983 216.436 410.983 215.188H412.543C412.555 215.512 412.903 215.836 413.371 215.836C413.743 215.824 414.055 215.656 414.055 215.368C414.055 215.128 413.923 214.996 413.503 214.888ZM419.104 211.396H420.28V212.716H419.104V217H417.448V212.716H416.428V211.396H417.448V209.248H419.104V211.396ZM422.959 211.396V217H421.303V211.396H422.959ZM421.087 209.32C421.087 208.768 421.567 208.348 422.131 208.348C422.695 208.348 423.151 208.756 423.151 209.32C423.151 209.86 422.707 210.304 422.131 210.304C421.567 210.304 421.087 209.86 421.087 209.32ZM426.159 214.036V217H424.491V211.396H426.159V212.212C426.459 211.648 427.107 211.276 427.779 211.276C429.039 211.276 429.831 212.056 429.831 213.652V217H428.163V214.012C428.163 213.256 427.755 212.896 427.191 212.896C426.603 212.896 426.159 213.184 426.159 214.036ZM435.415 214.18C435.415 213.352 434.755 212.86 434.059 212.86C433.339 212.86 432.715 213.388 432.715 214.18C432.715 215.008 433.339 215.548 434.059 215.548C434.743 215.548 435.415 215.008 435.415 214.18ZM431.143 218.056L432.487 217.396C432.679 217.924 433.339 218.296 433.903 218.296C435.187 218.296 435.511 217.408 435.451 216.304C435.175 216.82 434.479 217.12 433.771 217.12C432.331 217.12 430.975 215.992 430.975 214.216C430.975 212.416 432.331 211.276 433.771 211.276C434.467 211.276 435.163 211.588 435.451 212.092V211.396H437.071V216.22C437.071 218.632 435.883 219.796 433.903 219.796C432.667 219.796 431.623 219.1 431.143 218.056Z" fill="white"/>
<defs>
<filter id="filter0_d_315_490" x="0" y="283" width="175" height="66" filterUnits="userSpaceOnUse" color-interpolation-filters="sRGB">
<feFlood flood-opacity="0" result="BackgroundImageFix"/>
<feColorMatrix in="SourceAlpha" type="matrix" values="0 0 0 0 0 0 0 0 0 0 0 0 0 0 0 0 0 0 127 0" result="hardAlpha"/>
<feMorphology radius="4" operator="dilate" in="SourceAlpha" result="effect1_dropShadow_315_490"/>
<feOffset dy="4"/>
<feGaussianBlur stdDeviation="4"/>
<feComposite in2="hardAlpha" operator="out"/>
<feColorMatrix type="matrix" values="0 0 0 0 0 0 0 0 0 0 0 0 0 0 0 0 0 0 0.05 0"/>
<feBlend mode="normal" in2="BackgroundImageFix" result="effect1_dropShadow_315_490"/>
<feBlend mode="normal" in="SourceGraphic" in2="effect1_dropShadow_315_490" result="shape"/>
</filter>
<filter id="filter1_d_315_490" x="195" y="114" width="118" height="89" filterUnits="userSpaceOnUse" color-interpolation-filters="sRGB">
<feFlood flood-opacity="0" result="BackgroundImageFix"/>
<feColorMatrix in="SourceAlpha" type="matrix" values="0 0 0 0 0 0 0 0 0 0 0 0 0 0 0 0 0 0 127 0" result="hardAlpha"/>
<feMorphology radius="4" operator="dilate" in="SourceAlpha" result="effect1_dropShadow_315_490"/>
<feOffset dy="4"/>
<feGaussianBlur stdDeviation="4"/>
<feComposite in2="hardAlpha" operator="out"/>
<feColorMatrix type="matrix" values="0 0 0 0 0 0 0 0 0 0 0 0 0 0 0 0 0 0 0.05 0"/>
<feBlend mode="normal" in2="BackgroundImageFix" result="effect1_dropShadow_315_490"/>
<feBlend mode="normal" in="SourceGraphic" in2="effect1_dropShadow_315_490" result="shape"/>
</filter>
<filter id="filter2_d_315_490" x="297" y="114" width="118" height="89" filterUnits="userSpaceOnUse" color-interpolation-filters="sRGB">
<feFlood flood-opacity="0" result="BackgroundImageFix"/>
<feColorMatrix in="SourceAlpha" type="matrix" values="0 0 0 0 0 0 0 0 0 0 0 0 0 0 0 0 0 0 127 0" result="hardAlpha"/>
<feMorphology radius="4" operator="dilate" in="SourceAlpha" result="effect1_dropShadow_315_490"/>
<feOffset dy="4"/>
<feGaussianBlur stdDeviation="4"/>
<feComposite in2="hardAlpha" operator="out"/>
<feColorMatrix type="matrix" values="0 0 0 0 0 0 0 0 0 0 0 0 0 0 0 0 0 0 0.05 0"/>
<feBlend mode="normal" in2="BackgroundImageFix" result="effect1_dropShadow_315_490"/>
<feBlend mode="normal" in="SourceGraphic" in2="effect1_dropShadow_315_490" result="shape"/>
</filter>
<filter id="filter3_d_315_490" x="237" y="206" width="210" height="153" filterUnits="userSpaceOnUse" color-interpolation-filters="sRGB">
<feFlood flood-opacity="0" result="BackgroundImageFix"/>
<feColorMatrix in="SourceAlpha" type="matrix" values="0 0 0 0 0 0 0 0 0 0 0 0 0 0 0 0 0 0 127 0" result="hardAlpha"/>
<feMorphology radius="4" operator="dilate" in="SourceAlpha" result="effect1_dropShadow_315_490"/>
<feOffset dy="4"/>
<feGaussianBlur stdDeviation="4"/>
<feComposite in2="hardAlpha" operator="out"/>
<feColorMatrix type="matrix" values="0 0 0 0 0 0 0 0 0 0 0 0 0 0 0 0 0 0 0.05 0"/>
<feBlend mode="normal" in2="BackgroundImageFix" result="effect1_dropShadow_315_490"/>
<feBlend mode="normal" in="SourceGraphic" in2="effect1_dropShadow_315_490" result="shape"/>
</filter>
<filter id="filter4_d_315_490" x="241" y="243.5" width="202" height="111.5" filterUnits="userSpaceOnUse" color-interpolation-filters="sRGB">
<feFlood flood-opacity="0" result="BackgroundImageFix"/>
<feColorMatrix in="SourceAlpha" type="matrix" values="0 0 0 0 0 0 0 0 0 0 0 0 0 0 0 0 0 0 127 0" result="hardAlpha"/>
<feOffset dy="4"/>
<feGaussianBlur stdDeviation="4"/>
<feComposite in2="hardAlpha" operator="out"/>
<feColorMatrix type="matrix" values="0 0 0 0 0 0 0 0 0 0 0 0 0 0 0 0 0 0 0.05 0"/>
<feBlend mode="normal" in2="BackgroundImageFix" result="effect1_dropShadow_315_490"/>
<feBlend mode="normal" in="SourceGraphic" in2="effect1_dropShadow_315_490" result="shape"/>
</filter>
<filter id="filter5_d_315_490" x="241" y="241" width="202.112" height="83.1646" filterUnits="userSpaceOnUse" color-interpolation-filters="sRGB">
<feFlood flood-opacity="0" result="BackgroundImageFix"/>
<feColorMatrix in="SourceAlpha" type="matrix" values="0 0 0 0 0 0 0 0 0 0 0 0 0 0 0 0 0 0 127 0" result="hardAlpha"/>
<feOffset dy="4"/>
<feGaussianBlur stdDeviation="4"/>
<feComposite in2="hardAlpha" operator="out"/>
<feColorMatrix type="matrix" values="0 0 0 0 0 0 0 0 0 0 0 0 0 0 0 0 0 0 0.05 0"/>
<feBlend mode="normal" in2="BackgroundImageFix" result="effect1_dropShadow_315_490"/>
<feBlend mode="normal" in="SourceGraphic" in2="effect1_dropShadow_315_490" result="shape"/>
</filter>
<filter id="filter6_d_315_490" x="11" y="0" width="216" height="66" filterUnits="userSpaceOnUse" color-interpolation-filters="sRGB">
<feFlood flood-opacity="0" result="BackgroundImageFix"/>
<feColorMatrix in="SourceAlpha" type="matrix" values="0 0 0 0 0 0 0 0 0 0 0 0 0 0 0 0 0 0 127 0" result="hardAlpha"/>
<feMorphology radius="4" operator="dilate" in="SourceAlpha" result="effect1_dropShadow_315_490"/>
<feOffset dy="4"/>
<feGaussianBlur stdDeviation="4"/>
<feComposite in2="hardAlpha" operator="out"/>
<feColorMatrix type="matrix" values="0 0 0 0 0 0 0 0 0 0 0 0 0 0 0 0 0 0 0.05 0"/>
<feBlend mode="normal" in2="BackgroundImageFix" result="effect1_dropShadow_315_490"/>
<feBlend mode="normal" in="SourceGraphic" in2="effect1_dropShadow_315_490" result="shape"/>
</filter>
<filter id="filter7_d_315_490" x="3" y="215" width="175" height="66" filterUnits="userSpaceOnUse" color-interpolation-filters="sRGB">
<feFlood flood-opacity="0" result="BackgroundImageFix"/>
<feColorMatrix in="SourceAlpha" type="matrix" values="0 0 0 0 0 0 0 0 0 0 0 0 0 0 0 0 0 0 127 0" result="hardAlpha"/>
<feMorphology radius="4" operator="dilate" in="SourceAlpha" result="effect1_dropShadow_315_490"/>
<feOffset dy="4"/>
<feGaussianBlur stdDeviation="4"/>
<feComposite in2="hardAlpha" operator="out"/>
<feColorMatrix type="matrix" values="0 0 0 0 0 0 0 0 0 0 0 0 0 0 0 0 0 0 0.05 0"/>
<feBlend mode="normal" in2="BackgroundImageFix" result="effect1_dropShadow_315_490"/>
<feBlend mode="normal" in="SourceGraphic" in2="effect1_dropShadow_315_490" result="shape"/>
</filter>
<filter id="filter8_d_315_490" x="158" y="335" width="209" height="66" filterUnits="userSpaceOnUse" color-interpolation-filters="sRGB">
<feFlood flood-opacity="0" result="BackgroundImageFix"/>
<feColorMatrix in="SourceAlpha" type="matrix" values="0 0 0 0 0 0 0 0 0 0 0 0 0 0 0 0 0 0 127 0" result="hardAlpha"/>
<feMorphology radius="4" operator="dilate" in="SourceAlpha" result="effect1_dropShadow_315_490"/>
<feOffset dy="4"/>
<feGaussianBlur stdDeviation="4"/>
<feComposite in2="hardAlpha" operator="out"/>
<feColorMatrix type="matrix" values="0 0 0 0 0 0 0 0 0 0 0 0 0 0 0 0 0 0 0.05 0"/>
<feBlend mode="normal" in2="BackgroundImageFix" result="effect1_dropShadow_315_490"/>
<feBlend mode="normal" in="SourceGraphic" in2="effect1_dropShadow_315_490" result="shape"/>
</filter>
<filter id="filter9_d_315_490" x="258" y="48" width="241" height="66" filterUnits="userSpaceOnUse" color-interpolation-filters="sRGB">
<feFlood flood-opacity="0" result="BackgroundImageFix"/>
<feColorMatrix in="SourceAlpha" type="matrix" values="0 0 0 0 0 0 0 0 0 0 0 0 0 0 0 0 0 0 127 0" result="hardAlpha"/>
<feMorphology radius="4" operator="dilate" in="SourceAlpha" result="effect1_dropShadow_315_490"/>
<feOffset dy="4"/>
<feGaussianBlur stdDeviation="4"/>
<feComposite in2="hardAlpha" operator="out"/>
<feColorMatrix type="matrix" values="0 0 0 0 0 0 0 0 0 0 0 0 0 0 0 0 0 0 0.05 0"/>
<feBlend mode="normal" in2="BackgroundImageFix" result="effect1_dropShadow_315_490"/>
<feBlend mode="normal" in="SourceGraphic" in2="effect1_dropShadow_315_490" result="shape"/>
</filter>
<filter id="filter10_d_315_490" x="291" y="185" width="180" height="66" filterUnits="userSpaceOnUse" color-interpolation-filters="sRGB">
<feFlood flood-opacity="0" result="BackgroundImageFix"/>
<feColorMatrix in="SourceAlpha" type="matrix" values="0 0 0 0 0 0 0 0 0 0 0 0 0 0 0 0 0 0 127 0" result="hardAlpha"/>
<feMorphology radius="4" operator="dilate" in="SourceAlpha" result="effect1_dropShadow_315_490"/>
<feOffset dy="4"/>
<feGaussianBlur stdDeviation="4"/>
<feComposite in2="hardAlpha" operator="out"/>
<feColorMatrix type="matrix" values="0 0 0 0 0 0 0 0 0 0 0 0 0 0 0 0 0 0 0.05 0"/>
<feBlend mode="normal" in2="BackgroundImageFix" result="effect1_dropShadow_315_490"/>
<feBlend mode="normal" in="SourceGraphic" in2="effect1_dropShadow_315_490" result="shape"/>
</filter>
<linearGradient id="paint0_linear_315_490" x1="93" y1="268.5" x2="96" y2="333" gradientUnits="userSpaceOnUse">
<stop stop-color="#686767"/>
<stop offset="1" stop-color="#1C1A1A"/>
</linearGradient>
<linearGradient id="paint1_linear_315_490" x1="342" y1="247.5" x2="342" y2="343" gradientUnits="userSpaceOnUse">
<stop stop-color="#3B3F89" stop-opacity="0.15"/>
<stop offset="1" stop-color="#0F1023"/>
</linearGradient>
</defs>
</svg>
