<svg width="383" height="257" viewBox="0 0 383 257" fill="none" xmlns="http://www.w3.org/2000/svg">
<rect x="5.5" y="61.5" width="7" height="7" fill="white" stroke="#2D7DF7"/>
<rect x="7.5" y="66.5" width="284" height="93" stroke="#2D7DF7" stroke-width="3"/>
<path d="M46.04 179.16C51.9067 179.16 57.0533 180.307 61.48 182.6C65.96 184.893 69.4 188.173 71.8 192.44C74.2533 196.653 75.48 201.56 75.48 207.16C75.48 212.76 74.2533 217.667 71.8 221.88C69.4 226.04 65.96 229.267 61.48 231.56C57.0533 233.853 51.9067 235 46.04 235H26.52V179.16H46.04ZM45.64 225.48C51.5067 225.48 56.04 223.88 59.24 220.68C62.44 217.48 64.04 212.973 64.04 207.16C64.04 201.347 62.44 196.813 59.24 193.56C56.04 190.253 51.5067 188.6 45.64 188.6H37.72V225.48H45.64ZM125.064 211.88C125.064 213.48 124.957 214.92 124.744 216.2H92.3438C92.6104 219.4 93.7304 221.907 95.7038 223.72C97.6771 225.533 100.104 226.44 102.984 226.44C107.144 226.44 110.104 224.653 111.864 221.08H123.944C122.664 225.347 120.21 228.867 116.584 231.64C112.957 234.36 108.504 235.72 103.224 235.72C98.9571 235.72 95.1171 234.787 91.7038 232.92C88.3438 231 85.7038 228.307 83.7838 224.84C81.9171 221.373 80.9837 217.373 80.9837 212.84C80.9837 208.253 81.9171 204.227 83.7838 200.76C85.6504 197.293 88.2638 194.627 91.6238 192.76C94.9838 190.893 98.8504 189.96 103.224 189.96C107.437 189.96 111.197 190.867 114.504 192.68C117.864 194.493 120.45 197.08 122.264 200.44C124.13 203.747 125.064 207.56 125.064 211.88ZM113.464 208.68C113.41 205.8 112.37 203.507 110.344 201.8C108.317 200.04 105.837 199.16 102.904 199.16C100.13 199.16 97.7838 200.013 95.8638 201.72C93.9971 203.373 92.8504 205.693 92.4238 208.68H113.464ZM150.199 235.72C146.572 235.72 143.319 235.08 140.439 233.8C137.559 232.467 135.265 230.68 133.559 228.44C131.905 226.2 130.999 223.72 130.839 221H142.119C142.332 222.707 143.159 224.12 144.599 225.24C146.092 226.36 147.932 226.92 150.119 226.92C152.252 226.92 153.905 226.493 155.079 225.64C156.305 224.787 156.919 223.693 156.919 222.36C156.919 220.92 156.172 219.853 154.679 219.16C153.239 218.413 150.919 217.613 147.719 216.76C144.412 215.96 141.692 215.133 139.559 214.28C137.479 213.427 135.665 212.12 134.119 210.36C132.625 208.6 131.879 206.227 131.879 203.24C131.879 200.787 132.572 198.547 133.959 196.52C135.399 194.493 137.425 192.893 140.039 191.72C142.705 190.547 145.825 189.96 149.399 189.96C154.679 189.96 158.892 191.293 162.039 193.96C165.185 196.573 166.919 200.12 167.239 204.6H156.519C156.359 202.84 155.612 201.453 154.279 200.44C152.999 199.373 151.265 198.84 149.079 198.84C147.052 198.84 145.479 199.213 144.359 199.96C143.292 200.707 142.759 201.747 142.759 203.08C142.759 204.573 143.505 205.72 144.999 206.52C146.492 207.267 148.812 208.04 151.959 208.84C155.159 209.64 157.799 210.467 159.879 211.32C161.959 212.173 163.745 213.507 165.239 215.32C166.785 217.08 167.585 219.427 167.639 222.36C167.639 224.92 166.919 227.213 165.479 229.24C164.092 231.267 162.065 232.867 159.399 234.04C156.785 235.16 153.719 235.72 150.199 235.72ZM182.513 185.4C180.539 185.4 178.886 184.787 177.553 183.56C176.273 182.28 175.633 180.707 175.633 178.84C175.633 176.973 176.273 175.427 177.553 174.2C178.886 172.92 180.539 172.28 182.513 172.28C184.486 172.28 186.113 172.92 187.393 174.2C188.726 175.427 189.393 176.973 189.393 178.84C189.393 180.707 188.726 182.28 187.393 183.56C186.113 184.787 184.486 185.4 182.513 185.4ZM188.033 190.68V235H176.833V190.68H188.033ZM216.458 189.96C219.765 189.96 222.671 190.627 225.178 191.96C227.685 193.24 229.658 194.92 231.098 197V190.68H242.378V235.32C242.378 239.427 241.551 243.08 239.898 246.28C238.245 249.533 235.765 252.093 232.458 253.96C229.151 255.88 225.151 256.84 220.458 256.84C214.165 256.84 208.991 255.373 204.938 252.44C200.938 249.507 198.671 245.507 198.138 240.44H209.258C209.845 242.467 211.098 244.067 213.018 245.24C214.991 246.467 217.365 247.08 220.138 247.08C223.391 247.08 226.031 246.093 228.058 244.12C230.085 242.2 231.098 239.267 231.098 235.32V228.44C229.658 230.52 227.658 232.253 225.098 233.64C222.591 235.027 219.711 235.72 216.458 235.72C212.725 235.72 209.311 234.76 206.218 232.84C203.125 230.92 200.671 228.227 198.858 224.76C197.098 221.24 196.218 217.213 196.218 212.68C196.218 208.2 197.098 204.227 198.858 200.76C200.671 197.293 203.098 194.627 206.138 192.76C209.231 190.893 212.671 189.96 216.458 189.96ZM231.098 212.84C231.098 210.12 230.565 207.8 229.498 205.88C228.431 203.907 226.991 202.413 225.178 201.4C223.365 200.333 221.418 199.8 219.338 199.8C217.258 199.8 215.338 200.307 213.578 201.32C211.818 202.333 210.378 203.827 209.258 205.8C208.191 207.72 207.658 210.013 207.658 212.68C207.658 215.347 208.191 217.693 209.258 219.72C210.378 221.693 211.818 223.213 213.578 224.28C215.391 225.347 217.311 225.88 219.338 225.88C221.418 225.88 223.365 225.373 225.178 224.36C226.991 223.293 228.431 221.8 229.498 219.88C230.565 217.907 231.098 215.56 231.098 212.84ZM277.877 190.04C283.157 190.04 287.424 191.72 290.677 195.08C293.93 198.387 295.557 203.027 295.557 209V235H284.357V210.52C284.357 207 283.477 204.307 281.717 202.44C279.957 200.52 277.557 199.56 274.517 199.56C271.424 199.56 268.97 200.52 267.157 202.44C265.397 204.307 264.517 207 264.517 210.52V235H253.317V190.68H264.517V196.2C266.01 194.28 267.904 192.787 270.197 191.72C272.544 190.6 275.104 190.04 277.877 190.04ZM347.408 211.88C347.408 213.48 347.301 214.92 347.088 216.2H314.688C314.954 219.4 316.074 221.907 318.048 223.72C320.021 225.533 322.448 226.44 325.328 226.44C329.488 226.44 332.448 224.653 334.208 221.08H346.288C345.008 225.347 342.554 228.867 338.928 231.64C335.301 234.36 330.848 235.72 325.568 235.72C321.301 235.72 317.461 234.787 314.048 232.92C310.688 231 308.048 228.307 306.128 224.84C304.261 221.373 303.327 217.373 303.327 212.84C303.327 208.253 304.261 204.227 306.128 200.76C307.994 197.293 310.608 194.627 313.968 192.76C317.328 190.893 321.194 189.96 325.568 189.96C329.781 189.96 333.541 190.867 336.848 192.68C340.208 194.493 342.794 197.08 344.608 200.44C346.474 203.747 347.408 207.56 347.408 211.88ZM335.808 208.68C335.754 205.8 334.714 203.507 332.688 201.8C330.661 200.04 328.181 199.16 325.248 199.16C322.474 199.16 320.128 200.013 318.208 201.72C316.341 203.373 315.194 205.693 314.768 208.68H335.808ZM366.783 197.56C368.223 195.213 370.089 193.373 372.383 192.04C374.729 190.707 377.396 190.04 380.383 190.04V201.8H377.423C373.903 201.8 371.236 202.627 369.423 204.28C367.663 205.933 366.783 208.813 366.783 212.92V235H355.583V190.68H366.783V197.56Z" fill="white"/>
<rect x="23" width="193" height="32" rx="4" fill="#A957F2"/>
<path d="M55.464 8.468V23H53.553V12.164L48.723 23H47.379L42.528 12.143V23H40.617V8.468H42.675L48.051 20.48L53.427 8.468H55.464ZM57.9909 17.204C57.9909 16.028 58.2289 14.999 58.7049 14.117C59.1809 13.221 59.8319 12.528 60.6579 12.038C61.4979 11.548 62.4289 11.303 63.4509 11.303C64.4589 11.303 65.3339 11.52 66.0759 11.954C66.8179 12.388 67.3709 12.934 67.7349 13.592V11.492H69.6669V23H67.7349V20.858C67.3569 21.53 66.7899 22.09 66.0339 22.538C65.2919 22.972 64.4239 23.189 63.4299 23.189C62.4079 23.189 61.4839 22.937 60.6579 22.433C59.8319 21.929 59.1809 21.222 58.7049 20.312C58.2289 19.402 57.9909 18.366 57.9909 17.204ZM67.7349 17.225C67.7349 16.357 67.5599 15.601 67.2099 14.957C66.8599 14.313 66.3839 13.823 65.7819 13.487C65.1939 13.137 64.5429 12.962 63.8289 12.962C63.1149 12.962 62.4639 13.13 61.8759 13.466C61.2879 13.802 60.8189 14.292 60.4689 14.936C60.1189 15.58 59.9439 16.336 59.9439 17.204C59.9439 18.086 60.1189 18.856 60.4689 19.514C60.8189 20.158 61.2879 20.655 61.8759 21.005C62.4639 21.341 63.1149 21.509 63.8289 21.509C64.5429 21.509 65.1939 21.341 65.7819 21.005C66.3839 20.655 66.8599 20.158 67.2099 19.514C67.5599 18.856 67.7349 18.093 67.7349 17.225ZM78.9023 23L76.1723 18.716L73.5473 23H71.5523L75.2693 17.288L71.5523 11.492H73.7153L76.4453 15.755L79.0493 11.492H81.0443L77.3483 17.183L81.0653 23H78.9023ZM100.64 8.363L95.1168 23H92.9118L87.3888 8.363H89.4258L94.0248 20.984L98.6238 8.363H100.64ZM113.235 16.805C113.235 17.169 113.214 17.554 113.172 17.96H103.974C104.044 19.094 104.429 19.983 105.129 20.627C105.843 21.257 106.704 21.572 107.712 21.572C108.538 21.572 109.224 21.383 109.77 21.005C110.33 20.613 110.722 20.095 110.946 19.451H113.004C112.696 20.557 112.08 21.46 111.156 22.16C110.232 22.846 109.084 23.189 107.712 23.189C106.62 23.189 105.64 22.944 104.772 22.454C103.918 21.964 103.246 21.271 102.756 20.375C102.266 19.465 102.021 18.415 102.021 17.225C102.021 16.035 102.259 14.992 102.735 14.096C103.211 13.2 103.876 12.514 104.73 12.038C105.598 11.548 106.592 11.303 107.712 11.303C108.804 11.303 109.77 11.541 110.61 12.017C111.45 12.493 112.094 13.151 112.542 13.991C113.004 14.817 113.235 15.755 113.235 16.805ZM111.261 16.406C111.261 15.678 111.1 15.055 110.778 14.537C110.456 14.005 110.015 13.606 109.455 13.34C108.909 13.06 108.3 12.92 107.628 12.92C106.662 12.92 105.836 13.228 105.15 13.844C104.478 14.46 104.093 15.314 103.995 16.406H111.261ZM120.504 11.303C121.498 11.303 122.366 11.52 123.108 11.954C123.864 12.388 124.424 12.934 124.788 13.592V11.492H126.72V23.252C126.72 24.302 126.496 25.233 126.048 26.045C125.6 26.871 124.956 27.515 124.116 27.977C123.29 28.439 122.324 28.67 121.218 28.67C119.706 28.67 118.446 28.313 117.438 27.599C116.43 26.885 115.835 25.912 115.653 24.68H117.543C117.753 25.38 118.187 25.94 118.845 26.36C119.503 26.794 120.294 27.011 121.218 27.011C122.268 27.011 123.122 26.682 123.78 26.024C124.452 25.366 124.788 24.442 124.788 23.252V20.837C124.41 21.509 123.85 22.069 123.108 22.517C122.366 22.965 121.498 23.189 120.504 23.189C119.482 23.189 118.551 22.937 117.711 22.433C116.885 21.929 116.234 21.222 115.758 20.312C115.282 19.402 115.044 18.366 115.044 17.204C115.044 16.028 115.282 14.999 115.758 14.117C116.234 13.221 116.885 12.528 117.711 12.038C118.551 11.548 119.482 11.303 120.504 11.303ZM124.788 17.225C124.788 16.357 124.613 15.601 124.263 14.957C123.913 14.313 123.437 13.823 122.835 13.487C122.247 13.137 121.596 12.962 120.882 12.962C120.168 12.962 119.517 13.13 118.929 13.466C118.341 13.802 117.872 14.292 117.522 14.936C117.172 15.58 116.997 16.336 116.997 17.204C116.997 18.086 117.172 18.856 117.522 19.514C117.872 20.158 118.341 20.655 118.929 21.005C119.517 21.341 120.168 21.509 120.882 21.509C121.596 21.509 122.247 21.341 122.835 21.005C123.437 20.655 123.913 20.158 124.263 19.514C124.613 18.856 124.788 18.093 124.788 17.225ZM140.449 16.805C140.449 17.169 140.428 17.554 140.386 17.96H131.188C131.258 19.094 131.643 19.983 132.343 20.627C133.057 21.257 133.918 21.572 134.926 21.572C135.752 21.572 136.438 21.383 136.984 21.005C137.544 20.613 137.936 20.095 138.16 19.451H140.218C139.91 20.557 139.294 21.46 138.37 22.16C137.446 22.846 136.298 23.189 134.926 23.189C133.834 23.189 132.854 22.944 131.986 22.454C131.132 21.964 130.46 21.271 129.97 20.375C129.48 19.465 129.235 18.415 129.235 17.225C129.235 16.035 129.473 14.992 129.949 14.096C130.425 13.2 131.09 12.514 131.944 12.038C132.812 11.548 133.806 11.303 134.926 11.303C136.018 11.303 136.984 11.541 137.824 12.017C138.664 12.493 139.308 13.151 139.756 13.991C140.218 14.817 140.449 15.755 140.449 16.805ZM138.475 16.406C138.475 15.678 138.314 15.055 137.992 14.537C137.67 14.005 137.229 13.606 136.669 13.34C136.123 13.06 135.514 12.92 134.842 12.92C133.876 12.92 133.05 13.228 132.364 13.844C131.692 14.46 131.307 15.314 131.209 16.406H138.475ZM144.882 13.361C145.218 12.703 145.694 12.192 146.31 11.828C146.94 11.464 147.703 11.282 148.599 11.282V13.256H148.095C145.953 13.256 144.882 14.418 144.882 16.742V23H142.971V11.492H144.882V13.361ZM150.091 17.225C150.091 16.035 150.329 14.999 150.805 14.117C151.281 13.221 151.939 12.528 152.779 12.038C153.633 11.548 154.606 11.303 155.698 11.303C157.112 11.303 158.274 11.646 159.184 12.332C160.108 13.018 160.717 13.97 161.011 15.188H158.953C158.757 14.488 158.372 13.935 157.798 13.529C157.238 13.123 156.538 12.92 155.698 12.92C154.606 12.92 153.724 13.298 153.052 14.054C152.38 14.796 152.044 15.853 152.044 17.225C152.044 18.611 152.38 19.682 153.052 20.438C153.724 21.194 154.606 21.572 155.698 21.572C156.538 21.572 157.238 21.376 157.798 20.984C158.358 20.592 158.743 20.032 158.953 19.304H161.011C160.703 20.48 160.087 21.425 159.163 22.139C158.239 22.839 157.084 23.189 155.698 23.189C154.606 23.189 153.633 22.944 152.779 22.454C151.939 21.964 151.281 21.271 150.805 20.375C150.329 19.479 150.091 18.429 150.091 17.225ZM169.273 11.282C170.141 11.282 170.925 11.471 171.625 11.849C172.325 12.213 172.871 12.766 173.263 13.508C173.669 14.25 173.872 15.153 173.872 16.217V23H171.982V16.49C171.982 15.342 171.695 14.467 171.121 13.865C170.547 13.249 169.763 12.941 168.769 12.941C167.761 12.941 166.956 13.256 166.354 13.886C165.766 14.516 165.472 15.433 165.472 16.637V23H163.561V7.46H165.472V13.13C165.85 12.542 166.368 12.087 167.026 11.765C167.698 11.443 168.447 11.282 169.273 11.282ZM187.2 11.492V23H185.289V21.299C184.925 21.887 184.414 22.349 183.756 22.685C183.112 23.007 182.398 23.168 181.614 23.168C180.718 23.168 179.913 22.986 179.199 22.622C178.485 22.244 177.918 21.684 177.498 20.942C177.092 20.2 176.889 19.297 176.889 18.233V11.492H178.779V17.981C178.779 19.115 179.066 19.99 179.64 20.606C180.214 21.208 180.998 21.509 181.992 21.509C183.014 21.509 183.819 21.194 184.407 20.564C184.995 19.934 185.289 19.017 185.289 17.813V11.492H187.2ZM196.853 23L192.338 17.918V23H190.427V7.46H192.338V16.595L196.769 11.492H199.436L194.018 17.225L199.457 23H196.853Z" fill="white"/>
<path d="M69.824 142.104C64.96 146.264 58.752 148.344 51.2 148.344C43.648 148.344 37.44 146.264 32.576 142.104C27.712 137.944 25.28 132.344 25.28 125.304V79.8H40.64V123.96C40.64 130.232 44.16 133.368 51.2 133.368C58.24 133.368 61.76 130.232 61.76 123.96V79.8H77.12V125.304C77.12 132.344 74.688 137.944 69.824 142.104ZM140.06 147H122.588L111.26 127.608L99.932 147H82.46L102.524 112.536L83.42 79.8H100.892L111.26 97.56L121.628 79.8H139.1L119.996 112.536L140.06 147ZM149.671 156.6H143.911L182.311 70.2H188.071L149.671 156.6ZM240.73 142.104C235.866 146.264 229.658 148.344 222.106 148.344C214.554 148.344 208.346 146.264 203.482 142.104C198.618 137.944 196.186 132.344 196.186 125.304V79.8H211.546V123.96C211.546 130.232 215.066 133.368 222.106 133.368C229.146 133.368 232.666 130.232 232.666 123.96V79.8H248.026V125.304C248.026 132.344 245.594 137.944 240.73 142.104ZM259.104 79.8H274.464V147H259.104V79.8Z" fill="white"/>
<rect x="286.5" y="60.5" width="11" height="11" fill="white" stroke="#2D7DF7" stroke-width="3"/>
<rect x="286.5" y="153.5" width="11" height="11" fill="white" stroke="#2D7DF7" stroke-width="3"/>
<path d="M244.708 52.6603C245.248 53.7828 244.235 55.0675 242.99 54.7581L217.841 48.5017L217.725 48.4679C216.591 48.0933 216.337 46.5828 217.287 45.8581L217.386 45.7883L225.807 40.3067C225.881 40.2587 225.94 40.1925 225.979 40.115L226.012 40.0344L228.952 30.4259C229.335 29.1724 231.029 28.9787 231.685 30.1137L244.651 52.5526L244.708 52.6603Z" fill="#A957F2" stroke="white"/>
<rect x="1.5" y="60.5" width="11" height="11" fill="white" stroke="#2D7DF7" stroke-width="3"/>
<rect x="1.5" y="153.5" width="11" height="11" fill="white" stroke="#2D7DF7" stroke-width="3"/>
</svg>
