<svg width="58" height="20" viewBox="0 0 58 20" fill="none" xmlns="http://www.w3.org/2000/svg">
<path d="M48.1766 0H56.2027C56.9969 0 57.6407 0.639595 57.6407 1.42857V6.78943C57.6407 10.05 53.4143 11.3714 51.5348 8.69843L46.9975 2.24673C46.3316 1.29979 47.0136 0 48.1766 0Z" fill="white"/>
<path d="M43.207 0H35.2071C34.0495 0 33.3664 1.28938 34.0217 2.2373L45.7077 19.142C45.9759 19.53 46.4193 19.7619 46.8931 19.7619H51.4089H54.4829C55.6295 19.7619 56.315 18.4939 55.6818 17.5442L44.4057 0.639457C44.1393 0.240118 43.6892 0 43.207 0Z" fill="white"/>
<path d="M30.2651 0H22.2652C21.1077 0 20.4245 1.28938 21.0798 2.2373L32.7658 19.142C33.034 19.53 33.4774 19.7619 33.9513 19.7619H38.4671H41.5411C42.6879 19.7619 43.3733 18.4939 42.7398 17.5442L31.4638 0.639457C31.1974 0.240118 30.7473 0 30.2651 0Z" fill="white"/>
<path d="M17.3228 0H9.32283C8.16527 0 7.48212 1.28938 8.13742 2.2373L19.8235 19.142C20.0917 19.53 20.535 19.7619 21.0089 19.7619H25.5247H28.5988C29.7455 19.7619 30.4309 18.4939 29.7974 17.5442L18.5214 0.639457C18.2551 0.240118 17.805 0 17.3228 0Z" fill="white"/>
<path d="M3.11825 9.7619H11.1445C11.9388 9.7619 12.5826 10.4015 12.5826 11.1905V16.5513C12.5826 19.812 8.35632 21.1333 6.47659 18.4603L1.93942 12.0086C1.27349 11.0617 1.95547 9.7619 3.11825 9.7619Z" fill="white"/>
</svg>
