<svg width="121" height="42" viewBox="0 0 121 42" fill="none" xmlns="http://www.w3.org/2000/svg">
<path d="M100.506 0H117.25C118.907 0 120.25 1.34315 120.25 3V14.2578C120.25 21.1051 111.433 23.8799 107.512 18.2667L98.0462 4.71813C96.6569 2.72955 98.0797 0 100.506 0Z" fill="#2D7DF7"/>
<path d="M90.1391 0H73.4496C71.0347 0 69.6095 2.70769 70.9766 4.69832L95.3561 40.1983C95.9156 41.0131 96.8406 41.5 97.8291 41.5H107.25H113.663C116.055 41.5 117.485 38.8371 116.164 36.8429L92.6398 1.34286C92.0841 0.504248 91.1451 0 90.1391 0Z" fill="#2D7DF7"/>
<path d="M63.1391 0H46.4496C44.0347 0 42.6095 2.70769 43.9766 4.69832L68.3561 40.1983C68.9156 41.0131 69.8406 41.5 70.8291 41.5H80.25H86.6632C89.0555 41.5 90.4854 38.8371 89.1639 36.8429L65.6398 1.34286C65.0841 0.504248 64.1451 0 63.1391 0Z" fill="#2D7DF7"/>
<path d="M36.1391 0H19.4496C17.0347 0 15.6095 2.70769 16.9766 4.69832L41.3561 40.1983C41.9156 41.0131 42.8406 41.5 43.8291 41.5H53.25H59.6632C62.0555 41.5 63.4854 38.8371 62.1639 36.8429L38.6398 1.34286C38.0841 0.504248 37.1451 0 36.1391 0Z" fill="#2D7DF7"/>
<path d="M6.5055 20.5H23.25C24.9069 20.5 26.25 21.8431 26.25 23.5V34.7578C26.25 41.6051 17.4332 44.3799 13.5117 38.7667L4.04622 25.2181C2.65694 23.2295 4.07969 20.5 6.5055 20.5Z" fill="#2D7DF7"/>
</svg>
