<svg width="380" height="158" viewBox="0 0 380 158" fill="none" xmlns="http://www.w3.org/2000/svg">
<rect width="380" height="158" rx="16" fill="#D8D9FA"/>
<path d="M27 30H45" stroke="black" stroke-width="2" stroke-linecap="round" stroke-linejoin="round"/>
<path d="M31 36H41" stroke="black" stroke-width="2" stroke-linecap="round" stroke-linejoin="round"/>
<path d="M34 42H38" stroke="black" stroke-width="2" stroke-linecap="round" stroke-linejoin="round"/>
<path d="M27.424 73.456H32.992V75.168H27.424V73.456ZM27.584 78.256H33.904V80H25.504V68.8H33.68V70.544H27.584V78.256ZM40.8788 71.36C41.5614 71.36 42.1694 71.4933 42.7028 71.76C43.2468 72.0267 43.6734 72.4373 43.9828 72.992C44.2921 73.536 44.4468 74.24 44.4468 75.104V80H42.4468V75.36C42.4468 74.6027 42.2654 74.0373 41.9028 73.664C41.5508 73.2907 41.0548 73.104 40.4148 73.104C39.9454 73.104 39.5294 73.2 39.1668 73.392C38.8041 73.584 38.5214 73.872 38.3188 74.256C38.1268 74.6293 38.0308 75.104 38.0308 75.68V80H36.0308V71.456H37.9348V73.76L37.5988 73.056C37.8974 72.512 38.3294 72.096 38.8948 71.808C39.4708 71.5093 40.1321 71.36 40.8788 71.36ZM51.8319 71.36C52.5145 71.36 53.1225 71.4933 53.6559 71.76C54.1999 72.0267 54.6265 72.4373 54.9359 72.992C55.2452 73.536 55.3999 74.24 55.3999 75.104V80H53.3999V75.36C53.3999 74.6027 53.2185 74.0373 52.8559 73.664C52.5039 73.2907 52.0079 73.104 51.3679 73.104C50.8985 73.104 50.4825 73.2 50.1199 73.392C49.7572 73.584 49.4745 73.872 49.2719 74.256C49.0799 74.6293 48.9839 75.104 48.9839 75.68V80H46.9839V68.128H48.9839V73.76L48.5519 73.056C48.8505 72.512 49.2825 72.096 49.8479 71.808C50.4239 71.5093 51.0852 71.36 51.8319 71.36ZM63.201 80V78.272L63.089 77.904V74.88C63.089 74.2933 62.913 73.84 62.561 73.52C62.209 73.1893 61.6757 73.024 60.961 73.024C60.481 73.024 60.0063 73.0987 59.537 73.248C59.0783 73.3973 58.689 73.6053 58.369 73.872L57.585 72.416C58.0437 72.064 58.5877 71.8027 59.217 71.632C59.857 71.4507 60.5183 71.36 61.201 71.36C62.4383 71.36 63.393 71.6587 64.065 72.256C64.7477 72.8427 65.089 73.7547 65.089 74.992V80H63.201ZM60.513 80.112C59.873 80.112 59.313 80.0053 58.833 79.792C58.353 79.568 57.9797 79.264 57.713 78.88C57.457 78.4853 57.329 78.0427 57.329 77.552C57.329 77.072 57.441 76.64 57.665 76.256C57.8997 75.872 58.2783 75.568 58.801 75.344C59.3237 75.12 60.017 75.008 60.881 75.008H63.361V76.336H61.025C60.3423 76.336 59.8837 76.448 59.649 76.672C59.4143 76.8853 59.297 77.152 59.297 77.472C59.297 77.8347 59.441 78.1227 59.729 78.336C60.017 78.5493 60.417 78.656 60.929 78.656C61.4197 78.656 61.857 78.544 62.241 78.32C62.6357 78.096 62.9183 77.7653 63.089 77.328L63.425 78.528C63.233 79.0293 62.8863 79.4187 62.385 79.696C61.8943 79.9733 61.2703 80.112 60.513 80.112ZM72.5038 71.36C73.1864 71.36 73.7944 71.4933 74.3278 71.76C74.8718 72.0267 75.2984 72.4373 75.6078 72.992C75.9171 73.536 76.0718 74.24 76.0718 75.104V80H74.0718V75.36C74.0718 74.6027 73.8904 74.0373 73.5278 73.664C73.1758 73.2907 72.6798 73.104 72.0398 73.104C71.5704 73.104 71.1544 73.2 70.7918 73.392C70.4291 73.584 70.1464 73.872 69.9438 74.256C69.7518 74.6293 69.6558 75.104 69.6558 75.68V80H67.6558V71.456H69.5598V73.76L69.2238 73.056C69.5224 72.512 69.9544 72.096 70.5198 71.808C71.0958 71.5093 71.7571 71.36 72.5038 71.36ZM82.5445 80.112C81.6485 80.112 80.8485 79.9253 80.1445 79.552C79.4512 79.168 78.9072 78.6453 78.5125 77.984C78.1178 77.3227 77.9205 76.5707 77.9205 75.728C77.9205 74.8747 78.1178 74.1227 78.5125 73.472C78.9072 72.8107 79.4512 72.2933 80.1445 71.92C80.8485 71.5467 81.6485 71.36 82.5445 71.36C83.3765 71.36 84.1072 71.5307 84.7365 71.872C85.3765 72.2027 85.8618 72.6933 86.1925 73.344L84.6565 74.24C84.4005 73.8347 84.0858 73.536 83.7125 73.344C83.3498 73.152 82.9552 73.056 82.5285 73.056C82.0378 73.056 81.5952 73.1627 81.2005 73.376C80.8058 73.5893 80.4965 73.8987 80.2725 74.304C80.0485 74.6987 79.9365 75.1733 79.9365 75.728C79.9365 76.2827 80.0485 76.7627 80.2725 77.168C80.4965 77.5627 80.8058 77.8667 81.2005 78.08C81.5952 78.2933 82.0378 78.4 82.5285 78.4C82.9552 78.4 83.3498 78.304 83.7125 78.112C84.0858 77.92 84.4005 77.6213 84.6565 77.216L86.1925 78.112C85.8618 78.752 85.3765 79.248 84.7365 79.6C84.1072 79.9413 83.3765 80.112 82.5445 80.112ZM91.8124 80.112C90.863 80.112 90.031 79.9253 89.3164 79.552C88.6124 79.168 88.063 78.6453 87.6684 77.984C87.2844 77.3227 87.0924 76.5707 87.0924 75.728C87.0924 74.8747 87.279 74.1227 87.6524 73.472C88.0364 72.8107 88.559 72.2933 89.2204 71.92C89.8924 71.5467 90.655 71.36 91.5084 71.36C92.3404 71.36 93.0817 71.5413 93.7324 71.904C94.383 72.2667 94.895 72.7787 95.2684 73.44C95.6417 74.1013 95.8284 74.88 95.8284 75.776C95.8284 75.8613 95.823 75.9573 95.8124 76.064C95.8124 76.1707 95.807 76.272 95.7964 76.368H88.6764V75.04H94.7404L93.9564 75.456C93.967 74.9653 93.8657 74.5333 93.6524 74.16C93.439 73.7867 93.1457 73.4933 92.7724 73.28C92.4097 73.0667 91.9884 72.96 91.5084 72.96C91.0177 72.96 90.5857 73.0667 90.2124 73.28C89.8497 73.4933 89.5617 73.792 89.3484 74.176C89.1457 74.5493 89.0444 74.992 89.0444 75.504V75.824C89.0444 76.336 89.1617 76.7893 89.3964 77.184C89.631 77.5787 89.9617 77.8827 90.3884 78.096C90.815 78.3093 91.3057 78.416 91.8604 78.416C92.3404 78.416 92.7724 78.3413 93.1564 78.192C93.5404 78.0427 93.8817 77.808 94.1804 77.488L95.2524 78.72C94.8684 79.168 94.383 79.5147 93.7964 79.76C93.2204 79.9947 92.559 80.112 91.8124 80.112ZM105.835 80.16C104.961 80.16 104.123 80.0373 103.323 79.792C102.523 79.536 101.889 79.2107 101.419 78.816L102.139 77.2C102.587 77.552 103.142 77.8453 103.803 78.08C104.465 78.3147 105.142 78.432 105.835 78.432C106.422 78.432 106.897 78.368 107.259 78.24C107.622 78.112 107.889 77.9413 108.059 77.728C108.23 77.504 108.315 77.2533 108.315 76.976C108.315 76.6347 108.193 76.3627 107.947 76.16C107.702 75.9467 107.382 75.7813 106.987 75.664C106.603 75.536 106.171 75.4187 105.691 75.312C105.222 75.2053 104.747 75.0827 104.267 74.944C103.798 74.7947 103.366 74.608 102.971 74.384C102.587 74.1493 102.273 73.84 102.027 73.456C101.782 73.072 101.659 72.5813 101.659 71.984C101.659 71.376 101.819 70.8213 102.139 70.32C102.47 69.808 102.966 69.4027 103.627 69.104C104.299 68.7947 105.147 68.64 106.171 68.64C106.843 68.64 107.51 68.7253 108.171 68.896C108.833 69.0667 109.409 69.312 109.899 69.632L109.243 71.248C108.742 70.9493 108.225 70.7307 107.691 70.592C107.158 70.4427 106.646 70.368 106.155 70.368C105.579 70.368 105.11 70.4373 104.747 70.576C104.395 70.7147 104.134 70.896 103.963 71.12C103.803 71.344 103.723 71.6 103.723 71.888C103.723 72.2293 103.841 72.5067 104.075 72.72C104.321 72.9227 104.635 73.0827 105.019 73.2C105.414 73.3173 105.851 73.4347 106.331 73.552C106.811 73.6587 107.286 73.7813 107.755 73.92C108.235 74.0587 108.667 74.24 109.051 74.464C109.446 74.688 109.761 74.992 109.995 75.376C110.241 75.76 110.363 76.2453 110.363 76.832C110.363 77.4293 110.198 77.984 109.867 78.496C109.547 78.9973 109.051 79.4027 108.379 79.712C107.707 80.0107 106.859 80.16 105.835 80.16ZM116.97 80.112C116.277 80.112 115.642 79.952 115.066 79.632C114.501 79.312 114.047 78.832 113.706 78.192C113.375 77.5413 113.21 76.72 113.21 75.728C113.21 74.7253 113.37 73.904 113.69 73.264C114.021 72.624 114.469 72.1493 115.034 71.84C115.599 71.52 116.245 71.36 116.97 71.36C117.813 71.36 118.554 71.5413 119.194 71.904C119.845 72.2667 120.357 72.7733 120.73 73.424C121.114 74.0747 121.306 74.8427 121.306 75.728C121.306 76.6133 121.114 77.3867 120.73 78.048C120.357 78.6987 119.845 79.2053 119.194 79.568C118.554 79.9307 117.813 80.112 116.97 80.112ZM112.234 83.104V71.456H114.138V73.472L114.074 75.744L114.234 78.016V83.104H112.234ZM116.746 78.4C117.226 78.4 117.653 78.2933 118.026 78.08C118.41 77.8667 118.714 77.5573 118.938 77.152C119.162 76.7467 119.274 76.272 119.274 75.728C119.274 75.1733 119.162 74.6987 118.938 74.304C118.714 73.8987 118.41 73.5893 118.026 73.376C117.653 73.1627 117.226 73.056 116.746 73.056C116.266 73.056 115.834 73.1627 115.45 73.376C115.066 73.5893 114.762 73.8987 114.538 74.304C114.314 74.6987 114.202 75.1733 114.202 75.728C114.202 76.272 114.314 76.7467 114.538 77.152C114.762 77.5573 115.066 77.8667 115.45 78.08C115.834 78.2933 116.266 78.4 116.746 78.4ZM128.357 80V78.272L128.245 77.904V74.88C128.245 74.2933 128.069 73.84 127.717 73.52C127.365 73.1893 126.832 73.024 126.117 73.024C125.637 73.024 125.163 73.0987 124.693 73.248C124.235 73.3973 123.845 73.6053 123.525 73.872L122.741 72.416C123.2 72.064 123.744 71.8027 124.373 71.632C125.013 71.4507 125.675 71.36 126.357 71.36C127.595 71.36 128.549 71.6587 129.221 72.256C129.904 72.8427 130.245 73.7547 130.245 74.992V80H128.357ZM125.669 80.112C125.029 80.112 124.469 80.0053 123.989 79.792C123.509 79.568 123.136 79.264 122.869 78.88C122.613 78.4853 122.485 78.0427 122.485 77.552C122.485 77.072 122.597 76.64 122.821 76.256C123.056 75.872 123.435 75.568 123.957 75.344C124.48 75.12 125.173 75.008 126.037 75.008H128.517V76.336H126.181C125.499 76.336 125.04 76.448 124.805 76.672C124.571 76.8853 124.453 77.152 124.453 77.472C124.453 77.8347 124.597 78.1227 124.885 78.336C125.173 78.5493 125.573 78.656 126.085 78.656C126.576 78.656 127.013 78.544 127.397 78.32C127.792 78.096 128.075 77.7653 128.245 77.328L128.581 78.528C128.389 79.0293 128.043 79.4187 127.541 79.696C127.051 79.9733 126.427 80.112 125.669 80.112ZM143.596 71.36C144.279 71.36 144.881 71.4933 145.404 71.76C145.937 72.0267 146.353 72.4373 146.652 72.992C146.951 73.536 147.1 74.24 147.1 75.104V80H145.1V75.36C145.1 74.6027 144.935 74.0373 144.604 73.664C144.273 73.2907 143.799 73.104 143.18 73.104C142.743 73.104 142.353 73.2 142.012 73.392C141.681 73.584 141.42 73.8667 141.228 74.24C141.047 74.6133 140.956 75.088 140.956 75.664V80H138.956V75.36C138.956 74.6027 138.791 74.0373 138.46 73.664C138.129 73.2907 137.655 73.104 137.036 73.104C136.599 73.104 136.209 73.2 135.868 73.392C135.537 73.584 135.276 73.8667 135.084 74.24C134.903 74.6133 134.812 75.088 134.812 75.664V80H132.812V71.456H134.716V73.728L134.38 73.056C134.668 72.5013 135.084 72.08 135.628 71.792C136.183 71.504 136.812 71.36 137.516 71.36C138.316 71.36 139.009 71.5573 139.596 71.952C140.193 72.3467 140.588 72.944 140.78 73.744L139.996 73.472C140.273 72.832 140.732 72.32 141.372 71.936C142.012 71.552 142.753 71.36 143.596 71.36ZM156.174 73.952H161.758V75.712H156.174V73.952ZM156.35 80H154.27V68.8H162.446V70.544H156.35V80ZM164.265 80V71.456H166.265V80H164.265ZM165.273 70.048C164.9 70.048 164.59 69.9307 164.345 69.696C164.11 69.4613 163.993 69.1787 163.993 68.848C163.993 68.5067 164.11 68.224 164.345 68C164.59 67.7653 164.9 67.648 165.273 67.648C165.646 67.648 165.95 67.76 166.185 67.984C166.43 68.1973 166.553 68.4693 166.553 68.8C166.553 69.152 166.436 69.4507 166.201 69.696C165.966 69.9307 165.657 70.048 165.273 70.048ZM168.89 80V68.128H170.89V80H168.89ZM177.153 80.112C176.214 80.112 175.489 79.872 174.977 79.392C174.465 78.9013 174.209 78.1813 174.209 77.232V69.568H176.209V77.184C176.209 77.5893 176.31 77.904 176.513 78.128C176.726 78.352 177.02 78.464 177.393 78.464C177.841 78.464 178.214 78.3467 178.513 78.112L179.073 79.536C178.838 79.728 178.55 79.872 178.209 79.968C177.868 80.064 177.516 80.112 177.153 80.112ZM172.801 73.12V71.52H178.497V73.12H172.801ZM184.453 80.112C183.504 80.112 182.672 79.9253 181.957 79.552C181.253 79.168 180.704 78.6453 180.309 77.984C179.925 77.3227 179.733 76.5707 179.733 75.728C179.733 74.8747 179.92 74.1227 180.293 73.472C180.677 72.8107 181.2 72.2933 181.861 71.92C182.533 71.5467 183.296 71.36 184.149 71.36C184.981 71.36 185.722 71.5413 186.373 71.904C187.024 72.2667 187.536 72.7787 187.909 73.44C188.282 74.1013 188.469 74.88 188.469 75.776C188.469 75.8613 188.464 75.9573 188.453 76.064C188.453 76.1707 188.448 76.272 188.437 76.368H181.317V75.04H187.381L186.597 75.456C186.608 74.9653 186.506 74.5333 186.293 74.16C186.08 73.7867 185.786 73.4933 185.413 73.28C185.05 73.0667 184.629 72.96 184.149 72.96C183.658 72.96 183.226 73.0667 182.853 73.28C182.49 73.4933 182.202 73.792 181.989 74.176C181.786 74.5493 181.685 74.992 181.685 75.504V75.824C181.685 76.336 181.802 76.7893 182.037 77.184C182.272 77.5787 182.602 77.8827 183.029 78.096C183.456 78.3093 183.946 78.416 184.501 78.416C184.981 78.416 185.413 78.3413 185.797 78.192C186.181 78.0427 186.522 77.808 186.821 77.488L187.893 78.72C187.509 79.168 187.024 79.5147 186.437 79.76C185.861 79.9947 185.2 80.112 184.453 80.112ZM190.39 80V71.456H192.294V73.808L192.07 73.12C192.326 72.544 192.726 72.1067 193.27 71.808C193.825 71.5093 194.513 71.36 195.334 71.36V73.264C195.249 73.2427 195.169 73.232 195.094 73.232C195.019 73.2213 194.945 73.216 194.87 73.216C194.113 73.216 193.51 73.44 193.062 73.888C192.614 74.3253 192.39 74.9813 192.39 75.856V80H190.39ZM199.749 80.112C199.034 80.112 198.346 80.0213 197.685 79.84C197.034 79.648 196.517 79.4187 196.133 79.152L196.901 77.632C197.285 77.8773 197.744 78.08 198.277 78.24C198.81 78.4 199.344 78.48 199.877 78.48C200.506 78.48 200.96 78.3947 201.237 78.224C201.525 78.0533 201.669 77.824 201.669 77.536C201.669 77.3013 201.573 77.1253 201.381 77.008C201.189 76.88 200.938 76.784 200.629 76.72C200.32 76.656 199.973 76.5973 199.589 76.544C199.216 76.4907 198.837 76.4213 198.453 76.336C198.08 76.24 197.738 76.1067 197.429 75.936C197.12 75.7547 196.869 75.5147 196.677 75.216C196.485 74.9173 196.389 74.5227 196.389 74.032C196.389 73.488 196.544 73.0187 196.853 72.624C197.162 72.2187 197.594 71.9093 198.149 71.696C198.714 71.472 199.381 71.36 200.149 71.36C200.725 71.36 201.306 71.424 201.893 71.552C202.48 71.68 202.965 71.8613 203.349 72.096L202.581 73.616C202.176 73.3707 201.765 73.2053 201.349 73.12C200.944 73.024 200.538 72.976 200.133 72.976C199.525 72.976 199.072 73.0667 198.773 73.248C198.485 73.4293 198.341 73.6587 198.341 73.936C198.341 74.192 198.437 74.384 198.629 74.512C198.821 74.64 199.072 74.7413 199.381 74.816C199.69 74.8907 200.032 74.9547 200.405 75.008C200.789 75.0507 201.168 75.12 201.541 75.216C201.914 75.312 202.256 75.4453 202.565 75.616C202.885 75.776 203.141 76.0053 203.333 76.304C203.525 76.6027 203.621 76.992 203.621 77.472C203.621 78.0053 203.461 78.4693 203.141 78.864C202.832 79.2587 202.389 79.568 201.813 79.792C201.237 80.0053 200.549 80.112 199.749 80.112Z" fill="#011422"/>
<path d="M25.47 108V98.2H26.87V108H25.47ZM38.61 100.51C39.2073 100.51 39.7347 100.627 40.192 100.86C40.6493 101.093 41.004 101.448 41.256 101.924C41.5173 102.4 41.648 103.002 41.648 103.73V108H40.304V103.884C40.304 103.165 40.136 102.624 39.8 102.26C39.464 101.896 38.9927 101.714 38.386 101.714C37.938 101.714 37.546 101.807 37.21 101.994C36.874 102.181 36.6127 102.456 36.426 102.82C36.2487 103.184 36.16 103.637 36.16 104.178V108H34.816V103.884C34.816 103.165 34.648 102.624 34.312 102.26C33.9853 101.896 33.514 101.714 32.898 101.714C32.4593 101.714 32.072 101.807 31.736 101.994C31.4 102.181 31.1387 102.456 30.952 102.82C30.7653 103.184 30.672 103.637 30.672 104.178V108H29.328V100.58H30.616V102.554L30.406 102.05C30.6393 101.565 30.9987 101.187 31.484 100.916C31.9693 100.645 32.534 100.51 33.178 100.51C33.8873 100.51 34.4987 100.687 35.012 101.042C35.5253 101.387 35.8613 101.915 36.02 102.624L35.474 102.4C35.698 101.831 36.09 101.373 36.65 101.028C37.21 100.683 37.8633 100.51 38.61 100.51ZM47.775 108.084C47.159 108.084 46.5943 107.944 46.081 107.664C45.577 107.375 45.171 106.95 44.863 106.39C44.5643 105.83 44.415 105.13 44.415 104.29C44.415 103.45 44.5596 102.75 44.849 102.19C45.1476 101.63 45.549 101.21 46.053 100.93C46.5663 100.65 47.1403 100.51 47.775 100.51C48.503 100.51 49.147 100.669 49.707 100.986C50.267 101.303 50.7103 101.747 51.037 102.316C51.3636 102.876 51.527 103.534 51.527 104.29C51.527 105.046 51.3636 105.709 51.037 106.278C50.7103 106.847 50.267 107.291 49.707 107.608C49.147 107.925 48.503 108.084 47.775 108.084ZM43.841 110.716V100.58H45.129V102.582L45.045 104.304L45.185 106.026V110.716H43.841ZM47.663 106.908C48.139 106.908 48.5636 106.801 48.937 106.586C49.3196 106.371 49.6183 106.068 49.833 105.676C50.057 105.275 50.169 104.813 50.169 104.29C50.169 103.758 50.057 103.301 49.833 102.918C49.6183 102.526 49.3196 102.223 48.937 102.008C48.5636 101.793 48.139 101.686 47.663 101.686C47.1963 101.686 46.7716 101.793 46.389 102.008C46.0156 102.223 45.717 102.526 45.493 102.918C45.2783 103.301 45.171 103.758 45.171 104.29C45.171 104.813 45.2783 105.275 45.493 105.676C45.717 106.068 46.0156 106.371 46.389 106.586C46.7716 106.801 47.1963 106.908 47.663 106.908ZM53.1039 108V100.58H54.3919V102.596L54.2659 102.092C54.4713 101.579 54.8166 101.187 55.3019 100.916C55.7873 100.645 56.3846 100.51 57.0939 100.51V101.812C57.0379 101.803 56.9819 101.798 56.9259 101.798C56.8793 101.798 56.8326 101.798 56.7859 101.798C56.0673 101.798 55.4979 102.013 55.0779 102.442C54.6579 102.871 54.4479 103.492 54.4479 104.304V108H53.1039ZM61.58 108.084C60.8334 108.084 60.1707 107.921 59.592 107.594C59.0134 107.267 58.556 106.819 58.22 106.25C57.884 105.671 57.716 105.018 57.716 104.29C57.716 103.553 57.884 102.899 58.22 102.33C58.556 101.761 59.0134 101.317 59.592 101C60.1707 100.673 60.8334 100.51 61.58 100.51C62.3174 100.51 62.9754 100.673 63.554 101C64.142 101.317 64.5994 101.761 64.926 102.33C65.262 102.89 65.43 103.543 65.43 104.29C65.43 105.027 65.262 105.681 64.926 106.25C64.5994 106.819 64.142 107.267 63.554 107.594C62.9754 107.921 62.3174 108.084 61.58 108.084ZM61.58 106.908C62.056 106.908 62.4807 106.801 62.854 106.586C63.2367 106.371 63.5354 106.068 63.75 105.676C63.9647 105.275 64.072 104.813 64.072 104.29C64.072 103.758 63.9647 103.301 63.75 102.918C63.5354 102.526 63.2367 102.223 62.854 102.008C62.4807 101.793 62.056 101.686 61.58 101.686C61.104 101.686 60.6794 101.793 60.306 102.008C59.9327 102.223 59.634 102.526 59.41 102.918C59.186 103.301 59.074 103.758 59.074 104.29C59.074 104.813 59.186 105.275 59.41 105.676C59.634 106.068 59.9327 106.371 60.306 106.586C60.6794 106.801 61.104 106.908 61.58 106.908ZM68.7497 108L65.5017 100.58H66.9017L69.7857 107.3H69.1137L72.0537 100.58H73.3697L70.1217 108H68.7497ZM77.4429 108.084C76.6496 108.084 75.9496 107.921 75.3429 107.594C74.7456 107.267 74.2789 106.819 73.9429 106.25C73.6163 105.681 73.4529 105.027 73.4529 104.29C73.4529 103.553 73.6116 102.899 73.9289 102.33C74.2556 101.761 74.6989 101.317 75.2589 101C75.8283 100.673 76.4676 100.51 77.1769 100.51C77.8956 100.51 78.5303 100.669 79.0809 100.986C79.6316 101.303 80.0609 101.751 80.3689 102.33C80.6863 102.899 80.8449 103.567 80.8449 104.332C80.8449 104.388 80.8403 104.453 80.8309 104.528C80.8309 104.603 80.8263 104.673 80.8169 104.738H74.5029V103.772H80.1169L79.5709 104.108C79.5803 103.632 79.4823 103.207 79.2769 102.834C79.0716 102.461 78.7869 102.171 78.4229 101.966C78.0683 101.751 77.6529 101.644 77.1769 101.644C76.7103 101.644 76.2949 101.751 75.9309 101.966C75.5669 102.171 75.2823 102.465 75.0769 102.848C74.8716 103.221 74.7689 103.651 74.7689 104.136V104.36C74.7689 104.855 74.8809 105.298 75.1049 105.69C75.3383 106.073 75.6603 106.371 76.0709 106.586C76.4816 106.801 76.9529 106.908 77.4849 106.908C77.9236 106.908 78.3203 106.833 78.6749 106.684C79.0389 106.535 79.3563 106.311 79.6269 106.012L80.3689 106.88C80.0329 107.272 79.6129 107.571 79.1089 107.776C78.6143 107.981 78.0589 108.084 77.4429 108.084ZM88.459 108.084C87.7123 108.084 87.1336 107.883 86.723 107.482C86.3123 107.081 86.107 106.507 86.107 105.76V98.956H87.451V105.704C87.451 106.105 87.549 106.413 87.745 106.628C87.9503 106.843 88.2396 106.95 88.613 106.95C89.033 106.95 89.383 106.833 89.663 106.6L90.083 107.566C89.8776 107.743 89.6303 107.874 89.341 107.958C89.061 108.042 88.767 108.084 88.459 108.084ZM84.847 101.686V100.58H89.579V101.686H84.847ZM95.3898 100.51C95.9965 100.51 96.5285 100.627 96.9858 100.86C97.4525 101.093 97.8165 101.448 98.0778 101.924C98.3392 102.4 98.4698 103.002 98.4698 103.73V108H97.1258V103.884C97.1258 103.165 96.9485 102.624 96.5938 102.26C96.2485 101.896 95.7585 101.714 95.1238 101.714C94.6478 101.714 94.2325 101.807 93.8778 101.994C93.5232 102.181 93.2478 102.456 93.0518 102.82C92.8652 103.184 92.7718 103.637 92.7718 104.178V108H91.4278V97.612H92.7718V102.582L92.5058 102.05C92.7485 101.565 93.1218 101.187 93.6258 100.916C94.1298 100.645 94.7178 100.51 95.3898 100.51ZM103.981 108.084C103.188 108.084 102.488 107.921 101.881 107.594C101.284 107.267 100.817 106.819 100.481 106.25C100.154 105.681 99.9911 105.027 99.9911 104.29C99.9911 103.553 100.15 102.899 100.467 102.33C100.794 101.761 101.237 101.317 101.797 101C102.366 100.673 103.006 100.51 103.715 100.51C104.434 100.51 105.068 100.669 105.619 100.986C106.17 101.303 106.599 101.751 106.907 102.33C107.224 102.899 107.383 103.567 107.383 104.332C107.383 104.388 107.378 104.453 107.369 104.528C107.369 104.603 107.364 104.673 107.355 104.738H101.041V103.772H106.655L106.109 104.108C106.118 103.632 106.02 103.207 105.815 102.834C105.61 102.461 105.325 102.171 104.961 101.966C104.606 101.751 104.191 101.644 103.715 101.644C103.248 101.644 102.833 101.751 102.469 101.966C102.105 102.171 101.82 102.465 101.615 102.848C101.41 103.221 101.307 103.651 101.307 104.136V104.36C101.307 104.855 101.419 105.298 101.643 105.69C101.876 106.073 102.198 106.371 102.609 106.586C103.02 106.801 103.491 106.908 104.023 106.908C104.462 106.908 104.858 106.833 105.213 106.684C105.577 106.535 105.894 106.311 106.165 106.012L106.907 106.88C106.571 107.272 106.151 107.571 105.647 107.776C105.152 107.981 104.597 108.084 103.981 108.084ZM114.577 108.084C113.961 108.084 113.373 108 112.813 107.832C112.262 107.664 111.828 107.459 111.511 107.216L112.071 106.152C112.388 106.367 112.78 106.549 113.247 106.698C113.714 106.847 114.19 106.922 114.675 106.922C115.3 106.922 115.748 106.833 116.019 106.656C116.299 106.479 116.439 106.231 116.439 105.914C116.439 105.681 116.355 105.499 116.187 105.368C116.019 105.237 115.795 105.139 115.515 105.074C115.244 105.009 114.941 104.953 114.605 104.906C114.269 104.85 113.933 104.785 113.597 104.71C113.261 104.626 112.953 104.514 112.673 104.374C112.393 104.225 112.169 104.024 112.001 103.772C111.833 103.511 111.749 103.165 111.749 102.736C111.749 102.288 111.875 101.896 112.127 101.56C112.379 101.224 112.734 100.967 113.191 100.79C113.658 100.603 114.208 100.51 114.843 100.51C115.328 100.51 115.818 100.571 116.313 100.692C116.817 100.804 117.228 100.967 117.545 101.182L116.971 102.246C116.635 102.022 116.285 101.868 115.921 101.784C115.557 101.7 115.193 101.658 114.829 101.658C114.241 101.658 113.802 101.756 113.513 101.952C113.224 102.139 113.079 102.381 113.079 102.68C113.079 102.932 113.163 103.128 113.331 103.268C113.508 103.399 113.732 103.501 114.003 103.576C114.283 103.651 114.591 103.716 114.927 103.772C115.263 103.819 115.599 103.884 115.935 103.968C116.271 104.043 116.574 104.15 116.845 104.29C117.125 104.43 117.349 104.626 117.517 104.878C117.694 105.13 117.783 105.466 117.783 105.886C117.783 106.334 117.652 106.721 117.391 107.048C117.13 107.375 116.761 107.631 116.285 107.818C115.809 107.995 115.24 108.084 114.577 108.084ZM123.117 108.084C122.501 108.084 121.936 107.944 121.423 107.664C120.919 107.375 120.513 106.95 120.205 106.39C119.906 105.83 119.757 105.13 119.757 104.29C119.757 103.45 119.901 102.75 120.191 102.19C120.489 101.63 120.891 101.21 121.395 100.93C121.908 100.65 122.482 100.51 123.117 100.51C123.845 100.51 124.489 100.669 125.049 100.986C125.609 101.303 126.052 101.747 126.379 102.316C126.705 102.876 126.869 103.534 126.869 104.29C126.869 105.046 126.705 105.709 126.379 106.278C126.052 106.847 125.609 107.291 125.049 107.608C124.489 107.925 123.845 108.084 123.117 108.084ZM119.183 110.716V100.58H120.471V102.582L120.387 104.304L120.527 106.026V110.716H119.183ZM123.005 106.908C123.481 106.908 123.905 106.801 124.279 106.586C124.661 106.371 124.96 106.068 125.175 105.676C125.399 105.275 125.511 104.813 125.511 104.29C125.511 103.758 125.399 103.301 125.175 102.918C124.96 102.526 124.661 102.223 124.279 102.008C123.905 101.793 123.481 101.686 123.005 101.686C122.538 101.686 122.113 101.793 121.731 102.008C121.357 102.223 121.059 102.526 120.835 102.918C120.62 103.301 120.513 103.758 120.513 104.29C120.513 104.813 120.62 105.275 120.835 105.676C121.059 106.068 121.357 106.371 121.731 106.586C122.113 106.801 122.538 106.908 123.005 106.908ZM132.983 108V106.432L132.913 106.138V103.464C132.913 102.895 132.745 102.456 132.409 102.148C132.083 101.831 131.588 101.672 130.925 101.672C130.487 101.672 130.057 101.747 129.637 101.896C129.217 102.036 128.863 102.227 128.573 102.47L128.013 101.462C128.396 101.154 128.853 100.921 129.385 100.762C129.927 100.594 130.491 100.51 131.079 100.51C132.097 100.51 132.881 100.757 133.431 101.252C133.982 101.747 134.257 102.503 134.257 103.52V108H132.983ZM130.547 108.084C129.997 108.084 129.511 107.991 129.091 107.804C128.681 107.617 128.363 107.361 128.139 107.034C127.915 106.698 127.803 106.32 127.803 105.9C127.803 105.499 127.897 105.135 128.083 104.808C128.279 104.481 128.592 104.22 129.021 104.024C129.46 103.828 130.048 103.73 130.785 103.73H133.137V104.696H130.841C130.169 104.696 129.717 104.808 129.483 105.032C129.25 105.256 129.133 105.527 129.133 105.844C129.133 106.208 129.278 106.502 129.567 106.726C129.857 106.941 130.258 107.048 130.771 107.048C131.275 107.048 131.714 106.936 132.087 106.712C132.47 106.488 132.745 106.161 132.913 105.732L133.179 106.656C133.002 107.095 132.689 107.445 132.241 107.706C131.793 107.958 131.229 108.084 130.547 108.084ZM145.747 100.51C146.344 100.51 146.871 100.627 147.329 100.86C147.786 101.093 148.141 101.448 148.393 101.924C148.654 102.4 148.785 103.002 148.785 103.73V108H147.441V103.884C147.441 103.165 147.273 102.624 146.937 102.26C146.601 101.896 146.129 101.714 145.523 101.714C145.075 101.714 144.683 101.807 144.347 101.994C144.011 102.181 143.749 102.456 143.563 102.82C143.385 103.184 143.297 103.637 143.297 104.178V108H141.953V103.884C141.953 103.165 141.785 102.624 141.449 102.26C141.122 101.896 140.651 101.714 140.035 101.714C139.596 101.714 139.209 101.807 138.873 101.994C138.537 102.181 138.275 102.456 138.089 102.82C137.902 103.184 137.809 103.637 137.809 104.178V108H136.465V100.58H137.753V102.554L137.543 102.05C137.776 101.565 138.135 101.187 138.621 100.916C139.106 100.645 139.671 100.51 140.315 100.51C141.024 100.51 141.635 100.687 142.149 101.042C142.662 101.387 142.998 101.915 143.157 102.624L142.611 102.4C142.835 101.831 143.227 101.373 143.787 101.028C144.347 100.683 145 100.51 145.747 100.51ZM158.391 108.084C157.775 108.084 157.211 107.944 156.697 107.664C156.193 107.375 155.787 106.95 155.479 106.39C155.181 105.83 155.031 105.13 155.031 104.29C155.031 103.45 155.176 102.75 155.465 102.19C155.764 101.63 156.165 101.21 156.669 100.93C157.183 100.65 157.757 100.51 158.391 100.51C159.119 100.51 159.763 100.669 160.323 100.986C160.883 101.303 161.327 101.747 161.653 102.316C161.98 102.876 162.143 103.534 162.143 104.29C162.143 105.046 161.98 105.709 161.653 106.278C161.327 106.847 160.883 107.291 160.323 107.608C159.763 107.925 159.119 108.084 158.391 108.084ZM154.457 110.716V100.58H155.745V102.582L155.661 104.304L155.801 106.026V110.716H154.457ZM158.279 106.908C158.755 106.908 159.18 106.801 159.553 106.586C159.936 106.371 160.235 106.068 160.449 105.676C160.673 105.275 160.785 104.813 160.785 104.29C160.785 103.758 160.673 103.301 160.449 102.918C160.235 102.526 159.936 102.223 159.553 102.008C159.18 101.793 158.755 101.686 158.279 101.686C157.813 101.686 157.388 101.793 157.005 102.008C156.632 102.223 156.333 102.526 156.109 102.918C155.895 103.301 155.787 103.758 155.787 104.29C155.787 104.813 155.895 105.275 156.109 105.676C156.333 106.068 156.632 106.371 157.005 106.586C157.388 106.801 157.813 106.908 158.279 106.908ZM163.72 108V100.58H165.008V102.596L164.882 102.092C165.088 101.579 165.433 101.187 165.918 100.916C166.404 100.645 167.001 100.51 167.71 100.51V101.812C167.654 101.803 167.598 101.798 167.542 101.798C167.496 101.798 167.449 101.798 167.402 101.798C166.684 101.798 166.114 102.013 165.694 102.442C165.274 102.871 165.064 103.492 165.064 104.304V108H163.72ZM172.196 108.084C171.45 108.084 170.787 107.921 170.208 107.594C169.63 107.267 169.172 106.819 168.836 106.25C168.5 105.671 168.332 105.018 168.332 104.29C168.332 103.553 168.5 102.899 168.836 102.33C169.172 101.761 169.63 101.317 170.208 101C170.787 100.673 171.45 100.51 172.196 100.51C172.934 100.51 173.592 100.673 174.17 101C174.758 101.317 175.216 101.761 175.542 102.33C175.878 102.89 176.046 103.543 176.046 104.29C176.046 105.027 175.878 105.681 175.542 106.25C175.216 106.819 174.758 107.267 174.17 107.594C173.592 107.921 172.934 108.084 172.196 108.084ZM172.196 106.908C172.672 106.908 173.097 106.801 173.47 106.586C173.853 106.371 174.152 106.068 174.366 105.676C174.581 105.275 174.688 104.813 174.688 104.29C174.688 103.758 174.581 103.301 174.366 102.918C174.152 102.526 173.853 102.223 173.47 102.008C173.097 101.793 172.672 101.686 172.196 101.686C171.72 101.686 171.296 101.793 170.922 102.008C170.549 102.223 170.25 102.526 170.026 102.918C169.802 103.301 169.69 103.758 169.69 104.29C169.69 104.813 169.802 105.275 170.026 105.676C170.25 106.068 170.549 106.371 170.922 106.586C171.296 106.801 171.72 106.908 172.196 106.908ZM180.173 108.084C179.426 108.084 178.848 107.883 178.437 107.482C178.026 107.081 177.821 106.507 177.821 105.76V98.956H179.165V105.704C179.165 106.105 179.263 106.413 179.459 106.628C179.664 106.843 179.954 106.95 180.327 106.95C180.747 106.95 181.097 106.833 181.377 106.6L181.797 107.566C181.592 107.743 181.344 107.874 181.055 107.958C180.775 108.042 180.481 108.084 180.173 108.084ZM176.561 101.686V100.58H181.293V101.686H176.561ZM186.2 108.084C185.407 108.084 184.707 107.921 184.1 107.594C183.503 107.267 183.036 106.819 182.7 106.25C182.373 105.681 182.21 105.027 182.21 104.29C182.21 103.553 182.369 102.899 182.686 102.33C183.013 101.761 183.456 101.317 184.016 101C184.585 100.673 185.225 100.51 185.934 100.51C186.653 100.51 187.287 100.669 187.838 100.986C188.389 101.303 188.818 101.751 189.126 102.33C189.443 102.899 189.602 103.567 189.602 104.332C189.602 104.388 189.597 104.453 189.588 104.528C189.588 104.603 189.583 104.673 189.574 104.738H183.26V103.772H188.874L188.328 104.108C188.337 103.632 188.239 103.207 188.034 102.834C187.829 102.461 187.544 102.171 187.18 101.966C186.825 101.751 186.41 101.644 185.934 101.644C185.467 101.644 185.052 101.751 184.688 101.966C184.324 102.171 184.039 102.465 183.834 102.848C183.629 103.221 183.526 103.651 183.526 104.136V104.36C183.526 104.855 183.638 105.298 183.862 105.69C184.095 106.073 184.417 106.371 184.828 106.586C185.239 106.801 185.71 106.908 186.242 106.908C186.681 106.908 187.077 106.833 187.432 106.684C187.796 106.535 188.113 106.311 188.384 106.012L189.126 106.88C188.79 107.272 188.37 107.571 187.866 107.776C187.371 107.981 186.816 108.084 186.2 108.084ZM194.422 108.084C193.666 108.084 192.99 107.921 192.392 107.594C191.804 107.267 191.342 106.819 191.006 106.25C190.67 105.681 190.502 105.027 190.502 104.29C190.502 103.553 190.67 102.899 191.006 102.33C191.342 101.761 191.804 101.317 192.392 101C192.99 100.673 193.666 100.51 194.422 100.51C195.094 100.51 195.692 100.645 196.214 100.916C196.746 101.177 197.157 101.569 197.446 102.092L196.424 102.75C196.182 102.386 195.883 102.12 195.528 101.952C195.183 101.775 194.81 101.686 194.408 101.686C193.923 101.686 193.489 101.793 193.106 102.008C192.724 102.223 192.42 102.526 192.196 102.918C191.972 103.301 191.86 103.758 191.86 104.29C191.86 104.822 191.972 105.284 192.196 105.676C192.42 106.068 192.724 106.371 193.106 106.586C193.489 106.801 193.923 106.908 194.408 106.908C194.81 106.908 195.183 106.824 195.528 106.656C195.883 106.479 196.182 106.208 196.424 105.844L197.446 106.488C197.157 107.001 196.746 107.398 196.214 107.678C195.692 107.949 195.094 108.084 194.422 108.084ZM201.55 108.084C200.803 108.084 200.225 107.883 199.814 107.482C199.403 107.081 199.198 106.507 199.198 105.76V98.956H200.542V105.704C200.542 106.105 200.64 106.413 200.836 106.628C201.041 106.843 201.331 106.95 201.704 106.95C202.124 106.95 202.474 106.833 202.754 106.6L203.174 107.566C202.969 107.743 202.721 107.874 202.432 107.958C202.152 108.042 201.858 108.084 201.55 108.084ZM197.938 101.686V100.58H202.67V101.686H197.938ZM204.519 108V100.58H205.863V108H204.519ZM205.191 99.152C204.93 99.152 204.71 99.068 204.533 98.9C204.365 98.732 204.281 98.5267 204.281 98.284C204.281 98.032 204.365 97.822 204.533 97.654C204.71 97.486 204.93 97.402 205.191 97.402C205.452 97.402 205.667 97.486 205.835 97.654C206.012 97.8127 206.101 98.0133 206.101 98.256C206.101 98.508 206.017 98.7227 205.849 98.9C205.681 99.068 205.462 99.152 205.191 99.152ZM211.327 108.084C210.58 108.084 209.918 107.921 209.339 107.594C208.76 107.267 208.303 106.819 207.967 106.25C207.631 105.671 207.463 105.018 207.463 104.29C207.463 103.553 207.631 102.899 207.967 102.33C208.303 101.761 208.76 101.317 209.339 101C209.918 100.673 210.58 100.51 211.327 100.51C212.064 100.51 212.722 100.673 213.301 101C213.889 101.317 214.346 101.761 214.673 102.33C215.009 102.89 215.177 103.543 215.177 104.29C215.177 105.027 215.009 105.681 214.673 106.25C214.346 106.819 213.889 107.267 213.301 107.594C212.722 107.921 212.064 108.084 211.327 108.084ZM211.327 106.908C211.803 106.908 212.228 106.801 212.601 106.586C212.984 106.371 213.282 106.068 213.497 105.676C213.712 105.275 213.819 104.813 213.819 104.29C213.819 103.758 213.712 103.301 213.497 102.918C213.282 102.526 212.984 102.223 212.601 102.008C212.228 101.793 211.803 101.686 211.327 101.686C210.851 101.686 210.426 101.793 210.053 102.008C209.68 102.223 209.381 102.526 209.157 102.918C208.933 103.301 208.821 103.758 208.821 104.29C208.821 104.813 208.933 105.275 209.157 105.676C209.381 106.068 209.68 106.371 210.053 106.586C210.426 106.801 210.851 106.908 211.327 106.908ZM220.718 100.51C221.324 100.51 221.856 100.627 222.314 100.86C222.78 101.093 223.144 101.448 223.406 101.924C223.667 102.4 223.798 103.002 223.798 103.73V108H222.454V103.884C222.454 103.165 222.276 102.624 221.922 102.26C221.576 101.896 221.086 101.714 220.452 101.714C219.976 101.714 219.56 101.807 219.206 101.994C218.851 102.181 218.576 102.456 218.38 102.82C218.193 103.184 218.1 103.637 218.1 104.178V108H216.756V100.58H218.044V102.582L217.834 102.05C218.076 101.565 218.45 101.187 218.954 100.916C219.458 100.645 220.046 100.51 220.718 100.51ZM234.091 108V106.432L234.021 106.138V103.464C234.021 102.895 233.853 102.456 233.517 102.148C233.19 101.831 232.695 101.672 232.033 101.672C231.594 101.672 231.165 101.747 230.745 101.896C230.325 102.036 229.97 102.227 229.681 102.47L229.121 101.462C229.503 101.154 229.961 100.921 230.493 100.762C231.034 100.594 231.599 100.51 232.187 100.51C233.204 100.51 233.988 100.757 234.539 101.252C235.089 101.747 235.365 102.503 235.365 103.52V108H234.091ZM231.655 108.084C231.104 108.084 230.619 107.991 230.199 107.804C229.788 107.617 229.471 107.361 229.247 107.034C229.023 106.698 228.911 106.32 228.911 105.9C228.911 105.499 229.004 105.135 229.191 104.808C229.387 104.481 229.699 104.22 230.129 104.024C230.567 103.828 231.155 103.73 231.893 103.73H234.245V104.696H231.949C231.277 104.696 230.824 104.808 230.591 105.032C230.357 105.256 230.241 105.527 230.241 105.844C230.241 106.208 230.385 106.502 230.675 106.726C230.964 106.941 231.365 107.048 231.879 107.048C232.383 107.048 232.821 106.936 233.195 106.712C233.577 106.488 233.853 106.161 234.021 105.732L234.287 106.656C234.109 107.095 233.797 107.445 233.349 107.706C232.901 107.958 232.336 108.084 231.655 108.084ZM237.572 108V97.612H238.916V108H237.572ZM244.45 110.8C243.769 110.8 243.106 110.702 242.462 110.506C241.827 110.319 241.309 110.049 240.908 109.694L241.552 108.658C241.897 108.957 242.322 109.19 242.826 109.358C243.33 109.535 243.857 109.624 244.408 109.624C245.285 109.624 245.929 109.419 246.34 109.008C246.751 108.597 246.956 107.972 246.956 107.132V105.564L247.096 104.094L247.026 102.61V100.58H248.3V106.992C248.3 108.299 247.973 109.26 247.32 109.876C246.667 110.492 245.71 110.8 244.45 110.8ZM244.282 107.692C243.563 107.692 242.919 107.543 242.35 107.244C241.79 106.936 241.342 106.511 241.006 105.97C240.679 105.429 240.516 104.803 240.516 104.094C240.516 103.375 240.679 102.75 241.006 102.218C241.342 101.677 241.79 101.257 242.35 100.958C242.919 100.659 243.563 100.51 244.282 100.51C244.917 100.51 245.495 100.641 246.018 100.902C246.541 101.154 246.956 101.546 247.264 102.078C247.581 102.61 247.74 103.282 247.74 104.094C247.74 104.897 247.581 105.564 247.264 106.096C246.956 106.628 246.541 107.029 246.018 107.3C245.495 107.561 244.917 107.692 244.282 107.692ZM244.436 106.516C244.931 106.516 245.369 106.413 245.752 106.208C246.135 106.003 246.433 105.718 246.648 105.354C246.872 104.99 246.984 104.57 246.984 104.094C246.984 103.618 246.872 103.198 246.648 102.834C246.433 102.47 246.135 102.19 245.752 101.994C245.369 101.789 244.931 101.686 244.436 101.686C243.941 101.686 243.498 101.789 243.106 101.994C242.723 102.19 242.42 102.47 242.196 102.834C241.981 103.198 241.874 103.618 241.874 104.094C241.874 104.57 241.981 104.99 242.196 105.354C242.42 105.718 242.723 106.003 243.106 106.208C243.498 106.413 243.941 106.516 244.436 106.516ZM253.766 108.084C253.019 108.084 252.357 107.921 251.778 107.594C251.199 107.267 250.742 106.819 250.406 106.25C250.07 105.671 249.902 105.018 249.902 104.29C249.902 103.553 250.07 102.899 250.406 102.33C250.742 101.761 251.199 101.317 251.778 101C252.357 100.673 253.019 100.51 253.766 100.51C254.503 100.51 255.161 100.673 255.74 101C256.328 101.317 256.785 101.761 257.112 102.33C257.448 102.89 257.616 103.543 257.616 104.29C257.616 105.027 257.448 105.681 257.112 106.25C256.785 106.819 256.328 107.267 255.74 107.594C255.161 107.921 254.503 108.084 253.766 108.084ZM253.766 106.908C254.242 106.908 254.667 106.801 255.04 106.586C255.423 106.371 255.721 106.068 255.936 105.676C256.151 105.275 256.258 104.813 256.258 104.29C256.258 103.758 256.151 103.301 255.936 102.918C255.721 102.526 255.423 102.223 255.04 102.008C254.667 101.793 254.242 101.686 253.766 101.686C253.29 101.686 252.865 101.793 252.492 102.008C252.119 102.223 251.82 102.526 251.596 102.918C251.372 103.301 251.26 103.758 251.26 104.29C251.26 104.813 251.372 105.275 251.596 105.676C251.82 106.068 252.119 106.371 252.492 106.586C252.865 106.801 253.29 106.908 253.766 106.908ZM259.195 108V100.58H260.483V102.596L260.357 102.092C260.562 101.579 260.908 101.187 261.393 100.916C261.878 100.645 262.476 100.51 263.185 100.51V101.812C263.129 101.803 263.073 101.798 263.017 101.798C262.97 101.798 262.924 101.798 262.877 101.798C262.158 101.798 261.589 102.013 261.169 102.442C260.749 102.871 260.539 103.492 260.539 104.304V108H259.195ZM264.561 108V100.58H265.905V108H264.561ZM265.233 99.152C264.972 99.152 264.753 99.068 264.575 98.9C264.407 98.732 264.323 98.5267 264.323 98.284C264.323 98.032 264.407 97.822 264.575 97.654C264.753 97.486 264.972 97.402 265.233 97.402C265.495 97.402 265.709 97.486 265.877 97.654C266.055 97.8127 266.143 98.0133 266.143 98.256C266.143 98.508 266.059 98.7227 265.891 98.9C265.723 99.068 265.504 99.152 265.233 99.152ZM270.739 108.084C269.993 108.084 269.414 107.883 269.003 107.482C268.593 107.081 268.387 106.507 268.387 105.76V98.956H269.731V105.704C269.731 106.105 269.829 106.413 270.025 106.628C270.231 106.843 270.52 106.95 270.893 106.95C271.313 106.95 271.663 106.833 271.943 106.6L272.363 107.566C272.158 107.743 271.911 107.874 271.621 107.958C271.341 108.042 271.047 108.084 270.739 108.084ZM267.127 101.686V100.58H271.859V101.686H267.127ZM277.67 100.51C278.277 100.51 278.809 100.627 279.266 100.86C279.733 101.093 280.097 101.448 280.358 101.924C280.62 102.4 280.75 103.002 280.75 103.73V108H279.406V103.884C279.406 103.165 279.229 102.624 278.874 102.26C278.529 101.896 278.039 101.714 277.404 101.714C276.928 101.714 276.513 101.807 276.158 101.994C275.804 102.181 275.528 102.456 275.332 102.82C275.146 103.184 275.052 103.637 275.052 104.178V108H273.708V97.612H275.052V102.582L274.786 102.05C275.029 101.565 275.402 101.187 275.906 100.916C276.41 100.645 276.998 100.51 277.67 100.51ZM292.24 100.51C292.837 100.51 293.364 100.627 293.822 100.86C294.279 101.093 294.634 101.448 294.886 101.924C295.147 102.4 295.278 103.002 295.278 103.73V108H293.934V103.884C293.934 103.165 293.766 102.624 293.43 102.26C293.094 101.896 292.622 101.714 292.016 101.714C291.568 101.714 291.176 101.807 290.84 101.994C290.504 102.181 290.242 102.456 290.056 102.82C289.878 103.184 289.79 103.637 289.79 104.178V108H288.446V103.884C288.446 103.165 288.278 102.624 287.942 102.26C287.615 101.896 287.144 101.714 286.528 101.714C286.089 101.714 285.702 101.807 285.366 101.994C285.03 102.181 284.768 102.456 284.582 102.82C284.395 103.184 284.302 103.637 284.302 104.178V108H282.958V100.58H284.246V102.554L284.036 102.05C284.269 101.565 284.628 101.187 285.114 100.916C285.599 100.645 286.164 100.51 286.808 100.51C287.517 100.51 288.128 100.687 288.642 101.042C289.155 101.387 289.491 101.915 289.65 102.624L289.104 102.4C289.328 101.831 289.72 101.373 290.28 101.028C290.84 100.683 291.493 100.51 292.24 100.51ZM299.599 108.084C298.983 108.084 298.395 108 297.835 107.832C297.284 107.664 296.85 107.459 296.533 107.216L297.093 106.152C297.41 106.367 297.802 106.549 298.269 106.698C298.735 106.847 299.211 106.922 299.697 106.922C300.322 106.922 300.77 106.833 301.041 106.656C301.321 106.479 301.461 106.231 301.461 105.914C301.461 105.681 301.377 105.499 301.209 105.368C301.041 105.237 300.817 105.139 300.537 105.074C300.266 105.009 299.963 104.953 299.627 104.906C299.291 104.85 298.955 104.785 298.619 104.71C298.283 104.626 297.975 104.514 297.695 104.374C297.415 104.225 297.191 104.024 297.023 103.772C296.855 103.511 296.771 103.165 296.771 102.736C296.771 102.288 296.897 101.896 297.149 101.56C297.401 101.224 297.755 100.967 298.213 100.79C298.679 100.603 299.23 100.51 299.865 100.51C300.35 100.51 300.84 100.571 301.335 100.692C301.839 100.804 302.249 100.967 302.567 101.182L301.993 102.246C301.657 102.022 301.307 101.868 300.943 101.784C300.579 101.7 300.215 101.658 299.851 101.658C299.263 101.658 298.824 101.756 298.535 101.952C298.245 102.139 298.101 102.381 298.101 102.68C298.101 102.932 298.185 103.128 298.353 103.268C298.53 103.399 298.754 103.501 299.025 103.576C299.305 103.651 299.613 103.716 299.949 103.772C300.285 103.819 300.621 103.884 300.957 103.968C301.293 104.043 301.596 104.15 301.867 104.29C302.147 104.43 302.371 104.626 302.539 104.878C302.716 105.13 302.805 105.466 302.805 105.886C302.805 106.334 302.674 106.721 302.413 107.048C302.151 107.375 301.783 107.631 301.307 107.818C300.831 107.995 300.261 108.084 299.599 108.084ZM307.88 108V99.922C307.88 99.194 308.09 98.6153 308.51 98.186C308.939 97.7473 309.546 97.528 310.33 97.528C310.619 97.528 310.895 97.5653 311.156 97.64C311.427 97.7053 311.655 97.8127 311.842 97.962L311.436 98.984C311.296 98.872 311.137 98.788 310.96 98.732C310.783 98.6667 310.596 98.634 310.4 98.634C310.008 98.634 309.709 98.746 309.504 98.97C309.299 99.1847 309.196 99.5067 309.196 99.936V100.93L309.224 101.546V108H307.88ZM306.62 101.686V100.58H311.352V101.686H306.62ZM315.408 108.084C314.662 108.084 313.999 107.921 313.42 107.594C312.842 107.267 312.384 106.819 312.048 106.25C311.712 105.671 311.544 105.018 311.544 104.29C311.544 103.553 311.712 102.899 312.048 102.33C312.384 101.761 312.842 101.317 313.42 101C313.999 100.673 314.662 100.51 315.408 100.51C316.146 100.51 316.804 100.673 317.382 101C317.97 101.317 318.428 101.761 318.754 102.33C319.09 102.89 319.258 103.543 319.258 104.29C319.258 105.027 319.09 105.681 318.754 106.25C318.428 106.819 317.97 107.267 317.382 107.594C316.804 107.921 316.146 108.084 315.408 108.084ZM315.408 106.908C315.884 106.908 316.309 106.801 316.682 106.586C317.065 106.371 317.364 106.068 317.578 105.676C317.793 105.275 317.9 104.813 317.9 104.29C317.9 103.758 317.793 103.301 317.578 102.918C317.364 102.526 317.065 102.223 316.682 102.008C316.309 101.793 315.884 101.686 315.408 101.686C314.932 101.686 314.508 101.793 314.134 102.008C313.761 102.223 313.462 102.526 313.238 102.918C313.014 103.301 312.902 103.758 312.902 104.29C312.902 104.813 313.014 105.275 313.238 105.676C313.462 106.068 313.761 106.371 314.134 106.586C314.508 106.801 314.932 106.908 315.408 106.908ZM320.837 108V100.58H322.125V102.596L321.999 102.092C322.204 101.579 322.55 101.187 323.035 100.916C323.52 100.645 324.118 100.51 324.827 100.51V101.812C324.771 101.803 324.715 101.798 324.659 101.798C324.612 101.798 324.566 101.798 324.519 101.798C323.8 101.798 323.231 102.013 322.811 102.442C322.391 102.871 322.181 103.492 322.181 104.304V108H320.837ZM28.578 129.084C27.7847 129.084 27.0847 128.921 26.478 128.594C25.8807 128.267 25.414 127.819 25.078 127.25C24.7513 126.681 24.588 126.027 24.588 125.29C24.588 124.553 24.7467 123.899 25.064 123.33C25.3907 122.761 25.834 122.317 26.394 122C26.9633 121.673 27.6027 121.51 28.312 121.51C29.0307 121.51 29.6653 121.669 30.216 121.986C30.7667 122.303 31.196 122.751 31.504 123.33C31.8213 123.899 31.98 124.567 31.98 125.332C31.98 125.388 31.9753 125.453 31.966 125.528C31.966 125.603 31.9613 125.673 31.952 125.738H25.638V124.772H31.252L30.706 125.108C30.7153 124.632 30.6173 124.207 30.412 123.834C30.2067 123.461 29.922 123.171 29.558 122.966C29.2033 122.751 28.788 122.644 28.312 122.644C27.8453 122.644 27.43 122.751 27.066 122.966C26.702 123.171 26.4173 123.465 26.212 123.848C26.0067 124.221 25.904 124.651 25.904 125.136V125.36C25.904 125.855 26.016 126.298 26.24 126.69C26.4733 127.073 26.7953 127.371 27.206 127.586C27.6167 127.801 28.088 127.908 28.62 127.908C29.0587 127.908 29.4553 127.833 29.81 127.684C30.174 127.535 30.4913 127.311 30.762 127.012L31.504 127.88C31.168 128.272 30.748 128.571 30.244 128.776C29.7493 128.981 29.194 129.084 28.578 129.084ZM35.3755 129L32.1275 121.58H33.5275L36.4115 128.3H35.7395L38.6795 121.58H39.9955L36.7475 129H35.3755ZM44.0688 129.084C43.2754 129.084 42.5754 128.921 41.9688 128.594C41.3714 128.267 40.9048 127.819 40.5688 127.25C40.2421 126.681 40.0788 126.027 40.0788 125.29C40.0788 124.553 40.2374 123.899 40.5548 123.33C40.8814 122.761 41.3248 122.317 41.8848 122C42.4541 121.673 43.0934 121.51 43.8028 121.51C44.5214 121.51 45.1561 121.669 45.7068 121.986C46.2574 122.303 46.6868 122.751 46.9948 123.33C47.3121 123.899 47.4708 124.567 47.4708 125.332C47.4708 125.388 47.4661 125.453 47.4568 125.528C47.4568 125.603 47.4521 125.673 47.4428 125.738H41.1288V124.772H46.7428L46.1968 125.108C46.2061 124.632 46.1081 124.207 45.9028 123.834C45.6974 123.461 45.4128 123.171 45.0488 122.966C44.6941 122.751 44.2788 122.644 43.8028 122.644C43.3361 122.644 42.9208 122.751 42.5568 122.966C42.1928 123.171 41.9081 123.465 41.7028 123.848C41.4974 124.221 41.3948 124.651 41.3948 125.136V125.36C41.3948 125.855 41.5068 126.298 41.7308 126.69C41.9641 127.073 42.2861 127.371 42.6968 127.586C43.1074 127.801 43.5788 127.908 44.1108 127.908C44.5494 127.908 44.9461 127.833 45.3008 127.684C45.6648 127.535 45.9821 127.311 46.2528 127.012L46.9948 127.88C46.6588 128.272 46.2388 128.571 45.7348 128.776C45.2401 128.981 44.6848 129.084 44.0688 129.084ZM53.019 121.51C53.6257 121.51 54.1577 121.627 54.615 121.86C55.0817 122.093 55.4457 122.448 55.707 122.924C55.9684 123.4 56.099 124.002 56.099 124.73V129H54.755V124.884C54.755 124.165 54.5777 123.624 54.223 123.26C53.8777 122.896 53.3877 122.714 52.753 122.714C52.277 122.714 51.8617 122.807 51.507 122.994C51.1524 123.181 50.877 123.456 50.681 123.82C50.4944 124.184 50.401 124.637 50.401 125.178V129H49.057V121.58H50.345V123.582L50.135 123.05C50.3777 122.565 50.751 122.187 51.255 121.916C51.759 121.645 52.347 121.51 53.019 121.51ZM71.0681 121.51C71.6654 121.51 72.1928 121.627 72.6501 121.86C73.1074 122.093 73.4621 122.448 73.7141 122.924C73.9754 123.4 74.1061 124.002 74.1061 124.73V129H72.7621V124.884C72.7621 124.165 72.5941 123.624 72.2581 123.26C71.9221 122.896 71.4508 122.714 70.8441 122.714C70.3961 122.714 70.0041 122.807 69.6681 122.994C69.3321 123.181 69.0708 123.456 68.8841 123.82C68.7068 124.184 68.6181 124.637 68.6181 125.178V129H67.2741V124.884C67.2741 124.165 67.1061 123.624 66.7701 123.26C66.4434 122.896 65.9721 122.714 65.3561 122.714C64.9174 122.714 64.5301 122.807 64.1941 122.994C63.8581 123.181 63.5968 123.456 63.4101 123.82C63.2234 124.184 63.1301 124.637 63.1301 125.178V129H61.7861V121.58H63.0741V123.554L62.8641 123.05C63.0974 122.565 63.4568 122.187 63.9421 121.916C64.4274 121.645 64.9921 121.51 65.6361 121.51C66.3454 121.51 66.9568 121.687 67.4701 122.042C67.9834 122.387 68.3194 122.915 68.4781 123.624L67.9321 123.4C68.1561 122.831 68.5481 122.373 69.1081 122.028C69.6681 121.683 70.3214 121.51 71.0681 121.51ZM79.4771 129.084C78.7304 129.084 78.0677 128.921 77.4891 128.594C76.9104 128.267 76.4531 127.819 76.1171 127.25C75.7811 126.671 75.6131 126.018 75.6131 125.29C75.6131 124.553 75.7811 123.899 76.1171 123.33C76.4531 122.761 76.9104 122.317 77.4891 122C78.0677 121.673 78.7304 121.51 79.4771 121.51C80.2144 121.51 80.8724 121.673 81.4511 122C82.0391 122.317 82.4964 122.761 82.8231 123.33C83.1591 123.89 83.3271 124.543 83.3271 125.29C83.3271 126.027 83.1591 126.681 82.8231 127.25C82.4964 127.819 82.0391 128.267 81.4511 128.594C80.8724 128.921 80.2144 129.084 79.4771 129.084ZM79.4771 127.908C79.9531 127.908 80.3777 127.801 80.7511 127.586C81.1337 127.371 81.4324 127.068 81.6471 126.676C81.8617 126.275 81.9691 125.813 81.9691 125.29C81.9691 124.758 81.8617 124.301 81.6471 123.918C81.4324 123.526 81.1337 123.223 80.7511 123.008C80.3777 122.793 79.9531 122.686 79.4771 122.686C79.0011 122.686 78.5764 122.793 78.2031 123.008C77.8297 123.223 77.5311 123.526 77.3071 123.918C77.0831 124.301 76.9711 124.758 76.9711 125.29C76.9711 125.813 77.0831 126.275 77.3071 126.676C77.5311 127.068 77.8297 127.371 78.2031 127.586C78.5764 127.801 79.0011 127.908 79.4771 127.908ZM84.9058 129V121.58H86.1938V123.596L86.0678 123.092C86.2731 122.579 86.6185 122.187 87.1038 121.916C87.5891 121.645 88.1865 121.51 88.8958 121.51V122.812C88.8398 122.803 88.7838 122.798 88.7278 122.798C88.6811 122.798 88.6345 122.798 88.5878 122.798C87.8691 122.798 87.2998 123.013 86.8798 123.442C86.4598 123.871 86.2498 124.492 86.2498 125.304V129H84.9058ZM93.5079 129.084C92.7146 129.084 92.0146 128.921 91.4079 128.594C90.8106 128.267 90.3439 127.819 90.0079 127.25C89.6813 126.681 89.5179 126.027 89.5179 125.29C89.5179 124.553 89.6766 123.899 89.9939 123.33C90.3206 122.761 90.7639 122.317 91.3239 122C91.8933 121.673 92.5326 121.51 93.2419 121.51C93.9606 121.51 94.5953 121.669 95.1459 121.986C95.6966 122.303 96.1259 122.751 96.4339 123.33C96.7513 123.899 96.9099 124.567 96.9099 125.332C96.9099 125.388 96.9053 125.453 96.8959 125.528C96.8959 125.603 96.8913 125.673 96.8819 125.738H90.5679V124.772H96.1819L95.6359 125.108C95.6453 124.632 95.5473 124.207 95.3419 123.834C95.1366 123.461 94.8519 123.171 94.4879 122.966C94.1333 122.751 93.7179 122.644 93.2419 122.644C92.7753 122.644 92.3599 122.751 91.9959 122.966C91.6319 123.171 91.3473 123.465 91.1419 123.848C90.9366 124.221 90.8339 124.651 90.8339 125.136V125.36C90.8339 125.855 90.9459 126.298 91.1699 126.69C91.4033 127.073 91.7253 127.371 92.1359 127.586C92.5466 127.801 93.0179 127.908 93.5499 127.908C93.9886 127.908 94.3853 127.833 94.7399 127.684C95.1039 127.535 95.4213 127.311 95.6919 127.012L96.4339 127.88C96.0979 128.272 95.6779 128.571 95.1739 128.776C94.6793 128.981 94.1239 129.084 93.5079 129.084ZM106.582 129V127.432L106.512 127.138V124.464C106.512 123.895 106.344 123.456 106.008 123.148C105.681 122.831 105.187 122.672 104.524 122.672C104.085 122.672 103.656 122.747 103.236 122.896C102.816 123.036 102.461 123.227 102.172 123.47L101.612 122.462C101.995 122.154 102.452 121.921 102.984 121.762C103.525 121.594 104.09 121.51 104.678 121.51C105.695 121.51 106.479 121.757 107.03 122.252C107.581 122.747 107.856 123.503 107.856 124.52V129H106.582ZM104.146 129.084C103.595 129.084 103.11 128.991 102.69 128.804C102.279 128.617 101.962 128.361 101.738 128.034C101.514 127.698 101.402 127.32 101.402 126.9C101.402 126.499 101.495 126.135 101.682 125.808C101.878 125.481 102.191 125.22 102.62 125.024C103.059 124.828 103.647 124.73 104.384 124.73H106.736V125.696H104.44C103.768 125.696 103.315 125.808 103.082 126.032C102.849 126.256 102.732 126.527 102.732 126.844C102.732 127.208 102.877 127.502 103.166 127.726C103.455 127.941 103.857 128.048 104.37 128.048C104.874 128.048 105.313 127.936 105.686 127.712C106.069 127.488 106.344 127.161 106.512 126.732L106.778 127.656C106.601 128.095 106.288 128.445 105.84 128.706C105.392 128.958 104.827 129.084 104.146 129.084ZM113.297 129.084C112.541 129.084 111.864 128.921 111.267 128.594C110.679 128.267 110.217 127.819 109.881 127.25C109.545 126.681 109.377 126.027 109.377 125.29C109.377 124.553 109.545 123.899 109.881 123.33C110.217 122.761 110.679 122.317 111.267 122C111.864 121.673 112.541 121.51 113.297 121.51C113.969 121.51 114.566 121.645 115.089 121.916C115.621 122.177 116.032 122.569 116.321 123.092L115.299 123.75C115.056 123.386 114.758 123.12 114.403 122.952C114.058 122.775 113.684 122.686 113.283 122.686C112.798 122.686 112.364 122.793 111.981 123.008C111.598 123.223 111.295 123.526 111.071 123.918C110.847 124.301 110.735 124.758 110.735 125.29C110.735 125.822 110.847 126.284 111.071 126.676C111.295 127.068 111.598 127.371 111.981 127.586C112.364 127.801 112.798 127.908 113.283 127.908C113.684 127.908 114.058 127.824 114.403 127.656C114.758 127.479 115.056 127.208 115.299 126.844L116.321 127.488C116.032 128.001 115.621 128.398 115.089 128.678C114.566 128.949 113.969 129.084 113.297 129.084ZM120.906 129.084C120.15 129.084 119.473 128.921 118.876 128.594C118.288 128.267 117.826 127.819 117.49 127.25C117.154 126.681 116.986 126.027 116.986 125.29C116.986 124.553 117.154 123.899 117.49 123.33C117.826 122.761 118.288 122.317 118.876 122C119.473 121.673 120.15 121.51 120.906 121.51C121.578 121.51 122.175 121.645 122.698 121.916C123.23 122.177 123.64 122.569 123.93 123.092L122.908 123.75C122.665 123.386 122.366 123.12 122.012 122.952C121.666 122.775 121.293 122.686 120.892 122.686C120.406 122.686 119.972 122.793 119.59 123.008C119.207 123.223 118.904 123.526 118.68 123.918C118.456 124.301 118.344 124.758 118.344 125.29C118.344 125.822 118.456 126.284 118.68 126.676C118.904 127.068 119.207 127.371 119.59 127.586C119.972 127.801 120.406 127.908 120.892 127.908C121.293 127.908 121.666 127.824 122.012 127.656C122.366 127.479 122.665 127.208 122.908 126.844L123.93 127.488C123.64 128.001 123.23 128.398 122.698 128.678C122.175 128.949 121.578 129.084 120.906 129.084ZM128.512 129.084C127.877 129.084 127.317 128.967 126.832 128.734C126.356 128.501 125.983 128.146 125.712 127.67C125.451 127.185 125.32 126.578 125.32 125.85V121.58H126.664V125.696C126.664 126.424 126.837 126.97 127.182 127.334C127.537 127.698 128.031 127.88 128.666 127.88C129.133 127.88 129.539 127.787 129.884 127.6C130.229 127.404 130.495 127.124 130.682 126.76C130.869 126.387 130.962 125.939 130.962 125.416V121.58H132.306V129H131.032V126.998L131.242 127.53C130.999 128.025 130.635 128.407 130.15 128.678C129.665 128.949 129.119 129.084 128.512 129.084ZM134.584 129V121.58H135.872V123.596L135.746 123.092C135.952 122.579 136.297 122.187 136.782 121.916C137.268 121.645 137.865 121.51 138.574 121.51V122.812C138.518 122.803 138.462 122.798 138.406 122.798C138.36 122.798 138.313 122.798 138.266 122.798C137.548 122.798 136.978 123.013 136.558 123.442C136.138 123.871 135.928 124.492 135.928 125.304V129H134.584ZM144.01 129V127.432L143.94 127.138V124.464C143.94 123.895 143.772 123.456 143.436 123.148C143.109 122.831 142.615 122.672 141.952 122.672C141.513 122.672 141.084 122.747 140.664 122.896C140.244 123.036 139.889 123.227 139.6 123.47L139.04 122.462C139.423 122.154 139.88 121.921 140.412 121.762C140.953 121.594 141.518 121.51 142.106 121.51C143.123 121.51 143.907 121.757 144.458 122.252C145.009 122.747 145.284 123.503 145.284 124.52V129H144.01ZM141.574 129.084C141.023 129.084 140.538 128.991 140.118 128.804C139.707 128.617 139.39 128.361 139.166 128.034C138.942 127.698 138.83 127.32 138.83 126.9C138.83 126.499 138.923 126.135 139.11 125.808C139.306 125.481 139.619 125.22 140.048 125.024C140.487 124.828 141.075 124.73 141.812 124.73H144.164V125.696H141.868C141.196 125.696 140.743 125.808 140.51 126.032C140.277 126.256 140.16 126.527 140.16 126.844C140.16 127.208 140.305 127.502 140.594 127.726C140.883 127.941 141.285 128.048 141.798 128.048C142.302 128.048 142.741 127.936 143.114 127.712C143.497 127.488 143.772 127.161 143.94 126.732L144.206 127.656C144.029 128.095 143.716 128.445 143.268 128.706C142.82 128.958 142.255 129.084 141.574 129.084ZM150.039 129.084C149.293 129.084 148.714 128.883 148.303 128.482C147.893 128.081 147.687 127.507 147.687 126.76V119.956H149.031V126.704C149.031 127.105 149.129 127.413 149.325 127.628C149.531 127.843 149.82 127.95 150.193 127.95C150.613 127.95 150.963 127.833 151.243 127.6L151.663 128.566C151.458 128.743 151.211 128.874 150.921 128.958C150.641 129.042 150.347 129.084 150.039 129.084ZM146.427 122.686V121.58H151.159V122.686H146.427ZM156.066 129.084C155.273 129.084 154.573 128.921 153.966 128.594C153.369 128.267 152.902 127.819 152.566 127.25C152.239 126.681 152.076 126.027 152.076 125.29C152.076 124.553 152.235 123.899 152.552 123.33C152.879 122.761 153.322 122.317 153.882 122C154.451 121.673 155.091 121.51 155.8 121.51C156.519 121.51 157.153 121.669 157.704 121.986C158.255 122.303 158.684 122.751 158.992 123.33C159.309 123.899 159.468 124.567 159.468 125.332C159.468 125.388 159.463 125.453 159.454 125.528C159.454 125.603 159.449 125.673 159.44 125.738H153.126V124.772H158.74L158.194 125.108C158.203 124.632 158.105 124.207 157.9 123.834C157.695 123.461 157.41 123.171 157.046 122.966C156.691 122.751 156.276 122.644 155.8 122.644C155.333 122.644 154.918 122.751 154.554 122.966C154.19 123.171 153.905 123.465 153.7 123.848C153.495 124.221 153.392 124.651 153.392 125.136V125.36C153.392 125.855 153.504 126.298 153.728 126.69C153.961 127.073 154.283 127.371 154.694 127.586C155.105 127.801 155.576 127.908 156.108 127.908C156.547 127.908 156.943 127.833 157.298 127.684C157.662 127.535 157.979 127.311 158.25 127.012L158.992 127.88C158.656 128.272 158.236 128.571 157.732 128.776C157.237 128.981 156.682 129.084 156.066 129.084ZM164.73 129V120.922C164.73 120.194 164.94 119.615 165.36 119.186C165.789 118.747 166.396 118.528 167.18 118.528C167.469 118.528 167.745 118.565 168.006 118.64C168.277 118.705 168.505 118.813 168.692 118.962L168.286 119.984C168.146 119.872 167.987 119.788 167.81 119.732C167.633 119.667 167.446 119.634 167.25 119.634C166.858 119.634 166.559 119.746 166.354 119.97C166.149 120.185 166.046 120.507 166.046 120.936V121.93L166.074 122.546V129H164.73ZM163.47 122.686V121.58H168.202V122.686H163.47ZM169.476 129V121.58H170.82V129H169.476ZM170.148 120.152C169.887 120.152 169.667 120.068 169.49 119.9C169.322 119.732 169.238 119.527 169.238 119.284C169.238 119.032 169.322 118.822 169.49 118.654C169.667 118.486 169.887 118.402 170.148 118.402C170.409 118.402 170.624 118.486 170.792 118.654C170.969 118.813 171.058 119.013 171.058 119.256C171.058 119.508 170.974 119.723 170.806 119.9C170.638 120.068 170.419 120.152 170.148 120.152ZM173.1 129V118.612H174.444V129H173.1ZM179.469 129.084C178.723 129.084 178.144 128.883 177.733 128.482C177.323 128.081 177.117 127.507 177.117 126.76V119.956H178.461V126.704C178.461 127.105 178.559 127.413 178.755 127.628C178.961 127.843 179.25 127.95 179.623 127.95C180.043 127.95 180.393 127.833 180.673 127.6L181.093 128.566C180.888 128.743 180.641 128.874 180.351 128.958C180.071 129.042 179.777 129.084 179.469 129.084ZM175.857 122.686V121.58H180.589V122.686H175.857ZM185.496 129.084C184.703 129.084 184.003 128.921 183.396 128.594C182.799 128.267 182.332 127.819 181.996 127.25C181.669 126.681 181.506 126.027 181.506 125.29C181.506 124.553 181.665 123.899 181.982 123.33C182.309 122.761 182.752 122.317 183.312 122C183.881 121.673 184.521 121.51 185.23 121.51C185.949 121.51 186.583 121.669 187.134 121.986C187.685 122.303 188.114 122.751 188.422 123.33C188.739 123.899 188.898 124.567 188.898 125.332C188.898 125.388 188.893 125.453 188.884 125.528C188.884 125.603 188.879 125.673 188.87 125.738H182.556V124.772H188.17L187.624 125.108C187.633 124.632 187.535 124.207 187.33 123.834C187.125 123.461 186.84 123.171 186.476 122.966C186.121 122.751 185.706 122.644 185.23 122.644C184.763 122.644 184.348 122.751 183.984 122.966C183.62 123.171 183.335 123.465 183.13 123.848C182.925 124.221 182.822 124.651 182.822 125.136V125.36C182.822 125.855 182.934 126.298 183.158 126.69C183.391 127.073 183.713 127.371 184.124 127.586C184.535 127.801 185.006 127.908 185.538 127.908C185.977 127.908 186.373 127.833 186.728 127.684C187.092 127.535 187.409 127.311 187.68 127.012L188.422 127.88C188.086 128.272 187.666 128.571 187.162 128.776C186.667 128.981 186.112 129.084 185.496 129.084ZM190.484 129V121.58H191.772V123.596L191.646 123.092C191.852 122.579 192.197 122.187 192.682 121.916C193.168 121.645 193.765 121.51 194.474 121.51V122.812C194.418 122.803 194.362 122.798 194.306 122.798C194.26 122.798 194.213 122.798 194.166 122.798C193.448 122.798 192.878 123.013 192.458 123.442C192.038 123.871 191.828 124.492 191.828 125.304V129H190.484ZM195.851 129V121.58H197.195V129H195.851ZM196.523 120.152C196.262 120.152 196.042 120.068 195.865 119.9C195.697 119.732 195.613 119.527 195.613 119.284C195.613 119.032 195.697 118.822 195.865 118.654C196.042 118.486 196.262 118.402 196.523 118.402C196.784 118.402 196.999 118.486 197.167 118.654C197.344 118.813 197.433 119.013 197.433 119.256C197.433 119.508 197.349 119.723 197.181 119.9C197.013 120.068 196.794 120.152 196.523 120.152ZM203.443 121.51C204.05 121.51 204.582 121.627 205.039 121.86C205.506 122.093 205.87 122.448 206.131 122.924C206.392 123.4 206.523 124.002 206.523 124.73V129H205.179V124.884C205.179 124.165 205.002 123.624 204.647 123.26C204.302 122.896 203.812 122.714 203.177 122.714C202.701 122.714 202.286 122.807 201.931 122.994C201.576 123.181 201.301 123.456 201.105 123.82C200.918 124.184 200.825 124.637 200.825 125.178V129H199.481V121.58H200.769V123.582L200.559 123.05C200.802 122.565 201.175 122.187 201.679 121.916C202.183 121.645 202.771 121.51 203.443 121.51ZM211.978 131.8C211.297 131.8 210.634 131.702 209.99 131.506C209.356 131.319 208.838 131.049 208.436 130.694L209.08 129.658C209.426 129.957 209.85 130.19 210.354 130.358C210.858 130.535 211.386 130.624 211.936 130.624C212.814 130.624 213.458 130.419 213.868 130.008C214.279 129.597 214.484 128.972 214.484 128.132V126.564L214.624 125.094L214.554 123.61V121.58H215.828V127.992C215.828 129.299 215.502 130.26 214.848 130.876C214.195 131.492 213.238 131.8 211.978 131.8ZM211.81 128.692C211.092 128.692 210.448 128.543 209.878 128.244C209.318 127.936 208.87 127.511 208.534 126.97C208.208 126.429 208.044 125.803 208.044 125.094C208.044 124.375 208.208 123.75 208.534 123.218C208.87 122.677 209.318 122.257 209.878 121.958C210.448 121.659 211.092 121.51 211.81 121.51C212.445 121.51 213.024 121.641 213.546 121.902C214.069 122.154 214.484 122.546 214.792 123.078C215.11 123.61 215.268 124.282 215.268 125.094C215.268 125.897 215.11 126.564 214.792 127.096C214.484 127.628 214.069 128.029 213.546 128.3C213.024 128.561 212.445 128.692 211.81 128.692ZM211.964 127.516C212.459 127.516 212.898 127.413 213.28 127.208C213.663 127.003 213.962 126.718 214.176 126.354C214.4 125.99 214.512 125.57 214.512 125.094C214.512 124.618 214.4 124.198 214.176 123.834C213.962 123.47 213.663 123.19 213.28 122.994C212.898 122.789 212.459 122.686 211.964 122.686C211.47 122.686 211.026 122.789 210.634 122.994C210.252 123.19 209.948 123.47 209.724 123.834C209.51 124.198 209.402 124.618 209.402 125.094C209.402 125.57 209.51 125.99 209.724 126.354C209.948 126.718 210.252 127.003 210.634 127.208C211.026 127.413 211.47 127.516 211.964 127.516ZM226.202 129V127.432L226.132 127.138V124.464C226.132 123.895 225.964 123.456 225.628 123.148C225.301 122.831 224.807 122.672 224.144 122.672C223.705 122.672 223.276 122.747 222.856 122.896C222.436 123.036 222.081 123.227 221.792 123.47L221.232 122.462C221.615 122.154 222.072 121.921 222.604 121.762C223.145 121.594 223.71 121.51 224.298 121.51C225.315 121.51 226.099 121.757 226.65 122.252C227.201 122.747 227.476 123.503 227.476 124.52V129H226.202ZM223.766 129.084C223.215 129.084 222.73 128.991 222.31 128.804C221.899 128.617 221.582 128.361 221.358 128.034C221.134 127.698 221.022 127.32 221.022 126.9C221.022 126.499 221.115 126.135 221.302 125.808C221.498 125.481 221.811 125.22 222.24 125.024C222.679 124.828 223.267 124.73 224.004 124.73H226.356V125.696H224.06C223.388 125.696 222.935 125.808 222.702 126.032C222.469 126.256 222.352 126.527 222.352 126.844C222.352 127.208 222.497 127.502 222.786 127.726C223.075 127.941 223.477 128.048 223.99 128.048C224.494 128.048 224.933 127.936 225.306 127.712C225.689 127.488 225.964 127.161 226.132 126.732L226.398 127.656C226.221 128.095 225.908 128.445 225.46 128.706C225.012 128.958 224.447 129.084 223.766 129.084ZM233.645 121.51C234.252 121.51 234.784 121.627 235.241 121.86C235.708 122.093 236.072 122.448 236.333 122.924C236.595 123.4 236.725 124.002 236.725 124.73V129H235.381V124.884C235.381 124.165 235.204 123.624 234.849 123.26C234.504 122.896 234.014 122.714 233.379 122.714C232.903 122.714 232.488 122.807 232.133 122.994C231.779 123.181 231.503 123.456 231.307 123.82C231.121 124.184 231.027 124.637 231.027 125.178V129H229.683V121.58H230.971V123.582L230.761 123.05C231.004 122.565 231.377 122.187 231.881 121.916C232.385 121.645 232.973 121.51 233.645 121.51ZM241.999 129.084C241.28 129.084 240.636 128.925 240.067 128.608C239.507 128.291 239.063 127.847 238.737 127.278C238.41 126.709 238.247 126.046 238.247 125.29C238.247 124.534 238.41 123.876 238.737 123.316C239.063 122.747 239.507 122.303 240.067 121.986C240.636 121.669 241.28 121.51 241.999 121.51C242.624 121.51 243.189 121.65 243.693 121.93C244.197 122.21 244.598 122.63 244.897 123.19C245.205 123.75 245.359 124.45 245.359 125.29C245.359 126.13 245.209 126.83 244.911 127.39C244.621 127.95 244.225 128.375 243.721 128.664C243.217 128.944 242.643 129.084 241.999 129.084ZM242.111 127.908C242.577 127.908 242.997 127.801 243.371 127.586C243.753 127.371 244.052 127.068 244.267 126.676C244.491 126.275 244.603 125.813 244.603 125.29C244.603 124.758 244.491 124.301 244.267 123.918C244.052 123.526 243.753 123.223 243.371 123.008C242.997 122.793 242.577 122.686 242.111 122.686C241.635 122.686 241.21 122.793 240.837 123.008C240.463 123.223 240.165 123.526 239.941 123.918C239.717 124.301 239.605 124.758 239.605 125.29C239.605 125.813 239.717 126.275 239.941 126.676C240.165 127.068 240.463 127.371 240.837 127.586C241.21 127.801 241.635 127.908 242.111 127.908ZM244.645 129V126.998L244.729 125.276L244.589 123.554V118.612H245.933V129H244.645ZM255.609 129.084C254.993 129.084 254.429 128.944 253.915 128.664C253.411 128.375 253.005 127.95 252.697 127.39C252.399 126.83 252.249 126.13 252.249 125.29C252.249 124.45 252.394 123.75 252.683 123.19C252.982 122.63 253.383 122.21 253.887 121.93C254.401 121.65 254.975 121.51 255.609 121.51C256.337 121.51 256.981 121.669 257.541 121.986C258.101 122.303 258.545 122.747 258.871 123.316C259.198 123.876 259.361 124.534 259.361 125.29C259.361 126.046 259.198 126.709 258.871 127.278C258.545 127.847 258.101 128.291 257.541 128.608C256.981 128.925 256.337 129.084 255.609 129.084ZM251.675 131.716V121.58H252.963V123.582L252.879 125.304L253.019 127.026V131.716H251.675ZM255.497 127.908C255.973 127.908 256.398 127.801 256.771 127.586C257.154 127.371 257.453 127.068 257.667 126.676C257.891 126.275 258.003 125.813 258.003 125.29C258.003 124.758 257.891 124.301 257.667 123.918C257.453 123.526 257.154 123.223 256.771 123.008C256.398 122.793 255.973 122.686 255.497 122.686C255.031 122.686 254.606 122.793 254.223 123.008C253.85 123.223 253.551 123.526 253.327 123.918C253.113 124.301 253.005 124.758 253.005 125.29C253.005 125.813 253.113 126.275 253.327 126.676C253.551 127.068 253.85 127.371 254.223 127.586C254.606 127.801 255.031 127.908 255.497 127.908ZM260.938 129V121.58H262.226V123.596L262.1 123.092C262.306 122.579 262.651 122.187 263.136 121.916C263.622 121.645 264.219 121.51 264.928 121.51V122.812C264.872 122.803 264.816 122.798 264.76 122.798C264.714 122.798 264.667 122.798 264.62 122.798C263.902 122.798 263.332 123.013 262.912 123.442C262.492 123.871 262.282 124.492 262.282 125.304V129H260.938ZM269.54 129.084C268.747 129.084 268.047 128.921 267.44 128.594C266.843 128.267 266.376 127.819 266.04 127.25C265.714 126.681 265.55 126.027 265.55 125.29C265.55 124.553 265.709 123.899 266.026 123.33C266.353 122.761 266.796 122.317 267.356 122C267.926 121.673 268.565 121.51 269.274 121.51C269.993 121.51 270.628 121.669 271.178 121.986C271.729 122.303 272.158 122.751 272.466 123.33C272.784 123.899 272.942 124.567 272.942 125.332C272.942 125.388 272.938 125.453 272.928 125.528C272.928 125.603 272.924 125.673 272.914 125.738H266.6V124.772H272.214L271.668 125.108C271.678 124.632 271.58 124.207 271.374 123.834C271.169 123.461 270.884 123.171 270.52 122.966C270.166 122.751 269.75 122.644 269.274 122.644C268.808 122.644 268.392 122.751 268.028 122.966C267.664 123.171 267.38 123.465 267.174 123.848C266.969 124.221 266.866 124.651 266.866 125.136V125.36C266.866 125.855 266.978 126.298 267.202 126.69C267.436 127.073 267.758 127.371 268.168 127.586C268.579 127.801 269.05 127.908 269.582 127.908C270.021 127.908 270.418 127.833 270.772 127.684C271.136 127.535 271.454 127.311 271.724 127.012L272.466 127.88C272.13 128.272 271.71 128.571 271.206 128.776C270.712 128.981 270.156 129.084 269.54 129.084ZM276.338 129L273.09 121.58H274.49L277.374 128.3H276.702L279.642 121.58H280.958L277.71 129H276.338ZM285.031 129.084C284.238 129.084 283.538 128.921 282.931 128.594C282.334 128.267 281.867 127.819 281.531 127.25C281.205 126.681 281.041 126.027 281.041 125.29C281.041 124.553 281.2 123.899 281.517 123.33C281.844 122.761 282.287 122.317 282.847 122C283.417 121.673 284.056 121.51 284.765 121.51C285.484 121.51 286.119 121.669 286.669 121.986C287.22 122.303 287.649 122.751 287.957 123.33C288.275 123.899 288.433 124.567 288.433 125.332C288.433 125.388 288.429 125.453 288.419 125.528C288.419 125.603 288.415 125.673 288.405 125.738H282.091V124.772H287.705L287.159 125.108C287.169 124.632 287.071 124.207 286.865 123.834C286.66 123.461 286.375 123.171 286.011 122.966C285.657 122.751 285.241 122.644 284.765 122.644C284.299 122.644 283.883 122.751 283.519 122.966C283.155 123.171 282.871 123.465 282.665 123.848C282.46 124.221 282.357 124.651 282.357 125.136V125.36C282.357 125.855 282.469 126.298 282.693 126.69C282.927 127.073 283.249 127.371 283.659 127.586C284.07 127.801 284.541 127.908 285.073 127.908C285.512 127.908 285.909 127.833 286.263 127.684C286.627 127.535 286.945 127.311 287.215 127.012L287.957 127.88C287.621 128.272 287.201 128.571 286.697 128.776C286.203 128.981 285.647 129.084 285.031 129.084ZM293.981 121.51C294.588 121.51 295.12 121.627 295.577 121.86C296.044 122.093 296.408 122.448 296.669 122.924C296.931 123.4 297.061 124.002 297.061 124.73V129H295.717V124.884C295.717 124.165 295.54 123.624 295.185 123.26C294.84 122.896 294.35 122.714 293.715 122.714C293.239 122.714 292.824 122.807 292.469 122.994C292.115 123.181 291.839 123.456 291.643 123.82C291.457 124.184 291.363 124.637 291.363 125.178V129H290.019V121.58H291.307V123.582L291.097 123.05C291.34 122.565 291.713 122.187 292.217 121.916C292.721 121.645 293.309 121.51 293.981 121.51ZM301.817 129.084C301.07 129.084 300.491 128.883 300.081 128.482C299.67 128.081 299.465 127.507 299.465 126.76V119.956H300.809V126.704C300.809 127.105 300.907 127.413 301.103 127.628C301.308 127.843 301.597 127.95 301.971 127.95C302.391 127.95 302.741 127.833 303.021 127.6L303.441 128.566C303.235 128.743 302.988 128.874 302.699 128.958C302.419 129.042 302.125 129.084 301.817 129.084ZM298.205 122.686V121.58H302.937V122.686H298.205ZM304.786 129V121.58H306.13V129H304.786ZM305.458 120.152C305.196 120.152 304.977 120.068 304.8 119.9C304.632 119.732 304.548 119.527 304.548 119.284C304.548 119.032 304.632 118.822 304.8 118.654C304.977 118.486 305.196 118.402 305.458 118.402C305.719 118.402 305.934 118.486 306.102 118.654C306.279 118.813 306.368 119.013 306.368 119.256C306.368 119.508 306.284 119.723 306.116 119.9C305.948 120.068 305.728 120.152 305.458 120.152ZM311.594 129.084C310.847 129.084 310.184 128.921 309.606 128.594C309.027 128.267 308.57 127.819 308.234 127.25C307.898 126.671 307.73 126.018 307.73 125.29C307.73 124.553 307.898 123.899 308.234 123.33C308.57 122.761 309.027 122.317 309.606 122C310.184 121.673 310.847 121.51 311.594 121.51C312.331 121.51 312.989 121.673 313.568 122C314.156 122.317 314.613 122.761 314.94 123.33C315.276 123.89 315.444 124.543 315.444 125.29C315.444 126.027 315.276 126.681 314.94 127.25C314.613 127.819 314.156 128.267 313.568 128.594C312.989 128.921 312.331 129.084 311.594 129.084ZM311.594 127.908C312.07 127.908 312.494 127.801 312.868 127.586C313.25 127.371 313.549 127.068 313.764 126.676C313.978 126.275 314.086 125.813 314.086 125.29C314.086 124.758 313.978 124.301 313.764 123.918C313.549 123.526 313.25 123.223 312.868 123.008C312.494 122.793 312.07 122.686 311.594 122.686C311.118 122.686 310.693 122.793 310.32 123.008C309.946 123.223 309.648 123.526 309.424 123.918C309.2 124.301 309.088 124.758 309.088 125.29C309.088 125.813 309.2 126.275 309.424 126.676C309.648 127.068 309.946 127.371 310.32 127.586C310.693 127.801 311.118 127.908 311.594 127.908ZM320.985 121.51C321.591 121.51 322.123 121.627 322.581 121.86C323.047 122.093 323.411 122.448 323.673 122.924C323.934 123.4 324.065 124.002 324.065 124.73V129H322.721V124.884C322.721 124.165 322.543 123.624 322.189 123.26C321.843 122.896 321.353 122.714 320.719 122.714C320.243 122.714 319.827 122.807 319.473 122.994C319.118 123.181 318.843 123.456 318.647 123.82C318.46 124.184 318.367 124.637 318.367 125.178V129H317.023V121.58H318.311V123.582L318.101 123.05C318.343 122.565 318.717 122.187 319.221 121.916C319.725 121.645 320.313 121.51 320.985 121.51ZM326.594 129.084C326.332 129.084 326.108 128.995 325.922 128.818C325.735 128.631 325.642 128.398 325.642 128.118C325.642 127.838 325.735 127.609 325.922 127.432C326.108 127.255 326.332 127.166 326.594 127.166C326.846 127.166 327.06 127.255 327.238 127.432C327.424 127.609 327.518 127.838 327.518 128.118C327.518 128.398 327.424 128.631 327.238 128.818C327.06 128.995 326.846 129.084 326.594 129.084Z" fill="#8C92A0"/>
</svg>
