<svg width="380" height="179" viewBox="0 0 380 179" fill="none" xmlns="http://www.w3.org/2000/svg">
<rect width="380" height="179" rx="16" fill="#E3FDFF"/>
<path d="M31.9 44C33.8086 44.9791 36.0041 45.2443 38.0909 44.7478C40.1777 44.2514 42.0186 43.0259 43.2818 41.2922C44.545 39.5586 45.1474 37.4308 44.9806 35.2922C44.8137 33.1537 43.8886 31.145 42.3718 29.6282C40.855 28.1115 38.8464 27.1863 36.7078 27.0195C34.5693 26.8526 32.4415 27.4551 30.7078 28.7183C28.9742 29.9815 27.7487 31.8224 27.2522 33.9092C26.7558 35.996 27.0209 38.1915 28 40.1L26 46L31.9 44Z" stroke="black" stroke-width="2" stroke-linecap="round" stroke-linejoin="round"/>
<path d="M36 32V36" stroke="black" stroke-width="2" stroke-linecap="round" stroke-linejoin="round"/>
<path d="M36 40H36.01" stroke="black" stroke-width="2" stroke-linecap="round" stroke-linejoin="round"/>
<path d="M30.32 80.16C28.784 80.16 27.5787 79.728 26.704 78.864C25.84 78 25.408 76.752 25.408 75.12V68.8H27.488V75.04C27.488 76.192 27.7333 77.0293 28.224 77.552C28.7253 78.0747 29.4293 78.336 30.336 78.336C31.2427 78.336 31.9413 78.0747 32.432 77.552C32.9227 77.0293 33.168 76.192 33.168 75.04V68.8H35.216V75.12C35.216 76.752 34.7787 78 33.904 78.864C33.04 79.728 31.8453 80.16 30.32 80.16ZM40.577 80.112C39.8623 80.112 39.1743 80.0213 38.513 79.84C37.8623 79.648 37.345 79.4187 36.961 79.152L37.729 77.632C38.113 77.8773 38.5717 78.08 39.105 78.24C39.6383 78.4 40.1717 78.48 40.705 78.48C41.3343 78.48 41.7877 78.3947 42.065 78.224C42.353 78.0533 42.497 77.824 42.497 77.536C42.497 77.3013 42.401 77.1253 42.209 77.008C42.017 76.88 41.7663 76.784 41.457 76.72C41.1477 76.656 40.801 76.5973 40.417 76.544C40.0437 76.4907 39.665 76.4213 39.281 76.336C38.9077 76.24 38.5663 76.1067 38.257 75.936C37.9477 75.7547 37.697 75.5147 37.505 75.216C37.313 74.9173 37.217 74.5227 37.217 74.032C37.217 73.488 37.3717 73.0187 37.681 72.624C37.9903 72.2187 38.4223 71.9093 38.977 71.696C39.5423 71.472 40.209 71.36 40.977 71.36C41.553 71.36 42.1343 71.424 42.721 71.552C43.3077 71.68 43.793 71.8613 44.177 72.096L43.409 73.616C43.0037 73.3707 42.593 73.2053 42.177 73.12C41.7717 73.024 41.3663 72.976 40.961 72.976C40.353 72.976 39.8997 73.0667 39.601 73.248C39.313 73.4293 39.169 73.6587 39.169 73.936C39.169 74.192 39.265 74.384 39.457 74.512C39.649 74.64 39.8997 74.7413 40.209 74.816C40.5183 74.8907 40.8597 74.9547 41.233 75.008C41.617 75.0507 41.9957 75.12 42.369 75.216C42.7423 75.312 43.0837 75.4453 43.393 75.616C43.713 75.776 43.969 76.0053 44.161 76.304C44.353 76.6027 44.449 76.992 44.449 77.472C44.449 78.0053 44.289 78.4693 43.969 78.864C43.6597 79.2587 43.217 79.568 42.641 79.792C42.065 80.0053 41.377 80.112 40.577 80.112ZM50.1874 80.112C49.238 80.112 48.406 79.9253 47.6914 79.552C46.9874 79.168 46.438 78.6453 46.0434 77.984C45.6594 77.3227 45.4674 76.5707 45.4674 75.728C45.4674 74.8747 45.654 74.1227 46.0274 73.472C46.4114 72.8107 46.934 72.2933 47.5954 71.92C48.2674 71.5467 49.03 71.36 49.8834 71.36C50.7154 71.36 51.4567 71.5413 52.1074 71.904C52.758 72.2667 53.27 72.7787 53.6434 73.44C54.0167 74.1013 54.2034 74.88 54.2034 75.776C54.2034 75.8613 54.198 75.9573 54.1874 76.064C54.1874 76.1707 54.182 76.272 54.1714 76.368H47.0514V75.04H53.1154L52.3314 75.456C52.342 74.9653 52.2407 74.5333 52.0274 74.16C51.814 73.7867 51.5207 73.4933 51.1474 73.28C50.7847 73.0667 50.3634 72.96 49.8834 72.96C49.3927 72.96 48.9607 73.0667 48.5874 73.28C48.2247 73.4933 47.9367 73.792 47.7234 74.176C47.5207 74.5493 47.4194 74.992 47.4194 75.504V75.824C47.4194 76.336 47.5367 76.7893 47.7714 77.184C48.006 77.5787 48.3367 77.8827 48.7634 78.096C49.19 78.3093 49.6807 78.416 50.2354 78.416C50.7154 78.416 51.1474 78.3413 51.5314 78.192C51.9154 78.0427 52.2567 77.808 52.5554 77.488L53.6274 78.72C53.2434 79.168 52.758 79.5147 52.1714 79.76C51.5954 79.9947 50.934 80.112 50.1874 80.112ZM56.1245 80V71.456H58.0285V73.808L57.8045 73.12C58.0605 72.544 58.4605 72.1067 59.0045 71.808C59.5592 71.5093 60.2472 71.36 61.0685 71.36V73.264C60.9832 73.2427 60.9032 73.232 60.8285 73.232C60.7538 73.2213 60.6792 73.216 60.6045 73.216C59.8472 73.216 59.2445 73.44 58.7965 73.888C58.3485 74.3253 58.1245 74.9813 58.1245 75.856V80H56.1245ZM69.3611 73.952H74.9451V75.712H69.3611V73.952ZM69.5371 80H67.4571V68.8H75.6331V70.544H69.5371V80ZM81.2343 80.112C80.2849 80.112 79.4529 79.9253 78.7383 79.552C78.0343 79.168 77.4849 78.6453 77.0903 77.984C76.7063 77.3227 76.5143 76.5707 76.5143 75.728C76.5143 74.8747 76.7009 74.1227 77.0743 73.472C77.4583 72.8107 77.9809 72.2933 78.6423 71.92C79.3143 71.5467 80.0769 71.36 80.9303 71.36C81.7623 71.36 82.5036 71.5413 83.1543 71.904C83.8049 72.2667 84.3169 72.7787 84.6903 73.44C85.0636 74.1013 85.2503 74.88 85.2503 75.776C85.2503 75.8613 85.2449 75.9573 85.2343 76.064C85.2343 76.1707 85.2289 76.272 85.2183 76.368H78.0983V75.04H84.1623L83.3783 75.456C83.3889 74.9653 83.2876 74.5333 83.0743 74.16C82.8609 73.7867 82.5676 73.4933 82.1943 73.28C81.8316 73.0667 81.4103 72.96 80.9303 72.96C80.4396 72.96 80.0076 73.0667 79.6343 73.28C79.2716 73.4933 78.9836 73.792 78.7703 74.176C78.5676 74.5493 78.4663 74.992 78.4663 75.504V75.824C78.4663 76.336 78.5836 76.7893 78.8183 77.184C79.0529 77.5787 79.3836 77.8827 79.8103 78.096C80.2369 78.3093 80.7276 78.416 81.2823 78.416C81.7623 78.416 82.1943 78.3413 82.5783 78.192C82.9623 78.0427 83.3036 77.808 83.6023 77.488L84.6743 78.72C84.2903 79.168 83.8049 79.5147 83.2183 79.76C82.6423 79.9947 81.9809 80.112 81.2343 80.112ZM91.1874 80.112C90.238 80.112 89.406 79.9253 88.6914 79.552C87.9874 79.168 87.438 78.6453 87.0434 77.984C86.6594 77.3227 86.4674 76.5707 86.4674 75.728C86.4674 74.8747 86.654 74.1227 87.0274 73.472C87.4114 72.8107 87.934 72.2933 88.5954 71.92C89.2674 71.5467 90.03 71.36 90.8834 71.36C91.7154 71.36 92.4567 71.5413 93.1074 71.904C93.758 72.2667 94.27 72.7787 94.6434 73.44C95.0167 74.1013 95.2034 74.88 95.2034 75.776C95.2034 75.8613 95.198 75.9573 95.1874 76.064C95.1874 76.1707 95.182 76.272 95.1714 76.368H88.0514V75.04H94.1154L93.3314 75.456C93.342 74.9653 93.2407 74.5333 93.0274 74.16C92.814 73.7867 92.5207 73.4933 92.1474 73.28C91.7847 73.0667 91.3634 72.96 90.8834 72.96C90.3927 72.96 89.9607 73.0667 89.5874 73.28C89.2247 73.4933 88.9367 73.792 88.7234 74.176C88.5207 74.5493 88.4194 74.992 88.4194 75.504V75.824C88.4194 76.336 88.5367 76.7893 88.7714 77.184C89.006 77.5787 89.3367 77.8827 89.7634 78.096C90.19 78.3093 90.6807 78.416 91.2354 78.416C91.7154 78.416 92.1474 78.3413 92.5314 78.192C92.9154 78.0427 93.2567 77.808 93.5554 77.488L94.6274 78.72C94.2434 79.168 93.758 79.5147 93.1714 79.76C92.5954 79.9947 91.934 80.112 91.1874 80.112ZM100.741 80.112C99.9192 80.112 99.1778 79.9307 98.5165 79.568C97.8658 79.1947 97.3538 78.6827 96.9805 78.032C96.6072 77.3813 96.4205 76.6133 96.4205 75.728C96.4205 74.8427 96.6072 74.0747 96.9805 73.424C97.3538 72.7733 97.8658 72.2667 98.5165 71.904C99.1778 71.5413 99.9192 71.36 100.741 71.36C101.455 71.36 102.095 71.52 102.661 71.84C103.226 72.1493 103.674 72.624 104.005 73.264C104.335 73.904 104.501 74.7253 104.501 75.728C104.501 76.72 104.341 77.5413 104.021 78.192C103.701 78.832 103.258 79.312 102.693 79.632C102.127 79.952 101.477 80.112 100.741 80.112ZM100.981 78.4C101.461 78.4 101.887 78.2933 102.261 78.08C102.645 77.8667 102.949 77.5573 103.173 77.152C103.407 76.7467 103.525 76.272 103.525 75.728C103.525 75.1733 103.407 74.6987 103.173 74.304C102.949 73.8987 102.645 73.5893 102.261 73.376C101.887 73.1627 101.461 73.056 100.981 73.056C100.501 73.056 100.069 73.1627 99.6845 73.376C99.3112 73.5893 99.0072 73.8987 98.7725 74.304C98.5485 74.6987 98.4365 75.1733 98.4365 75.728C98.4365 76.272 98.5485 76.7467 98.7725 77.152C99.0072 77.5573 99.3112 77.8667 99.6845 78.08C100.069 78.2933 100.501 78.4 100.981 78.4ZM103.573 80V77.984L103.653 75.712L103.493 73.44V68.128H105.477V80H103.573ZM112.845 80.112C112.12 80.112 111.474 79.952 110.909 79.632C110.344 79.312 109.896 78.832 109.565 78.192C109.245 77.5413 109.085 76.72 109.085 75.728C109.085 74.7253 109.25 73.904 109.581 73.264C109.922 72.624 110.376 72.1493 110.941 71.84C111.517 71.52 112.152 71.36 112.845 71.36C113.688 71.36 114.429 71.5413 115.069 71.904C115.72 72.2667 116.232 72.7733 116.605 73.424C116.989 74.0747 117.181 74.8427 117.181 75.728C117.181 76.6133 116.989 77.3813 116.605 78.032C116.232 78.6827 115.72 79.1947 115.069 79.568C114.429 79.9307 113.688 80.112 112.845 80.112ZM108.109 80V68.128H110.109V73.44L109.949 75.712L110.013 77.984V80H108.109ZM112.621 78.4C113.101 78.4 113.528 78.2933 113.901 78.08C114.285 77.8667 114.589 77.5573 114.813 77.152C115.037 76.7467 115.149 76.272 115.149 75.728C115.149 75.1733 115.037 74.6987 114.813 74.304C114.589 73.8987 114.285 73.5893 113.901 73.376C113.528 73.1627 113.101 73.056 112.621 73.056C112.141 73.056 111.709 73.1627 111.325 73.376C110.941 73.5893 110.637 73.8987 110.413 74.304C110.189 74.6987 110.077 75.1733 110.077 75.728C110.077 76.272 110.189 76.7467 110.413 77.152C110.637 77.5573 110.941 77.8667 111.325 78.08C111.709 78.2933 112.141 78.4 112.621 78.4ZM124.232 80V78.272L124.12 77.904V74.88C124.12 74.2933 123.944 73.84 123.592 73.52C123.24 73.1893 122.707 73.024 121.992 73.024C121.512 73.024 121.038 73.0987 120.568 73.248C120.11 73.3973 119.72 73.6053 119.4 73.872L118.616 72.416C119.075 72.064 119.619 71.8027 120.248 71.632C120.888 71.4507 121.55 71.36 122.232 71.36C123.47 71.36 124.424 71.6587 125.096 72.256C125.779 72.8427 126.12 73.7547 126.12 74.992V80H124.232ZM121.544 80.112C120.904 80.112 120.344 80.0053 119.864 79.792C119.384 79.568 119.011 79.264 118.744 78.88C118.488 78.4853 118.36 78.0427 118.36 77.552C118.36 77.072 118.472 76.64 118.696 76.256C118.931 75.872 119.31 75.568 119.832 75.344C120.355 75.12 121.048 75.008 121.912 75.008H124.392V76.336H122.056C121.374 76.336 120.915 76.448 120.68 76.672C120.446 76.8853 120.328 77.152 120.328 77.472C120.328 77.8347 120.472 78.1227 120.76 78.336C121.048 78.5493 121.448 78.656 121.96 78.656C122.451 78.656 122.888 78.544 123.272 78.32C123.667 78.096 123.95 77.7653 124.12 77.328L124.456 78.528C124.264 79.0293 123.918 79.4187 123.416 79.696C122.926 79.9733 122.302 80.112 121.544 80.112ZM132.623 80.112C131.727 80.112 130.927 79.9253 130.223 79.552C129.529 79.168 128.985 78.6453 128.591 77.984C128.196 77.3227 127.999 76.5707 127.999 75.728C127.999 74.8747 128.196 74.1227 128.591 73.472C128.985 72.8107 129.529 72.2933 130.223 71.92C130.927 71.5467 131.727 71.36 132.623 71.36C133.455 71.36 134.185 71.5307 134.815 71.872C135.455 72.2027 135.94 72.6933 136.271 73.344L134.735 74.24C134.479 73.8347 134.164 73.536 133.791 73.344C133.428 73.152 133.033 73.056 132.607 73.056C132.116 73.056 131.673 73.1627 131.279 73.376C130.884 73.5893 130.575 73.8987 130.351 74.304C130.127 74.6987 130.015 75.1733 130.015 75.728C130.015 76.2827 130.127 76.7627 130.351 77.168C130.575 77.5627 130.884 77.8667 131.279 78.08C131.673 78.2933 132.116 78.4 132.607 78.4C133.033 78.4 133.428 78.304 133.791 78.112C134.164 77.92 134.479 77.6213 134.735 77.216L136.271 78.112C135.94 78.752 135.455 79.248 134.815 79.6C134.185 79.9413 133.455 80.112 132.623 80.112ZM139.553 78.096L139.601 75.584L144.065 71.456H146.465L142.673 75.264L141.617 76.144L139.553 78.096ZM137.921 80V68.128H139.921V80H137.921ZM144.369 80L141.249 76.144L142.513 74.544L146.801 80H144.369ZM152.707 80V68.8H154.787V80H152.707ZM162.473 71.36C163.155 71.36 163.763 71.4933 164.297 71.76C164.841 72.0267 165.267 72.4373 165.577 72.992C165.886 73.536 166.041 74.24 166.041 75.104V80H164.041V75.36C164.041 74.6027 163.859 74.0373 163.497 73.664C163.145 73.2907 162.649 73.104 162.009 73.104C161.539 73.104 161.123 73.2 160.761 73.392C160.398 73.584 160.115 73.872 159.913 74.256C159.721 74.6293 159.625 75.104 159.625 75.68V80H157.625V71.456H159.529V73.76L159.193 73.056C159.491 72.512 159.923 72.096 160.489 71.808C161.065 71.5093 161.726 71.36 162.473 71.36ZM171.794 80.112C170.855 80.112 170.13 79.872 169.618 79.392C169.106 78.9013 168.85 78.1813 168.85 77.232V69.568H170.85V77.184C170.85 77.5893 170.951 77.904 171.154 78.128C171.367 78.352 171.66 78.464 172.034 78.464C172.482 78.464 172.855 78.3467 173.154 78.112L173.714 79.536C173.479 79.728 173.191 79.872 172.85 79.968C172.508 80.064 172.156 80.112 171.794 80.112ZM167.442 73.12V71.52H173.138V73.12H167.442ZM179.094 80.112C178.144 80.112 177.312 79.9253 176.598 79.552C175.894 79.168 175.344 78.6453 174.95 77.984C174.566 77.3227 174.374 76.5707 174.374 75.728C174.374 74.8747 174.56 74.1227 174.934 73.472C175.318 72.8107 175.84 72.2933 176.502 71.92C177.174 71.5467 177.936 71.36 178.79 71.36C179.622 71.36 180.363 71.5413 181.014 71.904C181.664 72.2667 182.176 72.7787 182.55 73.44C182.923 74.1013 183.11 74.88 183.11 75.776C183.11 75.8613 183.104 75.9573 183.094 76.064C183.094 76.1707 183.088 76.272 183.078 76.368H175.958V75.04H182.022L181.238 75.456C181.248 74.9653 181.147 74.5333 180.934 74.16C180.72 73.7867 180.427 73.4933 180.054 73.28C179.691 73.0667 179.27 72.96 178.79 72.96C178.299 72.96 177.867 73.0667 177.494 73.28C177.131 73.4933 176.843 73.792 176.63 74.176C176.427 74.5493 176.326 74.992 176.326 75.504V75.824C176.326 76.336 176.443 76.7893 176.678 77.184C176.912 77.5787 177.243 77.8827 177.67 78.096C178.096 78.3093 178.587 78.416 179.142 78.416C179.622 78.416 180.054 78.3413 180.438 78.192C180.822 78.0427 181.163 77.808 181.462 77.488L182.534 78.72C182.15 79.168 181.664 79.5147 181.078 79.76C180.502 79.9947 179.84 80.112 179.094 80.112ZM188.903 83.216C188.113 83.216 187.34 83.1093 186.583 82.896C185.836 82.6933 185.223 82.3947 184.743 82L185.639 80.496C186.012 80.8053 186.481 81.0507 187.047 81.232C187.623 81.424 188.204 81.52 188.791 81.52C189.729 81.52 190.417 81.3013 190.855 80.864C191.292 80.4373 191.511 79.792 191.511 78.928V77.408L191.671 75.472L191.607 73.536V71.456H193.511V78.704C193.511 80.2507 193.116 81.3867 192.327 82.112C191.537 82.848 190.396 83.216 188.903 83.216ZM188.647 79.616C187.836 79.616 187.1 79.4453 186.439 79.104C185.788 78.752 185.271 78.2667 184.887 77.648C184.513 77.0293 184.327 76.304 184.327 75.472C184.327 74.6507 184.513 73.9307 184.887 73.312C185.271 72.6933 185.788 72.2133 186.439 71.872C187.1 71.5307 187.836 71.36 188.647 71.36C189.372 71.36 190.023 71.504 190.599 71.792C191.175 72.08 191.633 72.528 191.975 73.136C192.327 73.744 192.503 74.5227 192.503 75.472C192.503 76.4213 192.327 77.2053 191.975 77.824C191.633 78.432 191.175 78.8853 190.599 79.184C190.023 79.472 189.372 79.616 188.647 79.616ZM188.951 77.92C189.452 77.92 189.9 77.8187 190.295 77.616C190.689 77.4027 190.993 77.1147 191.207 76.752C191.431 76.3787 191.543 75.952 191.543 75.472C191.543 74.992 191.431 74.5707 191.207 74.208C190.993 73.8347 190.689 73.552 190.295 73.36C189.9 73.1573 189.452 73.056 188.951 73.056C188.449 73.056 187.996 73.1573 187.591 73.36C187.196 73.552 186.887 73.8347 186.663 74.208C186.449 74.5707 186.343 74.992 186.343 75.472C186.343 75.952 186.449 76.3787 186.663 76.752C186.887 77.1147 187.196 77.4027 187.591 77.616C187.996 77.8187 188.449 77.92 188.951 77.92ZM196.14 80V71.456H198.044V73.808L197.82 73.12C198.076 72.544 198.476 72.1067 199.02 71.808C199.575 71.5093 200.263 71.36 201.084 71.36V73.264C200.999 73.2427 200.919 73.232 200.844 73.232C200.769 73.2213 200.695 73.216 200.62 73.216C199.863 73.216 199.26 73.44 198.812 73.888C198.364 74.3253 198.14 74.9813 198.14 75.856V80H196.14ZM207.435 80V78.272L207.323 77.904V74.88C207.323 74.2933 207.147 73.84 206.795 73.52C206.443 73.1893 205.91 73.024 205.195 73.024C204.715 73.024 204.241 73.0987 203.771 73.248C203.313 73.3973 202.923 73.6053 202.603 73.872L201.819 72.416C202.278 72.064 202.822 71.8027 203.451 71.632C204.091 71.4507 204.753 71.36 205.435 71.36C206.673 71.36 207.627 71.6587 208.299 72.256C208.982 72.8427 209.323 73.7547 209.323 74.992V80H207.435ZM204.747 80.112C204.107 80.112 203.547 80.0053 203.067 79.792C202.587 79.568 202.214 79.264 201.947 78.88C201.691 78.4853 201.563 78.0427 201.563 77.552C201.563 77.072 201.675 76.64 201.899 76.256C202.134 75.872 202.513 75.568 203.035 75.344C203.558 75.12 204.251 75.008 205.115 75.008H207.595V76.336H205.259C204.577 76.336 204.118 76.448 203.883 76.672C203.649 76.8853 203.531 77.152 203.531 77.472C203.531 77.8347 203.675 78.1227 203.963 78.336C204.251 78.5493 204.651 78.656 205.163 78.656C205.654 78.656 206.091 78.544 206.475 78.32C206.87 78.096 207.153 77.7653 207.323 77.328L207.659 78.528C207.467 79.0293 207.121 79.4187 206.619 79.696C206.129 79.9733 205.505 80.112 204.747 80.112ZM215.106 80.112C214.167 80.112 213.442 79.872 212.93 79.392C212.418 78.9013 212.162 78.1813 212.162 77.232V69.568H214.162V77.184C214.162 77.5893 214.263 77.904 214.466 78.128C214.679 78.352 214.973 78.464 215.346 78.464C215.794 78.464 216.167 78.3467 216.466 78.112L217.026 79.536C216.791 79.728 216.503 79.872 216.162 79.968C215.821 80.064 215.469 80.112 215.106 80.112ZM210.754 73.12V71.52H216.45V73.12H210.754ZM218.671 80V71.456H220.671V80H218.671ZM219.679 70.048C219.306 70.048 218.997 69.9307 218.751 69.696C218.517 69.4613 218.399 69.1787 218.399 68.848C218.399 68.5067 218.517 68.224 218.751 68C218.997 67.7653 219.306 67.648 219.679 67.648C220.053 67.648 220.357 67.76 220.591 67.984C220.837 68.1973 220.959 68.4693 220.959 68.8C220.959 69.152 220.842 69.4507 220.607 69.696C220.373 69.9307 220.063 70.048 219.679 70.048ZM227.136 80.112C226.262 80.112 225.483 79.9253 224.8 79.552C224.118 79.168 223.579 78.6453 223.184 77.984C222.79 77.3227 222.592 76.5707 222.592 75.728C222.592 74.8747 222.79 74.1227 223.184 73.472C223.579 72.8107 224.118 72.2933 224.8 71.92C225.483 71.5467 226.262 71.36 227.136 71.36C228.022 71.36 228.806 71.5467 229.488 71.92C230.182 72.2933 230.72 72.8053 231.104 73.456C231.499 74.1067 231.696 74.864 231.696 75.728C231.696 76.5707 231.499 77.3227 231.104 77.984C230.72 78.6453 230.182 79.168 229.488 79.552C228.806 79.9253 228.022 80.112 227.136 80.112ZM227.136 78.4C227.627 78.4 228.064 78.2933 228.448 78.08C228.832 77.8667 229.131 77.5573 229.344 77.152C229.568 76.7467 229.68 76.272 229.68 75.728C229.68 75.1733 229.568 74.6987 229.344 74.304C229.131 73.8987 228.832 73.5893 228.448 73.376C228.064 73.1627 227.632 73.056 227.152 73.056C226.662 73.056 226.224 73.1627 225.84 73.376C225.467 73.5893 225.168 73.8987 224.944 74.304C224.72 74.6987 224.608 75.1733 224.608 75.728C224.608 76.272 224.72 76.7467 224.944 77.152C225.168 77.5573 225.467 77.8667 225.84 78.08C226.224 78.2933 226.656 78.4 227.136 78.4ZM238.457 71.36C239.14 71.36 239.748 71.4933 240.281 71.76C240.825 72.0267 241.252 72.4373 241.561 72.992C241.87 73.536 242.025 74.24 242.025 75.104V80H240.025V75.36C240.025 74.6027 239.844 74.0373 239.481 73.664C239.129 73.2907 238.633 73.104 237.993 73.104C237.524 73.104 237.108 73.2 236.745 73.392C236.382 73.584 236.1 73.872 235.897 74.256C235.705 74.6293 235.609 75.104 235.609 75.68V80H233.609V71.456H235.513V73.76L235.177 73.056C235.476 72.512 235.908 72.096 236.473 71.808C237.049 71.5093 237.71 71.36 238.457 71.36Z" fill="#011422"/>
<path d="M29.894 108.112C29.138 108.112 28.4427 107.991 27.808 107.748C27.1733 107.496 26.6227 107.146 26.156 106.698C25.6893 106.241 25.3253 105.709 25.064 105.102C24.8027 104.495 24.672 103.828 24.672 103.1C24.672 102.372 24.8027 101.705 25.064 101.098C25.3253 100.491 25.6893 99.964 26.156 99.516C26.632 99.0587 27.1873 98.7087 27.822 98.466C28.4567 98.214 29.1567 98.088 29.922 98.088C30.6967 98.088 31.406 98.214 32.05 98.466C32.694 98.718 33.24 99.096 33.688 99.6L32.82 100.468C32.4187 100.076 31.98 99.7913 31.504 99.614C31.0373 99.4273 30.5287 99.334 29.978 99.334C29.418 99.334 28.8953 99.4273 28.41 99.614C27.934 99.8007 27.5187 100.062 27.164 100.398C26.8187 100.734 26.548 101.135 26.352 101.602C26.1653 102.059 26.072 102.559 26.072 103.1C26.072 103.632 26.1653 104.131 26.352 104.598C26.548 105.055 26.8187 105.457 27.164 105.802C27.5187 106.138 27.934 106.399 28.41 106.586C28.886 106.773 29.404 106.866 29.964 106.866C30.4867 106.866 30.986 106.787 31.462 106.628C31.9473 106.46 32.3953 106.185 32.806 105.802L33.604 106.866C33.1187 107.277 32.5493 107.589 31.896 107.804C31.252 108.009 30.5847 108.112 29.894 108.112ZM32.26 106.684V103.044H33.604V106.866L32.26 106.684ZM40.4145 108V106.432L40.3445 106.138V103.464C40.3445 102.895 40.1765 102.456 39.8405 102.148C39.5138 101.831 39.0191 101.672 38.3565 101.672C37.9178 101.672 37.4885 101.747 37.0685 101.896C36.6485 102.036 36.2938 102.227 36.0045 102.47L35.4445 101.462C35.8271 101.154 36.2845 100.921 36.8165 100.762C37.3578 100.594 37.9225 100.51 38.5105 100.51C39.5278 100.51 40.3118 100.757 40.8625 101.252C41.4131 101.747 41.6885 102.503 41.6885 103.52V108H40.4145ZM37.9785 108.084C37.4278 108.084 36.9425 107.991 36.5225 107.804C36.1118 107.617 35.7945 107.361 35.5705 107.034C35.3465 106.698 35.2345 106.32 35.2345 105.9C35.2345 105.499 35.3278 105.135 35.5145 104.808C35.7105 104.481 36.0231 104.22 36.4525 104.024C36.8911 103.828 37.4791 103.73 38.2165 103.73H40.5685V104.696H38.2725C37.6005 104.696 37.1478 104.808 36.9145 105.032C36.6811 105.256 36.5645 105.527 36.5645 105.844C36.5645 106.208 36.7091 106.502 36.9985 106.726C37.2878 106.941 37.6891 107.048 38.2025 107.048C38.7065 107.048 39.1451 106.936 39.5185 106.712C39.9011 106.488 40.1765 106.161 40.3445 105.732L40.6105 106.656C40.4331 107.095 40.1205 107.445 39.6725 107.706C39.2245 107.958 38.6598 108.084 37.9785 108.084ZM46.4436 108.084C45.697 108.084 45.1183 107.883 44.7076 107.482C44.297 107.081 44.0916 106.507 44.0916 105.76V98.956H45.4356V105.704C45.4356 106.105 45.5336 106.413 45.7296 106.628C45.935 106.843 46.2243 106.95 46.5976 106.95C47.0176 106.95 47.3676 106.833 47.6476 106.6L48.0676 107.566C47.8623 107.743 47.615 107.874 47.3256 107.958C47.0456 108.042 46.7516 108.084 46.4436 108.084ZM42.8316 101.686V100.58H47.5636V101.686H42.8316ZM53.3745 100.51C53.9812 100.51 54.5132 100.627 54.9705 100.86C55.4372 101.093 55.8012 101.448 56.0625 101.924C56.3238 102.4 56.4545 103.002 56.4545 103.73V108H55.1105V103.884C55.1105 103.165 54.9332 102.624 54.5785 102.26C54.2332 101.896 53.7432 101.714 53.1085 101.714C52.6325 101.714 52.2172 101.807 51.8625 101.994C51.5078 102.181 51.2325 102.456 51.0365 102.82C50.8498 103.184 50.7565 103.637 50.7565 104.178V108H49.4125V97.612H50.7565V102.582L50.4905 102.05C50.7332 101.565 51.1065 101.187 51.6105 100.916C52.1145 100.645 52.7025 100.51 53.3745 100.51ZM61.9658 108.084C61.1725 108.084 60.4725 107.921 59.8658 107.594C59.2685 107.267 58.8018 106.819 58.4658 106.25C58.1391 105.681 57.9758 105.027 57.9758 104.29C57.9758 103.553 58.1345 102.899 58.4518 102.33C58.7785 101.761 59.2218 101.317 59.7818 101C60.3511 100.673 60.9905 100.51 61.6998 100.51C62.4185 100.51 63.0531 100.669 63.6038 100.986C64.1545 101.303 64.5838 101.751 64.8918 102.33C65.2091 102.899 65.3678 103.567 65.3678 104.332C65.3678 104.388 65.3631 104.453 65.3538 104.528C65.3538 104.603 65.3491 104.673 65.3398 104.738H59.0258V103.772H64.6398L64.0938 104.108C64.1031 103.632 64.0051 103.207 63.7998 102.834C63.5945 102.461 63.3098 102.171 62.9458 101.966C62.5911 101.751 62.1758 101.644 61.6998 101.644C61.2331 101.644 60.8178 101.751 60.4538 101.966C60.0898 102.171 59.8051 102.465 59.5998 102.848C59.3945 103.221 59.2918 103.651 59.2918 104.136V104.36C59.2918 104.855 59.4038 105.298 59.6278 105.69C59.8611 106.073 60.1831 106.371 60.5938 106.586C61.0045 106.801 61.4758 106.908 62.0078 106.908C62.4465 106.908 62.8431 106.833 63.1978 106.684C63.5618 106.535 63.8791 106.311 64.1498 106.012L64.8918 106.88C64.5558 107.272 64.1358 107.571 63.6318 107.776C63.1371 107.981 62.5818 108.084 61.9658 108.084ZM66.9541 108V100.58H68.2421V102.596L68.1161 102.092C68.3214 101.579 68.6667 101.187 69.1521 100.916C69.6374 100.645 70.2347 100.51 70.9441 100.51V101.812C70.8881 101.803 70.8321 101.798 70.7761 101.798C70.7294 101.798 70.6827 101.798 70.6361 101.798C69.9174 101.798 69.3481 102.013 68.9281 102.442C68.5081 102.871 68.2981 103.492 68.2981 104.304V108H66.9541ZM80.502 108V106.432L80.432 106.138V103.464C80.432 102.895 80.264 102.456 79.928 102.148C79.6014 101.831 79.1067 101.672 78.444 101.672C78.0054 101.672 77.576 101.747 77.156 101.896C76.736 102.036 76.3814 102.227 76.092 102.47L75.532 101.462C75.9147 101.154 76.372 100.921 76.904 100.762C77.4454 100.594 78.01 100.51 78.598 100.51C79.6154 100.51 80.3994 100.757 80.95 101.252C81.5007 101.747 81.776 102.503 81.776 103.52V108H80.502ZM78.066 108.084C77.5154 108.084 77.03 107.991 76.61 107.804C76.1994 107.617 75.882 107.361 75.658 107.034C75.434 106.698 75.322 106.32 75.322 105.9C75.322 105.499 75.4154 105.135 75.602 104.808C75.798 104.481 76.1107 104.22 76.54 104.024C76.9787 103.828 77.5667 103.73 78.304 103.73H80.656V104.696H78.36C77.688 104.696 77.2354 104.808 77.002 105.032C76.7687 105.256 76.652 105.527 76.652 105.844C76.652 106.208 76.7967 106.502 77.086 106.726C77.3754 106.941 77.7767 107.048 78.29 107.048C78.794 107.048 79.2327 106.936 79.606 106.712C79.9887 106.488 80.264 106.161 80.432 105.732L80.698 106.656C80.5207 107.095 80.208 107.445 79.76 107.706C79.312 107.958 78.7474 108.084 78.066 108.084ZM87.9452 100.51C88.5519 100.51 89.0839 100.627 89.5412 100.86C90.0079 101.093 90.3719 101.448 90.6332 101.924C90.8946 102.4 91.0252 103.002 91.0252 103.73V108H89.6812V103.884C89.6812 103.165 89.5039 102.624 89.1492 102.26C88.8039 101.896 88.3139 101.714 87.6792 101.714C87.2032 101.714 86.7879 101.807 86.4332 101.994C86.0786 102.181 85.8032 102.456 85.6072 102.82C85.4206 103.184 85.3272 103.637 85.3272 104.178V108H83.9832V100.58H85.2712V102.582L85.0612 102.05C85.3039 101.565 85.6772 101.187 86.1812 100.916C86.6852 100.645 87.2732 100.51 87.9452 100.51ZM96.2985 108.084C95.5799 108.084 94.9359 107.925 94.3665 107.608C93.8065 107.291 93.3632 106.847 93.0365 106.278C92.7099 105.709 92.5465 105.046 92.5465 104.29C92.5465 103.534 92.7099 102.876 93.0365 102.316C93.3632 101.747 93.8065 101.303 94.3665 100.986C94.9359 100.669 95.5799 100.51 96.2985 100.51C96.9239 100.51 97.4885 100.65 97.9925 100.93C98.4965 101.21 98.8979 101.63 99.1965 102.19C99.5045 102.75 99.6585 103.45 99.6585 104.29C99.6585 105.13 99.5092 105.83 99.2105 106.39C98.9212 106.95 98.5245 107.375 98.0205 107.664C97.5165 107.944 96.9425 108.084 96.2985 108.084ZM96.4105 106.908C96.8772 106.908 97.2972 106.801 97.6705 106.586C98.0532 106.371 98.3519 106.068 98.5665 105.676C98.7905 105.275 98.9025 104.813 98.9025 104.29C98.9025 103.758 98.7905 103.301 98.5665 102.918C98.3519 102.526 98.0532 102.223 97.6705 102.008C97.2972 101.793 96.8772 101.686 96.4105 101.686C95.9345 101.686 95.5099 101.793 95.1365 102.008C94.7632 102.223 94.4645 102.526 94.2405 102.918C94.0165 103.301 93.9045 103.758 93.9045 104.29C93.9045 104.813 94.0165 105.275 94.2405 105.676C94.4645 106.068 94.7632 106.371 95.1365 106.586C95.5099 106.801 95.9345 106.908 96.4105 106.908ZM98.9445 108V105.998L99.0285 104.276L98.8885 102.554V97.612H100.233V108H98.9445ZM105.975 108V100.58H107.319V108H105.975ZM106.647 99.152C106.386 99.152 106.167 99.068 105.989 98.9C105.821 98.732 105.737 98.5267 105.737 98.284C105.737 98.032 105.821 97.822 105.989 97.654C106.167 97.486 106.386 97.402 106.647 97.402C106.909 97.402 107.123 97.486 107.291 97.654C107.469 97.8127 107.557 98.0133 107.557 98.256C107.557 98.508 107.473 98.7227 107.305 98.9C107.137 99.068 106.918 99.152 106.647 99.152ZM118.887 100.51C119.485 100.51 120.012 100.627 120.469 100.86C120.927 101.093 121.281 101.448 121.533 101.924C121.795 102.4 121.925 103.002 121.925 103.73V108H120.581V103.884C120.581 103.165 120.413 102.624 120.077 102.26C119.741 101.896 119.27 101.714 118.663 101.714C118.215 101.714 117.823 101.807 117.487 101.994C117.151 102.181 116.89 102.456 116.703 102.82C116.526 103.184 116.437 103.637 116.437 104.178V108H115.093V103.884C115.093 103.165 114.925 102.624 114.589 102.26C114.263 101.896 113.791 101.714 113.175 101.714C112.737 101.714 112.349 101.807 112.013 101.994C111.677 102.181 111.416 102.456 111.229 102.82C111.043 103.184 110.949 103.637 110.949 104.178V108H109.605V100.58H110.893V102.554L110.683 102.05C110.917 101.565 111.276 101.187 111.761 100.916C112.247 100.645 112.811 100.51 113.455 100.51C114.165 100.51 114.776 100.687 115.289 101.042C115.803 101.387 116.139 101.915 116.297 102.624L115.751 102.4C115.975 101.831 116.367 101.373 116.927 101.028C117.487 100.683 118.141 100.51 118.887 100.51ZM128.052 108.084C127.436 108.084 126.872 107.944 126.358 107.664C125.854 107.375 125.448 106.95 125.14 106.39C124.842 105.83 124.692 105.13 124.692 104.29C124.692 103.45 124.837 102.75 125.126 102.19C125.425 101.63 125.826 101.21 126.33 100.93C126.844 100.65 127.418 100.51 128.052 100.51C128.78 100.51 129.424 100.669 129.984 100.986C130.544 101.303 130.988 101.747 131.314 102.316C131.641 102.876 131.804 103.534 131.804 104.29C131.804 105.046 131.641 105.709 131.314 106.278C130.988 106.847 130.544 107.291 129.984 107.608C129.424 107.925 128.78 108.084 128.052 108.084ZM124.118 110.716V100.58H125.406V102.582L125.322 104.304L125.462 106.026V110.716H124.118ZM127.94 106.908C128.416 106.908 128.841 106.801 129.214 106.586C129.597 106.371 129.896 106.068 130.11 105.676C130.334 105.275 130.446 104.813 130.446 104.29C130.446 103.758 130.334 103.301 130.11 102.918C129.896 102.526 129.597 102.223 129.214 102.008C128.841 101.793 128.416 101.686 127.94 101.686C127.474 101.686 127.049 101.793 126.666 102.008C126.293 102.223 125.994 102.526 125.77 102.918C125.556 103.301 125.448 103.758 125.448 104.29C125.448 104.813 125.556 105.275 125.77 105.676C125.994 106.068 126.293 106.371 126.666 106.586C127.049 106.801 127.474 106.908 127.94 106.908ZM133.381 108V97.612H134.725V108H133.381ZM140.316 108.084C139.522 108.084 138.822 107.921 138.216 107.594C137.618 107.267 137.152 106.819 136.816 106.25C136.489 105.681 136.326 105.027 136.326 104.29C136.326 103.553 136.484 102.899 136.802 102.33C137.128 101.761 137.572 101.317 138.132 101C138.701 100.673 139.34 100.51 140.05 100.51C140.768 100.51 141.403 100.669 141.954 100.986C142.504 101.303 142.934 101.751 143.242 102.33C143.559 102.899 143.718 103.567 143.718 104.332C143.718 104.388 143.713 104.453 143.704 104.528C143.704 104.603 143.699 104.673 143.69 104.738H137.376V103.772H142.99L142.444 104.108C142.453 103.632 142.355 103.207 142.15 102.834C141.944 102.461 141.66 102.171 141.296 101.966C140.941 101.751 140.526 101.644 140.05 101.644C139.583 101.644 139.168 101.751 138.804 101.966C138.44 102.171 138.155 102.465 137.95 102.848C137.744 103.221 137.642 103.651 137.642 104.136V104.36C137.642 104.855 137.754 105.298 137.978 105.69C138.211 106.073 138.533 106.371 138.944 106.586C139.354 106.801 139.826 106.908 140.358 106.908C140.796 106.908 141.193 106.833 141.548 106.684C141.912 106.535 142.229 106.311 142.5 106.012L143.242 106.88C142.906 107.272 142.486 107.571 141.982 107.776C141.487 107.981 140.932 108.084 140.316 108.084ZM154.586 100.51C155.183 100.51 155.71 100.627 156.168 100.86C156.625 101.093 156.98 101.448 157.232 101.924C157.493 102.4 157.624 103.002 157.624 103.73V108H156.28V103.884C156.28 103.165 156.112 102.624 155.776 102.26C155.44 101.896 154.968 101.714 154.362 101.714C153.914 101.714 153.522 101.807 153.186 101.994C152.85 102.181 152.588 102.456 152.402 102.82C152.224 103.184 152.136 103.637 152.136 104.178V108H150.792V103.884C150.792 103.165 150.624 102.624 150.288 102.26C149.961 101.896 149.49 101.714 148.874 101.714C148.435 101.714 148.048 101.807 147.712 101.994C147.376 102.181 147.114 102.456 146.928 102.82C146.741 103.184 146.648 103.637 146.648 104.178V108H145.304V100.58H146.592V102.554L146.382 102.05C146.615 101.565 146.974 101.187 147.46 100.916C147.945 100.645 148.51 100.51 149.154 100.51C149.863 100.51 150.474 100.687 150.988 101.042C151.501 101.387 151.837 101.915 151.996 102.624L151.45 102.4C151.674 101.831 152.066 101.373 152.626 101.028C153.186 100.683 153.839 100.51 154.586 100.51ZM163.121 108.084C162.327 108.084 161.627 107.921 161.021 107.594C160.423 107.267 159.957 106.819 159.621 106.25C159.294 105.681 159.131 105.027 159.131 104.29C159.131 103.553 159.289 102.899 159.607 102.33C159.933 101.761 160.377 101.317 160.937 101C161.506 100.673 162.145 100.51 162.855 100.51C163.573 100.51 164.208 100.669 164.759 100.986C165.309 101.303 165.739 101.751 166.047 102.33C166.364 102.899 166.523 103.567 166.523 104.332C166.523 104.388 166.518 104.453 166.509 104.528C166.509 104.603 166.504 104.673 166.495 104.738H160.181V103.772H165.795L165.249 104.108C165.258 103.632 165.16 103.207 164.955 102.834C164.749 102.461 164.465 102.171 164.101 101.966C163.746 101.751 163.331 101.644 162.855 101.644C162.388 101.644 161.973 101.751 161.609 101.966C161.245 102.171 160.96 102.465 160.755 102.848C160.549 103.221 160.447 103.651 160.447 104.136V104.36C160.447 104.855 160.559 105.298 160.783 105.69C161.016 106.073 161.338 106.371 161.749 106.586C162.159 106.801 162.631 106.908 163.163 106.908C163.601 106.908 163.998 106.833 164.353 106.684C164.717 106.535 165.034 106.311 165.305 106.012L166.047 106.88C165.711 107.272 165.291 107.571 164.787 107.776C164.292 107.981 163.737 108.084 163.121 108.084ZM172.071 100.51C172.678 100.51 173.21 100.627 173.667 100.86C174.134 101.093 174.498 101.448 174.759 101.924C175.02 102.4 175.151 103.002 175.151 103.73V108H173.807V103.884C173.807 103.165 173.63 102.624 173.275 102.26C172.93 101.896 172.44 101.714 171.805 101.714C171.329 101.714 170.914 101.807 170.559 101.994C170.204 102.181 169.929 102.456 169.733 102.82C169.546 103.184 169.453 103.637 169.453 104.178V108H168.109V100.58H169.397V102.582L169.187 102.05C169.43 101.565 169.803 101.187 170.307 100.916C170.811 100.645 171.399 100.51 172.071 100.51ZM179.906 108.084C179.16 108.084 178.581 107.883 178.17 107.482C177.76 107.081 177.554 106.507 177.554 105.76V98.956H178.898V105.704C178.898 106.105 178.996 106.413 179.192 106.628C179.398 106.843 179.687 106.95 180.06 106.95C180.48 106.95 180.83 106.833 181.11 106.6L181.53 107.566C181.325 107.743 181.078 107.874 180.788 107.958C180.508 108.042 180.214 108.084 179.906 108.084ZM176.294 101.686V100.58H181.026V101.686H176.294ZM189.477 108.084C188.842 108.084 188.282 107.967 187.797 107.734C187.321 107.501 186.948 107.146 186.677 106.67C186.416 106.185 186.285 105.578 186.285 104.85V100.58H187.629V104.696C187.629 105.424 187.802 105.97 188.147 106.334C188.502 106.698 188.996 106.88 189.631 106.88C190.098 106.88 190.504 106.787 190.849 106.6C191.194 106.404 191.46 106.124 191.647 105.76C191.834 105.387 191.927 104.939 191.927 104.416V100.58H193.271V108H191.997V105.998L192.207 106.53C191.964 107.025 191.6 107.407 191.115 107.678C190.63 107.949 190.084 108.084 189.477 108.084ZM197.678 108.084C197.062 108.084 196.474 108 195.914 107.832C195.363 107.664 194.929 107.459 194.612 107.216L195.172 106.152C195.489 106.367 195.881 106.549 196.348 106.698C196.814 106.847 197.29 106.922 197.776 106.922C198.401 106.922 198.849 106.833 199.12 106.656C199.4 106.479 199.54 106.231 199.54 105.914C199.54 105.681 199.456 105.499 199.288 105.368C199.12 105.237 198.896 105.139 198.616 105.074C198.345 105.009 198.042 104.953 197.706 104.906C197.37 104.85 197.034 104.785 196.698 104.71C196.362 104.626 196.054 104.514 195.774 104.374C195.494 104.225 195.27 104.024 195.102 103.772C194.934 103.511 194.85 103.165 194.85 102.736C194.85 102.288 194.976 101.896 195.228 101.56C195.48 101.224 195.834 100.967 196.292 100.79C196.758 100.603 197.309 100.51 197.944 100.51C198.429 100.51 198.919 100.571 199.414 100.692C199.918 100.804 200.328 100.967 200.646 101.182L200.072 102.246C199.736 102.022 199.386 101.868 199.022 101.784C198.658 101.7 198.294 101.658 197.93 101.658C197.342 101.658 196.903 101.756 196.614 101.952C196.324 102.139 196.18 102.381 196.18 102.68C196.18 102.932 196.264 103.128 196.432 103.268C196.609 103.399 196.833 103.501 197.104 103.576C197.384 103.651 197.692 103.716 198.028 103.772C198.364 103.819 198.7 103.884 199.036 103.968C199.372 104.043 199.675 104.15 199.946 104.29C200.226 104.43 200.45 104.626 200.618 104.878C200.795 105.13 200.884 105.466 200.884 105.886C200.884 106.334 200.753 106.721 200.492 107.048C200.23 107.375 199.862 107.631 199.386 107.818C198.91 107.995 198.34 108.084 197.678 108.084ZM205.587 108.084C204.794 108.084 204.094 107.921 203.487 107.594C202.89 107.267 202.423 106.819 202.087 106.25C201.761 105.681 201.597 105.027 201.597 104.29C201.597 103.553 201.756 102.899 202.073 102.33C202.4 101.761 202.843 101.317 203.403 101C203.973 100.673 204.612 100.51 205.321 100.51C206.04 100.51 206.675 100.669 207.225 100.986C207.776 101.303 208.205 101.751 208.513 102.33C208.831 102.899 208.989 103.567 208.989 104.332C208.989 104.388 208.985 104.453 208.975 104.528C208.975 104.603 208.971 104.673 208.961 104.738H202.647V103.772H208.261L207.715 104.108C207.725 103.632 207.627 103.207 207.421 102.834C207.216 102.461 206.931 102.171 206.567 101.966C206.213 101.751 205.797 101.644 205.321 101.644C204.855 101.644 204.439 101.751 204.075 101.966C203.711 102.171 203.427 102.465 203.221 102.848C203.016 103.221 202.913 103.651 202.913 104.136V104.36C202.913 104.855 203.025 105.298 203.249 105.69C203.483 106.073 203.805 106.371 204.215 106.586C204.626 106.801 205.097 106.908 205.629 106.908C206.068 106.908 206.465 106.833 206.819 106.684C207.183 106.535 207.501 106.311 207.771 106.012L208.513 106.88C208.177 107.272 207.757 107.571 207.253 107.776C206.759 107.981 206.203 108.084 205.587 108.084ZM210.575 108V100.58H211.863V102.596L211.737 102.092C211.943 101.579 212.288 101.187 212.773 100.916C213.259 100.645 213.856 100.51 214.565 100.51V101.812C214.509 101.803 214.453 101.798 214.397 101.798C214.351 101.798 214.304 101.798 214.257 101.798C213.539 101.798 212.969 102.013 212.549 102.442C212.129 102.871 211.919 103.492 211.919 104.304V108H210.575ZM219.713 108V99.922C219.713 99.194 219.923 98.6153 220.343 98.186C220.773 97.7473 221.379 97.528 222.163 97.528C222.453 97.528 222.728 97.5653 222.989 97.64C223.26 97.7053 223.489 97.8127 223.675 97.962L223.269 98.984C223.129 98.872 222.971 98.788 222.793 98.732C222.616 98.6667 222.429 98.634 222.233 98.634C221.841 98.634 221.543 98.746 221.337 98.97C221.132 99.1847 221.029 99.5067 221.029 99.936V100.93L221.057 101.546V108H219.713ZM218.453 101.686V100.58H223.185V101.686H218.453ZM227.368 108.084C226.574 108.084 225.874 107.921 225.268 107.594C224.67 107.267 224.204 106.819 223.868 106.25C223.541 105.681 223.378 105.027 223.378 104.29C223.378 103.553 223.536 102.899 223.854 102.33C224.18 101.761 224.624 101.317 225.184 101C225.753 100.673 226.392 100.51 227.102 100.51C227.82 100.51 228.455 100.669 229.006 100.986C229.556 101.303 229.986 101.751 230.294 102.33C230.611 102.899 230.77 103.567 230.77 104.332C230.77 104.388 230.765 104.453 230.756 104.528C230.756 104.603 230.751 104.673 230.742 104.738H224.428V103.772H230.042L229.496 104.108C229.505 103.632 229.407 103.207 229.202 102.834C228.996 102.461 228.712 102.171 228.348 101.966C227.993 101.751 227.578 101.644 227.102 101.644C226.635 101.644 226.22 101.751 225.856 101.966C225.492 102.171 225.207 102.465 225.002 102.848C224.796 103.221 224.694 103.651 224.694 104.136V104.36C224.694 104.855 224.806 105.298 225.03 105.69C225.263 106.073 225.585 106.371 225.996 106.586C226.406 106.801 226.878 106.908 227.41 106.908C227.848 106.908 228.245 106.833 228.6 106.684C228.964 106.535 229.281 106.311 229.552 106.012L230.294 106.88C229.958 107.272 229.538 107.571 229.034 107.776C228.539 107.981 227.984 108.084 227.368 108.084ZM235.66 108.084C234.867 108.084 234.167 107.921 233.56 107.594C232.963 107.267 232.496 106.819 232.16 106.25C231.833 105.681 231.67 105.027 231.67 104.29C231.67 103.553 231.829 102.899 232.146 102.33C232.473 101.761 232.916 101.317 233.476 101C234.045 100.673 234.685 100.51 235.394 100.51C236.113 100.51 236.747 100.669 237.298 100.986C237.849 101.303 238.278 101.751 238.586 102.33C238.903 102.899 239.062 103.567 239.062 104.332C239.062 104.388 239.057 104.453 239.048 104.528C239.048 104.603 239.043 104.673 239.034 104.738H232.72V103.772H238.334L237.788 104.108C237.797 103.632 237.699 103.207 237.494 102.834C237.289 102.461 237.004 102.171 236.64 101.966C236.285 101.751 235.87 101.644 235.394 101.644C234.927 101.644 234.512 101.751 234.148 101.966C233.784 102.171 233.499 102.465 233.294 102.848C233.089 103.221 232.986 103.651 232.986 104.136V104.36C232.986 104.855 233.098 105.298 233.322 105.69C233.555 106.073 233.877 106.371 234.288 106.586C234.699 106.801 235.17 106.908 235.702 106.908C236.141 106.908 236.537 106.833 236.892 106.684C237.256 106.535 237.573 106.311 237.844 106.012L238.586 106.88C238.25 107.272 237.83 107.571 237.326 107.776C236.831 107.981 236.276 108.084 235.66 108.084ZM243.714 108.084C242.995 108.084 242.351 107.925 241.782 107.608C241.222 107.291 240.779 106.847 240.452 106.278C240.125 105.709 239.962 105.046 239.962 104.29C239.962 103.534 240.125 102.876 240.452 102.316C240.779 101.747 241.222 101.303 241.782 100.986C242.351 100.669 242.995 100.51 243.714 100.51C244.339 100.51 244.904 100.65 245.408 100.93C245.912 101.21 246.313 101.63 246.612 102.19C246.92 102.75 247.074 103.45 247.074 104.29C247.074 105.13 246.925 105.83 246.626 106.39C246.337 106.95 245.94 107.375 245.436 107.664C244.932 107.944 244.358 108.084 243.714 108.084ZM243.826 106.908C244.293 106.908 244.713 106.801 245.086 106.586C245.469 106.371 245.767 106.068 245.982 105.676C246.206 105.275 246.318 104.813 246.318 104.29C246.318 103.758 246.206 103.301 245.982 102.918C245.767 102.526 245.469 102.223 245.086 102.008C244.713 101.793 244.293 101.686 243.826 101.686C243.35 101.686 242.925 101.793 242.552 102.008C242.179 102.223 241.88 102.526 241.656 102.918C241.432 103.301 241.32 103.758 241.32 104.29C241.32 104.813 241.432 105.275 241.656 105.676C241.88 106.068 242.179 106.371 242.552 106.586C242.925 106.801 243.35 106.908 243.826 106.908ZM246.36 108V105.998L246.444 104.276L246.304 102.554V97.612H247.648V108H246.36ZM253.845 108.084C253.21 108.084 252.636 107.944 252.123 107.664C251.619 107.375 251.218 106.95 250.919 106.39C250.63 105.83 250.485 105.13 250.485 104.29C250.485 103.45 250.634 102.75 250.933 102.19C251.241 101.63 251.647 101.21 252.151 100.93C252.664 100.65 253.229 100.51 253.845 100.51C254.573 100.51 255.217 100.669 255.777 100.986C256.337 101.303 256.78 101.747 257.107 102.316C257.434 102.876 257.597 103.534 257.597 104.29C257.597 105.046 257.434 105.709 257.107 106.278C256.78 106.847 256.337 107.291 255.777 107.608C255.217 107.925 254.573 108.084 253.845 108.084ZM249.911 108V97.612H251.255V102.554L251.115 104.276L251.199 105.998V108H249.911ZM253.733 106.908C254.209 106.908 254.634 106.801 255.007 106.586C255.39 106.371 255.688 106.068 255.903 105.676C256.127 105.275 256.239 104.813 256.239 104.29C256.239 103.758 256.127 103.301 255.903 102.918C255.688 102.526 255.39 102.223 255.007 102.008C254.634 101.793 254.209 101.686 253.733 101.686C253.266 101.686 252.842 101.793 252.459 102.008C252.086 102.223 251.787 102.526 251.563 102.918C251.348 103.301 251.241 103.758 251.241 104.29C251.241 104.813 251.348 105.275 251.563 105.676C251.787 106.068 252.086 106.371 252.459 106.586C252.842 106.801 253.266 106.908 253.733 106.908ZM263.712 108V106.432L263.642 106.138V103.464C263.642 102.895 263.474 102.456 263.138 102.148C262.811 101.831 262.316 101.672 261.654 101.672C261.215 101.672 260.786 101.747 260.366 101.896C259.946 102.036 259.591 102.227 259.302 102.47L258.742 101.462C259.124 101.154 259.582 100.921 260.114 100.762C260.655 100.594 261.22 100.51 261.808 100.51C262.825 100.51 263.609 100.757 264.16 101.252C264.71 101.747 264.986 102.503 264.986 103.52V108H263.712ZM261.276 108.084C260.725 108.084 260.24 107.991 259.82 107.804C259.409 107.617 259.092 107.361 258.868 107.034C258.644 106.698 258.532 106.32 258.532 105.9C258.532 105.499 258.625 105.135 258.812 104.808C259.008 104.481 259.32 104.22 259.75 104.024C260.188 103.828 260.776 103.73 261.514 103.73H263.866V104.696H261.57C260.898 104.696 260.445 104.808 260.212 105.032C259.978 105.256 259.862 105.527 259.862 105.844C259.862 106.208 260.006 106.502 260.296 106.726C260.585 106.941 260.986 107.048 261.5 107.048C262.004 107.048 262.442 106.936 262.816 106.712C263.198 106.488 263.474 106.161 263.642 105.732L263.908 106.656C263.73 107.095 263.418 107.445 262.97 107.706C262.522 107.958 261.957 108.084 261.276 108.084ZM270.427 108.084C269.671 108.084 268.994 107.921 268.397 107.594C267.809 107.267 267.347 106.819 267.011 106.25C266.675 105.681 266.507 105.027 266.507 104.29C266.507 103.553 266.675 102.899 267.011 102.33C267.347 101.761 267.809 101.317 268.397 101C268.994 100.673 269.671 100.51 270.427 100.51C271.099 100.51 271.696 100.645 272.219 100.916C272.751 101.177 273.162 101.569 273.451 102.092L272.429 102.75C272.186 102.386 271.888 102.12 271.533 101.952C271.188 101.775 270.814 101.686 270.413 101.686C269.928 101.686 269.494 101.793 269.111 102.008C268.728 102.223 268.425 102.526 268.201 102.918C267.977 103.301 267.865 103.758 267.865 104.29C267.865 104.822 267.977 105.284 268.201 105.676C268.425 106.068 268.728 106.371 269.111 106.586C269.494 106.801 269.928 106.908 270.413 106.908C270.814 106.908 271.188 106.824 271.533 106.656C271.888 106.479 272.186 106.208 272.429 105.844L273.451 106.488C273.162 107.001 272.751 107.398 272.219 107.678C271.696 107.949 271.099 108.084 270.427 108.084ZM275.907 106.208L275.935 104.486L280.205 100.58H281.829L278.553 103.8L277.825 104.416L275.907 106.208ZM274.815 108V97.612H276.159V108H274.815ZM280.485 108L277.573 104.388L278.441 103.31L282.137 108H280.485ZM289.19 108.084C288.443 108.084 287.865 107.883 287.454 107.482C287.043 107.081 286.838 106.507 286.838 105.76V98.956H288.182V105.704C288.182 106.105 288.28 106.413 288.476 106.628C288.681 106.843 288.971 106.95 289.344 106.95C289.764 106.95 290.114 106.833 290.394 106.6L290.814 107.566C290.609 107.743 290.361 107.874 290.072 107.958C289.792 108.042 289.498 108.084 289.19 108.084ZM285.578 101.686V100.58H290.31V101.686H285.578ZM295.091 108.084C294.344 108.084 293.681 107.921 293.103 107.594C292.524 107.267 292.067 106.819 291.731 106.25C291.395 105.671 291.227 105.018 291.227 104.29C291.227 103.553 291.395 102.899 291.731 102.33C292.067 101.761 292.524 101.317 293.103 101C293.681 100.673 294.344 100.51 295.091 100.51C295.828 100.51 296.486 100.673 297.065 101C297.653 101.317 298.11 101.761 298.437 102.33C298.773 102.89 298.941 103.543 298.941 104.29C298.941 105.027 298.773 105.681 298.437 106.25C298.11 106.819 297.653 107.267 297.065 107.594C296.486 107.921 295.828 108.084 295.091 108.084ZM295.091 106.908C295.567 106.908 295.991 106.801 296.365 106.586C296.747 106.371 297.046 106.068 297.261 105.676C297.475 105.275 297.583 104.813 297.583 104.29C297.583 103.758 297.475 103.301 297.261 102.918C297.046 102.526 296.747 102.223 296.365 102.008C295.991 101.793 295.567 101.686 295.091 101.686C294.615 101.686 294.19 101.793 293.817 102.008C293.443 102.223 293.145 102.526 292.921 102.918C292.697 103.301 292.585 103.758 292.585 104.29C292.585 104.813 292.697 105.275 292.921 105.676C293.145 106.068 293.443 106.371 293.817 106.586C294.19 106.801 294.615 106.908 295.091 106.908ZM25.274 129V121.58H26.562V123.596L26.436 123.092C26.6413 122.579 26.9867 122.187 27.472 121.916C27.9573 121.645 28.5547 121.51 29.264 121.51V122.812C29.208 122.803 29.152 122.798 29.096 122.798C29.0493 122.798 29.0027 122.798 28.956 122.798C28.2373 122.798 27.668 123.013 27.248 123.442C26.828 123.871 26.618 124.492 26.618 125.304V129H25.274ZM33.8761 129.084C33.0828 129.084 32.3828 128.921 31.7761 128.594C31.1788 128.267 30.7121 127.819 30.3761 127.25C30.0495 126.681 29.8861 126.027 29.8861 125.29C29.8861 124.553 30.0448 123.899 30.3621 123.33C30.6888 122.761 31.1321 122.317 31.6921 122C32.2615 121.673 32.9008 121.51 33.6101 121.51C34.3288 121.51 34.9635 121.669 35.5141 121.986C36.0648 122.303 36.4941 122.751 36.8021 123.33C37.1195 123.899 37.2781 124.567 37.2781 125.332C37.2781 125.388 37.2735 125.453 37.2641 125.528C37.2641 125.603 37.2595 125.673 37.2501 125.738H30.9361V124.772H36.5501L36.0041 125.108C36.0135 124.632 35.9155 124.207 35.7101 123.834C35.5048 123.461 35.2201 123.171 34.8561 122.966C34.5015 122.751 34.0861 122.644 33.6101 122.644C33.1435 122.644 32.7281 122.751 32.3641 122.966C32.0001 123.171 31.7155 123.465 31.5101 123.848C31.3048 124.221 31.2021 124.651 31.2021 125.136V125.36C31.2021 125.855 31.3141 126.298 31.5381 126.69C31.7715 127.073 32.0935 127.371 32.5041 127.586C32.9148 127.801 33.3861 127.908 33.9181 127.908C34.3568 127.908 34.7535 127.833 35.1081 127.684C35.4721 127.535 35.7895 127.311 36.0601 127.012L36.8021 127.88C36.4661 128.272 36.0461 128.571 35.5421 128.776C35.0475 128.981 34.4921 129.084 33.8761 129.084ZM39.0604 129V120.922C39.0604 120.194 39.2704 119.615 39.6904 119.186C40.1197 118.747 40.7264 118.528 41.5104 118.528C41.7997 118.528 42.0751 118.565 42.3364 118.64C42.6071 118.705 42.8357 118.813 43.0224 118.962L42.6164 119.984C42.4764 119.872 42.3177 119.788 42.1404 119.732C41.9631 119.667 41.7764 119.634 41.5804 119.634C41.1884 119.634 40.8897 119.746 40.6844 119.97C40.4791 120.185 40.3764 120.507 40.3764 120.936V121.93L40.4044 122.546V129H39.0604ZM37.8004 122.686V121.58H42.5324V122.686H37.8004ZM43.8064 129V121.58H45.1504V129H43.8064ZM44.4784 120.152C44.2171 120.152 43.9977 120.068 43.8204 119.9C43.6524 119.732 43.5684 119.527 43.5684 119.284C43.5684 119.032 43.6524 118.822 43.8204 118.654C43.9977 118.486 44.2171 118.402 44.4784 118.402C44.7397 118.402 44.9544 118.486 45.1224 118.654C45.2997 118.813 45.3884 119.013 45.3884 119.256C45.3884 119.508 45.3044 119.723 45.1364 119.9C44.9684 120.068 44.7491 120.152 44.4784 120.152ZM51.3921 121.51C51.9988 121.51 52.5308 121.627 52.9881 121.86C53.4548 122.093 53.8188 122.448 54.0801 122.924C54.3414 123.4 54.4721 124.002 54.4721 124.73V129H53.1281V124.884C53.1281 124.165 52.9508 123.624 52.5961 123.26C52.2508 122.896 51.7608 122.714 51.1261 122.714C50.6501 122.714 50.2348 122.807 49.8801 122.994C49.5254 123.181 49.2501 123.456 49.0541 123.82C48.8674 124.184 48.7741 124.637 48.7741 125.178V129H47.4301V121.58H48.7181V123.582L48.5081 123.05C48.7508 122.565 49.1241 122.187 49.6281 121.916C50.1321 121.645 50.7201 121.51 51.3921 121.51ZM59.9834 129.084C59.1901 129.084 58.4901 128.921 57.8834 128.594C57.2861 128.267 56.8194 127.819 56.4834 127.25C56.1567 126.681 55.9934 126.027 55.9934 125.29C55.9934 124.553 56.1521 123.899 56.4694 123.33C56.7961 122.761 57.2394 122.317 57.7994 122C58.3687 121.673 59.0081 121.51 59.7174 121.51C60.4361 121.51 61.0707 121.669 61.6214 121.986C62.1721 122.303 62.6014 122.751 62.9094 123.33C63.2267 123.899 63.3854 124.567 63.3854 125.332C63.3854 125.388 63.3807 125.453 63.3714 125.528C63.3714 125.603 63.3667 125.673 63.3574 125.738H57.0434V124.772H62.6574L62.1114 125.108C62.1207 124.632 62.0227 124.207 61.8174 123.834C61.6121 123.461 61.3274 123.171 60.9634 122.966C60.6087 122.751 60.1934 122.644 59.7174 122.644C59.2507 122.644 58.8354 122.751 58.4714 122.966C58.1074 123.171 57.8227 123.465 57.6174 123.848C57.4121 124.221 57.3094 124.651 57.3094 125.136V125.36C57.3094 125.855 57.4214 126.298 57.6454 126.69C57.8787 127.073 58.2007 127.371 58.6114 127.586C59.0221 127.801 59.4934 127.908 60.0254 127.908C60.4641 127.908 60.8607 127.833 61.2154 127.684C61.5794 127.535 61.8967 127.311 62.1674 127.012L62.9094 127.88C62.5734 128.272 62.1534 128.571 61.6494 128.776C61.1547 128.981 60.5994 129.084 59.9834 129.084ZM68.6474 129V120.922C68.6474 120.194 68.8574 119.615 69.2774 119.186C69.7068 118.747 70.3134 118.528 71.0974 118.528C71.3868 118.528 71.6621 118.565 71.9234 118.64C72.1941 118.705 72.4228 118.813 72.6094 118.962L72.2034 119.984C72.0634 119.872 71.9048 119.788 71.7274 119.732C71.5501 119.667 71.3634 119.634 71.1674 119.634C70.7754 119.634 70.4768 119.746 70.2714 119.97C70.0661 120.185 69.9634 120.507 69.9634 120.936V121.93L69.9914 122.546V129H68.6474ZM67.3874 122.686V121.58H72.1194V122.686H67.3874ZM76.3016 129.084C75.5083 129.084 74.8083 128.921 74.2016 128.594C73.6043 128.267 73.1376 127.819 72.8016 127.25C72.4749 126.681 72.3116 126.027 72.3116 125.29C72.3116 124.553 72.4703 123.899 72.7876 123.33C73.1143 122.761 73.5576 122.317 74.1176 122C74.6869 121.673 75.3263 121.51 76.0356 121.51C76.7543 121.51 77.3889 121.669 77.9396 121.986C78.4903 122.303 78.9196 122.751 79.2276 123.33C79.5449 123.899 79.7036 124.567 79.7036 125.332C79.7036 125.388 79.6989 125.453 79.6896 125.528C79.6896 125.603 79.6849 125.673 79.6756 125.738H73.3616V124.772H78.9756L78.4296 125.108C78.4389 124.632 78.3409 124.207 78.1356 123.834C77.9303 123.461 77.6456 123.171 77.2816 122.966C76.9269 122.751 76.5116 122.644 76.0356 122.644C75.5689 122.644 75.1536 122.751 74.7896 122.966C74.4256 123.171 74.1409 123.465 73.9356 123.848C73.7303 124.221 73.6276 124.651 73.6276 125.136V125.36C73.6276 125.855 73.7396 126.298 73.9636 126.69C74.1969 127.073 74.5189 127.371 74.9296 127.586C75.3403 127.801 75.8116 127.908 76.3436 127.908C76.7823 127.908 77.1789 127.833 77.5336 127.684C77.8976 127.535 78.2149 127.311 78.4856 127.012L79.2276 127.88C78.8916 128.272 78.4716 128.571 77.9676 128.776C77.4729 128.981 76.9176 129.084 76.3016 129.084ZM85.6908 129V127.432L85.6208 127.138V124.464C85.6208 123.895 85.4528 123.456 85.1168 123.148C84.7901 122.831 84.2954 122.672 83.6328 122.672C83.1941 122.672 82.7648 122.747 82.3448 122.896C81.9248 123.036 81.5701 123.227 81.2808 123.47L80.7208 122.462C81.1034 122.154 81.5608 121.921 82.0928 121.762C82.6341 121.594 83.1988 121.51 83.7868 121.51C84.8041 121.51 85.5881 121.757 86.1388 122.252C86.6894 122.747 86.9648 123.503 86.9648 124.52V129H85.6908ZM83.2548 129.084C82.7041 129.084 82.2188 128.991 81.7988 128.804C81.3881 128.617 81.0708 128.361 80.8468 128.034C80.6228 127.698 80.5108 127.32 80.5108 126.9C80.5108 126.499 80.6041 126.135 80.7908 125.808C80.9868 125.481 81.2994 125.22 81.7288 125.024C82.1674 124.828 82.7554 124.73 83.4928 124.73H85.8448V125.696H83.5488C82.8768 125.696 82.4241 125.808 82.1908 126.032C81.9574 126.256 81.8408 126.527 81.8408 126.844C81.8408 127.208 81.9854 127.502 82.2748 127.726C82.5641 127.941 82.9654 128.048 83.4788 128.048C83.9828 128.048 84.4214 127.936 84.7948 127.712C85.1774 127.488 85.4528 127.161 85.6208 126.732L85.8868 127.656C85.7094 128.095 85.3968 128.445 84.9488 128.706C84.5008 128.958 83.9361 129.084 83.2548 129.084ZM91.72 129.084C90.9733 129.084 90.3946 128.883 89.984 128.482C89.5733 128.081 89.368 127.507 89.368 126.76V119.956H90.712V126.704C90.712 127.105 90.81 127.413 91.006 127.628C91.2113 127.843 91.5006 127.95 91.874 127.95C92.294 127.95 92.644 127.833 92.924 127.6L93.344 128.566C93.1386 128.743 92.8913 128.874 92.602 128.958C92.322 129.042 92.028 129.084 91.72 129.084ZM88.108 122.686V121.58H92.84V122.686H88.108ZM97.8108 129.084C97.1762 129.084 96.6162 128.967 96.1308 128.734C95.6548 128.501 95.2815 128.146 95.0108 127.67C94.7495 127.185 94.6188 126.578 94.6188 125.85V121.58H95.9628V125.696C95.9628 126.424 96.1355 126.97 96.4808 127.334C96.8355 127.698 97.3302 127.88 97.9648 127.88C98.4315 127.88 98.8375 127.787 99.1828 127.6C99.5282 127.404 99.7942 127.124 99.9808 126.76C100.168 126.387 100.261 125.939 100.261 125.416V121.58H101.605V129H100.331V126.998L100.541 127.53C100.298 128.025 99.9342 128.407 99.4488 128.678C98.9635 128.949 98.4175 129.084 97.8108 129.084ZM103.883 129V121.58H105.171V123.596L105.045 123.092C105.251 122.579 105.596 122.187 106.081 121.916C106.567 121.645 107.164 121.51 107.873 121.51V122.812C107.817 122.803 107.761 122.798 107.705 122.798C107.659 122.798 107.612 122.798 107.565 122.798C106.847 122.798 106.277 123.013 105.857 123.442C105.437 123.871 105.227 124.492 105.227 125.304V129H103.883ZM112.486 129.084C111.692 129.084 110.992 128.921 110.386 128.594C109.788 128.267 109.322 127.819 108.986 127.25C108.659 126.681 108.496 126.027 108.496 125.29C108.496 124.553 108.654 123.899 108.972 123.33C109.298 122.761 109.742 122.317 110.302 122C110.871 121.673 111.51 121.51 112.22 121.51C112.938 121.51 113.573 121.669 114.124 121.986C114.674 122.303 115.104 122.751 115.412 123.33C115.729 123.899 115.888 124.567 115.888 125.332C115.888 125.388 115.883 125.453 115.874 125.528C115.874 125.603 115.869 125.673 115.86 125.738H109.546V124.772H115.16L114.614 125.108C114.623 124.632 114.525 124.207 114.32 123.834C114.114 123.461 113.83 123.171 113.466 122.966C113.111 122.751 112.696 122.644 112.22 122.644C111.753 122.644 111.338 122.751 110.974 122.966C110.61 123.171 110.325 123.465 110.12 123.848C109.914 124.221 109.812 124.651 109.812 125.136V125.36C109.812 125.855 109.924 126.298 110.148 126.69C110.381 127.073 110.703 127.371 111.114 127.586C111.524 127.801 111.996 127.908 112.528 127.908C112.966 127.908 113.363 127.833 113.718 127.684C114.082 127.535 114.399 127.311 114.67 127.012L115.412 127.88C115.076 128.272 114.656 128.571 114.152 128.776C113.657 128.981 113.102 129.084 112.486 129.084ZM119.602 129.084C118.986 129.084 118.398 129 117.838 128.832C117.287 128.664 116.853 128.459 116.536 128.216L117.096 127.152C117.413 127.367 117.805 127.549 118.272 127.698C118.739 127.847 119.215 127.922 119.7 127.922C120.325 127.922 120.773 127.833 121.044 127.656C121.324 127.479 121.464 127.231 121.464 126.914C121.464 126.681 121.38 126.499 121.212 126.368C121.044 126.237 120.82 126.139 120.54 126.074C120.269 126.009 119.966 125.953 119.63 125.906C119.294 125.85 118.958 125.785 118.622 125.71C118.286 125.626 117.978 125.514 117.698 125.374C117.418 125.225 117.194 125.024 117.026 124.772C116.858 124.511 116.774 124.165 116.774 123.736C116.774 123.288 116.9 122.896 117.152 122.56C117.404 122.224 117.759 121.967 118.216 121.79C118.683 121.603 119.233 121.51 119.868 121.51C120.353 121.51 120.843 121.571 121.338 121.692C121.842 121.804 122.253 121.967 122.57 122.182L121.996 123.246C121.66 123.022 121.31 122.868 120.946 122.784C120.582 122.7 120.218 122.658 119.854 122.658C119.266 122.658 118.827 122.756 118.538 122.952C118.249 123.139 118.104 123.381 118.104 123.68C118.104 123.932 118.188 124.128 118.356 124.268C118.533 124.399 118.757 124.501 119.028 124.576C119.308 124.651 119.616 124.716 119.952 124.772C120.288 124.819 120.624 124.884 120.96 124.968C121.296 125.043 121.599 125.15 121.87 125.29C122.15 125.43 122.374 125.626 122.542 125.878C122.719 126.13 122.808 126.466 122.808 126.886C122.808 127.334 122.677 127.721 122.416 128.048C122.155 128.375 121.786 128.631 121.31 128.818C120.834 128.995 120.265 129.084 119.602 129.084ZM132.293 129V127.432L132.223 127.138V124.464C132.223 123.895 132.055 123.456 131.719 123.148C131.393 122.831 130.898 122.672 130.235 122.672C129.797 122.672 129.367 122.747 128.947 122.896C128.527 123.036 128.173 123.227 127.883 123.47L127.323 122.462C127.706 122.154 128.163 121.921 128.695 121.762C129.237 121.594 129.801 121.51 130.389 121.51C131.407 121.51 132.191 121.757 132.741 122.252C133.292 122.747 133.567 123.503 133.567 124.52V129H132.293ZM129.857 129.084C129.307 129.084 128.821 128.991 128.401 128.804C127.991 128.617 127.673 128.361 127.449 128.034C127.225 127.698 127.113 127.32 127.113 126.9C127.113 126.499 127.207 126.135 127.393 125.808C127.589 125.481 127.902 125.22 128.331 125.024C128.77 124.828 129.358 124.73 130.095 124.73H132.447V125.696H130.151C129.479 125.696 129.027 125.808 128.793 126.032C128.56 126.256 128.443 126.527 128.443 126.844C128.443 127.208 128.588 127.502 128.877 127.726C129.167 127.941 129.568 128.048 130.081 128.048C130.585 128.048 131.024 127.936 131.397 127.712C131.78 127.488 132.055 127.161 132.223 126.732L132.489 127.656C132.312 128.095 131.999 128.445 131.551 128.706C131.103 128.958 130.539 129.084 129.857 129.084ZM139.736 121.51C140.343 121.51 140.875 121.627 141.332 121.86C141.799 122.093 142.163 122.448 142.424 122.924C142.686 123.4 142.816 124.002 142.816 124.73V129H141.472V124.884C141.472 124.165 141.295 123.624 140.94 123.26C140.595 122.896 140.105 122.714 139.47 122.714C138.994 122.714 138.579 122.807 138.224 122.994C137.87 123.181 137.594 123.456 137.398 123.82C137.212 124.184 137.118 124.637 137.118 125.178V129H135.774V121.58H137.062V123.582L136.852 123.05C137.095 122.565 137.468 122.187 137.972 121.916C138.476 121.645 139.064 121.51 139.736 121.51ZM148.09 129.084C147.371 129.084 146.727 128.925 146.158 128.608C145.598 128.291 145.154 127.847 144.828 127.278C144.501 126.709 144.338 126.046 144.338 125.29C144.338 124.534 144.501 123.876 144.828 123.316C145.154 122.747 145.598 122.303 146.158 121.986C146.727 121.669 147.371 121.51 148.09 121.51C148.715 121.51 149.28 121.65 149.784 121.93C150.288 122.21 150.689 122.63 150.988 123.19C151.296 123.75 151.45 124.45 151.45 125.29C151.45 126.13 151.3 126.83 151.002 127.39C150.712 127.95 150.316 128.375 149.812 128.664C149.308 128.944 148.734 129.084 148.09 129.084ZM148.202 127.908C148.668 127.908 149.088 127.801 149.462 127.586C149.844 127.371 150.143 127.068 150.358 126.676C150.582 126.275 150.694 125.813 150.694 125.29C150.694 124.758 150.582 124.301 150.358 123.918C150.143 123.526 149.844 123.223 149.462 123.008C149.088 122.793 148.668 122.686 148.202 122.686C147.726 122.686 147.301 122.793 146.928 123.008C146.554 123.223 146.256 123.526 146.032 123.918C145.808 124.301 145.696 124.758 145.696 125.29C145.696 125.813 145.808 126.275 146.032 126.676C146.256 127.068 146.554 127.371 146.928 127.586C147.301 127.801 147.726 127.908 148.202 127.908ZM150.736 129V126.998L150.82 125.276L150.68 123.554V118.612H152.024V129H150.736ZM161.07 129.084C160.277 129.084 159.577 128.921 158.97 128.594C158.373 128.267 157.906 127.819 157.57 127.25C157.244 126.681 157.08 126.027 157.08 125.29C157.08 124.553 157.239 123.899 157.556 123.33C157.883 122.761 158.326 122.317 158.886 122C159.456 121.673 160.095 121.51 160.804 121.51C161.523 121.51 162.158 121.669 162.708 121.986C163.259 122.303 163.688 122.751 163.996 123.33C164.314 123.899 164.472 124.567 164.472 125.332C164.472 125.388 164.468 125.453 164.458 125.528C164.458 125.603 164.454 125.673 164.444 125.738H158.13V124.772H163.744L163.198 125.108C163.208 124.632 163.11 124.207 162.904 123.834C162.699 123.461 162.414 123.171 162.05 122.966C161.696 122.751 161.28 122.644 160.804 122.644C160.338 122.644 159.922 122.751 159.558 122.966C159.194 123.171 158.91 123.465 158.704 123.848C158.499 124.221 158.396 124.651 158.396 125.136V125.36C158.396 125.855 158.508 126.298 158.732 126.69C158.966 127.073 159.288 127.371 159.698 127.586C160.109 127.801 160.58 127.908 161.112 127.908C161.551 127.908 161.948 127.833 162.302 127.684C162.666 127.535 162.984 127.311 163.254 127.012L163.996 127.88C163.66 128.272 163.24 128.571 162.736 128.776C162.242 128.981 161.686 129.084 161.07 129.084ZM170.021 121.51C170.627 121.51 171.159 121.627 171.617 121.86C172.083 122.093 172.447 122.448 172.709 122.924C172.97 123.4 173.101 124.002 173.101 124.73V129H171.757V124.884C171.757 124.165 171.579 123.624 171.225 123.26C170.879 122.896 170.389 122.714 169.755 122.714C169.279 122.714 168.863 122.807 168.509 122.994C168.154 123.181 167.879 123.456 167.683 123.82C167.496 124.184 167.403 124.637 167.403 125.178V129H166.059V121.58H167.347V123.582L167.137 123.05C167.379 122.565 167.753 122.187 168.257 121.916C168.761 121.645 169.349 121.51 170.021 121.51ZM177.436 129.084C176.82 129.084 176.232 129 175.672 128.832C175.121 128.664 174.687 128.459 174.37 128.216L174.93 127.152C175.247 127.367 175.639 127.549 176.106 127.698C176.573 127.847 177.049 127.922 177.534 127.922C178.159 127.922 178.607 127.833 178.878 127.656C179.158 127.479 179.298 127.231 179.298 126.914C179.298 126.681 179.214 126.499 179.046 126.368C178.878 126.237 178.654 126.139 178.374 126.074C178.103 126.009 177.8 125.953 177.464 125.906C177.128 125.85 176.792 125.785 176.456 125.71C176.12 125.626 175.812 125.514 175.532 125.374C175.252 125.225 175.028 125.024 174.86 124.772C174.692 124.511 174.608 124.165 174.608 123.736C174.608 123.288 174.734 122.896 174.986 122.56C175.238 122.224 175.593 121.967 176.05 121.79C176.517 121.603 177.067 121.51 177.702 121.51C178.187 121.51 178.677 121.571 179.172 121.692C179.676 121.804 180.087 121.967 180.404 122.182L179.83 123.246C179.494 123.022 179.144 122.868 178.78 122.784C178.416 122.7 178.052 122.658 177.688 122.658C177.1 122.658 176.661 122.756 176.372 122.952C176.083 123.139 175.938 123.381 175.938 123.68C175.938 123.932 176.022 124.128 176.19 124.268C176.367 124.399 176.591 124.501 176.862 124.576C177.142 124.651 177.45 124.716 177.786 124.772C178.122 124.819 178.458 124.884 178.794 124.968C179.13 125.043 179.433 125.15 179.704 125.29C179.984 125.43 180.208 125.626 180.376 125.878C180.553 126.13 180.642 126.466 180.642 126.886C180.642 127.334 180.511 127.721 180.25 128.048C179.989 128.375 179.62 128.631 179.144 128.818C178.668 128.995 178.099 129.084 177.436 129.084ZM185.164 129.084C184.529 129.084 183.969 128.967 183.484 128.734C183.008 128.501 182.634 128.146 182.364 127.67C182.102 127.185 181.972 126.578 181.972 125.85V121.58H183.316V125.696C183.316 126.424 183.488 126.97 183.834 127.334C184.188 127.698 184.683 127.88 185.318 127.88C185.784 127.88 186.19 127.787 186.536 127.6C186.881 127.404 187.147 127.124 187.334 126.76C187.52 126.387 187.614 125.939 187.614 125.416V121.58H188.958V129H187.684V126.998L187.894 127.53C187.651 128.025 187.287 128.407 186.802 128.678C186.316 128.949 185.77 129.084 185.164 129.084ZM191.236 129V121.58H192.524V123.596L192.398 123.092C192.604 122.579 192.949 122.187 193.434 121.916C193.92 121.645 194.517 121.51 195.226 121.51V122.812C195.17 122.803 195.114 122.798 195.058 122.798C195.012 122.798 194.965 122.798 194.918 122.798C194.2 122.798 193.63 123.013 193.21 123.442C192.79 123.871 192.58 124.492 192.58 125.304V129H191.236ZM199.838 129.084C199.045 129.084 198.345 128.921 197.738 128.594C197.141 128.267 196.674 127.819 196.338 127.25C196.012 126.681 195.848 126.027 195.848 125.29C195.848 124.553 196.007 123.899 196.324 123.33C196.651 122.761 197.094 122.317 197.654 122C198.224 121.673 198.863 121.51 199.572 121.51C200.291 121.51 200.926 121.669 201.476 121.986C202.027 122.303 202.456 122.751 202.764 123.33C203.082 123.899 203.24 124.567 203.24 125.332C203.24 125.388 203.236 125.453 203.226 125.528C203.226 125.603 203.222 125.673 203.212 125.738H196.898V124.772H202.512L201.966 125.108C201.976 124.632 201.878 124.207 201.672 123.834C201.467 123.461 201.182 123.171 200.818 122.966C200.464 122.751 200.048 122.644 199.572 122.644C199.106 122.644 198.69 122.751 198.326 122.966C197.962 123.171 197.678 123.465 197.472 123.848C197.267 124.221 197.164 124.651 197.164 125.136V125.36C197.164 125.855 197.276 126.298 197.5 126.69C197.734 127.073 198.056 127.371 198.466 127.586C198.877 127.801 199.348 127.908 199.88 127.908C200.319 127.908 200.716 127.833 201.07 127.684C201.434 127.535 201.752 127.311 202.022 127.012L202.764 127.88C202.428 128.272 202.008 128.571 201.504 128.776C201.01 128.981 200.454 129.084 199.838 129.084ZM210.855 129.084C210.108 129.084 209.529 128.883 209.119 128.482C208.708 128.081 208.503 127.507 208.503 126.76V119.956H209.847V126.704C209.847 127.105 209.945 127.413 210.141 127.628C210.346 127.843 210.635 127.95 211.009 127.95C211.429 127.95 211.779 127.833 212.059 127.6L212.479 128.566C212.273 128.743 212.026 128.874 211.737 128.958C211.457 129.042 211.163 129.084 210.855 129.084ZM207.243 122.686V121.58H211.975V122.686H207.243ZM217.785 121.51C218.392 121.51 218.924 121.627 219.381 121.86C219.848 122.093 220.212 122.448 220.473 122.924C220.735 123.4 220.865 124.002 220.865 124.73V129H219.521V124.884C219.521 124.165 219.344 123.624 218.989 123.26C218.644 122.896 218.154 122.714 217.519 122.714C217.043 122.714 216.628 122.807 216.273 122.994C215.919 123.181 215.643 123.456 215.447 123.82C215.261 124.184 215.167 124.637 215.167 125.178V129H213.823V118.612H215.167V123.582L214.901 123.05C215.144 122.565 215.517 122.187 216.021 121.916C216.525 121.645 217.113 121.51 217.785 121.51ZM226.377 129.084C225.583 129.084 224.883 128.921 224.277 128.594C223.679 128.267 223.213 127.819 222.877 127.25C222.55 126.681 222.387 126.027 222.387 125.29C222.387 124.553 222.545 123.899 222.863 123.33C223.189 122.761 223.633 122.317 224.193 122C224.762 121.673 225.401 121.51 226.111 121.51C226.829 121.51 227.464 121.669 228.015 121.986C228.565 122.303 228.995 122.751 229.303 123.33C229.62 123.899 229.779 124.567 229.779 125.332C229.779 125.388 229.774 125.453 229.765 125.528C229.765 125.603 229.76 125.673 229.751 125.738H223.437V124.772H229.051L228.505 125.108C228.514 124.632 228.416 124.207 228.211 123.834C228.005 123.461 227.721 123.171 227.357 122.966C227.002 122.751 226.587 122.644 226.111 122.644C225.644 122.644 225.229 122.751 224.865 122.966C224.501 123.171 224.216 123.465 224.011 123.848C223.805 124.221 223.703 124.651 223.703 125.136V125.36C223.703 125.855 223.815 126.298 224.039 126.69C224.272 127.073 224.594 127.371 225.005 127.586C225.415 127.801 225.887 127.908 226.419 127.908C226.857 127.908 227.254 127.833 227.609 127.684C227.973 127.535 228.29 127.311 228.561 127.012L229.303 127.88C228.967 128.272 228.547 128.571 228.043 128.776C227.548 128.981 226.993 129.084 226.377 129.084ZM239.451 129V127.432L239.381 127.138V124.464C239.381 123.895 239.213 123.456 238.877 123.148C238.55 122.831 238.055 122.672 237.393 122.672C236.954 122.672 236.525 122.747 236.105 122.896C235.685 123.036 235.33 123.227 235.041 123.47L234.481 122.462C234.863 122.154 235.321 121.921 235.853 121.762C236.394 121.594 236.959 121.51 237.547 121.51C238.564 121.51 239.348 121.757 239.899 122.252C240.449 122.747 240.725 123.503 240.725 124.52V129H239.451ZM237.015 129.084C236.464 129.084 235.979 128.991 235.559 128.804C235.148 128.617 234.831 128.361 234.607 128.034C234.383 127.698 234.271 127.32 234.271 126.9C234.271 126.499 234.364 126.135 234.551 125.808C234.747 125.481 235.059 125.22 235.489 125.024C235.927 124.828 236.515 124.73 237.253 124.73H239.605V125.696H237.309C236.637 125.696 236.184 125.808 235.951 126.032C235.717 126.256 235.601 126.527 235.601 126.844C235.601 127.208 235.745 127.502 236.035 127.726C236.324 127.941 236.725 128.048 237.239 128.048C237.743 128.048 238.181 127.936 238.555 127.712C238.937 127.488 239.213 127.161 239.381 126.732L239.647 127.656C239.469 128.095 239.157 128.445 238.709 128.706C238.261 128.958 237.696 129.084 237.015 129.084ZM246.866 129.084C246.25 129.084 245.685 128.944 245.172 128.664C244.668 128.375 244.262 127.95 243.954 127.39C243.655 126.83 243.506 126.13 243.506 125.29C243.506 124.45 243.651 123.75 243.94 123.19C244.239 122.63 244.64 122.21 245.144 121.93C245.657 121.65 246.231 121.51 246.866 121.51C247.594 121.51 248.238 121.669 248.798 121.986C249.358 122.303 249.801 122.747 250.128 123.316C250.455 123.876 250.618 124.534 250.618 125.29C250.618 126.046 250.455 126.709 250.128 127.278C249.801 127.847 249.358 128.291 248.798 128.608C248.238 128.925 247.594 129.084 246.866 129.084ZM242.932 131.716V121.58H244.22V123.582L244.136 125.304L244.276 127.026V131.716H242.932ZM246.754 127.908C247.23 127.908 247.655 127.801 248.028 127.586C248.411 127.371 248.709 127.068 248.924 126.676C249.148 126.275 249.26 125.813 249.26 125.29C249.26 124.758 249.148 124.301 248.924 123.918C248.709 123.526 248.411 123.223 248.028 123.008C247.655 122.793 247.23 122.686 246.754 122.686C246.287 122.686 245.863 122.793 245.48 123.008C245.107 123.223 244.808 123.526 244.584 123.918C244.369 124.301 244.262 124.758 244.262 125.29C244.262 125.813 244.369 126.275 244.584 126.676C244.808 127.068 245.107 127.371 245.48 127.586C245.863 127.801 246.287 127.908 246.754 127.908ZM256.129 129.084C255.513 129.084 254.948 128.944 254.435 128.664C253.931 128.375 253.525 127.95 253.217 127.39C252.918 126.83 252.769 126.13 252.769 125.29C252.769 124.45 252.914 123.75 253.203 123.19C253.502 122.63 253.903 122.21 254.407 121.93C254.92 121.65 255.494 121.51 256.129 121.51C256.857 121.51 257.501 121.669 258.061 121.986C258.621 122.303 259.064 122.747 259.391 123.316C259.718 123.876 259.881 124.534 259.881 125.29C259.881 126.046 259.718 126.709 259.391 127.278C259.064 127.847 258.621 128.291 258.061 128.608C257.501 128.925 256.857 129.084 256.129 129.084ZM252.195 131.716V121.58H253.483V123.582L253.399 125.304L253.539 127.026V131.716H252.195ZM256.017 127.908C256.493 127.908 256.918 127.801 257.291 127.586C257.674 127.371 257.972 127.068 258.187 126.676C258.411 126.275 258.523 125.813 258.523 125.29C258.523 124.758 258.411 124.301 258.187 123.918C257.972 123.526 257.674 123.223 257.291 123.008C256.918 122.793 256.493 122.686 256.017 122.686C255.55 122.686 255.126 122.793 254.743 123.008C254.37 123.223 254.071 123.526 253.847 123.918C253.632 124.301 253.525 124.758 253.525 125.29C253.525 125.813 253.632 126.275 253.847 126.676C254.071 127.068 254.37 127.371 254.743 127.586C255.126 127.801 255.55 127.908 256.017 127.908ZM269.544 129V127.432L269.474 127.138V124.464C269.474 123.895 269.306 123.456 268.97 123.148C268.643 122.831 268.148 122.672 267.486 122.672C267.047 122.672 266.618 122.747 266.198 122.896C265.778 123.036 265.423 123.227 265.134 123.47L264.574 122.462C264.956 122.154 265.414 121.921 265.946 121.762C266.487 121.594 267.052 121.51 267.64 121.51C268.657 121.51 269.441 121.757 269.992 122.252C270.542 122.747 270.818 123.503 270.818 124.52V129H269.544ZM267.108 129.084C266.557 129.084 266.072 128.991 265.652 128.804C265.241 128.617 264.924 128.361 264.7 128.034C264.476 127.698 264.364 127.32 264.364 126.9C264.364 126.499 264.457 126.135 264.644 125.808C264.84 125.481 265.152 125.22 265.582 125.024C266.02 124.828 266.608 124.73 267.346 124.73H269.698V125.696H267.402C266.73 125.696 266.277 125.808 266.044 126.032C265.81 126.256 265.694 126.527 265.694 126.844C265.694 127.208 265.838 127.502 266.128 127.726C266.417 127.941 266.818 128.048 267.332 128.048C267.836 128.048 268.274 127.936 268.648 127.712C269.03 127.488 269.306 127.161 269.474 126.732L269.74 127.656C269.562 128.095 269.25 128.445 268.802 128.706C268.354 128.958 267.789 129.084 267.108 129.084ZM273.025 129V118.612H274.369V129H273.025ZM276.655 129V121.58H277.999V129H276.655ZM277.327 120.152C277.066 120.152 276.846 120.068 276.669 119.9C276.501 119.732 276.417 119.527 276.417 119.284C276.417 119.032 276.501 118.822 276.669 118.654C276.846 118.486 277.066 118.402 277.327 118.402C277.588 118.402 277.803 118.486 277.971 118.654C278.148 118.813 278.237 119.013 278.237 119.256C278.237 119.508 278.153 119.723 277.985 119.9C277.817 120.068 277.598 120.152 277.327 120.152ZM283.533 131.8C282.852 131.8 282.189 131.702 281.545 131.506C280.91 131.319 280.392 131.049 279.991 130.694L280.635 129.658C280.98 129.957 281.405 130.19 281.909 130.358C282.413 130.535 282.94 130.624 283.491 130.624C284.368 130.624 285.012 130.419 285.423 130.008C285.834 129.597 286.039 128.972 286.039 128.132V126.564L286.179 125.094L286.109 123.61V121.58H287.383V127.992C287.383 129.299 287.056 130.26 286.403 130.876C285.75 131.492 284.793 131.8 283.533 131.8ZM283.365 128.692C282.646 128.692 282.002 128.543 281.433 128.244C280.873 127.936 280.425 127.511 280.089 126.97C279.762 126.429 279.599 125.803 279.599 125.094C279.599 124.375 279.762 123.75 280.089 123.218C280.425 122.677 280.873 122.257 281.433 121.958C282.002 121.659 282.646 121.51 283.365 121.51C284 121.51 284.578 121.641 285.101 121.902C285.624 122.154 286.039 122.546 286.347 123.078C286.664 123.61 286.823 124.282 286.823 125.094C286.823 125.897 286.664 126.564 286.347 127.096C286.039 127.628 285.624 128.029 285.101 128.3C284.578 128.561 284 128.692 283.365 128.692ZM283.519 127.516C284.014 127.516 284.452 127.413 284.835 127.208C285.218 127.003 285.516 126.718 285.731 126.354C285.955 125.99 286.067 125.57 286.067 125.094C286.067 124.618 285.955 124.198 285.731 123.834C285.516 123.47 285.218 123.19 284.835 122.994C284.452 122.789 284.014 122.686 283.519 122.686C283.024 122.686 282.581 122.789 282.189 122.994C281.806 123.19 281.503 123.47 281.279 123.834C281.064 124.198 280.957 124.618 280.957 125.094C280.957 125.57 281.064 125.99 281.279 126.354C281.503 126.718 281.806 127.003 282.189 127.208C282.581 127.413 283.024 127.516 283.519 127.516ZM293.633 121.51C294.24 121.51 294.772 121.627 295.229 121.86C295.696 122.093 296.06 122.448 296.321 122.924C296.582 123.4 296.713 124.002 296.713 124.73V129H295.369V124.884C295.369 124.165 295.192 123.624 294.837 123.26C294.492 122.896 294.002 122.714 293.367 122.714C292.891 122.714 292.476 122.807 292.121 122.994C291.766 123.181 291.491 123.456 291.295 123.82C291.108 124.184 291.015 124.637 291.015 125.178V129H289.671V121.58H290.959V123.582L290.749 123.05C290.992 122.565 291.365 122.187 291.869 121.916C292.373 121.645 292.961 121.51 293.633 121.51ZM301.048 129.084C300.432 129.084 299.844 129 299.284 128.832C298.734 128.664 298.3 128.459 297.982 128.216L298.542 127.152C298.86 127.367 299.252 127.549 299.718 127.698C300.185 127.847 300.661 127.922 301.146 127.922C301.772 127.922 302.22 127.833 302.49 127.656C302.77 127.479 302.91 127.231 302.91 126.914C302.91 126.681 302.826 126.499 302.658 126.368C302.49 126.237 302.266 126.139 301.986 126.074C301.716 126.009 301.412 125.953 301.076 125.906C300.74 125.85 300.404 125.785 300.068 125.71C299.732 125.626 299.424 125.514 299.144 125.374C298.864 125.225 298.64 125.024 298.472 124.772C298.304 124.511 298.22 124.165 298.22 123.736C298.22 123.288 298.346 122.896 298.598 122.56C298.85 122.224 299.205 121.967 299.662 121.79C300.129 121.603 300.68 121.51 301.314 121.51C301.8 121.51 302.29 121.571 302.784 121.692C303.288 121.804 303.699 121.967 304.016 122.182L303.442 123.246C303.106 123.022 302.756 122.868 302.392 122.784C302.028 122.7 301.664 122.658 301.3 122.658C300.712 122.658 300.274 122.756 299.984 122.952C299.695 123.139 299.55 123.381 299.55 123.68C299.55 123.932 299.634 124.128 299.802 124.268C299.98 124.399 300.204 124.501 300.474 124.576C300.754 124.651 301.062 124.716 301.398 124.772C301.734 124.819 302.07 124.884 302.406 124.968C302.742 125.043 303.046 125.15 303.316 125.29C303.596 125.43 303.82 125.626 303.988 125.878C304.166 126.13 304.254 126.466 304.254 126.886C304.254 127.334 304.124 127.721 303.862 128.048C303.601 128.375 303.232 128.631 302.756 128.818C302.28 128.995 301.711 129.084 301.048 129.084ZM26.842 150L24.084 142.58H25.358L27.808 149.3H27.206L29.754 142.58H30.888L33.38 149.3H32.792L35.298 142.58H36.502L33.73 150H32.442L30.104 143.868H30.496L28.13 150H26.842ZM37.5858 150V142.58H38.9298V150H37.5858ZM38.2578 141.152C37.9965 141.152 37.7771 141.068 37.5998 140.9C37.4318 140.732 37.3478 140.527 37.3478 140.284C37.3478 140.032 37.4318 139.822 37.5998 139.654C37.7771 139.486 37.9965 139.402 38.2578 139.402C38.5191 139.402 38.7338 139.486 38.9018 139.654C39.0791 139.813 39.1678 140.013 39.1678 140.256C39.1678 140.508 39.0838 140.723 38.9158 140.9C38.7478 141.068 38.5285 141.152 38.2578 141.152ZM43.764 150.084C43.0173 150.084 42.4386 149.883 42.028 149.482C41.6173 149.081 41.412 148.507 41.412 147.76V140.956H42.756V147.704C42.756 148.105 42.854 148.413 43.05 148.628C43.2553 148.843 43.5446 148.95 43.918 148.95C44.338 148.95 44.688 148.833 44.968 148.6L45.388 149.566C45.1826 149.743 44.9353 149.874 44.646 149.958C44.366 150.042 44.072 150.084 43.764 150.084ZM40.152 143.686V142.58H44.884V143.686H40.152ZM50.6948 142.51C51.3015 142.51 51.8335 142.627 52.2908 142.86C52.7575 143.093 53.1215 143.448 53.3828 143.924C53.6442 144.4 53.7748 145.002 53.7748 145.73V150H52.4308V145.884C52.4308 145.165 52.2535 144.624 51.8988 144.26C51.5535 143.896 51.0635 143.714 50.4288 143.714C49.9528 143.714 49.5375 143.807 49.1828 143.994C48.8282 144.181 48.5528 144.456 48.3568 144.82C48.1702 145.184 48.0768 145.637 48.0768 146.178V150H46.7328V139.612H48.0768V144.582L47.8108 144.05C48.0535 143.565 48.4268 143.187 48.9308 142.916C49.4348 142.645 50.0228 142.51 50.6948 142.51ZM62.7659 150.084C61.9726 150.084 61.2726 149.921 60.6659 149.594C60.0686 149.267 59.6019 148.819 59.2659 148.25C58.9392 147.681 58.7759 147.027 58.7759 146.29C58.7759 145.553 58.9346 144.899 59.2519 144.33C59.5786 143.761 60.0219 143.317 60.5819 143C61.1512 142.673 61.7906 142.51 62.4999 142.51C63.2186 142.51 63.8532 142.669 64.4039 142.986C64.9546 143.303 65.3839 143.751 65.6919 144.33C66.0092 144.899 66.1679 145.567 66.1679 146.332C66.1679 146.388 66.1632 146.453 66.1539 146.528C66.1539 146.603 66.1492 146.673 66.1399 146.738H59.8259V145.772H65.4399L64.8939 146.108C64.9032 145.632 64.8052 145.207 64.5999 144.834C64.3946 144.461 64.1099 144.171 63.7459 143.966C63.3912 143.751 62.9759 143.644 62.4999 143.644C62.0332 143.644 61.6179 143.751 61.2539 143.966C60.8899 144.171 60.6052 144.465 60.3999 144.848C60.1946 145.221 60.0919 145.651 60.0919 146.136V146.36C60.0919 146.855 60.2039 147.298 60.4279 147.69C60.6612 148.073 60.9832 148.371 61.3939 148.586C61.8046 148.801 62.2759 148.908 62.8079 148.908C63.2466 148.908 63.6432 148.833 63.9979 148.684C64.3619 148.535 64.6792 148.311 64.9499 148.012L65.6919 148.88C65.3559 149.272 64.9359 149.571 64.4319 149.776C63.9372 149.981 63.3819 150.084 62.7659 150.084ZM69.5634 150L66.3154 142.58H67.7154L70.5994 149.3H69.9274L72.8674 142.58H74.1834L70.9354 150H69.5634ZM78.1307 150.084C77.384 150.084 76.7213 149.921 76.1427 149.594C75.564 149.267 75.1067 148.819 74.7707 148.25C74.4347 147.671 74.2667 147.018 74.2667 146.29C74.2667 145.553 74.4347 144.899 74.7707 144.33C75.1067 143.761 75.564 143.317 76.1427 143C76.7213 142.673 77.384 142.51 78.1307 142.51C78.868 142.51 79.526 142.673 80.1047 143C80.6927 143.317 81.15 143.761 81.4767 144.33C81.8127 144.89 81.9807 145.543 81.9807 146.29C81.9807 147.027 81.8127 147.681 81.4767 148.25C81.15 148.819 80.6927 149.267 80.1047 149.594C79.526 149.921 78.868 150.084 78.1307 150.084ZM78.1307 148.908C78.6067 148.908 79.0313 148.801 79.4047 148.586C79.7873 148.371 80.086 148.068 80.3007 147.676C80.5153 147.275 80.6227 146.813 80.6227 146.29C80.6227 145.758 80.5153 145.301 80.3007 144.918C80.086 144.526 79.7873 144.223 79.4047 144.008C79.0313 143.793 78.6067 143.686 78.1307 143.686C77.6547 143.686 77.23 143.793 76.8567 144.008C76.4833 144.223 76.1847 144.526 75.9607 144.918C75.7367 145.301 75.6247 145.758 75.6247 146.29C75.6247 146.813 75.7367 147.275 75.9607 147.676C76.1847 148.068 76.4833 148.371 76.8567 148.586C77.23 148.801 77.6547 148.908 78.1307 148.908ZM83.5594 150V139.612H84.9034V150H83.5594ZM89.1355 150L85.8875 142.58H87.2875L90.1715 149.3H89.4995L92.4395 142.58H93.7555L90.5075 150H89.1355ZM94.7299 150V142.58H96.0739V150H94.7299ZM95.4019 141.152C95.1405 141.152 94.9212 141.068 94.7439 140.9C94.5759 140.732 94.4919 140.527 94.4919 140.284C94.4919 140.032 94.5759 139.822 94.7439 139.654C94.9212 139.486 95.1405 139.402 95.4019 139.402C95.6632 139.402 95.8779 139.486 96.0459 139.654C96.2232 139.813 96.3119 140.013 96.3119 140.256C96.3119 140.508 96.2279 140.723 96.0599 140.9C95.8919 141.068 95.6725 141.152 95.4019 141.152ZM102.322 142.51C102.929 142.51 103.461 142.627 103.918 142.86C104.385 143.093 104.749 143.448 105.01 143.924C105.271 144.4 105.402 145.002 105.402 145.73V150H104.058V145.884C104.058 145.165 103.881 144.624 103.526 144.26C103.181 143.896 102.691 143.714 102.056 143.714C101.58 143.714 101.165 143.807 100.81 143.994C100.455 144.181 100.18 144.456 99.984 144.82C99.7973 145.184 99.704 145.637 99.704 146.178V150H98.36V142.58H99.648V144.582L99.438 144.05C99.6807 143.565 100.054 143.187 100.558 142.916C101.062 142.645 101.65 142.51 102.322 142.51ZM110.857 152.8C110.176 152.8 109.513 152.702 108.869 152.506C108.235 152.319 107.717 152.049 107.315 151.694L107.959 150.658C108.305 150.957 108.729 151.19 109.233 151.358C109.737 151.535 110.265 151.624 110.815 151.624C111.693 151.624 112.337 151.419 112.747 151.008C113.158 150.597 113.363 149.972 113.363 149.132V147.564L113.503 146.094L113.433 144.61V142.58H114.707V148.992C114.707 150.299 114.381 151.26 113.727 151.876C113.074 152.492 112.117 152.8 110.857 152.8ZM110.689 149.692C109.971 149.692 109.327 149.543 108.757 149.244C108.197 148.936 107.749 148.511 107.413 147.97C107.087 147.429 106.923 146.803 106.923 146.094C106.923 145.375 107.087 144.75 107.413 144.218C107.749 143.677 108.197 143.257 108.757 142.958C109.327 142.659 109.971 142.51 110.689 142.51C111.324 142.51 111.903 142.641 112.425 142.902C112.948 143.154 113.363 143.546 113.671 144.078C113.989 144.61 114.147 145.282 114.147 146.094C114.147 146.897 113.989 147.564 113.671 148.096C113.363 148.628 112.948 149.029 112.425 149.3C111.903 149.561 111.324 149.692 110.689 149.692ZM110.843 148.516C111.338 148.516 111.777 148.413 112.159 148.208C112.542 148.003 112.841 147.718 113.055 147.354C113.279 146.99 113.391 146.57 113.391 146.094C113.391 145.618 113.279 145.198 113.055 144.834C112.841 144.47 112.542 144.19 112.159 143.994C111.777 143.789 111.338 143.686 110.843 143.686C110.349 143.686 109.905 143.789 109.513 143.994C109.131 144.19 108.827 144.47 108.603 144.834C108.389 145.198 108.281 145.618 108.281 146.094C108.281 146.57 108.389 146.99 108.603 147.354C108.827 147.718 109.131 148.003 109.513 148.208C109.905 148.413 110.349 148.516 110.843 148.516ZM123.597 150.084C122.962 150.084 122.402 149.967 121.917 149.734C121.441 149.501 121.068 149.146 120.797 148.67C120.536 148.185 120.405 147.578 120.405 146.85V142.58H121.749V146.696C121.749 147.424 121.922 147.97 122.267 148.334C122.622 148.698 123.116 148.88 123.751 148.88C124.218 148.88 124.624 148.787 124.969 148.6C125.314 148.404 125.58 148.124 125.767 147.76C125.954 147.387 126.047 146.939 126.047 146.416V142.58H127.391V150H126.117V147.998L126.327 148.53C126.084 149.025 125.72 149.407 125.235 149.678C124.75 149.949 124.204 150.084 123.597 150.084ZM131.798 150.084C131.182 150.084 130.594 150 130.034 149.832C129.483 149.664 129.049 149.459 128.732 149.216L129.292 148.152C129.609 148.367 130.001 148.549 130.468 148.698C130.934 148.847 131.41 148.922 131.896 148.922C132.521 148.922 132.969 148.833 133.24 148.656C133.52 148.479 133.66 148.231 133.66 147.914C133.66 147.681 133.576 147.499 133.408 147.368C133.24 147.237 133.016 147.139 132.736 147.074C132.465 147.009 132.162 146.953 131.826 146.906C131.49 146.85 131.154 146.785 130.818 146.71C130.482 146.626 130.174 146.514 129.894 146.374C129.614 146.225 129.39 146.024 129.222 145.772C129.054 145.511 128.97 145.165 128.97 144.736C128.97 144.288 129.096 143.896 129.348 143.56C129.6 143.224 129.954 142.967 130.412 142.79C130.878 142.603 131.429 142.51 132.064 142.51C132.549 142.51 133.039 142.571 133.534 142.692C134.038 142.804 134.448 142.967 134.766 143.182L134.192 144.246C133.856 144.022 133.506 143.868 133.142 143.784C132.778 143.7 132.414 143.658 132.05 143.658C131.462 143.658 131.023 143.756 130.734 143.952C130.444 144.139 130.3 144.381 130.3 144.68C130.3 144.932 130.384 145.128 130.552 145.268C130.729 145.399 130.953 145.501 131.224 145.576C131.504 145.651 131.812 145.716 132.148 145.772C132.484 145.819 132.82 145.884 133.156 145.968C133.492 146.043 133.795 146.15 134.066 146.29C134.346 146.43 134.57 146.626 134.738 146.878C134.915 147.13 135.004 147.466 135.004 147.886C135.004 148.334 134.873 148.721 134.612 149.048C134.35 149.375 133.982 149.631 133.506 149.818C133.03 149.995 132.46 150.084 131.798 150.084ZM139.707 150.084C138.914 150.084 138.214 149.921 137.607 149.594C137.01 149.267 136.543 148.819 136.207 148.25C135.881 147.681 135.717 147.027 135.717 146.29C135.717 145.553 135.876 144.899 136.193 144.33C136.52 143.761 136.963 143.317 137.523 143C138.093 142.673 138.732 142.51 139.441 142.51C140.16 142.51 140.795 142.669 141.345 142.986C141.896 143.303 142.325 143.751 142.633 144.33C142.951 144.899 143.109 145.567 143.109 146.332C143.109 146.388 143.105 146.453 143.095 146.528C143.095 146.603 143.091 146.673 143.081 146.738H136.767V145.772H142.381L141.835 146.108C141.845 145.632 141.747 145.207 141.541 144.834C141.336 144.461 141.051 144.171 140.687 143.966C140.333 143.751 139.917 143.644 139.441 143.644C138.975 143.644 138.559 143.751 138.195 143.966C137.831 144.171 137.547 144.465 137.341 144.848C137.136 145.221 137.033 145.651 137.033 146.136V146.36C137.033 146.855 137.145 147.298 137.369 147.69C137.603 148.073 137.925 148.371 138.335 148.586C138.746 148.801 139.217 148.908 139.749 148.908C140.188 148.908 140.585 148.833 140.939 148.684C141.303 148.535 141.621 148.311 141.891 148.012L142.633 148.88C142.297 149.272 141.877 149.571 141.373 149.776C140.879 149.981 140.323 150.084 139.707 150.084ZM144.696 150V142.58H145.984V144.596L145.858 144.092C146.063 143.579 146.408 143.187 146.894 142.916C147.379 142.645 147.976 142.51 148.686 142.51V143.812C148.63 143.803 148.574 143.798 148.518 143.798C148.471 143.798 148.424 143.798 148.378 143.798C147.659 143.798 147.09 144.013 146.67 144.442C146.25 144.871 146.04 145.492 146.04 146.304V150H144.696ZM157.6 142.51C158.206 142.51 158.738 142.627 159.196 142.86C159.662 143.093 160.026 143.448 160.288 143.924C160.549 144.4 160.68 145.002 160.68 145.73V150H159.336V145.884C159.336 145.165 159.158 144.624 158.804 144.26C158.458 143.896 157.968 143.714 157.334 143.714C156.858 143.714 156.442 143.807 156.088 143.994C155.733 144.181 155.458 144.456 155.262 144.82C155.075 145.184 154.982 145.637 154.982 146.178V150H153.638V142.58H154.926V144.582L154.716 144.05C154.958 143.565 155.332 143.187 155.836 142.916C156.34 142.645 156.928 142.51 157.6 142.51ZM166.191 150.084C165.398 150.084 164.698 149.921 164.091 149.594C163.494 149.267 163.027 148.819 162.691 148.25C162.364 147.681 162.201 147.027 162.201 146.29C162.201 145.553 162.36 144.899 162.677 144.33C163.004 143.761 163.447 143.317 164.007 143C164.576 142.673 165.216 142.51 165.925 142.51C166.644 142.51 167.278 142.669 167.829 142.986C168.38 143.303 168.809 143.751 169.117 144.33C169.434 144.899 169.593 145.567 169.593 146.332C169.593 146.388 169.588 146.453 169.579 146.528C169.579 146.603 169.574 146.673 169.565 146.738H163.251V145.772H168.865L168.319 146.108C168.328 145.632 168.23 145.207 168.025 144.834C167.82 144.461 167.535 144.171 167.171 143.966C166.816 143.751 166.401 143.644 165.925 143.644C165.458 143.644 165.043 143.751 164.679 143.966C164.315 144.171 164.03 144.465 163.825 144.848C163.62 145.221 163.517 145.651 163.517 146.136V146.36C163.517 146.855 163.629 147.298 163.853 147.69C164.086 148.073 164.408 148.371 164.819 148.586C165.23 148.801 165.701 148.908 166.233 148.908C166.672 148.908 167.068 148.833 167.423 148.684C167.787 148.535 168.104 148.311 168.375 148.012L169.117 148.88C168.781 149.272 168.361 149.571 167.857 149.776C167.362 149.981 166.807 150.084 166.191 150.084ZM174.483 150.084C173.69 150.084 172.99 149.921 172.383 149.594C171.786 149.267 171.319 148.819 170.983 148.25C170.656 147.681 170.493 147.027 170.493 146.29C170.493 145.553 170.652 144.899 170.969 144.33C171.296 143.761 171.739 143.317 172.299 143C172.868 142.673 173.508 142.51 174.217 142.51C174.936 142.51 175.57 142.669 176.121 142.986C176.672 143.303 177.101 143.751 177.409 144.33C177.726 144.899 177.885 145.567 177.885 146.332C177.885 146.388 177.88 146.453 177.871 146.528C177.871 146.603 177.866 146.673 177.857 146.738H171.543V145.772H177.157L176.611 146.108C176.62 145.632 176.522 145.207 176.317 144.834C176.112 144.461 175.827 144.171 175.463 143.966C175.108 143.751 174.693 143.644 174.217 143.644C173.75 143.644 173.335 143.751 172.971 143.966C172.607 144.171 172.322 144.465 172.117 144.848C171.912 145.221 171.809 145.651 171.809 146.136V146.36C171.809 146.855 171.921 147.298 172.145 147.69C172.378 148.073 172.7 148.371 173.111 148.586C173.522 148.801 173.993 148.908 174.525 148.908C174.964 148.908 175.36 148.833 175.715 148.684C176.079 148.535 176.396 148.311 176.667 148.012L177.409 148.88C177.073 149.272 176.653 149.571 176.149 149.776C175.654 149.981 175.099 150.084 174.483 150.084ZM182.537 150.084C181.819 150.084 181.175 149.925 180.605 149.608C180.045 149.291 179.602 148.847 179.275 148.278C178.949 147.709 178.785 147.046 178.785 146.29C178.785 145.534 178.949 144.876 179.275 144.316C179.602 143.747 180.045 143.303 180.605 142.986C181.175 142.669 181.819 142.51 182.537 142.51C183.163 142.51 183.727 142.65 184.231 142.93C184.735 143.21 185.137 143.63 185.435 144.19C185.743 144.75 185.897 145.45 185.897 146.29C185.897 147.13 185.748 147.83 185.449 148.39C185.16 148.95 184.763 149.375 184.259 149.664C183.755 149.944 183.181 150.084 182.537 150.084ZM182.649 148.908C183.116 148.908 183.536 148.801 183.909 148.586C184.292 148.371 184.591 148.068 184.805 147.676C185.029 147.275 185.141 146.813 185.141 146.29C185.141 145.758 185.029 145.301 184.805 144.918C184.591 144.526 184.292 144.223 183.909 144.008C183.536 143.793 183.116 143.686 182.649 143.686C182.173 143.686 181.749 143.793 181.375 144.008C181.002 144.223 180.703 144.526 180.479 144.918C180.255 145.301 180.143 145.758 180.143 146.29C180.143 146.813 180.255 147.275 180.479 147.676C180.703 148.068 181.002 148.371 181.375 148.586C181.749 148.801 182.173 148.908 182.649 148.908ZM185.183 150V147.998L185.267 146.276L185.127 144.554V139.612H186.471V150H185.183ZM190.862 150.084C190.246 150.084 189.658 150 189.098 149.832C188.548 149.664 188.114 149.459 187.796 149.216L188.356 148.152C188.674 148.367 189.066 148.549 189.532 148.698C189.999 148.847 190.475 148.922 190.96 148.922C191.586 148.922 192.034 148.833 192.304 148.656C192.584 148.479 192.724 148.231 192.724 147.914C192.724 147.681 192.64 147.499 192.472 147.368C192.304 147.237 192.08 147.139 191.8 147.074C191.53 147.009 191.226 146.953 190.89 146.906C190.554 146.85 190.218 146.785 189.882 146.71C189.546 146.626 189.238 146.514 188.958 146.374C188.678 146.225 188.454 146.024 188.286 145.772C188.118 145.511 188.034 145.165 188.034 144.736C188.034 144.288 188.16 143.896 188.412 143.56C188.664 143.224 189.019 142.967 189.476 142.79C189.943 142.603 190.494 142.51 191.128 142.51C191.614 142.51 192.104 142.571 192.598 142.692C193.102 142.804 193.513 142.967 193.83 143.182L193.256 144.246C192.92 144.022 192.57 143.868 192.206 143.784C191.842 143.7 191.478 143.658 191.114 143.658C190.526 143.658 190.088 143.756 189.798 143.952C189.509 144.139 189.364 144.381 189.364 144.68C189.364 144.932 189.448 145.128 189.616 145.268C189.794 145.399 190.018 145.501 190.288 145.576C190.568 145.651 190.876 145.716 191.212 145.772C191.548 145.819 191.884 145.884 192.22 145.968C192.556 146.043 192.86 146.15 193.13 146.29C193.41 146.43 193.634 146.626 193.802 146.878C193.98 147.13 194.068 147.466 194.068 147.886C194.068 148.334 193.938 148.721 193.676 149.048C193.415 149.375 193.046 149.631 192.57 149.818C192.094 149.995 191.525 150.084 190.862 150.084Z" fill="#8C92A0"/>
</svg>
