<svg width="16" height="16" viewBox="0 0 16 16" fill="none" xmlns="http://www.w3.org/2000/svg">
<path d="M8.6001 2.2C8.6001 1.86863 8.33147 1.6 8.0001 1.6C7.66873 1.6 7.4001 1.86863 7.4001 2.2V9.09086L5.03631 6.58802C4.80878 6.34711 4.42904 6.33626 4.18812 6.56379C3.94721 6.79132 3.93636 7.17106 4.16389 7.41197L7.56389 11.012C7.67724 11.132 7.83502 11.2 8.0001 11.2C8.16518 11.2 8.32296 11.132 8.43631 11.012L11.8363 7.41197C12.0638 7.17106 12.053 6.79132 11.8121 6.56379C11.5712 6.33626 11.1914 6.34711 10.9639 6.58802L8.6001 9.09086V2.2Z" fill="white"/>
<path d="M2.8001 10.2C2.8001 9.86863 2.53147 9.6 2.2001 9.6C1.86873 9.6 1.6001 9.86863 1.6001 10.2V12.2C1.6001 13.415 2.58507 14.4 3.8001 14.4H12.2001C13.4151 14.4 14.4001 13.415 14.4001 12.2V10.2C14.4001 9.86863 14.1315 9.6 13.8001 9.6C13.4687 9.6 13.2001 9.86863 13.2001 10.2V12.2C13.2001 12.7523 12.7524 13.2 12.2001 13.2H3.8001C3.24781 13.2 2.8001 12.7523 2.8001 12.2V10.2Z" fill="white"/>
</svg>
