<svg width="16" height="17" viewBox="0 0 16 17" fill="none" xmlns="http://www.w3.org/2000/svg">
<path fill-rule="evenodd" clip-rule="evenodd" d="M1.6001 8.49999C1.6001 8.16862 1.86873 7.89999 2.2001 7.89999L12.2722 7.89999L10.5918 6.33967C10.349 6.11418 10.3349 5.73455 10.5604 5.49172C10.7859 5.24889 11.1655 5.23483 11.4084 5.46031L14.2084 8.06031C14.3306 8.17384 14.4001 8.33315 14.4001 8.49999C14.4001 8.66683 14.3306 8.82614 14.2084 8.93967L11.4084 11.5397C11.1655 11.7651 10.7859 11.7511 10.5604 11.5083C10.3349 11.2654 10.349 10.8858 10.5918 10.6603L12.2722 9.09999L2.2001 9.09999C1.86873 9.09999 1.6001 8.83136 1.6001 8.49999Z" fill="#116AF0"/>
</svg>
