<svg width="30" height="30" viewBox="0 0 30 30" fill="none" xmlns="http://www.w3.org/2000/svg">
<path d="M6 4C4.895 4 4 4.895 4 6V24C4 25.105 4.895 26 6 26H24C25.105 26 26 25.105 26 24V6C26 4.895 25.105 4 24 4H6ZM17.5 11H20.0566C20.3326 11 20.5566 11.224 20.5566 11.5C20.5566 11.776 20.3326 12 20.0566 12H17.5C17.224 12 17 11.776 17 11.5C17 11.224 17.224 11 17.5 11ZM8.91992 11.3848H11.7051C13.3491 11.3848 14.3301 12.189 14.3301 13.498C14.3301 14.396 13.6659 15.1796 12.7969 15.3086V15.4141C13.9189 15.4961 14.7344 16.3416 14.7344 17.4336C14.7354 18.9186 13.6137 19.8594 11.8047 19.8594H8.91992C8.41192 19.8594 8 19.4475 8 18.9395V12.3047C8 11.7967 8.41192 11.3848 8.91992 11.3848ZM9.77344 12.7402V14.8965H11.1055C12.0635 14.8975 12.5859 14.5033 12.5859 13.8223C12.5859 13.1473 12.0999 12.7402 11.2539 12.7402H9.77344ZM18.9629 13.2402C20.8719 13.2402 21.998 14.4567 21.998 16.5117V17.0332H17.5547V17.1211C17.5777 18.0841 18.1422 18.6836 19.0352 18.6836C19.7102 18.6836 20.1735 18.4436 20.3555 18.0156H21.9473C21.6893 19.2376 20.5723 20 18.9863 20C17.0133 20 15.8516 18.7543 15.8516 16.6523C15.8516 14.5443 17.0369 13.2402 18.9629 13.2402ZM18.9707 14.5508C18.1777 14.5508 17.6185 15.1014 17.5605 15.9414H20.3203C20.2843 15.0844 19.7687 14.5508 18.9707 14.5508ZM9.77344 16.0957V18.5039H11.3535C12.3755 18.5039 12.9277 18.0732 12.9277 17.2812C12.9277 16.5052 12.3575 16.0957 11.3125 16.0957H9.77344Z" fill="white"/>
</svg>
