<svg width="32" height="32" viewBox="0 0 32 32" fill="none" xmlns="http://www.w3.org/2000/svg">
<path d="M20.9426 28.3892C20.6926 28.6391 20.3535 28.7795 20 28.7795C19.6464 28.7795 19.3073 28.6391 19.0573 28.3892L16.9426 26.2745C16.6927 26.0245 16.5522 25.6854 16.5522 25.3318C16.5522 24.9783 16.6927 24.6392 16.9426 24.3892L24.3906 16.9412C24.6407 16.6912 24.9797 16.5508 25.3333 16.5508C25.6868 16.5508 26.0259 16.6912 26.276 16.9412L28.3906 19.0558C28.6406 19.3059 28.781 19.6449 28.781 19.9985C28.781 20.352 28.6406 20.6911 28.3906 20.9412L20.9426 28.3892Z" stroke="black" stroke-width="2" stroke-linecap="round" stroke-linejoin="round"/>
<path d="M23.9998 17.3346L22.1665 8.16931C22.1166 7.91995 21.9965 7.69005 21.8203 7.50673C21.644 7.3234 21.419 7.1943 21.1718 7.13464L4.31318 2.70531C4.09108 2.65161 3.85891 2.65589 3.63895 2.71774C3.41898 2.77958 3.2186 2.89692 3.05703 3.05849C2.89546 3.22006 2.77812 3.42045 2.71627 3.64041C2.65443 3.86038 2.65015 4.09255 2.70385 4.31464L7.13318 21.1733C7.19283 21.4205 7.32194 21.6455 7.50526 21.8217C7.68858 21.998 7.91848 22.1181 8.16785 22.168L17.3332 24.0013" stroke="black" stroke-width="2" stroke-linecap="round" stroke-linejoin="round"/>
<path d="M3.06689 3.06641L12.7816 12.7811" stroke="black" stroke-width="2" stroke-linecap="round" stroke-linejoin="round"/>
<path d="M14.6667 17.3333C16.1394 17.3333 17.3333 16.1394 17.3333 14.6667C17.3333 13.1939 16.1394 12 14.6667 12C13.1939 12 12 13.1939 12 14.6667C12 16.1394 13.1939 17.3333 14.6667 17.3333Z" stroke="black" stroke-width="2" stroke-linecap="round" stroke-linejoin="round"/>
</svg>
