<svg width="24" height="24" viewBox="0 0 24 24" fill="none" xmlns="http://www.w3.org/2000/svg">
<path d="M20 2C21.1046 2 22 2.89543 22 4V20C22 21.1046 21.1046 22 20 22H4C2.89543 22 2 21.1046 2 20V4C2 2.89543 2.89543 2 4 2H20ZM10.5713 6C9.15366 6.00008 8.00021 7.16626 8 8.59961C8.00021 8.969 8.07838 9.33459 8.22949 9.6709C8.38057 10.0071 8.60107 10.3067 8.87598 10.5498C8.34018 11.0266 8 11.7233 8 12.5C8 13.2767 8.34018 13.9734 8.87598 14.4502C8.60107 14.6933 8.38057 14.9929 8.22949 15.3291C8.07838 15.6654 8.00021 16.031 8 16.4004C8.00021 17.8337 9.15366 18.9999 10.5713 19C11.989 19 13.1424 17.8338 13.1426 16.4004V14.748C13.5327 14.9785 13.9769 15.0996 14.4287 15.0996C15.8465 15.0995 17 13.9335 17 12.5C16.9998 12.1308 16.9215 11.7659 16.7705 11.4297C16.6194 11.0934 16.399 10.7929 16.124 10.5498C16.3989 10.3067 16.6194 10.0071 16.7705 9.6709C16.9216 9.33459 16.9998 8.969 17 8.59961C16.9998 7.16626 15.8463 6.00008 14.4287 6H10.5713ZM11.8574 16.4004C11.8572 17.1172 11.2802 17.7002 10.5713 17.7002C9.86241 17.7001 9.28634 17.1171 9.28613 16.4004C9.28613 15.6835 9.86228 15.0997 10.5713 15.0996H11.8574V16.4004ZM11.8574 13.7998H10.5713C9.86228 13.7997 9.28613 13.2169 9.28613 12.5C9.28613 11.7831 9.86228 11.2003 10.5713 11.2002H11.8574V13.7998ZM14.4287 11.2002C15.1377 11.2003 15.7139 11.7831 15.7139 12.5C15.7139 13.2169 15.1377 13.7997 14.4287 13.7998C13.7196 13.7998 13.1426 13.2169 13.1426 12.5C13.1426 11.783 13.7196 11.2002 14.4287 11.2002ZM11.8574 9.90039H10.5713C9.86228 9.90031 9.28613 9.31651 9.28613 8.59961C9.28634 7.88289 9.86241 7.29988 10.5713 7.2998H11.8574V9.90039ZM14.4287 7.2998C15.1376 7.29988 15.7137 7.88289 15.7139 8.59961C15.7139 9.31651 15.1377 9.90031 14.4287 9.90039H13.1426V7.2998H14.4287Z" fill="white"/>
</svg>
