<svg width="351" height="245" viewBox="0 0 351 245" fill="none" xmlns="http://www.w3.org/2000/svg">
<rect x="5.5" y="61.5" width="7" height="7" fill="white" stroke="#2D7DF7"/>
<rect x="7.5" y="66.5" width="284" height="93" stroke="#2D7DF7" stroke-width="3"/>
<path d="M48.44 171C56.12 171 62.52 173.693 67.64 179.08C72.8133 184.467 75.4 191.107 75.4 199C75.4 206.893 72.8133 213.533 67.64 218.92C62.52 224.307 56.12 227 48.44 227H26.2V171H48.44ZM48.44 216.44C53.2933 216.44 57.24 214.84 60.28 211.64C63.32 208.387 64.84 204.173 64.84 199C64.84 193.827 63.32 189.64 60.28 186.44C57.24 183.187 53.2933 181.56 48.44 181.56H37.24V216.44H48.44ZM91.4713 211.24C92.8579 216.253 96.6179 218.76 102.751 218.76C106.698 218.76 109.685 217.427 111.711 214.76L120.031 219.56C116.085 225.267 110.271 228.12 102.591 228.12C95.9779 228.12 90.6713 226.12 86.6713 222.12C82.6713 218.12 80.6712 213.08 80.6712 207C80.6712 200.973 82.6446 195.96 86.5913 191.96C90.5379 187.907 95.6046 185.88 101.791 185.88C107.658 185.88 112.485 187.907 116.271 191.96C120.111 196.013 122.031 201.027 122.031 207C122.031 208.333 121.898 209.747 121.631 211.24H91.4713ZM91.3113 203.24H111.711C111.125 200.52 109.898 198.493 108.031 197.16C106.218 195.827 104.138 195.16 101.791 195.16C99.0179 195.16 96.7246 195.88 94.9113 197.32C93.0979 198.707 91.8979 200.68 91.3113 203.24ZM137.193 198.36C137.193 199.427 137.886 200.307 139.273 201C140.713 201.64 142.446 202.227 144.473 202.76C146.5 203.24 148.526 203.88 150.553 204.68C152.58 205.427 154.286 206.707 155.673 208.52C157.113 210.333 157.833 212.6 157.833 215.32C157.833 219.427 156.286 222.6 153.193 224.84C150.153 227.027 146.34 228.12 141.753 228.12C133.54 228.12 127.94 224.947 124.953 218.6L133.913 213.56C135.086 217.027 137.7 218.76 141.753 218.76C145.433 218.76 147.273 217.613 147.273 215.32C147.273 214.253 146.553 213.4 145.113 212.76C143.726 212.067 142.02 211.453 139.993 210.92C137.966 210.387 135.94 209.72 133.913 208.92C131.886 208.12 130.153 206.867 128.713 205.16C127.326 203.4 126.633 201.213 126.633 198.6C126.633 194.653 128.073 191.56 130.953 189.32C133.886 187.027 137.513 185.88 141.833 185.88C145.086 185.88 148.046 186.627 150.713 188.12C153.38 189.56 155.486 191.64 157.033 194.36L148.233 199.16C146.953 196.44 144.82 195.08 141.833 195.08C140.5 195.08 139.38 195.373 138.473 195.96C137.62 196.547 137.193 197.347 137.193 198.36ZM169.59 182.2C167.883 182.2 166.39 181.587 165.11 180.36C163.883 179.08 163.27 177.587 163.27 175.88C163.27 174.173 163.883 172.68 165.11 171.4C166.39 170.12 167.883 169.48 169.59 169.48C171.35 169.48 172.843 170.12 174.07 171.4C175.35 172.68 175.99 174.173 175.99 175.88C175.99 177.587 175.35 179.08 174.07 180.36C172.843 181.587 171.35 182.2 169.59 182.2ZM164.47 227V187H174.79V227H164.47ZM214.876 187H224.956V225.08C224.956 231.267 222.902 235.987 218.796 239.24C214.742 242.493 209.836 244.12 204.076 244.12C199.756 244.12 195.942 243.293 192.636 241.64C189.382 239.987 186.876 237.56 185.116 234.36L193.916 229.32C195.942 233.053 199.436 234.92 204.396 234.92C207.649 234.92 210.209 234.067 212.076 232.36C213.942 230.653 214.876 228.227 214.876 225.08V220.76C211.836 224.813 207.569 226.84 202.076 226.84C196.422 226.84 191.676 224.867 187.836 220.92C184.049 216.92 182.156 212.067 182.156 206.36C182.156 200.707 184.076 195.88 187.916 191.88C191.756 187.88 196.476 185.88 202.076 185.88C207.569 185.88 211.836 187.907 214.876 191.96V187ZM195.596 214.28C197.729 216.307 200.422 217.32 203.676 217.32C206.929 217.32 209.596 216.307 211.676 214.28C213.809 212.2 214.876 209.56 214.876 206.36C214.876 203.213 213.809 200.627 211.676 198.6C209.596 196.52 206.929 195.48 203.676 195.48C200.422 195.48 197.729 196.52 195.596 198.6C193.516 200.627 192.476 203.213 192.476 206.36C192.476 209.56 193.516 212.2 195.596 214.28ZM256.554 185.88C260.927 185.88 264.527 187.347 267.354 190.28C270.234 193.213 271.674 197.267 271.674 202.44V227H261.354V203.72C261.354 201.053 260.634 199.027 259.194 197.64C257.754 196.2 255.834 195.48 253.434 195.48C250.767 195.48 248.634 196.307 247.034 197.96C245.434 199.613 244.634 202.093 244.634 205.4V227H234.314V187H244.634V191.48C247.14 187.747 251.114 185.88 256.554 185.88ZM289.206 211.24C290.592 216.253 294.352 218.76 300.486 218.76C304.432 218.76 307.419 217.427 309.446 214.76L317.766 219.56C313.819 225.267 308.006 228.12 300.326 228.12C293.712 228.12 288.406 226.12 284.406 222.12C280.406 218.12 278.406 213.08 278.406 207C278.406 200.973 280.379 195.96 284.326 191.96C288.272 187.907 293.339 185.88 299.526 185.88C305.392 185.88 310.219 187.907 314.006 191.96C317.846 196.013 319.766 201.027 319.766 207C319.766 208.333 319.632 209.747 319.366 211.24H289.206ZM289.046 203.24H309.446C308.859 200.52 307.632 198.493 305.766 197.16C303.952 195.827 301.872 195.16 299.526 195.16C296.752 195.16 294.459 195.88 292.646 197.32C290.832 198.707 289.632 200.68 289.046 203.24ZM337.29 193.88C338.25 191.32 339.823 189.4 342.01 188.12C344.25 186.84 346.73 186.2 349.45 186.2V197.72C346.303 197.347 343.477 197.987 340.97 199.64C338.517 201.293 337.29 204.04 337.29 207.88V227H326.97V187H337.29V193.88Z" fill="white"/>
<rect x="23" width="193" height="32" rx="4" fill="#A957F2"/>
<path d="M55.464 8.468V23H53.553V12.164L48.723 23H47.379L42.528 12.143V23H40.617V8.468H42.675L48.051 20.48L53.427 8.468H55.464ZM57.9909 17.204C57.9909 16.028 58.2289 14.999 58.7049 14.117C59.1809 13.221 59.8319 12.528 60.6579 12.038C61.4979 11.548 62.4289 11.303 63.4509 11.303C64.4589 11.303 65.3339 11.52 66.0759 11.954C66.8179 12.388 67.3709 12.934 67.7349 13.592V11.492H69.6669V23H67.7349V20.858C67.3569 21.53 66.7899 22.09 66.0339 22.538C65.2919 22.972 64.4239 23.189 63.4299 23.189C62.4079 23.189 61.4839 22.937 60.6579 22.433C59.8319 21.929 59.1809 21.222 58.7049 20.312C58.2289 19.402 57.9909 18.366 57.9909 17.204ZM67.7349 17.225C67.7349 16.357 67.5599 15.601 67.2099 14.957C66.8599 14.313 66.3839 13.823 65.7819 13.487C65.1939 13.137 64.5429 12.962 63.8289 12.962C63.1149 12.962 62.4639 13.13 61.8759 13.466C61.2879 13.802 60.8189 14.292 60.4689 14.936C60.1189 15.58 59.9439 16.336 59.9439 17.204C59.9439 18.086 60.1189 18.856 60.4689 19.514C60.8189 20.158 61.2879 20.655 61.8759 21.005C62.4639 21.341 63.1149 21.509 63.8289 21.509C64.5429 21.509 65.1939 21.341 65.7819 21.005C66.3839 20.655 66.8599 20.158 67.2099 19.514C67.5599 18.856 67.7349 18.093 67.7349 17.225ZM78.9023 23L76.1723 18.716L73.5473 23H71.5523L75.2693 17.288L71.5523 11.492H73.7153L76.4453 15.755L79.0493 11.492H81.0443L77.3483 17.183L81.0653 23H78.9023ZM100.64 8.363L95.1168 23H92.9118L87.3888 8.363H89.4258L94.0248 20.984L98.6238 8.363H100.64ZM113.235 16.805C113.235 17.169 113.214 17.554 113.172 17.96H103.974C104.044 19.094 104.429 19.983 105.129 20.627C105.843 21.257 106.704 21.572 107.712 21.572C108.538 21.572 109.224 21.383 109.77 21.005C110.33 20.613 110.722 20.095 110.946 19.451H113.004C112.696 20.557 112.08 21.46 111.156 22.16C110.232 22.846 109.084 23.189 107.712 23.189C106.62 23.189 105.64 22.944 104.772 22.454C103.918 21.964 103.246 21.271 102.756 20.375C102.266 19.465 102.021 18.415 102.021 17.225C102.021 16.035 102.259 14.992 102.735 14.096C103.211 13.2 103.876 12.514 104.73 12.038C105.598 11.548 106.592 11.303 107.712 11.303C108.804 11.303 109.77 11.541 110.61 12.017C111.45 12.493 112.094 13.151 112.542 13.991C113.004 14.817 113.235 15.755 113.235 16.805ZM111.261 16.406C111.261 15.678 111.1 15.055 110.778 14.537C110.456 14.005 110.015 13.606 109.455 13.34C108.909 13.06 108.3 12.92 107.628 12.92C106.662 12.92 105.836 13.228 105.15 13.844C104.478 14.46 104.093 15.314 103.995 16.406H111.261ZM120.504 11.303C121.498 11.303 122.366 11.52 123.108 11.954C123.864 12.388 124.424 12.934 124.788 13.592V11.492H126.72V23.252C126.72 24.302 126.496 25.233 126.048 26.045C125.6 26.871 124.956 27.515 124.116 27.977C123.29 28.439 122.324 28.67 121.218 28.67C119.706 28.67 118.446 28.313 117.438 27.599C116.43 26.885 115.835 25.912 115.653 24.68H117.543C117.753 25.38 118.187 25.94 118.845 26.36C119.503 26.794 120.294 27.011 121.218 27.011C122.268 27.011 123.122 26.682 123.78 26.024C124.452 25.366 124.788 24.442 124.788 23.252V20.837C124.41 21.509 123.85 22.069 123.108 22.517C122.366 22.965 121.498 23.189 120.504 23.189C119.482 23.189 118.551 22.937 117.711 22.433C116.885 21.929 116.234 21.222 115.758 20.312C115.282 19.402 115.044 18.366 115.044 17.204C115.044 16.028 115.282 14.999 115.758 14.117C116.234 13.221 116.885 12.528 117.711 12.038C118.551 11.548 119.482 11.303 120.504 11.303ZM124.788 17.225C124.788 16.357 124.613 15.601 124.263 14.957C123.913 14.313 123.437 13.823 122.835 13.487C122.247 13.137 121.596 12.962 120.882 12.962C120.168 12.962 119.517 13.13 118.929 13.466C118.341 13.802 117.872 14.292 117.522 14.936C117.172 15.58 116.997 16.336 116.997 17.204C116.997 18.086 117.172 18.856 117.522 19.514C117.872 20.158 118.341 20.655 118.929 21.005C119.517 21.341 120.168 21.509 120.882 21.509C121.596 21.509 122.247 21.341 122.835 21.005C123.437 20.655 123.913 20.158 124.263 19.514C124.613 18.856 124.788 18.093 124.788 17.225ZM140.449 16.805C140.449 17.169 140.428 17.554 140.386 17.96H131.188C131.258 19.094 131.643 19.983 132.343 20.627C133.057 21.257 133.918 21.572 134.926 21.572C135.752 21.572 136.438 21.383 136.984 21.005C137.544 20.613 137.936 20.095 138.16 19.451H140.218C139.91 20.557 139.294 21.46 138.37 22.16C137.446 22.846 136.298 23.189 134.926 23.189C133.834 23.189 132.854 22.944 131.986 22.454C131.132 21.964 130.46 21.271 129.97 20.375C129.48 19.465 129.235 18.415 129.235 17.225C129.235 16.035 129.473 14.992 129.949 14.096C130.425 13.2 131.09 12.514 131.944 12.038C132.812 11.548 133.806 11.303 134.926 11.303C136.018 11.303 136.984 11.541 137.824 12.017C138.664 12.493 139.308 13.151 139.756 13.991C140.218 14.817 140.449 15.755 140.449 16.805ZM138.475 16.406C138.475 15.678 138.314 15.055 137.992 14.537C137.67 14.005 137.229 13.606 136.669 13.34C136.123 13.06 135.514 12.92 134.842 12.92C133.876 12.92 133.05 13.228 132.364 13.844C131.692 14.46 131.307 15.314 131.209 16.406H138.475ZM144.882 13.361C145.218 12.703 145.694 12.192 146.31 11.828C146.94 11.464 147.703 11.282 148.599 11.282V13.256H148.095C145.953 13.256 144.882 14.418 144.882 16.742V23H142.971V11.492H144.882V13.361ZM150.091 17.225C150.091 16.035 150.329 14.999 150.805 14.117C151.281 13.221 151.939 12.528 152.779 12.038C153.633 11.548 154.606 11.303 155.698 11.303C157.112 11.303 158.274 11.646 159.184 12.332C160.108 13.018 160.717 13.97 161.011 15.188H158.953C158.757 14.488 158.372 13.935 157.798 13.529C157.238 13.123 156.538 12.92 155.698 12.92C154.606 12.92 153.724 13.298 153.052 14.054C152.38 14.796 152.044 15.853 152.044 17.225C152.044 18.611 152.38 19.682 153.052 20.438C153.724 21.194 154.606 21.572 155.698 21.572C156.538 21.572 157.238 21.376 157.798 20.984C158.358 20.592 158.743 20.032 158.953 19.304H161.011C160.703 20.48 160.087 21.425 159.163 22.139C158.239 22.839 157.084 23.189 155.698 23.189C154.606 23.189 153.633 22.944 152.779 22.454C151.939 21.964 151.281 21.271 150.805 20.375C150.329 19.479 150.091 18.429 150.091 17.225ZM169.273 11.282C170.141 11.282 170.925 11.471 171.625 11.849C172.325 12.213 172.871 12.766 173.263 13.508C173.669 14.25 173.872 15.153 173.872 16.217V23H171.982V16.49C171.982 15.342 171.695 14.467 171.121 13.865C170.547 13.249 169.763 12.941 168.769 12.941C167.761 12.941 166.956 13.256 166.354 13.886C165.766 14.516 165.472 15.433 165.472 16.637V23H163.561V7.46H165.472V13.13C165.85 12.542 166.368 12.087 167.026 11.765C167.698 11.443 168.447 11.282 169.273 11.282ZM187.2 11.492V23H185.289V21.299C184.925 21.887 184.414 22.349 183.756 22.685C183.112 23.007 182.398 23.168 181.614 23.168C180.718 23.168 179.913 22.986 179.199 22.622C178.485 22.244 177.918 21.684 177.498 20.942C177.092 20.2 176.889 19.297 176.889 18.233V11.492H178.779V17.981C178.779 19.115 179.066 19.99 179.64 20.606C180.214 21.208 180.998 21.509 181.992 21.509C183.014 21.509 183.819 21.194 184.407 20.564C184.995 19.934 185.289 19.017 185.289 17.813V11.492H187.2ZM196.853 23L192.338 17.918V23H190.427V7.46H192.338V16.595L196.769 11.492H199.436L194.018 17.225L199.457 23H196.853Z" fill="white"/>
<path d="M51.296 148.344C43.808 148.344 37.664 146.232 32.864 142.008C28.064 137.784 25.664 132.12 25.664 125.016V79.8H38.816V123.96C38.816 127.48 39.808 130.264 41.792 132.312C43.84 134.36 47.008 135.384 51.296 135.384C55.584 135.384 58.72 134.36 60.704 132.312C62.752 130.264 63.776 127.48 63.776 123.96V79.8H77.024V125.016C77.024 132.12 74.624 137.784 69.824 142.008C65.024 146.232 58.848 148.344 51.296 148.344ZM139.096 147H124.024L110.968 125.112L97.9115 147H82.9355L103.48 112.536L83.9915 79.8H98.9675L110.968 99.96L122.968 79.8H137.944L118.456 112.44L139.096 147ZM148.921 156.6H143.449L181.849 70.2H187.321L148.921 156.6ZM221.827 148.344C214.339 148.344 208.195 146.232 203.395 142.008C198.595 137.784 196.195 132.12 196.195 125.016V79.8H209.347V123.96C209.347 127.48 210.339 130.264 212.323 132.312C214.371 134.36 217.539 135.384 221.827 135.384C226.115 135.384 229.251 134.36 231.235 132.312C233.283 130.264 234.307 127.48 234.307 123.96V79.8H247.555V125.016C247.555 132.12 245.155 137.784 240.355 142.008C235.555 146.232 229.379 148.344 221.827 148.344ZM259.49 79.8H272.738V147H259.49V79.8Z" fill="white"/>
<rect x="286.5" y="60.5" width="11" height="11" fill="white" stroke="#2D7DF7" stroke-width="3"/>
<rect x="286.5" y="153.5" width="11" height="11" fill="white" stroke="#2D7DF7" stroke-width="3"/>
<path d="M244.708 52.6603C245.248 53.7828 244.235 55.0675 242.99 54.7581L217.841 48.5017L217.725 48.4679C216.553 48.0808 216.321 46.4811 217.386 45.7883L225.807 40.3067C225.905 40.2427 225.978 40.1464 226.012 40.0344L228.952 30.4259C229.335 29.1724 231.029 28.9787 231.685 30.1137L244.651 52.5526L244.708 52.6603Z" fill="#A957F2" stroke="white"/>
<rect x="1.5" y="60.5" width="11" height="11" fill="white" stroke="#2D7DF7" stroke-width="3"/>
<rect x="1.5" y="153.5" width="11" height="11" fill="white" stroke="#2D7DF7" stroke-width="3"/>
</svg>
