<svg width="348" height="251" viewBox="0 0 348 251" fill="none" xmlns="http://www.w3.org/2000/svg">
<rect x="2.5" y="61.5" width="7" height="7" fill="white" stroke="#2D7DF7"/>
<rect x="7.5" y="66.5" width="284" height="93" stroke="#2D7DF7" stroke-width="3"/>
<path d="M45.44 177C53.12 177 59.52 179.693 64.64 185.08C69.8133 190.467 72.4 197.107 72.4 205C72.4 212.893 69.8133 219.533 64.64 224.92C59.52 230.307 53.12 233 45.44 233H23.2V177H45.44ZM45.44 222.44C50.2933 222.44 54.24 220.84 57.28 217.64C60.32 214.387 61.84 210.173 61.84 205C61.84 199.827 60.32 195.64 57.28 192.44C54.24 189.187 50.2933 187.56 45.44 187.56H34.24V222.44H45.44ZM88.4713 217.24C89.8579 222.253 93.6179 224.76 99.7513 224.76C103.698 224.76 106.685 223.427 108.711 220.76L117.031 225.56C113.085 231.267 107.271 234.12 99.5913 234.12C92.9779 234.12 87.6713 232.12 83.6713 228.12C79.6713 224.12 77.6712 219.08 77.6712 213C77.6712 206.973 79.6446 201.96 83.5913 197.96C87.5379 193.907 92.6046 191.88 98.7913 191.88C104.658 191.88 109.485 193.907 113.271 197.96C117.111 202.013 119.031 207.027 119.031 213C119.031 214.333 118.898 215.747 118.631 217.24H88.4713ZM88.3113 209.24H108.711C108.125 206.52 106.898 204.493 105.031 203.16C103.218 201.827 101.138 201.16 98.7913 201.16C96.0179 201.16 93.7246 201.88 91.9113 203.32C90.0979 204.707 88.8979 206.68 88.3113 209.24ZM134.193 204.36C134.193 205.427 134.886 206.307 136.273 207C137.713 207.64 139.446 208.227 141.473 208.76C143.5 209.24 145.526 209.88 147.553 210.68C149.58 211.427 151.286 212.707 152.673 214.52C154.113 216.333 154.833 218.6 154.833 221.32C154.833 225.427 153.286 228.6 150.193 230.84C147.153 233.027 143.34 234.12 138.753 234.12C130.54 234.12 124.94 230.947 121.953 224.6L130.913 219.56C132.086 223.027 134.7 224.76 138.753 224.76C142.433 224.76 144.273 223.613 144.273 221.32C144.273 220.253 143.553 219.4 142.113 218.76C140.726 218.067 139.02 217.453 136.993 216.92C134.966 216.387 132.94 215.72 130.913 214.92C128.886 214.12 127.153 212.867 125.713 211.16C124.326 209.4 123.633 207.213 123.633 204.6C123.633 200.653 125.073 197.56 127.953 195.32C130.886 193.027 134.513 191.88 138.833 191.88C142.086 191.88 145.046 192.627 147.713 194.12C150.38 195.56 152.486 197.64 154.033 200.36L145.233 205.16C143.953 202.44 141.82 201.08 138.833 201.08C137.5 201.08 136.38 201.373 135.473 201.96C134.62 202.547 134.193 203.347 134.193 204.36ZM166.59 188.2C164.883 188.2 163.39 187.587 162.11 186.36C160.883 185.08 160.27 183.587 160.27 181.88C160.27 180.173 160.883 178.68 162.11 177.4C163.39 176.12 164.883 175.48 166.59 175.48C168.35 175.48 169.843 176.12 171.07 177.4C172.35 178.68 172.99 180.173 172.99 181.88C172.99 183.587 172.35 185.08 171.07 186.36C169.843 187.587 168.35 188.2 166.59 188.2ZM161.47 233V193H171.79V233H161.47ZM211.876 193H221.956V231.08C221.956 237.267 219.902 241.987 215.796 245.24C211.742 248.493 206.836 250.12 201.076 250.12C196.756 250.12 192.942 249.293 189.636 247.64C186.382 245.987 183.876 243.56 182.116 240.36L190.916 235.32C192.942 239.053 196.436 240.92 201.396 240.92C204.649 240.92 207.209 240.067 209.076 238.36C210.942 236.653 211.876 234.227 211.876 231.08V226.76C208.836 230.813 204.569 232.84 199.076 232.84C193.422 232.84 188.676 230.867 184.836 226.92C181.049 222.92 179.156 218.067 179.156 212.36C179.156 206.707 181.076 201.88 184.916 197.88C188.756 193.88 193.476 191.88 199.076 191.88C204.569 191.88 208.836 193.907 211.876 197.96V193ZM192.596 220.28C194.729 222.307 197.422 223.32 200.676 223.32C203.929 223.32 206.596 222.307 208.676 220.28C210.809 218.2 211.876 215.56 211.876 212.36C211.876 209.213 210.809 206.627 208.676 204.6C206.596 202.52 203.929 201.48 200.676 201.48C197.422 201.48 194.729 202.52 192.596 204.6C190.516 206.627 189.476 209.213 189.476 212.36C189.476 215.56 190.516 218.2 192.596 220.28ZM253.554 191.88C257.927 191.88 261.527 193.347 264.354 196.28C267.234 199.213 268.674 203.267 268.674 208.44V233H258.354V209.72C258.354 207.053 257.634 205.027 256.194 203.64C254.754 202.2 252.834 201.48 250.434 201.48C247.767 201.48 245.634 202.307 244.034 203.96C242.434 205.613 241.634 208.093 241.634 211.4V233H231.314V193H241.634V197.48C244.14 193.747 248.114 191.88 253.554 191.88ZM286.206 217.24C287.592 222.253 291.352 224.76 297.486 224.76C301.432 224.76 304.419 223.427 306.446 220.76L314.766 225.56C310.819 231.267 305.006 234.12 297.326 234.12C290.712 234.12 285.406 232.12 281.406 228.12C277.406 224.12 275.406 219.08 275.406 213C275.406 206.973 277.379 201.96 281.326 197.96C285.272 193.907 290.339 191.88 296.526 191.88C302.392 191.88 307.219 193.907 311.006 197.96C314.846 202.013 316.766 207.027 316.766 213C316.766 214.333 316.632 215.747 316.366 217.24H286.206ZM286.046 209.24H306.446C305.859 206.52 304.632 204.493 302.766 203.16C300.952 201.827 298.872 201.16 296.526 201.16C293.752 201.16 291.459 201.88 289.646 203.32C287.832 204.707 286.632 206.68 286.046 209.24ZM334.29 199.88C335.25 197.32 336.823 195.4 339.01 194.12C341.25 192.84 343.73 192.2 346.45 192.2V203.72C343.303 203.347 340.477 203.987 337.97 205.64C335.517 207.293 334.29 210.04 334.29 213.88V233H323.97V193H334.29V199.88Z" fill="white"/>
<rect x="20" width="193" height="32" rx="4" fill="#A957F2"/>
<path d="M52.464 8.468V23H50.553V12.164L45.723 23H44.379L39.528 12.143V23H37.617V8.468H39.675L45.051 20.48L50.427 8.468H52.464ZM54.9909 17.204C54.9909 16.028 55.2289 14.999 55.7049 14.117C56.1809 13.221 56.8319 12.528 57.6579 12.038C58.4979 11.548 59.4289 11.303 60.4509 11.303C61.4589 11.303 62.3339 11.52 63.0759 11.954C63.8179 12.388 64.3709 12.934 64.7349 13.592V11.492H66.6669V23H64.7349V20.858C64.3569 21.53 63.7899 22.09 63.0339 22.538C62.2919 22.972 61.4239 23.189 60.4299 23.189C59.4079 23.189 58.4839 22.937 57.6579 22.433C56.8319 21.929 56.1809 21.222 55.7049 20.312C55.2289 19.402 54.9909 18.366 54.9909 17.204ZM64.7349 17.225C64.7349 16.357 64.5599 15.601 64.2099 14.957C63.8599 14.313 63.3839 13.823 62.7819 13.487C62.1939 13.137 61.5429 12.962 60.8289 12.962C60.1149 12.962 59.4639 13.13 58.8759 13.466C58.2879 13.802 57.8189 14.292 57.4689 14.936C57.1189 15.58 56.9439 16.336 56.9439 17.204C56.9439 18.086 57.1189 18.856 57.4689 19.514C57.8189 20.158 58.2879 20.655 58.8759 21.005C59.4639 21.341 60.1149 21.509 60.8289 21.509C61.5429 21.509 62.1939 21.341 62.7819 21.005C63.3839 20.655 63.8599 20.158 64.2099 19.514C64.5599 18.856 64.7349 18.093 64.7349 17.225ZM75.9023 23L73.1723 18.716L70.5473 23H68.5523L72.2693 17.288L68.5523 11.492H70.7153L73.4453 15.755L76.0493 11.492H78.0443L74.3483 17.183L78.0653 23H75.9023ZM97.6398 8.363L92.1168 23H89.9118L84.3888 8.363H86.4258L91.0248 20.984L95.6238 8.363H97.6398ZM110.235 16.805C110.235 17.169 110.214 17.554 110.172 17.96H100.974C101.044 19.094 101.429 19.983 102.129 20.627C102.843 21.257 103.704 21.572 104.712 21.572C105.538 21.572 106.224 21.383 106.77 21.005C107.33 20.613 107.722 20.095 107.946 19.451H110.004C109.696 20.557 109.08 21.46 108.156 22.16C107.232 22.846 106.084 23.189 104.712 23.189C103.62 23.189 102.64 22.944 101.772 22.454C100.918 21.964 100.246 21.271 99.7562 20.375C99.2662 19.465 99.0212 18.415 99.0212 17.225C99.0212 16.035 99.2592 14.992 99.7352 14.096C100.211 13.2 100.876 12.514 101.73 12.038C102.598 11.548 103.592 11.303 104.712 11.303C105.804 11.303 106.77 11.541 107.61 12.017C108.45 12.493 109.094 13.151 109.542 13.991C110.004 14.817 110.235 15.755 110.235 16.805ZM108.261 16.406C108.261 15.678 108.1 15.055 107.778 14.537C107.456 14.005 107.015 13.606 106.455 13.34C105.909 13.06 105.3 12.92 104.628 12.92C103.662 12.92 102.836 13.228 102.15 13.844C101.478 14.46 101.093 15.314 100.995 16.406H108.261ZM117.504 11.303C118.498 11.303 119.366 11.52 120.108 11.954C120.864 12.388 121.424 12.934 121.788 13.592V11.492H123.72V23.252C123.72 24.302 123.496 25.233 123.048 26.045C122.6 26.871 121.956 27.515 121.116 27.977C120.29 28.439 119.324 28.67 118.218 28.67C116.706 28.67 115.446 28.313 114.438 27.599C113.43 26.885 112.835 25.912 112.653 24.68H114.543C114.753 25.38 115.187 25.94 115.845 26.36C116.503 26.794 117.294 27.011 118.218 27.011C119.268 27.011 120.122 26.682 120.78 26.024C121.452 25.366 121.788 24.442 121.788 23.252V20.837C121.41 21.509 120.85 22.069 120.108 22.517C119.366 22.965 118.498 23.189 117.504 23.189C116.482 23.189 115.551 22.937 114.711 22.433C113.885 21.929 113.234 21.222 112.758 20.312C112.282 19.402 112.044 18.366 112.044 17.204C112.044 16.028 112.282 14.999 112.758 14.117C113.234 13.221 113.885 12.528 114.711 12.038C115.551 11.548 116.482 11.303 117.504 11.303ZM121.788 17.225C121.788 16.357 121.613 15.601 121.263 14.957C120.913 14.313 120.437 13.823 119.835 13.487C119.247 13.137 118.596 12.962 117.882 12.962C117.168 12.962 116.517 13.13 115.929 13.466C115.341 13.802 114.872 14.292 114.522 14.936C114.172 15.58 113.997 16.336 113.997 17.204C113.997 18.086 114.172 18.856 114.522 19.514C114.872 20.158 115.341 20.655 115.929 21.005C116.517 21.341 117.168 21.509 117.882 21.509C118.596 21.509 119.247 21.341 119.835 21.005C120.437 20.655 120.913 20.158 121.263 19.514C121.613 18.856 121.788 18.093 121.788 17.225ZM137.449 16.805C137.449 17.169 137.428 17.554 137.386 17.96H128.188C128.258 19.094 128.643 19.983 129.343 20.627C130.057 21.257 130.918 21.572 131.926 21.572C132.752 21.572 133.438 21.383 133.984 21.005C134.544 20.613 134.936 20.095 135.16 19.451H137.218C136.91 20.557 136.294 21.46 135.37 22.16C134.446 22.846 133.298 23.189 131.926 23.189C130.834 23.189 129.854 22.944 128.986 22.454C128.132 21.964 127.46 21.271 126.97 20.375C126.48 19.465 126.235 18.415 126.235 17.225C126.235 16.035 126.473 14.992 126.949 14.096C127.425 13.2 128.09 12.514 128.944 12.038C129.812 11.548 130.806 11.303 131.926 11.303C133.018 11.303 133.984 11.541 134.824 12.017C135.664 12.493 136.308 13.151 136.756 13.991C137.218 14.817 137.449 15.755 137.449 16.805ZM135.475 16.406C135.475 15.678 135.314 15.055 134.992 14.537C134.67 14.005 134.229 13.606 133.669 13.34C133.123 13.06 132.514 12.92 131.842 12.92C130.876 12.92 130.05 13.228 129.364 13.844C128.692 14.46 128.307 15.314 128.209 16.406H135.475ZM141.882 13.361C142.218 12.703 142.694 12.192 143.31 11.828C143.94 11.464 144.703 11.282 145.599 11.282V13.256H145.095C142.953 13.256 141.882 14.418 141.882 16.742V23H139.971V11.492H141.882V13.361ZM147.091 17.225C147.091 16.035 147.329 14.999 147.805 14.117C148.281 13.221 148.939 12.528 149.779 12.038C150.633 11.548 151.606 11.303 152.698 11.303C154.112 11.303 155.274 11.646 156.184 12.332C157.108 13.018 157.717 13.97 158.011 15.188H155.953C155.757 14.488 155.372 13.935 154.798 13.529C154.238 13.123 153.538 12.92 152.698 12.92C151.606 12.92 150.724 13.298 150.052 14.054C149.38 14.796 149.044 15.853 149.044 17.225C149.044 18.611 149.38 19.682 150.052 20.438C150.724 21.194 151.606 21.572 152.698 21.572C153.538 21.572 154.238 21.376 154.798 20.984C155.358 20.592 155.743 20.032 155.953 19.304H158.011C157.703 20.48 157.087 21.425 156.163 22.139C155.239 22.839 154.084 23.189 152.698 23.189C151.606 23.189 150.633 22.944 149.779 22.454C148.939 21.964 148.281 21.271 147.805 20.375C147.329 19.479 147.091 18.429 147.091 17.225ZM166.273 11.282C167.141 11.282 167.925 11.471 168.625 11.849C169.325 12.213 169.871 12.766 170.263 13.508C170.669 14.25 170.872 15.153 170.872 16.217V23H168.982V16.49C168.982 15.342 168.695 14.467 168.121 13.865C167.547 13.249 166.763 12.941 165.769 12.941C164.761 12.941 163.956 13.256 163.354 13.886C162.766 14.516 162.472 15.433 162.472 16.637V23H160.561V7.46H162.472V13.13C162.85 12.542 163.368 12.087 164.026 11.765C164.698 11.443 165.447 11.282 166.273 11.282ZM184.2 11.492V23H182.289V21.299C181.925 21.887 181.414 22.349 180.756 22.685C180.112 23.007 179.398 23.168 178.614 23.168C177.718 23.168 176.913 22.986 176.199 22.622C175.485 22.244 174.918 21.684 174.498 20.942C174.092 20.2 173.889 19.297 173.889 18.233V11.492H175.779V17.981C175.779 19.115 176.066 19.99 176.64 20.606C177.214 21.208 177.998 21.509 178.992 21.509C180.014 21.509 180.819 21.194 181.407 20.564C181.995 19.934 182.289 19.017 182.289 17.813V11.492H184.2ZM193.853 23L189.338 17.918V23H187.427V7.46H189.338V16.595L193.769 11.492H196.436L191.018 17.225L196.457 23H193.853Z" fill="white"/>
<path d="M51.296 148.344C43.808 148.344 37.664 146.232 32.864 142.008C28.064 137.784 25.664 132.12 25.664 125.016V79.8H38.816V123.96C38.816 127.48 39.808 130.264 41.792 132.312C43.84 134.36 47.008 135.384 51.296 135.384C55.584 135.384 58.72 134.36 60.704 132.312C62.752 130.264 63.776 127.48 63.776 123.96V79.8H77.024V125.016C77.024 132.12 74.624 137.784 69.824 142.008C65.024 146.232 58.848 148.344 51.296 148.344ZM139.096 147H124.024L110.968 125.112L97.9115 147H82.9355L103.48 112.536L83.9915 79.8H98.9675L110.968 99.96L122.968 79.8H137.944L118.456 112.44L139.096 147ZM148.921 156.6H143.449L181.849 70.2H187.321L148.921 156.6ZM221.827 148.344C214.339 148.344 208.195 146.232 203.395 142.008C198.595 137.784 196.195 132.12 196.195 125.016V79.8H209.347V123.96C209.347 127.48 210.339 130.264 212.323 132.312C214.371 134.36 217.539 135.384 221.827 135.384C226.115 135.384 229.251 134.36 231.235 132.312C233.283 130.264 234.307 127.48 234.307 123.96V79.8H247.555V125.016C247.555 132.12 245.155 137.784 240.355 142.008C235.555 146.232 229.379 148.344 221.827 148.344ZM259.49 79.8H272.738V147H259.49V79.8Z" fill="white"/>
<rect x="286.5" y="60.5" width="11" height="11" fill="white" stroke="#2D7DF7" stroke-width="3"/>
<rect x="286.5" y="153.5" width="11" height="11" fill="white" stroke="#2D7DF7" stroke-width="3"/>
<path d="M222.211 45.3773L231.453 38.1477L231.611 38.0238L231.64 37.8238L233.28 26.2047L252.808 50.2607L222.211 45.3773Z" fill="#A957F2" stroke="white"/>
<rect x="1.5" y="60.5" width="11" height="11" fill="white" stroke="#2D7DF7" stroke-width="3"/>
<rect x="1.5" y="153.5" width="11" height="11" fill="white" stroke="#2D7DF7" stroke-width="3"/>
</svg>
