<svg width="24" height="24" viewBox="0 0 24 24" fill="none" xmlns="http://www.w3.org/2000/svg">
<path d="M20 2C21.1046 2 22 2.89543 22 4V20C22 21.1046 21.1046 22 20 22H4C2.89543 22 2 21.1046 2 20V4C2 2.89543 2.89543 2 4 2H20ZM14.4746 6.04199C13.4839 5.98579 10.5161 5.98579 9.52539 6.04199C8.56711 6.08751 7.71574 6.30743 7.01172 7.00879C6.30765 7.71034 6.09018 8.56215 6.04199 9.52344C5.98579 10.5145 5.98578 13.484 6.04199 14.4746C6.08755 15.4357 6.30775 16.2868 7.01172 16.9883C7.71577 17.6897 8.56437 17.9098 9.52539 17.958C10.5161 18.0142 13.4839 18.0142 14.4746 17.958C15.4356 17.9125 16.2869 17.6924 16.9883 16.9883C17.6896 16.2868 17.9098 15.4357 17.958 14.4746C18.0142 13.4839 18.0142 10.5161 17.958 9.52539C17.9125 8.56428 17.6922 7.71317 16.9883 7.01172C16.2869 6.31026 15.4356 6.09019 14.4746 6.04199ZM12.001 7.08105C12.8737 7.08105 14.751 7.01166 15.5381 7.32227C16.0626 7.53115 16.4663 7.93554 16.6777 8.46289C16.991 9.2528 16.9189 11.1271 16.9189 12C16.9189 12.8729 16.991 14.7499 16.6777 15.5371C16.469 16.0618 16.0653 16.4662 15.5381 16.6777C14.7483 16.991 12.8737 16.9189 12.001 16.9189C11.1281 16.919 9.2518 16.9883 8.46484 16.6777C7.9402 16.4689 7.53569 16.0646 7.32422 15.5371C7.01108 14.7471 7.08398 12.8729 7.08398 12C7.08398 11.1271 7.01376 9.25023 7.32422 8.46289C7.53301 7.93811 7.93752 7.53382 8.46484 7.32227C9.25447 7.00902 11.1281 7.08103 12.001 7.08105ZM12.001 8.92383C10.2985 8.92402 8.92578 10.2971 8.92578 12C8.92578 13.7029 10.2985 15.076 12.001 15.0762C13.7036 15.0762 15.0771 13.703 15.0771 12C15.0771 10.297 13.7036 8.92383 12.001 8.92383ZM12.001 10C13.1039 10 14.001 10.8968 14.001 12C14.001 13.1032 13.1013 14 12.001 14C10.9009 13.9998 10.002 13.1031 10.002 12C10.002 10.8969 10.8982 10.0002 12.001 10ZM15.2031 8.08008C14.8069 8.08008 14.4854 8.40156 14.4854 8.79785C14.4855 9.19399 14.8044 9.51465 15.2031 9.51465C15.5992 9.51465 15.9207 9.19666 15.9209 8.79785C15.9209 8.40156 15.5993 8.08008 15.2031 8.08008Z" fill="white"/>
</svg>
