<svg width="44" height="44" viewBox="0 0 44 44" fill="none" xmlns="http://www.w3.org/2000/svg">
<circle cx="22" cy="22" r="12" fill="white"/>
<path fill-rule="evenodd" clip-rule="evenodd" d="M27 22C27 22.4142 26.6642 22.75 26.25 22.75H19.6121L21.7698 24.7094C22.0684 24.9965 22.0777 25.4713 21.7906 25.7698C21.5035 26.0684 21.0287 26.0777 20.7302 25.7906L17.2302 22.5406C17.0831 22.3992 17 22.204 17 22C17 21.796 17.0831 21.6008 17.2302 21.4594L20.7302 18.2094C21.0287 17.9223 21.5035 17.9316 21.7906 18.2302C22.0777 18.5287 22.0684 19.0035 21.7698 19.2906L19.6121 21.25L26.25 21.25C26.6642 21.25 27 21.5858 27 22Z" fill="#333333"/>
</svg>
