<svg width="44" height="44" viewBox="0 0 44 44" fill="none" xmlns="http://www.w3.org/2000/svg">
<circle cx="22" cy="22" r="12" transform="rotate(-180 22 22)" fill="white"/>
<path fill-rule="evenodd" clip-rule="evenodd" d="M17 22C17 21.5858 17.3358 21.25 17.75 21.25L24.3879 21.25L22.2302 19.2906C21.9316 19.0035 21.9223 18.5287 22.2094 18.2302C22.4965 17.9316 22.9713 17.9223 23.2698 18.2094L26.7698 21.4594C26.9169 21.6008 27 21.796 27 22C27 22.204 26.9169 22.3992 26.7698 22.5406L23.2698 25.7906C22.9713 26.0777 22.4965 26.0684 22.2094 25.7698C21.9223 25.4713 21.9316 24.9965 22.2302 24.7094L24.3879 22.75L17.75 22.75C17.3358 22.75 17 22.4142 17 22Z" fill="#333333"/>
</svg>
