<svg width="32" height="32" viewBox="0 0 32 32" fill="none" xmlns="http://www.w3.org/2000/svg">
<path d="M2.66699 27.9993C2.66688 25.9464 3.25917 23.9371 4.37279 22.2125C5.4864 20.4879 7.07402 19.1213 8.94512 18.2766C10.8162 17.432 12.8913 17.1453 14.9213 17.4509C16.9514 17.7564 18.8501 18.6413 20.3897 19.9993" stroke="black" stroke-width="2" stroke-linecap="round" stroke-linejoin="round"/>
<path d="M13.3337 17.3333C17.0156 17.3333 20.0003 14.3486 20.0003 10.6667C20.0003 6.98477 17.0156 4 13.3337 4C9.65176 4 6.66699 6.98477 6.66699 10.6667C6.66699 14.3486 9.65176 17.3333 13.3337 17.3333Z" stroke="black" stroke-width="2" stroke-linecap="round" stroke-linejoin="round"/>
<path d="M21.333 25.3346L23.9997 28.0013L29.333 22.668" stroke="black" stroke-width="2" stroke-linecap="round" stroke-linejoin="round"/>
</svg>
