<svg width="32" height="32" viewBox="0 0 32 32" fill="none" xmlns="http://www.w3.org/2000/svg">
<path d="M8 29.332C10.2091 29.332 12 27.5412 12 25.332C12 23.1229 10.2091 21.332 8 21.332C5.79086 21.332 4 23.1229 4 25.332C4 27.5412 5.79086 29.332 8 29.332Z" stroke="black" stroke-width="2" stroke-linecap="round" stroke-linejoin="round"/>
<path d="M12 25.3346H23.3333C24.571 25.3346 25.758 24.843 26.6332 23.9678C27.5083 23.0926 28 21.9056 28 20.668C28 19.4303 27.5083 18.2433 26.6332 17.3681C25.758 16.493 24.571 16.0013 23.3333 16.0013H8.66667C7.42899 16.0013 6.24201 15.5096 5.36684 14.6345C4.49167 13.7593 4 12.5723 4 11.3346C4 10.097 4.49167 8.90997 5.36684 8.0348C6.24201 7.15963 7.42899 6.66797 8.66667 6.66797H20" stroke="black" stroke-width="2" stroke-linecap="round" stroke-linejoin="round"/>
<path d="M24 10.668C26.2091 10.668 28 8.87711 28 6.66797C28 4.45883 26.2091 2.66797 24 2.66797C21.7909 2.66797 20 4.45883 20 6.66797C20 8.87711 21.7909 10.668 24 10.668Z" stroke="black" stroke-width="2" stroke-linecap="round" stroke-linejoin="round"/>
</svg>
